<?xml version="1.0" encoding="utf-8"?>
<svg xmlns="http://www.w3.org/2000/svg" xmlns:xlink="http://www.w3.org/1999/xlink" width="600" height="400" viewBox="0 0 2400 1600">
<defs>
  <clipPath id="clip810">
    <rect x="0" y="0" width="2400" height="1600"/>
  </clipPath>
</defs>
<path clip-path="url(#clip810)" d="M0 1600 L2400 1600 L2400 0 L0 0  Z" fill="#ffffff" fill-rule="evenodd" fill-opacity="1"/>
<defs>
  <clipPath id="clip811">
    <rect x="480" y="0" width="1681" height="1600"/>
  </clipPath>
</defs>
<path clip-path="url(#clip810)" d="M235.283 1423.18 L2352.76 1423.18 L2352.76 123.472 L235.283 123.472  Z" fill="#ffffff" fill-rule="evenodd" fill-opacity="1"/>
<defs>
  <clipPath id="clip812">
    <rect x="235" y="123" width="2118" height="1301"/>
  </clipPath>
</defs>
<polyline clip-path="url(#clip812)" style="stroke:#000000; stroke-linecap:round; stroke-linejoin:round; stroke-width:2; stroke-opacity:0.1; fill:none" points="302.154,1423.18 302.154,123.472 "/>
<polyline clip-path="url(#clip812)" style="stroke:#000000; stroke-linecap:round; stroke-linejoin:round; stroke-width:2; stroke-opacity:0.1; fill:none" points="798.087,1423.18 798.087,123.472 "/>
<polyline clip-path="url(#clip812)" style="stroke:#000000; stroke-linecap:round; stroke-linejoin:round; stroke-width:2; stroke-opacity:0.1; fill:none" points="1294.02,1423.18 1294.02,123.472 "/>
<polyline clip-path="url(#clip812)" style="stroke:#000000; stroke-linecap:round; stroke-linejoin:round; stroke-width:2; stroke-opacity:0.1; fill:none" points="1789.95,1423.18 1789.95,123.472 "/>
<polyline clip-path="url(#clip812)" style="stroke:#000000; stroke-linecap:round; stroke-linejoin:round; stroke-width:2; stroke-opacity:0.1; fill:none" points="2285.88,1423.18 2285.88,123.472 "/>
<polyline clip-path="url(#clip812)" style="stroke:#000000; stroke-linecap:round; stroke-linejoin:round; stroke-width:2; stroke-opacity:0.1; fill:none" points="235.283,1423.18 2352.76,1423.18 "/>
<polyline clip-path="url(#clip812)" style="stroke:#000000; stroke-linecap:round; stroke-linejoin:round; stroke-width:2; stroke-opacity:0.1; fill:none" points="235.283,1098.66 2352.76,1098.66 "/>
<polyline clip-path="url(#clip812)" style="stroke:#000000; stroke-linecap:round; stroke-linejoin:round; stroke-width:2; stroke-opacity:0.1; fill:none" points="235.283,774.137 2352.76,774.137 "/>
<polyline clip-path="url(#clip812)" style="stroke:#000000; stroke-linecap:round; stroke-linejoin:round; stroke-width:2; stroke-opacity:0.1; fill:none" points="235.283,449.616 2352.76,449.616 "/>
<polyline clip-path="url(#clip812)" style="stroke:#000000; stroke-linecap:round; stroke-linejoin:round; stroke-width:2; stroke-opacity:0.1; fill:none" points="235.283,125.095 2352.76,125.095 "/>
<polyline clip-path="url(#clip810)" style="stroke:#000000; stroke-linecap:round; stroke-linejoin:round; stroke-width:4; stroke-opacity:1; fill:none" points="235.283,1423.18 2352.76,1423.18 "/>
<polyline clip-path="url(#clip810)" style="stroke:#000000; stroke-linecap:round; stroke-linejoin:round; stroke-width:4; stroke-opacity:1; fill:none" points="302.154,1423.18 302.154,1404.28 "/>
<polyline clip-path="url(#clip810)" style="stroke:#000000; stroke-linecap:round; stroke-linejoin:round; stroke-width:4; stroke-opacity:1; fill:none" points="798.087,1423.18 798.087,1404.28 "/>
<polyline clip-path="url(#clip810)" style="stroke:#000000; stroke-linecap:round; stroke-linejoin:round; stroke-width:4; stroke-opacity:1; fill:none" points="1294.02,1423.18 1294.02,1404.28 "/>
<polyline clip-path="url(#clip810)" style="stroke:#000000; stroke-linecap:round; stroke-linejoin:round; stroke-width:4; stroke-opacity:1; fill:none" points="1789.95,1423.18 1789.95,1404.28 "/>
<polyline clip-path="url(#clip810)" style="stroke:#000000; stroke-linecap:round; stroke-linejoin:round; stroke-width:4; stroke-opacity:1; fill:none" points="2285.88,1423.18 2285.88,1404.28 "/>
<path clip-path="url(#clip810)" d="M271.055 1468.75 L300.731 1468.75 L300.731 1472.69 L271.055 1472.69 L271.055 1468.75 Z" fill="#000000" fill-rule="nonzero" fill-opacity="1" /><path clip-path="url(#clip810)" d="M323.67 1455.09 L311.865 1473.54 L323.67 1473.54 L323.67 1455.09 M322.444 1451.02 L328.323 1451.02 L328.323 1473.54 L333.254 1473.54 L333.254 1477.43 L328.323 1477.43 L328.323 1485.58 L323.67 1485.58 L323.67 1477.43 L308.069 1477.43 L308.069 1472.92 L322.444 1451.02 Z" fill="#000000" fill-rule="nonzero" fill-opacity="1" /><path clip-path="url(#clip810)" d="M768.029 1468.75 L797.705 1468.75 L797.705 1472.69 L768.029 1472.69 L768.029 1468.75 Z" fill="#000000" fill-rule="nonzero" fill-opacity="1" /><path clip-path="url(#clip810)" d="M811.825 1481.64 L828.145 1481.64 L828.145 1485.58 L806.2 1485.58 L806.2 1481.64 Q808.862 1478.89 813.446 1474.26 Q818.052 1469.61 819.233 1468.27 Q821.478 1465.74 822.358 1464.01 Q823.26 1462.25 823.26 1460.56 Q823.26 1457.8 821.316 1456.07 Q819.395 1454.33 816.293 1454.33 Q814.094 1454.33 811.64 1455.09 Q809.21 1455.86 806.432 1457.41 L806.432 1452.69 Q809.256 1451.55 811.709 1450.97 Q814.163 1450.39 816.2 1450.39 Q821.571 1450.39 824.765 1453.08 Q827.959 1455.77 827.959 1460.26 Q827.959 1462.39 827.149 1464.31 Q826.362 1466.2 824.256 1468.8 Q823.677 1469.47 820.575 1472.69 Q817.473 1475.88 811.825 1481.64 Z" fill="#000000" fill-rule="nonzero" fill-opacity="1" /><path clip-path="url(#clip810)" d="M1294.02 1454.1 Q1290.41 1454.1 1288.58 1457.66 Q1286.77 1461.2 1286.77 1468.33 Q1286.77 1475.44 1288.58 1479.01 Q1290.41 1482.55 1294.02 1482.55 Q1297.65 1482.55 1299.46 1479.01 Q1301.29 1475.44 1301.29 1468.33 Q1301.29 1461.2 1299.46 1457.66 Q1297.65 1454.1 1294.02 1454.1 M1294.02 1450.39 Q1299.83 1450.39 1302.89 1455 Q1305.96 1459.58 1305.96 1468.33 Q1305.96 1477.06 1302.89 1481.67 Q1299.83 1486.25 1294.02 1486.25 Q1288.21 1486.25 1285.13 1481.67 Q1282.07 1477.06 1282.07 1468.33 Q1282.07 1459.58 1285.13 1455 Q1288.21 1450.39 1294.02 1450.39 Z" fill="#000000" fill-rule="nonzero" fill-opacity="1" /><path clip-path="url(#clip810)" d="M1784.6 1481.64 L1800.92 1481.64 L1800.92 1485.58 L1778.98 1485.58 L1778.98 1481.64 Q1781.64 1478.89 1786.23 1474.26 Q1790.83 1469.61 1792.01 1468.27 Q1794.26 1465.74 1795.14 1464.01 Q1796.04 1462.25 1796.04 1460.56 Q1796.04 1457.8 1794.1 1456.07 Q1792.17 1454.33 1789.07 1454.33 Q1786.87 1454.33 1784.42 1455.09 Q1781.99 1455.86 1779.21 1457.41 L1779.21 1452.69 Q1782.04 1451.55 1784.49 1450.97 Q1786.94 1450.39 1788.98 1450.39 Q1794.35 1450.39 1797.54 1453.08 Q1800.74 1455.77 1800.74 1460.26 Q1800.74 1462.39 1799.93 1464.31 Q1799.14 1466.2 1797.04 1468.8 Q1796.46 1469.47 1793.35 1472.69 Q1790.25 1475.88 1784.6 1481.64 Z" fill="#000000" fill-rule="nonzero" fill-opacity="1" /><path clip-path="url(#clip810)" d="M2288.89 1455.09 L2277.09 1473.54 L2288.89 1473.54 L2288.89 1455.09 M2287.67 1451.02 L2293.55 1451.02 L2293.55 1473.54 L2298.48 1473.54 L2298.48 1477.43 L2293.55 1477.43 L2293.55 1485.58 L2288.89 1485.58 L2288.89 1477.43 L2273.29 1477.43 L2273.29 1472.92 L2287.67 1451.02 Z" fill="#000000" fill-rule="nonzero" fill-opacity="1" /><path clip-path="url(#clip810)" d="M1224.65 1568.04 L1206.51 1520.52 L1213.22 1520.52 L1228.28 1560.53 L1243.36 1520.52 L1250.05 1520.52 L1231.94 1568.04 L1224.65 1568.04 Z" fill="#000000" fill-rule="nonzero" fill-opacity="1" /><path clip-path="url(#clip810)" d="M1267.87 1550.12 Q1260.77 1550.12 1258.04 1551.75 Q1255.3 1553.37 1255.3 1557.29 Q1255.3 1560.4 1257.34 1562.25 Q1259.41 1564.07 1262.94 1564.07 Q1267.81 1564.07 1270.74 1560.63 Q1273.7 1557.16 1273.7 1551.43 L1273.7 1550.12 L1267.87 1550.12 M1279.55 1547.71 L1279.55 1568.04 L1273.7 1568.04 L1273.7 1562.63 Q1271.69 1565.88 1268.7 1567.44 Q1265.71 1568.97 1261.38 1568.97 Q1255.9 1568.97 1252.66 1565.91 Q1249.44 1562.82 1249.44 1557.67 Q1249.44 1551.65 1253.45 1548.6 Q1257.5 1545.54 1265.49 1545.54 L1273.7 1545.54 L1273.7 1544.97 Q1273.7 1540.93 1271.02 1538.73 Q1268.38 1536.5 1263.58 1536.5 Q1260.52 1536.5 1257.62 1537.23 Q1254.73 1537.97 1252.05 1539.43 L1252.05 1534.02 Q1255.27 1532.78 1258.29 1532.17 Q1261.32 1531.54 1264.18 1531.54 Q1271.91 1531.54 1275.73 1535.55 Q1279.55 1539.56 1279.55 1547.71 Z" fill="#000000" fill-rule="nonzero" fill-opacity="1" /><path clip-path="url(#clip810)" d="M1291.62 1518.52 L1297.47 1518.52 L1297.47 1568.04 L1291.62 1568.04 L1291.62 1518.52 Z" fill="#000000" fill-rule="nonzero" fill-opacity="1" /><path clip-path="url(#clip810)" d="M1309.12 1553.98 L1309.12 1532.4 L1314.98 1532.4 L1314.98 1553.75 Q1314.98 1558.81 1316.95 1561.36 Q1318.93 1563.87 1322.87 1563.87 Q1327.61 1563.87 1330.35 1560.85 Q1333.12 1557.83 1333.12 1552.61 L1333.12 1532.4 L1338.98 1532.4 L1338.98 1568.04 L1333.12 1568.04 L1333.12 1562.57 Q1330.99 1565.82 1328.16 1567.41 Q1325.35 1568.97 1321.63 1568.97 Q1315.49 1568.97 1312.3 1565.15 Q1309.12 1561.33 1309.12 1553.98 M1323.86 1531.54 L1323.86 1531.54 Z" fill="#000000" fill-rule="nonzero" fill-opacity="1" /><path clip-path="url(#clip810)" d="M1381.53 1548.76 L1381.53 1551.62 L1354.6 1551.62 Q1354.99 1557.67 1358.23 1560.85 Q1361.51 1564 1367.34 1564 Q1370.71 1564 1373.86 1563.17 Q1377.04 1562.35 1380.16 1560.69 L1380.16 1566.23 Q1377.01 1567.57 1373.7 1568.27 Q1370.39 1568.97 1366.99 1568.97 Q1358.46 1568.97 1353.46 1564 Q1348.49 1559.04 1348.49 1550.57 Q1348.49 1541.82 1353.2 1536.69 Q1357.95 1531.54 1365.97 1531.54 Q1373.16 1531.54 1377.33 1536.18 Q1381.53 1540.8 1381.53 1548.76 M1375.68 1547.04 Q1375.61 1542.23 1372.97 1539.37 Q1370.36 1536.5 1366.03 1536.5 Q1361.13 1536.5 1358.17 1539.27 Q1355.24 1542.04 1354.8 1547.07 L1375.68 1547.04 Z" fill="#000000" fill-rule="nonzero" fill-opacity="1" /><polyline clip-path="url(#clip810)" style="stroke:#000000; stroke-linecap:round; stroke-linejoin:round; stroke-width:4; stroke-opacity:1; fill:none" points="235.283,1423.18 235.283,123.472 "/>
<polyline clip-path="url(#clip810)" style="stroke:#000000; stroke-linecap:round; stroke-linejoin:round; stroke-width:4; stroke-opacity:1; fill:none" points="235.283,1423.18 254.18,1423.18 "/>
<polyline clip-path="url(#clip810)" style="stroke:#000000; stroke-linecap:round; stroke-linejoin:round; stroke-width:4; stroke-opacity:1; fill:none" points="235.283,1098.66 254.18,1098.66 "/>
<polyline clip-path="url(#clip810)" style="stroke:#000000; stroke-linecap:round; stroke-linejoin:round; stroke-width:4; stroke-opacity:1; fill:none" points="235.283,774.137 254.18,774.137 "/>
<polyline clip-path="url(#clip810)" style="stroke:#000000; stroke-linecap:round; stroke-linejoin:round; stroke-width:4; stroke-opacity:1; fill:none" points="235.283,449.616 254.18,449.616 "/>
<polyline clip-path="url(#clip810)" style="stroke:#000000; stroke-linecap:round; stroke-linejoin:round; stroke-width:4; stroke-opacity:1; fill:none" points="235.283,125.095 254.18,125.095 "/>
<path clip-path="url(#clip810)" d="M187.338 1408.98 Q183.727 1408.98 181.899 1412.54 Q180.093 1416.08 180.093 1423.21 Q180.093 1430.32 181.899 1433.89 Q183.727 1437.43 187.338 1437.43 Q190.973 1437.43 192.778 1433.89 Q194.607 1430.32 194.607 1423.21 Q194.607 1416.08 192.778 1412.54 Q190.973 1408.98 187.338 1408.98 M187.338 1405.27 Q193.149 1405.27 196.204 1409.88 Q199.283 1414.46 199.283 1423.21 Q199.283 1431.94 196.204 1436.55 Q193.149 1441.13 187.338 1441.13 Q181.528 1441.13 178.45 1436.55 Q175.394 1431.94 175.394 1423.21 Q175.394 1414.46 178.45 1409.88 Q181.528 1405.27 187.338 1405.27 Z" fill="#000000" fill-rule="nonzero" fill-opacity="1" /><path clip-path="url(#clip810)" d="M121.043 1112 L137.362 1112 L137.362 1115.94 L115.418 1115.94 L115.418 1112 Q118.08 1109.25 122.663 1104.62 Q127.269 1099.97 128.45 1098.62 Q130.695 1096.1 131.575 1094.36 Q132.478 1092.61 132.478 1090.92 Q132.478 1088.16 130.533 1086.42 Q128.612 1084.69 125.51 1084.69 Q123.311 1084.69 120.857 1085.45 Q118.427 1086.22 115.649 1087.77 L115.649 1083.05 Q118.473 1081.91 120.927 1081.33 Q123.38 1080.75 125.418 1080.75 Q130.788 1080.75 133.982 1083.44 Q137.177 1086.12 137.177 1090.61 Q137.177 1092.74 136.367 1094.67 Q135.579 1096.56 133.473 1099.16 Q132.894 1099.83 129.792 1103.05 Q126.691 1106.24 121.043 1112 Z" fill="#000000" fill-rule="nonzero" fill-opacity="1" /><path clip-path="url(#clip810)" d="M157.177 1084.46 Q153.566 1084.46 151.737 1088.02 Q149.931 1091.56 149.931 1098.69 Q149.931 1105.8 151.737 1109.36 Q153.566 1112.91 157.177 1112.91 Q160.811 1112.91 162.616 1109.36 Q164.445 1105.8 164.445 1098.69 Q164.445 1091.56 162.616 1088.02 Q160.811 1084.46 157.177 1084.46 M157.177 1080.75 Q162.987 1080.75 166.042 1085.36 Q169.121 1089.94 169.121 1098.69 Q169.121 1107.42 166.042 1112.03 Q162.987 1116.61 157.177 1116.61 Q151.366 1116.61 148.288 1112.03 Q145.232 1107.42 145.232 1098.69 Q145.232 1089.94 148.288 1085.36 Q151.366 1080.75 157.177 1080.75 Z" fill="#000000" fill-rule="nonzero" fill-opacity="1" /><path clip-path="url(#clip810)" d="M187.338 1084.46 Q183.727 1084.46 181.899 1088.02 Q180.093 1091.56 180.093 1098.69 Q180.093 1105.8 181.899 1109.36 Q183.727 1112.91 187.338 1112.91 Q190.973 1112.91 192.778 1109.36 Q194.607 1105.8 194.607 1098.69 Q194.607 1091.56 192.778 1088.02 Q190.973 1084.46 187.338 1084.46 M187.338 1080.75 Q193.149 1080.75 196.204 1085.36 Q199.283 1089.94 199.283 1098.69 Q199.283 1107.42 196.204 1112.03 Q193.149 1116.61 187.338 1116.61 Q181.528 1116.61 178.45 1112.03 Q175.394 1107.42 175.394 1098.69 Q175.394 1089.94 178.45 1085.36 Q181.528 1080.75 187.338 1080.75 Z" fill="#000000" fill-rule="nonzero" fill-opacity="1" /><path clip-path="url(#clip810)" d="M129.862 760.931 L118.056 779.38 L129.862 779.38 L129.862 760.931 M128.635 756.857 L134.515 756.857 L134.515 779.38 L139.445 779.38 L139.445 783.269 L134.515 783.269 L134.515 791.417 L129.862 791.417 L129.862 783.269 L114.26 783.269 L114.26 778.755 L128.635 756.857 Z" fill="#000000" fill-rule="nonzero" fill-opacity="1" /><path clip-path="url(#clip810)" d="M157.177 759.936 Q153.566 759.936 151.737 763.501 Q149.931 767.042 149.931 774.172 Q149.931 781.278 151.737 784.843 Q153.566 788.385 157.177 788.385 Q160.811 788.385 162.616 784.843 Q164.445 781.278 164.445 774.172 Q164.445 767.042 162.616 763.501 Q160.811 759.936 157.177 759.936 M157.177 756.232 Q162.987 756.232 166.042 760.839 Q169.121 765.422 169.121 774.172 Q169.121 782.899 166.042 787.505 Q162.987 792.089 157.177 792.089 Q151.366 792.089 148.288 787.505 Q145.232 782.899 145.232 774.172 Q145.232 765.422 148.288 760.839 Q151.366 756.232 157.177 756.232 Z" fill="#000000" fill-rule="nonzero" fill-opacity="1" /><path clip-path="url(#clip810)" d="M187.338 759.936 Q183.727 759.936 181.899 763.501 Q180.093 767.042 180.093 774.172 Q180.093 781.278 181.899 784.843 Q183.727 788.385 187.338 788.385 Q190.973 788.385 192.778 784.843 Q194.607 781.278 194.607 774.172 Q194.607 767.042 192.778 763.501 Q190.973 759.936 187.338 759.936 M187.338 756.232 Q193.149 756.232 196.204 760.839 Q199.283 765.422 199.283 774.172 Q199.283 782.899 196.204 787.505 Q193.149 792.089 187.338 792.089 Q181.528 792.089 178.45 787.505 Q175.394 782.899 175.394 774.172 Q175.394 765.422 178.45 760.839 Q181.528 756.232 187.338 756.232 Z" fill="#000000" fill-rule="nonzero" fill-opacity="1" /><path clip-path="url(#clip810)" d="M127.593 447.753 Q124.445 447.753 122.593 449.905 Q120.765 452.058 120.765 455.808 Q120.765 459.535 122.593 461.711 Q124.445 463.864 127.593 463.864 Q130.742 463.864 132.57 461.711 Q134.422 459.535 134.422 455.808 Q134.422 452.058 132.57 449.905 Q130.742 447.753 127.593 447.753 M136.876 433.1 L136.876 437.359 Q135.117 436.526 133.311 436.086 Q131.529 435.646 129.769 435.646 Q125.14 435.646 122.686 438.771 Q120.255 441.896 119.908 448.216 Q121.274 446.202 123.334 445.137 Q125.394 444.049 127.871 444.049 Q133.08 444.049 136.089 447.22 Q139.121 450.368 139.121 455.808 Q139.121 461.132 135.973 464.35 Q132.825 467.567 127.593 467.567 Q121.598 467.567 118.427 462.984 Q115.256 458.378 115.256 449.651 Q115.256 441.456 119.144 436.595 Q123.033 431.711 129.584 431.711 Q131.343 431.711 133.126 432.058 Q134.931 432.405 136.876 433.1 Z" fill="#000000" fill-rule="nonzero" fill-opacity="1" /><path clip-path="url(#clip810)" d="M157.177 435.415 Q153.566 435.415 151.737 438.979 Q149.931 442.521 149.931 449.651 Q149.931 456.757 151.737 460.322 Q153.566 463.864 157.177 463.864 Q160.811 463.864 162.616 460.322 Q164.445 456.757 164.445 449.651 Q164.445 442.521 162.616 438.979 Q160.811 435.415 157.177 435.415 M157.177 431.711 Q162.987 431.711 166.042 436.317 Q169.121 440.901 169.121 449.651 Q169.121 458.378 166.042 462.984 Q162.987 467.567 157.177 467.567 Q151.366 467.567 148.288 462.984 Q145.232 458.378 145.232 449.651 Q145.232 440.901 148.288 436.317 Q151.366 431.711 157.177 431.711 Z" fill="#000000" fill-rule="nonzero" fill-opacity="1" /><path clip-path="url(#clip810)" d="M187.338 435.415 Q183.727 435.415 181.899 438.979 Q180.093 442.521 180.093 449.651 Q180.093 456.757 181.899 460.322 Q183.727 463.864 187.338 463.864 Q190.973 463.864 192.778 460.322 Q194.607 456.757 194.607 449.651 Q194.607 442.521 192.778 438.979 Q190.973 435.415 187.338 435.415 M187.338 431.711 Q193.149 431.711 196.204 436.317 Q199.283 440.901 199.283 449.651 Q199.283 458.378 196.204 462.984 Q193.149 467.567 187.338 467.567 Q181.528 467.567 178.45 462.984 Q175.394 458.378 175.394 449.651 Q175.394 440.901 178.45 436.317 Q181.528 431.711 187.338 431.711 Z" fill="#000000" fill-rule="nonzero" fill-opacity="1" /><path clip-path="url(#clip810)" d="M127.015 125.963 Q123.681 125.963 121.76 127.745 Q119.862 129.528 119.862 132.653 Q119.862 135.778 121.76 137.56 Q123.681 139.342 127.015 139.342 Q130.348 139.342 132.269 137.56 Q134.191 135.754 134.191 132.653 Q134.191 129.528 132.269 127.745 Q130.371 125.963 127.015 125.963 M122.339 123.972 Q119.33 123.231 117.64 121.171 Q115.973 119.111 115.973 116.148 Q115.973 112.005 118.913 109.597 Q121.876 107.19 127.015 107.19 Q132.177 107.19 135.117 109.597 Q138.056 112.005 138.056 116.148 Q138.056 119.111 136.367 121.171 Q134.7 123.231 131.714 123.972 Q135.093 124.759 136.968 127.051 Q138.867 129.342 138.867 132.653 Q138.867 137.676 135.788 140.361 Q132.732 143.046 127.015 143.046 Q121.297 143.046 118.218 140.361 Q115.163 137.676 115.163 132.653 Q115.163 129.342 117.061 127.051 Q118.959 124.759 122.339 123.972 M120.626 116.588 Q120.626 119.273 122.293 120.778 Q123.982 122.282 127.015 122.282 Q130.024 122.282 131.714 120.778 Q133.427 119.273 133.427 116.588 Q133.427 113.903 131.714 112.398 Q130.024 110.893 127.015 110.893 Q123.982 110.893 122.293 112.398 Q120.626 113.903 120.626 116.588 Z" fill="#000000" fill-rule="nonzero" fill-opacity="1" /><path clip-path="url(#clip810)" d="M157.177 110.893 Q153.566 110.893 151.737 114.458 Q149.931 118 149.931 125.129 Q149.931 132.236 151.737 135.801 Q153.566 139.342 157.177 139.342 Q160.811 139.342 162.616 135.801 Q164.445 132.236 164.445 125.129 Q164.445 118 162.616 114.458 Q160.811 110.893 157.177 110.893 M157.177 107.19 Q162.987 107.19 166.042 111.796 Q169.121 116.38 169.121 125.129 Q169.121 133.856 166.042 138.463 Q162.987 143.046 157.177 143.046 Q151.366 143.046 148.288 138.463 Q145.232 133.856 145.232 125.129 Q145.232 116.38 148.288 111.796 Q151.366 107.19 157.177 107.19 Z" fill="#000000" fill-rule="nonzero" fill-opacity="1" /><path clip-path="url(#clip810)" d="M187.338 110.893 Q183.727 110.893 181.899 114.458 Q180.093 118 180.093 125.129 Q180.093 132.236 181.899 135.801 Q183.727 139.342 187.338 139.342 Q190.973 139.342 192.778 135.801 Q194.607 132.236 194.607 125.129 Q194.607 118 192.778 114.458 Q190.973 110.893 187.338 110.893 M187.338 107.19 Q193.149 107.19 196.204 111.796 Q199.283 116.38 199.283 125.129 Q199.283 133.856 196.204 138.463 Q193.149 143.046 187.338 143.046 Q181.528 143.046 178.45 138.463 Q175.394 133.856 175.394 125.129 Q175.394 116.38 178.45 111.796 Q181.528 107.19 187.338 107.19 Z" fill="#000000" fill-rule="nonzero" fill-opacity="1" /><path clip-path="url(#clip810)" d="M16.4842 937.529 L16.4842 910.221 L21.895 910.221 L21.895 931.1 L35.8996 931.1 L35.8996 912.258 L41.3104 912.258 L41.3104 931.1 L64.0042 931.1 L64.0042 937.529 L16.4842 937.529 Z" fill="#000000" fill-rule="nonzero" fill-opacity="1" /><path clip-path="url(#clip810)" d="M33.8307 884.376 Q33.2578 885.362 33.0032 886.54 Q32.7167 887.686 32.7167 889.086 Q32.7167 894.052 35.9632 896.725 Q39.1779 899.367 45.2253 899.367 L64.0042 899.367 L64.0042 905.255 L28.3562 905.255 L28.3562 899.367 L33.8944 899.367 Q30.6479 897.521 29.0883 894.561 Q27.4968 891.601 27.4968 887.368 Q27.4968 886.763 27.5923 886.031 Q27.656 885.299 27.8151 884.408 L33.8307 884.376 Z" fill="#000000" fill-rule="nonzero" fill-opacity="1" /><path clip-path="url(#clip810)" d="M44.7161 849.173 L47.5806 849.173 L47.5806 876.1 Q53.6281 875.718 56.8109 872.472 Q59.9619 869.194 59.9619 863.369 Q59.9619 859.995 59.1344 856.844 Q58.3069 853.661 56.6518 850.542 L62.1899 850.542 Q63.5267 853.693 64.227 857.003 Q64.9272 860.313 64.9272 863.719 Q64.9272 872.249 59.9619 877.246 Q54.9967 882.211 46.5303 882.211 Q37.7774 882.211 32.6531 877.501 Q27.4968 872.758 27.4968 864.738 Q27.4968 857.544 32.1438 853.375 Q36.7589 849.173 44.7161 849.173 M42.9973 855.03 Q38.1912 855.093 35.3266 857.735 Q32.4621 860.345 32.4621 864.674 Q32.4621 869.575 35.2312 872.536 Q38.0002 875.464 43.0292 875.909 L42.9973 855.03 Z" fill="#000000" fill-rule="nonzero" fill-opacity="1" /><path clip-path="url(#clip810)" d="M46.212 836.06 Q52.6732 836.06 56.3653 833.418 Q60.0256 830.745 60.0256 826.098 Q60.0256 821.451 56.3653 818.777 Q52.6732 816.104 46.212 816.104 Q39.7508 816.104 36.0905 818.777 Q32.3984 821.451 32.3984 826.098 Q32.3984 830.745 36.0905 833.418 Q39.7508 836.06 46.212 836.06 M58.657 816.104 Q61.8398 817.95 63.3994 820.782 Q64.9272 823.583 64.9272 827.53 Q64.9272 833.991 59.771 838.065 Q54.6147 842.107 46.212 842.107 Q37.8093 842.107 32.6531 838.065 Q27.4968 833.991 27.4968 827.53 Q27.4968 823.583 29.0564 820.782 Q30.5842 817.95 33.7671 816.104 L28.3562 816.104 L28.3562 810.247 L77.5631 810.247 L77.5631 816.104 L58.657 816.104 Z" fill="#000000" fill-rule="nonzero" fill-opacity="1" /><path clip-path="url(#clip810)" d="M49.9359 798.789 L28.3562 798.789 L28.3562 792.932 L49.7131 792.932 Q54.7739 792.932 57.3202 790.959 Q59.8346 788.986 59.8346 785.039 Q59.8346 780.296 56.8109 777.559 Q53.7872 774.79 48.5673 774.79 L28.3562 774.79 L28.3562 768.934 L64.0042 768.934 L64.0042 774.79 L58.5296 774.79 Q61.7762 776.923 63.3676 779.755 Q64.9272 782.556 64.9272 786.28 Q64.9272 792.423 61.1078 795.606 Q57.2883 798.789 49.9359 798.789 M27.4968 784.052 L27.4968 784.052 Z" fill="#000000" fill-rule="nonzero" fill-opacity="1" /><path clip-path="url(#clip810)" d="M44.7161 726.379 L47.5806 726.379 L47.5806 753.306 Q53.6281 752.924 56.8109 749.677 Q59.9619 746.399 59.9619 740.574 Q59.9619 737.201 59.1344 734.05 Q58.3069 730.867 56.6518 727.748 L62.1899 727.748 Q63.5267 730.899 64.227 734.209 Q64.9272 737.519 64.9272 740.925 Q64.9272 749.455 59.9619 754.452 Q54.9967 759.417 46.5303 759.417 Q37.7774 759.417 32.6531 754.706 Q27.4968 749.964 27.4968 741.943 Q27.4968 734.75 32.1438 730.58 Q36.7589 726.379 44.7161 726.379 M42.9973 732.235 Q38.1912 732.299 35.3266 734.941 Q32.4621 737.551 32.4621 741.879 Q32.4621 746.781 35.2312 749.741 Q38.0002 752.669 43.0292 753.115 L42.9973 732.235 Z" fill="#000000" fill-rule="nonzero" fill-opacity="1" /><path clip-path="url(#clip810)" d="M42.4881 687.134 L64.0042 687.134 L64.0042 692.991 L42.679 692.991 Q37.6183 692.991 35.1038 694.964 Q32.5894 696.938 32.5894 700.884 Q32.5894 705.627 35.6131 708.364 Q38.6368 711.101 43.8567 711.101 L64.0042 711.101 L64.0042 716.989 L28.3562 716.989 L28.3562 711.101 L33.8944 711.101 Q30.6797 709.001 29.0883 706.168 Q27.4968 703.303 27.4968 699.579 Q27.4968 693.436 31.3163 690.285 Q35.1038 687.134 42.4881 687.134 Z" fill="#000000" fill-rule="nonzero" fill-opacity="1" /><path clip-path="url(#clip810)" d="M29.7248 649.799 L35.1993 649.799 Q33.8307 652.282 33.1623 654.797 Q32.4621 657.279 32.4621 659.825 Q32.4621 665.523 36.0905 668.674 Q39.6872 671.825 46.212 671.825 Q52.7369 671.825 56.3653 668.674 Q59.9619 665.523 59.9619 659.825 Q59.9619 657.279 59.2935 654.797 Q58.5933 652.282 57.2247 649.799 L62.6355 649.799 Q63.7814 652.25 64.3543 654.892 Q64.9272 657.502 64.9272 660.462 Q64.9272 668.515 59.8664 673.257 Q54.8057 678 46.212 678 Q37.491 678 32.4939 673.225 Q27.4968 668.419 27.4968 660.08 Q27.4968 657.375 28.0697 654.797 Q28.6108 652.218 29.7248 649.799 Z" fill="#000000" fill-rule="nonzero" fill-opacity="1" /><path clip-path="url(#clip810)" d="M67.3143 624.782 Q73.68 627.265 75.6216 629.62 Q77.5631 631.975 77.5631 635.922 L77.5631 640.601 L72.6615 640.601 L72.6615 637.164 Q72.6615 634.745 71.5157 633.408 Q70.3699 632.071 66.1048 630.448 L63.4312 629.397 L28.3562 643.816 L28.3562 637.609 L56.238 626.469 L28.3562 615.329 L28.3562 609.123 L67.3143 624.782 Z" fill="#000000" fill-rule="nonzero" fill-opacity="1" /><path clip-path="url(#clip810)" d="M317.934 12.096 L326.117 12.096 L326.117 36.8875 L355.85 36.8875 L355.85 12.096 L364.033 12.096 L364.033 72.576 L355.85 72.576 L355.85 43.7741 L326.117 43.7741 L326.117 72.576 L317.934 72.576 L317.934 12.096 Z" fill="#000000" fill-rule="nonzero" fill-opacity="1" /><path clip-path="url(#clip810)" d="M379.994 27.2059 L387.447 27.2059 L387.447 72.576 L379.994 72.576 L379.994 27.2059 M379.994 9.54393 L387.447 9.54393 L387.447 18.9825 L379.994 18.9825 L379.994 9.54393 Z" fill="#000000" fill-rule="nonzero" fill-opacity="1" /><path clip-path="url(#clip810)" d="M431.967 28.5427 L431.967 35.5912 Q428.807 33.9709 425.404 33.1607 Q422.001 32.3505 418.356 32.3505 Q412.806 32.3505 410.011 34.0519 Q407.256 35.7533 407.256 39.156 Q407.256 41.7486 409.241 43.2475 Q411.226 44.7058 417.221 46.0426 L419.773 46.6097 Q427.713 48.3111 431.035 51.4303 Q434.397 54.509 434.397 60.0587 Q434.397 66.3781 429.374 70.0644 Q424.392 73.7508 415.642 73.7508 Q411.996 73.7508 408.026 73.0216 Q404.096 72.3329 399.722 70.9151 L399.722 63.2184 Q403.853 65.3654 407.864 66.4591 Q411.874 67.5124 415.804 67.5124 Q421.07 67.5124 423.905 65.73 Q426.741 63.9071 426.741 60.6258 Q426.741 57.5877 424.675 55.9673 Q422.65 54.3469 415.723 52.8481 L413.13 52.2405 Q406.203 50.7821 403.124 47.7845 Q400.046 44.7463 400.046 39.4801 Q400.046 33.0797 404.583 29.5959 Q409.12 26.1121 417.464 26.1121 Q421.596 26.1121 425.242 26.7198 Q428.888 27.3274 431.967 28.5427 Z" fill="#000000" fill-rule="nonzero" fill-opacity="1" /><path clip-path="url(#clip810)" d="M453.639 14.324 L453.639 27.2059 L468.992 27.2059 L468.992 32.9987 L453.639 32.9987 L453.639 57.6282 Q453.639 63.1779 455.138 64.7578 Q456.677 66.3376 461.336 66.3376 L468.992 66.3376 L468.992 72.576 L461.336 72.576 Q452.707 72.576 449.426 69.3758 Q446.145 66.1351 446.145 57.6282 L446.145 32.9987 L440.676 32.9987 L440.676 27.2059 L446.145 27.2059 L446.145 14.324 L453.639 14.324 Z" fill="#000000" fill-rule="nonzero" fill-opacity="1" /><path clip-path="url(#clip810)" d="M496.376 32.4315 Q490.381 32.4315 486.897 37.1306 Q483.413 41.7891 483.413 49.9314 Q483.413 58.0738 486.856 62.7728 Q490.34 67.4314 496.376 67.4314 Q502.331 67.4314 505.815 62.7323 Q509.298 58.0333 509.298 49.9314 Q509.298 41.8701 505.815 37.1711 Q502.331 32.4315 496.376 32.4315 M496.376 26.1121 Q506.098 26.1121 511.648 32.4315 Q517.198 38.7509 517.198 49.9314 Q517.198 61.0714 511.648 67.4314 Q506.098 73.7508 496.376 73.7508 Q486.613 73.7508 481.064 67.4314 Q475.554 61.0714 475.554 49.9314 Q475.554 38.7509 481.064 32.4315 Q486.613 26.1121 496.376 26.1121 Z" fill="#000000" fill-rule="nonzero" fill-opacity="1" /><path clip-path="url(#clip810)" d="M559.408 49.3643 Q559.408 41.2625 556.046 36.8065 Q552.724 32.3505 546.688 32.3505 Q540.693 32.3505 537.331 36.8065 Q534.009 41.2625 534.009 49.3643 Q534.009 57.4256 537.331 61.8816 Q540.693 66.3376 546.688 66.3376 Q552.724 66.3376 556.046 61.8816 Q559.408 57.4256 559.408 49.3643 M566.862 66.9452 Q566.862 78.5308 561.717 84.1616 Q556.573 89.8329 545.959 89.8329 Q542.03 89.8329 538.546 89.2252 Q535.062 88.6581 531.781 87.4428 L531.781 80.1917 Q535.062 81.9741 538.262 82.8248 Q541.463 83.6755 544.784 83.6755 Q552.117 83.6755 555.762 79.8271 Q559.408 76.0193 559.408 68.282 L559.408 64.5957 Q557.099 68.6061 553.494 70.5911 Q549.889 72.576 544.865 72.576 Q536.521 72.576 531.416 66.2161 Q526.312 59.8562 526.312 49.3643 Q526.312 38.832 531.416 32.472 Q536.521 26.1121 544.865 26.1121 Q549.889 26.1121 553.494 28.0971 Q557.099 30.082 559.408 34.0924 L559.408 27.2059 L566.862 27.2059 L566.862 66.9452 Z" fill="#000000" fill-rule="nonzero" fill-opacity="1" /><path clip-path="url(#clip810)" d="M608.505 34.1734 Q607.249 33.4443 605.75 33.1202 Q604.292 32.7556 602.51 32.7556 Q596.19 32.7556 592.788 36.8875 Q589.425 40.9789 589.425 48.6757 L589.425 72.576 L581.931 72.576 L581.931 27.2059 L589.425 27.2059 L589.425 34.2544 Q591.775 30.1225 595.542 28.1376 Q599.31 26.1121 604.697 26.1121 Q605.467 26.1121 606.399 26.2337 Q607.33 26.3147 608.465 26.5172 L608.505 34.1734 Z" fill="#000000" fill-rule="nonzero" fill-opacity="1" /><path clip-path="url(#clip810)" d="M636.942 49.7694 Q627.909 49.7694 624.425 51.8354 Q620.941 53.9013 620.941 58.8839 Q620.941 62.8538 623.534 65.2034 Q626.167 67.5124 630.664 67.5124 Q636.861 67.5124 640.588 63.1374 Q644.356 58.7219 644.356 51.4303 L644.356 49.7694 L636.942 49.7694 M651.809 46.6907 L651.809 72.576 L644.356 72.576 L644.356 65.6895 Q641.804 69.8214 637.996 71.8063 Q634.188 73.7508 628.679 73.7508 Q621.711 73.7508 617.579 69.8619 Q613.488 65.9325 613.488 59.3701 Q613.488 51.7138 618.592 47.825 Q623.737 43.9361 633.904 43.9361 L644.356 43.9361 L644.356 43.2069 Q644.356 38.0623 640.953 35.2672 Q637.591 32.4315 631.474 32.4315 Q627.585 32.4315 623.899 33.3632 Q620.212 34.295 616.809 36.1584 L616.809 29.2718 Q620.901 27.692 624.749 26.9223 Q628.598 26.1121 632.243 26.1121 Q642.087 26.1121 646.948 31.2163 Q651.809 36.3204 651.809 46.6907 Z" fill="#000000" fill-rule="nonzero" fill-opacity="1" /><path clip-path="url(#clip810)" d="M702.486 35.9153 Q705.281 30.8922 709.17 28.5022 Q713.059 26.1121 718.325 26.1121 Q725.414 26.1121 729.263 31.0947 Q733.111 36.0368 733.111 45.1919 L733.111 72.576 L725.617 72.576 L725.617 45.4349 Q725.617 38.913 723.308 35.7533 Q720.999 32.5936 716.259 32.5936 Q710.466 32.5936 707.104 36.4419 Q703.742 40.2903 703.742 46.9338 L703.742 72.576 L696.248 72.576 L696.248 45.4349 Q696.248 38.8725 693.939 35.7533 Q691.63 32.5936 686.809 32.5936 Q681.097 32.5936 677.735 36.4824 Q674.373 40.3308 674.373 46.9338 L674.373 72.576 L666.879 72.576 L666.879 27.2059 L674.373 27.2059 L674.373 34.2544 Q676.925 30.082 680.49 28.0971 Q684.054 26.1121 688.956 26.1121 Q693.898 26.1121 697.341 28.6237 Q700.825 31.1352 702.486 35.9153 Z" fill="#000000" fill-rule="nonzero" fill-opacity="1" /><path clip-path="url(#clip810)" d="M791.93 32.4315 Q785.935 32.4315 782.451 37.1306 Q778.967 41.7891 778.967 49.9314 Q778.967 58.0738 782.41 62.7728 Q785.894 67.4314 791.93 67.4314 Q797.885 67.4314 801.369 62.7323 Q804.852 58.0333 804.852 49.9314 Q804.852 41.8701 801.369 37.1711 Q797.885 32.4315 791.93 32.4315 M791.93 26.1121 Q801.652 26.1121 807.202 32.4315 Q812.752 38.7509 812.752 49.9314 Q812.752 61.0714 807.202 67.4314 Q801.652 73.7508 791.93 73.7508 Q782.167 73.7508 776.618 67.4314 Q771.108 61.0714 771.108 49.9314 Q771.108 38.7509 776.618 32.4315 Q782.167 26.1121 791.93 26.1121 Z" fill="#000000" fill-rule="nonzero" fill-opacity="1" /><path clip-path="url(#clip810)" d="M848.076 9.54393 L848.076 15.7418 L840.946 15.7418 Q836.936 15.7418 835.356 17.3622 Q833.816 18.9825 833.816 23.1955 L833.816 27.2059 L846.091 27.2059 L846.091 32.9987 L833.816 32.9987 L833.816 72.576 L826.322 72.576 L826.322 32.9987 L819.193 32.9987 L819.193 27.2059 L826.322 27.2059 L826.322 24.0462 Q826.322 16.471 829.847 13.0277 Q833.371 9.54393 841.027 9.54393 L848.076 9.54393 Z" fill="#000000" fill-rule="nonzero" fill-opacity="1" /><path clip-path="url(#clip810)" d="M883.156 65.6895 L896.524 65.6895 L896.524 19.5497 L881.982 22.4663 L881.982 15.0127 L896.443 12.096 L904.626 12.096 L904.626 65.6895 L917.994 65.6895 L917.994 72.576 L883.156 72.576 L883.156 65.6895 Z" fill="#000000" fill-rule="nonzero" fill-opacity="1" /><path clip-path="url(#clip810)" d="M952.022 17.4837 Q945.702 17.4837 942.502 23.7221 Q939.342 29.92 939.342 42.3968 Q939.342 54.833 942.502 61.0714 Q945.702 67.2693 952.022 67.2693 Q958.382 67.2693 961.541 61.0714 Q964.742 54.833 964.742 42.3968 Q964.742 29.92 961.541 23.7221 Q958.382 17.4837 952.022 17.4837 M952.022 11.0023 Q962.19 11.0023 967.537 19.0636 Q972.924 27.0843 972.924 42.3968 Q972.924 57.6687 967.537 65.73 Q962.19 73.7508 952.022 73.7508 Q941.854 73.7508 936.466 65.73 Q931.119 57.6687 931.119 42.3968 Q931.119 27.0843 936.466 19.0636 Q941.854 11.0023 952.022 11.0023 Z" fill="#000000" fill-rule="nonzero" fill-opacity="1" /><path clip-path="url(#clip810)" d="M988.156 62.2867 L996.703 62.2867 L996.703 69.2543 L990.06 82.2172 L984.834 82.2172 L988.156 69.2543 L988.156 62.2867 Z" fill="#000000" fill-rule="nonzero" fill-opacity="1" /><path clip-path="url(#clip810)" d="M1031.18 17.4837 Q1024.86 17.4837 1021.66 23.7221 Q1018.5 29.92 1018.5 42.3968 Q1018.5 54.833 1021.66 61.0714 Q1024.86 67.2693 1031.18 67.2693 Q1037.54 67.2693 1040.7 61.0714 Q1043.9 54.833 1043.9 42.3968 Q1043.9 29.92 1040.7 23.7221 Q1037.54 17.4837 1031.18 17.4837 M1031.18 11.0023 Q1041.34 11.0023 1046.69 19.0636 Q1052.08 27.0843 1052.08 42.3968 Q1052.08 57.6687 1046.69 65.73 Q1041.34 73.7508 1031.18 73.7508 Q1021.01 73.7508 1015.62 65.73 Q1010.27 57.6687 1010.27 42.3968 Q1010.27 27.0843 1015.62 19.0636 Q1021.01 11.0023 1031.18 11.0023 Z" fill="#000000" fill-rule="nonzero" fill-opacity="1" /><path clip-path="url(#clip810)" d="M1083.96 17.4837 Q1077.64 17.4837 1074.44 23.7221 Q1071.28 29.92 1071.28 42.3968 Q1071.28 54.833 1074.44 61.0714 Q1077.64 67.2693 1083.96 67.2693 Q1090.32 67.2693 1093.48 61.0714 Q1096.68 54.833 1096.68 42.3968 Q1096.68 29.92 1093.48 23.7221 Q1090.32 17.4837 1083.96 17.4837 M1083.96 11.0023 Q1094.13 11.0023 1099.47 19.0636 Q1104.86 27.0843 1104.86 42.3968 Q1104.86 57.6687 1099.47 65.73 Q1094.13 73.7508 1083.96 73.7508 Q1073.79 73.7508 1068.4 65.73 Q1063.06 57.6687 1063.06 42.3968 Q1063.06 27.0843 1068.4 19.0636 Q1073.79 11.0023 1083.96 11.0023 Z" fill="#000000" fill-rule="nonzero" fill-opacity="1" /><path clip-path="url(#clip810)" d="M1136.74 17.4837 Q1130.42 17.4837 1127.22 23.7221 Q1124.06 29.92 1124.06 42.3968 Q1124.06 54.833 1127.22 61.0714 Q1130.42 67.2693 1136.74 67.2693 Q1143.1 67.2693 1146.26 61.0714 Q1149.46 54.833 1149.46 42.3968 Q1149.46 29.92 1146.26 23.7221 Q1143.1 17.4837 1136.74 17.4837 M1136.74 11.0023 Q1146.91 11.0023 1152.26 19.0636 Q1157.65 27.0843 1157.65 42.3968 Q1157.65 57.6687 1152.26 65.73 Q1146.91 73.7508 1136.74 73.7508 Q1126.58 73.7508 1121.19 65.73 Q1115.84 57.6687 1115.84 42.3968 Q1115.84 27.0843 1121.19 19.0636 Q1126.58 11.0023 1136.74 11.0023 Z" fill="#000000" fill-rule="nonzero" fill-opacity="1" /><path clip-path="url(#clip810)" d="M1233.92 14.0809 L1233.92 22.0612 Q1229.27 19.8332 1225.13 18.7395 Q1221 17.6457 1217.15 17.6457 Q1210.47 17.6457 1206.82 20.2383 Q1203.22 22.8309 1203.22 27.611 Q1203.22 31.6214 1205.61 33.6873 Q1208.04 35.7128 1214.76 36.9686 L1219.71 37.9813 Q1228.86 39.7232 1233.2 44.1387 Q1237.57 48.5136 1237.57 55.8863 Q1237.57 64.6767 1231.66 69.2137 Q1225.78 73.7508 1214.4 73.7508 Q1210.1 73.7508 1205.24 72.7785 Q1200.42 71.8063 1195.24 69.9024 L1195.24 61.4765 Q1200.22 64.2716 1205 65.6895 Q1209.78 67.1073 1214.4 67.1073 Q1221.41 67.1073 1225.21 64.3527 Q1229.02 61.598 1229.02 56.4939 Q1229.02 52.0379 1226.27 49.5264 Q1223.55 47.0148 1217.32 45.759 L1212.33 44.7868 Q1203.18 42.9639 1199.09 39.075 Q1195 35.1862 1195 28.2591 Q1195 20.2383 1200.63 15.6203 Q1206.3 11.0023 1216.22 11.0023 Q1220.48 11.0023 1224.89 11.7719 Q1229.31 12.5416 1233.92 14.0809 Z" fill="#000000" fill-rule="nonzero" fill-opacity="1" /><path clip-path="url(#clip810)" d="M1257.38 14.324 L1257.38 27.2059 L1272.73 27.2059 L1272.73 32.9987 L1257.38 32.9987 L1257.38 57.6282 Q1257.38 63.1779 1258.88 64.7578 Q1260.42 66.3376 1265.08 66.3376 L1272.73 66.3376 L1272.73 72.576 L1265.08 72.576 Q1256.45 72.576 1253.17 69.3758 Q1249.88 66.1351 1249.88 57.6282 L1249.88 32.9987 L1244.42 32.9987 L1244.42 27.2059 L1249.88 27.2059 L1249.88 14.324 L1257.38 14.324 Z" fill="#000000" fill-rule="nonzero" fill-opacity="1" /><path clip-path="url(#clip810)" d="M1303.15 49.7694 Q1294.12 49.7694 1290.64 51.8354 Q1287.15 53.9013 1287.15 58.8839 Q1287.15 62.8538 1289.75 65.2034 Q1292.38 67.5124 1296.88 67.5124 Q1303.07 67.5124 1306.8 63.1374 Q1310.57 58.7219 1310.57 51.4303 L1310.57 49.7694 L1303.15 49.7694 M1318.02 46.6907 L1318.02 72.576 L1310.57 72.576 L1310.57 65.6895 Q1308.02 69.8214 1304.21 71.8063 Q1300.4 73.7508 1294.89 73.7508 Q1287.92 73.7508 1283.79 69.8619 Q1279.7 65.9325 1279.7 59.3701 Q1279.7 51.7138 1284.8 47.825 Q1289.95 43.9361 1300.12 43.9361 L1310.57 43.9361 L1310.57 43.2069 Q1310.57 38.0623 1307.16 35.2672 Q1303.8 32.4315 1297.69 32.4315 Q1293.8 32.4315 1290.11 33.3632 Q1286.42 34.295 1283.02 36.1584 L1283.02 29.2718 Q1287.11 27.692 1290.96 26.9223 Q1294.81 26.1121 1298.46 26.1121 Q1308.3 26.1121 1313.16 31.2163 Q1318.02 36.3204 1318.02 46.6907 Z" fill="#000000" fill-rule="nonzero" fill-opacity="1" /><path clip-path="url(#clip810)" d="M1371.09 45.1919 L1371.09 72.576 L1363.63 72.576 L1363.63 45.4349 Q1363.63 38.994 1361.12 35.7938 Q1358.61 32.5936 1353.59 32.5936 Q1347.55 32.5936 1344.07 36.4419 Q1340.58 40.2903 1340.58 46.9338 L1340.58 72.576 L1333.09 72.576 L1333.09 27.2059 L1340.58 27.2059 L1340.58 34.2544 Q1343.26 30.163 1346.86 28.1376 Q1350.51 26.1121 1355.25 26.1121 Q1363.07 26.1121 1367.08 30.9732 Q1371.09 35.7938 1371.09 45.1919 Z" fill="#000000" fill-rule="nonzero" fill-opacity="1" /><path clip-path="url(#clip810)" d="M1415.81 34.0924 L1415.81 9.54393 L1423.26 9.54393 L1423.26 72.576 L1415.81 72.576 L1415.81 65.7705 Q1413.46 69.8214 1409.85 71.8063 Q1406.29 73.7508 1401.27 73.7508 Q1393.04 73.7508 1387.86 67.1883 Q1382.71 60.6258 1382.71 49.9314 Q1382.71 39.2371 1387.86 32.6746 Q1393.04 26.1121 1401.27 26.1121 Q1406.29 26.1121 1409.85 28.0971 Q1413.46 30.0415 1415.81 34.0924 M1390.41 49.9314 Q1390.41 58.1548 1393.77 62.8538 Q1397.18 67.5124 1403.09 67.5124 Q1409 67.5124 1412.41 62.8538 Q1415.81 58.1548 1415.81 49.9314 Q1415.81 41.7081 1412.41 37.0496 Q1409 32.3505 1403.09 32.3505 Q1397.18 32.3505 1393.77 37.0496 Q1390.41 41.7081 1390.41 49.9314 Z" fill="#000000" fill-rule="nonzero" fill-opacity="1" /><path clip-path="url(#clip810)" d="M1459.24 49.7694 Q1450.2 49.7694 1446.72 51.8354 Q1443.23 53.9013 1443.23 58.8839 Q1443.23 62.8538 1445.83 65.2034 Q1448.46 67.5124 1452.96 67.5124 Q1459.15 67.5124 1462.88 63.1374 Q1466.65 58.7219 1466.65 51.4303 L1466.65 49.7694 L1459.24 49.7694 M1474.1 46.6907 L1474.1 72.576 L1466.65 72.576 L1466.65 65.6895 Q1464.1 69.8214 1460.29 71.8063 Q1456.48 73.7508 1450.97 73.7508 Q1444 73.7508 1439.87 69.8619 Q1435.78 65.9325 1435.78 59.3701 Q1435.78 51.7138 1440.88 47.825 Q1446.03 43.9361 1456.2 43.9361 L1466.65 43.9361 L1466.65 43.2069 Q1466.65 38.0623 1463.25 35.2672 Q1459.88 32.4315 1453.77 32.4315 Q1449.88 32.4315 1446.19 33.3632 Q1442.51 34.295 1439.1 36.1584 L1439.1 29.2718 Q1443.19 27.692 1447.04 26.9223 Q1450.89 26.1121 1454.54 26.1121 Q1464.38 26.1121 1469.24 31.2163 Q1474.1 36.3204 1474.1 46.6907 Z" fill="#000000" fill-rule="nonzero" fill-opacity="1" /><path clip-path="url(#clip810)" d="M1515.75 34.1734 Q1514.49 33.4443 1512.99 33.1202 Q1511.53 32.7556 1509.75 32.7556 Q1503.43 32.7556 1500.03 36.8875 Q1496.67 40.9789 1496.67 48.6757 L1496.67 72.576 L1489.17 72.576 L1489.17 27.2059 L1496.67 27.2059 L1496.67 34.2544 Q1499.02 30.1225 1502.78 28.1376 Q1506.55 26.1121 1511.94 26.1121 Q1512.71 26.1121 1513.64 26.2337 Q1514.57 26.3147 1515.71 26.5172 L1515.75 34.1734 Z" fill="#000000" fill-rule="nonzero" fill-opacity="1" /><path clip-path="url(#clip810)" d="M1551.96 34.0924 L1551.96 9.54393 L1559.41 9.54393 L1559.41 72.576 L1551.96 72.576 L1551.96 65.7705 Q1549.61 69.8214 1546.01 71.8063 Q1542.44 73.7508 1537.42 73.7508 Q1529.19 73.7508 1524.01 67.1883 Q1518.86 60.6258 1518.86 49.9314 Q1518.86 39.2371 1524.01 32.6746 Q1529.19 26.1121 1537.42 26.1121 Q1542.44 26.1121 1546.01 28.0971 Q1549.61 30.0415 1551.96 34.0924 M1526.56 49.9314 Q1526.56 58.1548 1529.92 62.8538 Q1533.33 67.5124 1539.24 67.5124 Q1545.16 67.5124 1548.56 62.8538 Q1551.96 58.1548 1551.96 49.9314 Q1551.96 41.7081 1548.56 37.0496 Q1545.16 32.3505 1539.24 32.3505 Q1533.33 32.3505 1529.92 37.0496 Q1526.56 41.7081 1526.56 49.9314 Z" fill="#000000" fill-rule="nonzero" fill-opacity="1" /><path clip-path="url(#clip810)" d="M1601.46 12.096 L1612.48 12.096 L1639.3 62.6918 L1639.3 12.096 L1647.24 12.096 L1647.24 72.576 L1636.22 72.576 L1609.4 21.9802 L1609.4 72.576 L1601.46 72.576 L1601.46 12.096 Z" fill="#000000" fill-rule="nonzero" fill-opacity="1" /><path clip-path="url(#clip810)" d="M1680.78 32.4315 Q1674.78 32.4315 1671.3 37.1306 Q1667.82 41.7891 1667.82 49.9314 Q1667.82 58.0738 1671.26 62.7728 Q1674.74 67.4314 1680.78 67.4314 Q1686.73 67.4314 1690.22 62.7323 Q1693.7 58.0333 1693.7 49.9314 Q1693.7 41.8701 1690.22 37.1711 Q1686.73 32.4315 1680.78 32.4315 M1680.78 26.1121 Q1690.5 26.1121 1696.05 32.4315 Q1701.6 38.7509 1701.6 49.9314 Q1701.6 61.0714 1696.05 67.4314 Q1690.5 73.7508 1680.78 73.7508 Q1671.02 73.7508 1665.47 67.4314 Q1659.96 61.0714 1659.96 49.9314 Q1659.96 38.7509 1665.47 32.4315 Q1671.02 26.1121 1680.78 26.1121 Z" fill="#000000" fill-rule="nonzero" fill-opacity="1" /><path clip-path="url(#clip810)" d="M1740.25 34.1734 Q1738.99 33.4443 1737.49 33.1202 Q1736.03 32.7556 1734.25 32.7556 Q1727.93 32.7556 1724.53 36.8875 Q1721.17 40.9789 1721.17 48.6757 L1721.17 72.576 L1713.67 72.576 L1713.67 27.2059 L1721.17 27.2059 L1721.17 34.2544 Q1723.52 30.1225 1727.28 28.1376 Q1731.05 26.1121 1736.44 26.1121 Q1737.21 26.1121 1738.14 26.2337 Q1739.07 26.3147 1740.21 26.5172 L1740.25 34.1734 Z" fill="#000000" fill-rule="nonzero" fill-opacity="1" /><path clip-path="url(#clip810)" d="M1781.93 35.9153 Q1784.73 30.8922 1788.61 28.5022 Q1792.5 26.1121 1797.77 26.1121 Q1804.86 26.1121 1808.71 31.0947 Q1812.56 36.0368 1812.56 45.1919 L1812.56 72.576 L1805.06 72.576 L1805.06 45.4349 Q1805.06 38.913 1802.75 35.7533 Q1800.44 32.5936 1795.7 32.5936 Q1789.91 32.5936 1786.55 36.4419 Q1783.19 40.2903 1783.19 46.9338 L1783.19 72.576 L1775.69 72.576 L1775.69 45.4349 Q1775.69 38.8725 1773.38 35.7533 Q1771.07 32.5936 1766.25 32.5936 Q1760.54 32.5936 1757.18 36.4824 Q1753.82 40.3308 1753.82 46.9338 L1753.82 72.576 L1746.32 72.576 L1746.32 27.2059 L1753.82 27.2059 L1753.82 34.2544 Q1756.37 30.082 1759.93 28.0971 Q1763.5 26.1121 1768.4 26.1121 Q1773.34 26.1121 1776.79 28.6237 Q1780.27 31.1352 1781.93 35.9153 Z" fill="#000000" fill-rule="nonzero" fill-opacity="1" /><path clip-path="url(#clip810)" d="M1848.04 49.7694 Q1839.01 49.7694 1835.52 51.8354 Q1832.04 53.9013 1832.04 58.8839 Q1832.04 62.8538 1834.63 65.2034 Q1837.27 67.5124 1841.76 67.5124 Q1847.96 67.5124 1851.69 63.1374 Q1855.45 58.7219 1855.45 51.4303 L1855.45 49.7694 L1848.04 49.7694 M1862.91 46.6907 L1862.91 72.576 L1855.45 72.576 L1855.45 65.6895 Q1852.9 69.8214 1849.09 71.8063 Q1845.29 73.7508 1839.78 73.7508 Q1832.81 73.7508 1828.68 69.8619 Q1824.59 65.9325 1824.59 59.3701 Q1824.59 51.7138 1829.69 47.825 Q1834.84 43.9361 1845 43.9361 L1855.45 43.9361 L1855.45 43.2069 Q1855.45 38.0623 1852.05 35.2672 Q1848.69 32.4315 1842.57 32.4315 Q1838.68 32.4315 1835 33.3632 Q1831.31 34.295 1827.91 36.1584 L1827.91 29.2718 Q1832 27.692 1835.85 26.9223 Q1839.7 26.1121 1843.34 26.1121 Q1853.19 26.1121 1858.05 31.2163 Q1862.91 36.3204 1862.91 46.6907 Z" fill="#000000" fill-rule="nonzero" fill-opacity="1" /><path clip-path="url(#clip810)" d="M1878.26 9.54393 L1885.71 9.54393 L1885.71 72.576 L1878.26 72.576 L1878.26 9.54393 Z" fill="#000000" fill-rule="nonzero" fill-opacity="1" /><path clip-path="url(#clip810)" d="M1964.26 14.0809 L1964.26 22.0612 Q1959.6 19.8332 1955.47 18.7395 Q1951.34 17.6457 1947.49 17.6457 Q1940.81 17.6457 1937.16 20.2383 Q1933.56 22.8309 1933.56 27.611 Q1933.56 31.6214 1935.95 33.6873 Q1938.38 35.7128 1945.1 36.9686 L1950.04 37.9813 Q1959.2 39.7232 1963.53 44.1387 Q1967.91 48.5136 1967.91 55.8863 Q1967.91 64.6767 1961.99 69.2137 Q1956.12 73.7508 1944.74 73.7508 Q1940.44 73.7508 1935.58 72.7785 Q1930.76 71.8063 1925.58 69.9024 L1925.58 61.4765 Q1930.56 64.2716 1935.34 65.6895 Q1940.12 67.1073 1944.74 67.1073 Q1951.74 67.1073 1955.55 64.3527 Q1959.36 61.598 1959.36 56.4939 Q1959.36 52.0379 1956.61 49.5264 Q1953.89 47.0148 1947.65 45.759 L1942.67 44.7868 Q1933.52 42.9639 1929.42 39.075 Q1925.33 35.1862 1925.33 28.2591 Q1925.33 20.2383 1930.96 15.6203 Q1936.63 11.0023 1946.56 11.0023 Q1950.81 11.0023 1955.23 11.7719 Q1959.64 12.5416 1964.26 14.0809 Z" fill="#000000" fill-rule="nonzero" fill-opacity="1" /><path clip-path="url(#clip810)" d="M2000.96 49.7694 Q1991.93 49.7694 1988.45 51.8354 Q1984.96 53.9013 1984.96 58.8839 Q1984.96 62.8538 1987.55 65.2034 Q1990.19 67.5124 1994.68 67.5124 Q2000.88 67.5124 2004.61 63.1374 Q2008.38 58.7219 2008.38 51.4303 L2008.38 49.7694 L2000.96 49.7694 M2015.83 46.6907 L2015.83 72.576 L2008.38 72.576 L2008.38 65.6895 Q2005.82 69.8214 2002.02 71.8063 Q1998.21 73.7508 1992.7 73.7508 Q1985.73 73.7508 1981.6 69.8619 Q1977.51 65.9325 1977.51 59.3701 Q1977.51 51.7138 1982.61 47.825 Q1987.76 43.9361 1997.92 43.9361 L2008.38 43.9361 L2008.38 43.2069 Q2008.38 38.0623 2004.97 35.2672 Q2001.61 32.4315 1995.49 32.4315 Q1991.61 32.4315 1987.92 33.3632 Q1984.23 34.295 1980.83 36.1584 L1980.83 29.2718 Q1984.92 27.692 1988.77 26.9223 Q1992.62 26.1121 1996.26 26.1121 Q2006.11 26.1121 2010.97 31.2163 Q2015.83 36.3204 2015.83 46.6907 Z" fill="#000000" fill-rule="nonzero" fill-opacity="1" /><path clip-path="url(#clip810)" d="M2066.51 35.9153 Q2069.3 30.8922 2073.19 28.5022 Q2077.08 26.1121 2082.35 26.1121 Q2089.43 26.1121 2093.28 31.0947 Q2097.13 36.0368 2097.13 45.1919 L2097.13 72.576 L2089.64 72.576 L2089.64 45.4349 Q2089.64 38.913 2087.33 35.7533 Q2085.02 32.5936 2080.28 32.5936 Q2074.49 32.5936 2071.12 36.4419 Q2067.76 40.2903 2067.76 46.9338 L2067.76 72.576 L2060.27 72.576 L2060.27 45.4349 Q2060.27 38.8725 2057.96 35.7533 Q2055.65 32.5936 2050.83 32.5936 Q2045.12 32.5936 2041.76 36.4824 Q2038.39 40.3308 2038.39 46.9338 L2038.39 72.576 L2030.9 72.576 L2030.9 27.2059 L2038.39 27.2059 L2038.39 34.2544 Q2040.95 30.082 2044.51 28.0971 Q2048.07 26.1121 2052.98 26.1121 Q2057.92 26.1121 2061.36 28.6237 Q2064.85 31.1352 2066.51 35.9153 Z" fill="#000000" fill-rule="nonzero" fill-opacity="1" /><path clip-path="url(#clip810)" d="M2119.21 65.7705 L2119.21 89.8329 L2111.71 89.8329 L2111.71 27.2059 L2119.21 27.2059 L2119.21 34.0924 Q2121.56 30.0415 2125.12 28.0971 Q2128.73 26.1121 2133.71 26.1121 Q2141.97 26.1121 2147.12 32.6746 Q2152.3 39.2371 2152.3 49.9314 Q2152.3 60.6258 2147.12 67.1883 Q2141.97 73.7508 2133.71 73.7508 Q2128.73 73.7508 2125.12 71.8063 Q2121.56 69.8214 2119.21 65.7705 M2144.57 49.9314 Q2144.57 41.7081 2141.16 37.0496 Q2137.8 32.3505 2131.89 32.3505 Q2125.97 32.3505 2122.57 37.0496 Q2119.21 41.7081 2119.21 49.9314 Q2119.21 58.1548 2122.57 62.8538 Q2125.97 67.5124 2131.89 67.5124 Q2137.8 67.5124 2141.16 62.8538 Q2144.57 58.1548 2144.57 49.9314 Z" fill="#000000" fill-rule="nonzero" fill-opacity="1" /><path clip-path="url(#clip810)" d="M2164.66 9.54393 L2172.11 9.54393 L2172.11 72.576 L2164.66 72.576 L2164.66 9.54393 Z" fill="#000000" fill-rule="nonzero" fill-opacity="1" /><path clip-path="url(#clip810)" d="M2226.52 48.0275 L2226.52 51.6733 L2192.25 51.6733 Q2192.73 59.3701 2196.86 63.421 Q2201.04 67.4314 2208.45 67.4314 Q2212.74 67.4314 2216.75 66.3781 Q2220.81 65.3249 2224.78 63.2184 L2224.78 70.267 Q2220.76 71.9684 2216.55 72.8596 Q2212.34 73.7508 2208 73.7508 Q2197.15 73.7508 2190.79 67.4314 Q2184.47 61.1119 2184.47 50.3365 Q2184.47 39.1965 2190.46 32.6746 Q2196.5 26.1121 2206.71 26.1121 Q2215.86 26.1121 2221.17 32.0264 Q2226.52 37.9003 2226.52 48.0275 M2219.06 45.84 Q2218.98 39.7232 2215.62 36.0774 Q2212.3 32.4315 2206.79 32.4315 Q2200.55 32.4315 2196.78 35.9558 Q2193.06 39.4801 2192.49 45.8805 L2219.06 45.84 Z" fill="#000000" fill-rule="nonzero" fill-opacity="1" /><path clip-path="url(#clip810)" d="M2267.67 28.5427 L2267.67 35.5912 Q2264.51 33.9709 2261.11 33.1607 Q2257.71 32.3505 2254.06 32.3505 Q2248.51 32.3505 2245.72 34.0519 Q2242.96 35.7533 2242.96 39.156 Q2242.96 41.7486 2244.95 43.2475 Q2246.93 44.7058 2252.93 46.0426 L2255.48 46.6097 Q2263.42 48.3111 2266.74 51.4303 Q2270.11 54.509 2270.11 60.0587 Q2270.11 66.3781 2265.08 70.0644 Q2260.1 73.7508 2251.35 73.7508 Q2247.7 73.7508 2243.73 73.0216 Q2239.8 72.3329 2235.43 70.9151 L2235.43 63.2184 Q2239.56 65.3654 2243.57 66.4591 Q2247.58 67.5124 2251.51 67.5124 Q2256.78 67.5124 2259.61 65.73 Q2262.45 63.9071 2262.45 60.6258 Q2262.45 57.5877 2260.38 55.9673 Q2258.36 54.3469 2251.43 52.8481 L2248.84 52.2405 Q2241.91 50.7821 2238.83 47.7845 Q2235.75 44.7463 2235.75 39.4801 Q2235.75 33.0797 2240.29 29.5959 Q2244.83 26.1121 2253.17 26.1121 Q2257.3 26.1121 2260.95 26.7198 Q2264.6 27.3274 2267.67 28.5427 Z" fill="#000000" fill-rule="nonzero" fill-opacity="1" /><path clip-path="url(#clip812)" d="M351.748 1419.93 L351.748 1423.18 L401.341 1423.18 L401.341 1419.93 L351.748 1419.93 L351.748 1419.93  Z" fill="#009af9" fill-rule="evenodd" fill-opacity="1"/>
<polyline clip-path="url(#clip812)" style="stroke:#000000; stroke-linecap:round; stroke-linejoin:round; stroke-width:4; stroke-opacity:1; fill:none" points="351.748,1419.93 351.748,1423.18 401.341,1423.18 401.341,1419.93 351.748,1419.93 "/>
<path clip-path="url(#clip812)" d="M401.341 1415.07 L401.341 1423.18 L450.934 1423.18 L450.934 1415.07 L401.341 1415.07 L401.341 1415.07  Z" fill="#009af9" fill-rule="evenodd" fill-opacity="1"/>
<polyline clip-path="url(#clip812)" style="stroke:#000000; stroke-linecap:round; stroke-linejoin:round; stroke-width:4; stroke-opacity:1; fill:none" points="401.341,1415.07 401.341,1423.18 450.934,1423.18 450.934,1415.07 401.341,1415.07 "/>
<path clip-path="url(#clip812)" d="M450.934 1418.31 L450.934 1423.18 L500.527 1423.18 L500.527 1418.31 L450.934 1418.31 L450.934 1418.31  Z" fill="#009af9" fill-rule="evenodd" fill-opacity="1"/>
<polyline clip-path="url(#clip812)" style="stroke:#000000; stroke-linecap:round; stroke-linejoin:round; stroke-width:4; stroke-opacity:1; fill:none" points="450.934,1418.31 450.934,1423.18 500.527,1423.18 500.527,1418.31 450.934,1418.31 "/>
<path clip-path="url(#clip812)" d="M500.527 1408.58 L500.527 1423.18 L550.121 1423.18 L550.121 1408.58 L500.527 1408.58 L500.527 1408.58  Z" fill="#009af9" fill-rule="evenodd" fill-opacity="1"/>
<polyline clip-path="url(#clip812)" style="stroke:#000000; stroke-linecap:round; stroke-linejoin:round; stroke-width:4; stroke-opacity:1; fill:none" points="500.527,1408.58 500.527,1423.18 550.121,1423.18 550.121,1408.58 500.527,1408.58 "/>
<path clip-path="url(#clip812)" d="M550.121 1408.58 L550.121 1423.18 L599.714 1423.18 L599.714 1408.58 L550.121 1408.58 L550.121 1408.58  Z" fill="#009af9" fill-rule="evenodd" fill-opacity="1"/>
<polyline clip-path="url(#clip812)" style="stroke:#000000; stroke-linecap:round; stroke-linejoin:round; stroke-width:4; stroke-opacity:1; fill:none" points="550.121,1408.58 550.121,1423.18 599.714,1423.18 599.714,1408.58 550.121,1408.58 "/>
<path clip-path="url(#clip812)" d="M599.714 1392.35 L599.714 1423.18 L649.307 1423.18 L649.307 1392.35 L599.714 1392.35 L599.714 1392.35  Z" fill="#009af9" fill-rule="evenodd" fill-opacity="1"/>
<polyline clip-path="url(#clip812)" style="stroke:#000000; stroke-linecap:round; stroke-linejoin:round; stroke-width:4; stroke-opacity:1; fill:none" points="599.714,1392.35 599.714,1423.18 649.307,1423.18 649.307,1392.35 599.714,1392.35 "/>
<path clip-path="url(#clip812)" d="M649.307 1364.77 L649.307 1423.18 L698.9 1423.18 L698.9 1364.77 L649.307 1364.77 L649.307 1364.77  Z" fill="#009af9" fill-rule="evenodd" fill-opacity="1"/>
<polyline clip-path="url(#clip812)" style="stroke:#000000; stroke-linecap:round; stroke-linejoin:round; stroke-width:4; stroke-opacity:1; fill:none" points="649.307,1364.77 649.307,1423.18 698.9,1423.18 698.9,1364.77 649.307,1364.77 "/>
<path clip-path="url(#clip812)" d="M698.9 1342.05 L698.9 1423.18 L748.494 1423.18 L748.494 1342.05 L698.9 1342.05 L698.9 1342.05  Z" fill="#009af9" fill-rule="evenodd" fill-opacity="1"/>
<polyline clip-path="url(#clip812)" style="stroke:#000000; stroke-linecap:round; stroke-linejoin:round; stroke-width:4; stroke-opacity:1; fill:none" points="698.9,1342.05 698.9,1423.18 748.494,1423.18 748.494,1342.05 698.9,1342.05 "/>
<path clip-path="url(#clip812)" d="M748.494 1278.77 L748.494 1423.18 L798.087 1423.18 L798.087 1278.77 L748.494 1278.77 L748.494 1278.77  Z" fill="#009af9" fill-rule="evenodd" fill-opacity="1"/>
<polyline clip-path="url(#clip812)" style="stroke:#000000; stroke-linecap:round; stroke-linejoin:round; stroke-width:4; stroke-opacity:1; fill:none" points="748.494,1278.77 748.494,1423.18 798.087,1423.18 798.087,1278.77 748.494,1278.77 "/>
<path clip-path="url(#clip812)" d="M798.087 1218.73 L798.087 1423.18 L847.68 1423.18 L847.68 1218.73 L798.087 1218.73 L798.087 1218.73  Z" fill="#009af9" fill-rule="evenodd" fill-opacity="1"/>
<polyline clip-path="url(#clip812)" style="stroke:#000000; stroke-linecap:round; stroke-linejoin:round; stroke-width:4; stroke-opacity:1; fill:none" points="798.087,1218.73 798.087,1423.18 847.68,1423.18 847.68,1218.73 798.087,1218.73 "/>
<path clip-path="url(#clip812)" d="M847.68 1144.09 L847.68 1423.18 L897.273 1423.18 L897.273 1144.09 L847.68 1144.09 L847.68 1144.09  Z" fill="#009af9" fill-rule="evenodd" fill-opacity="1"/>
<polyline clip-path="url(#clip812)" style="stroke:#000000; stroke-linecap:round; stroke-linejoin:round; stroke-width:4; stroke-opacity:1; fill:none" points="847.68,1144.09 847.68,1423.18 897.273,1423.18 897.273,1144.09 847.68,1144.09 "/>
<path clip-path="url(#clip812)" d="M897.273 1001.3 L897.273 1423.18 L946.867 1423.18 L946.867 1001.3 L897.273 1001.3 L897.273 1001.3  Z" fill="#009af9" fill-rule="evenodd" fill-opacity="1"/>
<polyline clip-path="url(#clip812)" style="stroke:#000000; stroke-linecap:round; stroke-linejoin:round; stroke-width:4; stroke-opacity:1; fill:none" points="897.273,1001.3 897.273,1423.18 946.867,1423.18 946.867,1001.3 897.273,1001.3 "/>
<path clip-path="url(#clip812)" d="M946.867 824.438 L946.867 1423.18 L996.46 1423.18 L996.46 824.438 L946.867 824.438 L946.867 824.438  Z" fill="#009af9" fill-rule="evenodd" fill-opacity="1"/>
<polyline clip-path="url(#clip812)" style="stroke:#000000; stroke-linecap:round; stroke-linejoin:round; stroke-width:4; stroke-opacity:1; fill:none" points="946.867,824.438 946.867,1423.18 996.46,1423.18 996.46,824.438 946.867,824.438 "/>
<path clip-path="url(#clip812)" d="M996.46 714.101 L996.46 1423.18 L1046.05 1423.18 L1046.05 714.101 L996.46 714.101 L996.46 714.101  Z" fill="#009af9" fill-rule="evenodd" fill-opacity="1"/>
<polyline clip-path="url(#clip812)" style="stroke:#000000; stroke-linecap:round; stroke-linejoin:round; stroke-width:4; stroke-opacity:1; fill:none" points="996.46,714.101 996.46,1423.18 1046.05,1423.18 1046.05,714.101 996.46,714.101 "/>
<path clip-path="url(#clip812)" d="M1046.05 542.105 L1046.05 1423.18 L1095.65 1423.18 L1095.65 542.105 L1046.05 542.105 L1046.05 542.105  Z" fill="#009af9" fill-rule="evenodd" fill-opacity="1"/>
<polyline clip-path="url(#clip812)" style="stroke:#000000; stroke-linecap:round; stroke-linejoin:round; stroke-width:4; stroke-opacity:1; fill:none" points="1046.05,542.105 1046.05,1423.18 1095.65,1423.18 1095.65,542.105 1046.05,542.105 "/>
<path clip-path="url(#clip812)" d="M1095.65 422.032 L1095.65 1423.18 L1145.24 1423.18 L1145.24 422.032 L1095.65 422.032 L1095.65 422.032  Z" fill="#009af9" fill-rule="evenodd" fill-opacity="1"/>
<polyline clip-path="url(#clip812)" style="stroke:#000000; stroke-linecap:round; stroke-linejoin:round; stroke-width:4; stroke-opacity:1; fill:none" points="1095.65,422.032 1095.65,1423.18 1145.24,1423.18 1145.24,422.032 1095.65,422.032 "/>
<path clip-path="url(#clip812)" d="M1145.24 293.846 L1145.24 1423.18 L1194.83 1423.18 L1194.83 293.846 L1145.24 293.846 L1145.24 293.846  Z" fill="#009af9" fill-rule="evenodd" fill-opacity="1"/>
<polyline clip-path="url(#clip812)" style="stroke:#000000; stroke-linecap:round; stroke-linejoin:round; stroke-width:4; stroke-opacity:1; fill:none" points="1145.24,293.846 1145.24,1423.18 1194.83,1423.18 1194.83,293.846 1145.24,293.846 "/>
<path clip-path="url(#clip812)" d="M1194.83 225.696 L1194.83 1423.18 L1244.43 1423.18 L1244.43 225.696 L1194.83 225.696 L1194.83 225.696  Z" fill="#009af9" fill-rule="evenodd" fill-opacity="1"/>
<polyline clip-path="url(#clip812)" style="stroke:#000000; stroke-linecap:round; stroke-linejoin:round; stroke-width:4; stroke-opacity:1; fill:none" points="1194.83,225.696 1194.83,1423.18 1244.43,1423.18 1244.43,225.696 1194.83,225.696 "/>
<path clip-path="url(#clip812)" d="M1244.43 123.472 L1244.43 1423.18 L1294.02 1423.18 L1294.02 123.472 L1244.43 123.472 L1244.43 123.472  Z" fill="#009af9" fill-rule="evenodd" fill-opacity="1"/>
<polyline clip-path="url(#clip812)" style="stroke:#000000; stroke-linecap:round; stroke-linejoin:round; stroke-width:4; stroke-opacity:1; fill:none" points="1244.43,123.472 1244.43,1423.18 1294.02,1423.18 1294.02,123.472 1244.43,123.472 "/>
<path clip-path="url(#clip812)" d="M1294.02 160.792 L1294.02 1423.18 L1343.61 1423.18 L1343.61 160.792 L1294.02 160.792 L1294.02 160.792  Z" fill="#009af9" fill-rule="evenodd" fill-opacity="1"/>
<polyline clip-path="url(#clip812)" style="stroke:#000000; stroke-linecap:round; stroke-linejoin:round; stroke-width:4; stroke-opacity:1; fill:none" points="1294.02,160.792 1294.02,1423.18 1343.61,1423.18 1343.61,160.792 1294.02,160.792 "/>
<path clip-path="url(#clip812)" d="M1343.61 246.79 L1343.61 1423.18 L1393.21 1423.18 L1393.21 246.79 L1343.61 246.79 L1343.61 246.79  Z" fill="#009af9" fill-rule="evenodd" fill-opacity="1"/>
<polyline clip-path="url(#clip812)" style="stroke:#000000; stroke-linecap:round; stroke-linejoin:round; stroke-width:4; stroke-opacity:1; fill:none" points="1343.61,246.79 1343.61,1423.18 1393.21,1423.18 1393.21,246.79 1343.61,246.79 "/>
<path clip-path="url(#clip812)" d="M1393.21 175.396 L1393.21 1423.18 L1442.8 1423.18 L1442.8 175.396 L1393.21 175.396 L1393.21 175.396  Z" fill="#009af9" fill-rule="evenodd" fill-opacity="1"/>
<polyline clip-path="url(#clip812)" style="stroke:#000000; stroke-linecap:round; stroke-linejoin:round; stroke-width:4; stroke-opacity:1; fill:none" points="1393.21,175.396 1393.21,1423.18 1442.8,1423.18 1442.8,175.396 1393.21,175.396 "/>
<path clip-path="url(#clip812)" d="M1442.8 438.258 L1442.8 1423.18 L1492.39 1423.18 L1492.39 438.258 L1442.8 438.258 L1442.8 438.258  Z" fill="#009af9" fill-rule="evenodd" fill-opacity="1"/>
<polyline clip-path="url(#clip812)" style="stroke:#000000; stroke-linecap:round; stroke-linejoin:round; stroke-width:4; stroke-opacity:1; fill:none" points="1442.8,438.258 1442.8,1423.18 1492.39,1423.18 1492.39,438.258 1442.8,438.258 "/>
<path clip-path="url(#clip812)" d="M1492.39 535.614 L1492.39 1423.18 L1541.99 1423.18 L1541.99 535.614 L1492.39 535.614 L1492.39 535.614  Z" fill="#009af9" fill-rule="evenodd" fill-opacity="1"/>
<polyline clip-path="url(#clip812)" style="stroke:#000000; stroke-linecap:round; stroke-linejoin:round; stroke-width:4; stroke-opacity:1; fill:none" points="1492.39,535.614 1492.39,1423.18 1541.99,1423.18 1541.99,535.614 1492.39,535.614 "/>
<path clip-path="url(#clip812)" d="M1541.99 736.817 L1541.99 1423.18 L1591.58 1423.18 L1591.58 736.817 L1541.99 736.817 L1541.99 736.817  Z" fill="#009af9" fill-rule="evenodd" fill-opacity="1"/>
<polyline clip-path="url(#clip812)" style="stroke:#000000; stroke-linecap:round; stroke-linejoin:round; stroke-width:4; stroke-opacity:1; fill:none" points="1541.99,736.817 1541.99,1423.18 1591.58,1423.18 1591.58,736.817 1541.99,736.817 "/>
<path clip-path="url(#clip812)" d="M1591.58 860.135 L1591.58 1423.18 L1641.17 1423.18 L1641.17 860.135 L1591.58 860.135 L1591.58 860.135  Z" fill="#009af9" fill-rule="evenodd" fill-opacity="1"/>
<polyline clip-path="url(#clip812)" style="stroke:#000000; stroke-linecap:round; stroke-linejoin:round; stroke-width:4; stroke-opacity:1; fill:none" points="1591.58,860.135 1591.58,1423.18 1641.17,1423.18 1641.17,860.135 1591.58,860.135 "/>
<path clip-path="url(#clip812)" d="M1641.17 993.189 L1641.17 1423.18 L1690.77 1423.18 L1690.77 993.189 L1641.17 993.189 L1641.17 993.189  Z" fill="#009af9" fill-rule="evenodd" fill-opacity="1"/>
<polyline clip-path="url(#clip812)" style="stroke:#000000; stroke-linecap:round; stroke-linejoin:round; stroke-width:4; stroke-opacity:1; fill:none" points="1641.17,993.189 1641.17,1423.18 1690.77,1423.18 1690.77,993.189 1641.17,993.189 "/>
<path clip-path="url(#clip812)" d="M1690.77 1124.62 L1690.77 1423.18 L1740.36 1423.18 L1740.36 1124.62 L1690.77 1124.62 L1690.77 1124.62  Z" fill="#009af9" fill-rule="evenodd" fill-opacity="1"/>
<polyline clip-path="url(#clip812)" style="stroke:#000000; stroke-linecap:round; stroke-linejoin:round; stroke-width:4; stroke-opacity:1; fill:none" points="1690.77,1124.62 1690.77,1423.18 1740.36,1423.18 1740.36,1124.62 1690.77,1124.62 "/>
<path clip-path="url(#clip812)" d="M1740.36 1205.75 L1740.36 1423.18 L1789.95 1423.18 L1789.95 1205.75 L1740.36 1205.75 L1740.36 1205.75  Z" fill="#009af9" fill-rule="evenodd" fill-opacity="1"/>
<polyline clip-path="url(#clip812)" style="stroke:#000000; stroke-linecap:round; stroke-linejoin:round; stroke-width:4; stroke-opacity:1; fill:none" points="1740.36,1205.75 1740.36,1423.18 1789.95,1423.18 1789.95,1205.75 1740.36,1205.75 "/>
<path clip-path="url(#clip812)" d="M1789.95 1293.37 L1789.95 1423.18 L1839.55 1423.18 L1839.55 1293.37 L1789.95 1293.37 L1789.95 1293.37  Z" fill="#009af9" fill-rule="evenodd" fill-opacity="1"/>
<polyline clip-path="url(#clip812)" style="stroke:#000000; stroke-linecap:round; stroke-linejoin:round; stroke-width:4; stroke-opacity:1; fill:none" points="1789.95,1293.37 1789.95,1423.18 1839.55,1423.18 1839.55,1293.37 1789.95,1293.37 "/>
<path clip-path="url(#clip812)" d="M1839.55 1338.8 L1839.55 1423.18 L1889.14 1423.18 L1889.14 1338.8 L1839.55 1338.8 L1839.55 1338.8  Z" fill="#009af9" fill-rule="evenodd" fill-opacity="1"/>
<polyline clip-path="url(#clip812)" style="stroke:#000000; stroke-linecap:round; stroke-linejoin:round; stroke-width:4; stroke-opacity:1; fill:none" points="1839.55,1338.8 1839.55,1423.18 1889.14,1423.18 1889.14,1338.8 1839.55,1338.8 "/>
<path clip-path="url(#clip812)" d="M1889.14 1342.05 L1889.14 1423.18 L1938.73 1423.18 L1938.73 1342.05 L1889.14 1342.05 L1889.14 1342.05  Z" fill="#009af9" fill-rule="evenodd" fill-opacity="1"/>
<polyline clip-path="url(#clip812)" style="stroke:#000000; stroke-linecap:round; stroke-linejoin:round; stroke-width:4; stroke-opacity:1; fill:none" points="1889.14,1342.05 1889.14,1423.18 1938.73,1423.18 1938.73,1342.05 1889.14,1342.05 "/>
<path clip-path="url(#clip812)" d="M1938.73 1389.11 L1938.73 1423.18 L1988.32 1423.18 L1988.32 1389.11 L1938.73 1389.11 L1938.73 1389.11  Z" fill="#009af9" fill-rule="evenodd" fill-opacity="1"/>
<polyline clip-path="url(#clip812)" style="stroke:#000000; stroke-linecap:round; stroke-linejoin:round; stroke-width:4; stroke-opacity:1; fill:none" points="1938.73,1389.11 1938.73,1423.18 1988.32,1423.18 1988.32,1389.11 1938.73,1389.11 "/>
<path clip-path="url(#clip812)" d="M1988.32 1393.97 L1988.32 1423.18 L2037.92 1423.18 L2037.92 1393.97 L1988.32 1393.97 L1988.32 1393.97  Z" fill="#009af9" fill-rule="evenodd" fill-opacity="1"/>
<polyline clip-path="url(#clip812)" style="stroke:#000000; stroke-linecap:round; stroke-linejoin:round; stroke-width:4; stroke-opacity:1; fill:none" points="1988.32,1393.97 1988.32,1423.18 2037.92,1423.18 2037.92,1393.97 1988.32,1393.97 "/>
<path clip-path="url(#clip812)" d="M2037.92 1415.07 L2037.92 1423.18 L2087.51 1423.18 L2087.51 1415.07 L2037.92 1415.07 L2037.92 1415.07  Z" fill="#009af9" fill-rule="evenodd" fill-opacity="1"/>
<polyline clip-path="url(#clip812)" style="stroke:#000000; stroke-linecap:round; stroke-linejoin:round; stroke-width:4; stroke-opacity:1; fill:none" points="2037.92,1415.07 2037.92,1423.18 2087.51,1423.18 2087.51,1415.07 2037.92,1415.07 "/>
<path clip-path="url(#clip812)" d="M2087.51 1410.2 L2087.51 1423.18 L2137.1 1423.18 L2137.1 1410.2 L2087.51 1410.2 L2087.51 1410.2  Z" fill="#009af9" fill-rule="evenodd" fill-opacity="1"/>
<polyline clip-path="url(#clip812)" style="stroke:#000000; stroke-linecap:round; stroke-linejoin:round; stroke-width:4; stroke-opacity:1; fill:none" points="2087.51,1410.2 2087.51,1423.18 2137.1,1423.18 2137.1,1410.2 2087.51,1410.2 "/>
<path clip-path="url(#clip812)" d="M2137.1 1419.93 L2137.1 1423.18 L2186.7 1423.18 L2186.7 1419.93 L2137.1 1419.93 L2137.1 1419.93  Z" fill="#009af9" fill-rule="evenodd" fill-opacity="1"/>
<polyline clip-path="url(#clip812)" style="stroke:#000000; stroke-linecap:round; stroke-linejoin:round; stroke-width:4; stroke-opacity:1; fill:none" points="2137.1,1419.93 2137.1,1423.18 2186.7,1423.18 2186.7,1419.93 2137.1,1419.93 "/>
<path clip-path="url(#clip812)" d="M2186.7 1416.69 L2186.7 1423.18 L2236.29 1423.18 L2236.29 1416.69 L2186.7 1416.69 L2186.7 1416.69  Z" fill="#009af9" fill-rule="evenodd" fill-opacity="1"/>
<polyline clip-path="url(#clip812)" style="stroke:#000000; stroke-linecap:round; stroke-linejoin:round; stroke-width:4; stroke-opacity:1; fill:none" points="2186.7,1416.69 2186.7,1423.18 2236.29,1423.18 2236.29,1416.69 2186.7,1416.69 "/>
<circle clip-path="url(#clip812)" style="fill:#009af9; stroke:none; fill-opacity:0" cx="376.544" cy="1419.93" r="2"/>
<circle clip-path="url(#clip812)" style="fill:#009af9; stroke:none; fill-opacity:0" cx="426.138" cy="1415.07" r="2"/>
<circle clip-path="url(#clip812)" style="fill:#009af9; stroke:none; fill-opacity:0" cx="475.731" cy="1418.31" r="2"/>
<circle clip-path="url(#clip812)" style="fill:#009af9; stroke:none; fill-opacity:0" cx="525.324" cy="1408.58" r="2"/>
<circle clip-path="url(#clip812)" style="fill:#009af9; stroke:none; fill-opacity:0" cx="574.917" cy="1408.58" r="2"/>
<circle clip-path="url(#clip812)" style="fill:#009af9; stroke:none; fill-opacity:0" cx="624.511" cy="1392.35" r="2"/>
<circle clip-path="url(#clip812)" style="fill:#009af9; stroke:none; fill-opacity:0" cx="674.104" cy="1364.77" r="2"/>
<circle clip-path="url(#clip812)" style="fill:#009af9; stroke:none; fill-opacity:0" cx="723.697" cy="1342.05" r="2"/>
<circle clip-path="url(#clip812)" style="fill:#009af9; stroke:none; fill-opacity:0" cx="773.29" cy="1278.77" r="2"/>
<circle clip-path="url(#clip812)" style="fill:#009af9; stroke:none; fill-opacity:0" cx="822.884" cy="1218.73" r="2"/>
<circle clip-path="url(#clip812)" style="fill:#009af9; stroke:none; fill-opacity:0" cx="872.477" cy="1144.09" r="2"/>
<circle clip-path="url(#clip812)" style="fill:#009af9; stroke:none; fill-opacity:0" cx="922.07" cy="1001.3" r="2"/>
<circle clip-path="url(#clip812)" style="fill:#009af9; stroke:none; fill-opacity:0" cx="971.663" cy="824.438" r="2"/>
<circle clip-path="url(#clip812)" style="fill:#009af9; stroke:none; fill-opacity:0" cx="1021.26" cy="714.101" r="2"/>
<circle clip-path="url(#clip812)" style="fill:#009af9; stroke:none; fill-opacity:0" cx="1070.85" cy="542.105" r="2"/>
<circle clip-path="url(#clip812)" style="fill:#009af9; stroke:none; fill-opacity:0" cx="1120.44" cy="422.032" r="2"/>
<circle clip-path="url(#clip812)" style="fill:#009af9; stroke:none; fill-opacity:0" cx="1170.04" cy="293.846" r="2"/>
<circle clip-path="url(#clip812)" style="fill:#009af9; stroke:none; fill-opacity:0" cx="1219.63" cy="225.696" r="2"/>
<circle clip-path="url(#clip812)" style="fill:#009af9; stroke:none; fill-opacity:0" cx="1269.22" cy="123.472" r="2"/>
<circle clip-path="url(#clip812)" style="fill:#009af9; stroke:none; fill-opacity:0" cx="1318.82" cy="160.792" r="2"/>
<circle clip-path="url(#clip812)" style="fill:#009af9; stroke:none; fill-opacity:0" cx="1368.41" cy="246.79" r="2"/>
<circle clip-path="url(#clip812)" style="fill:#009af9; stroke:none; fill-opacity:0" cx="1418" cy="175.396" r="2"/>
<circle clip-path="url(#clip812)" style="fill:#009af9; stroke:none; fill-opacity:0" cx="1467.6" cy="438.258" r="2"/>
<circle clip-path="url(#clip812)" style="fill:#009af9; stroke:none; fill-opacity:0" cx="1517.19" cy="535.614" r="2"/>
<circle clip-path="url(#clip812)" style="fill:#009af9; stroke:none; fill-opacity:0" cx="1566.78" cy="736.817" r="2"/>
<circle clip-path="url(#clip812)" style="fill:#009af9; stroke:none; fill-opacity:0" cx="1616.38" cy="860.135" r="2"/>
<circle clip-path="url(#clip812)" style="fill:#009af9; stroke:none; fill-opacity:0" cx="1665.97" cy="993.189" r="2"/>
<circle clip-path="url(#clip812)" style="fill:#009af9; stroke:none; fill-opacity:0" cx="1715.56" cy="1124.62" r="2"/>
<circle clip-path="url(#clip812)" style="fill:#009af9; stroke:none; fill-opacity:0" cx="1765.16" cy="1205.75" r="2"/>
<circle clip-path="url(#clip812)" style="fill:#009af9; stroke:none; fill-opacity:0" cx="1814.75" cy="1293.37" r="2"/>
<circle clip-path="url(#clip812)" style="fill:#009af9; stroke:none; fill-opacity:0" cx="1864.34" cy="1338.8" r="2"/>
<circle clip-path="url(#clip812)" style="fill:#009af9; stroke:none; fill-opacity:0" cx="1913.93" cy="1342.05" r="2"/>
<circle clip-path="url(#clip812)" style="fill:#009af9; stroke:none; fill-opacity:0" cx="1963.53" cy="1389.11" r="2"/>
<circle clip-path="url(#clip812)" style="fill:#009af9; stroke:none; fill-opacity:0" cx="2013.12" cy="1393.97" r="2"/>
<circle clip-path="url(#clip812)" style="fill:#009af9; stroke:none; fill-opacity:0" cx="2062.71" cy="1415.07" r="2"/>
<circle clip-path="url(#clip812)" style="fill:#009af9; stroke:none; fill-opacity:0" cx="2112.31" cy="1410.2" r="2"/>
<circle clip-path="url(#clip812)" style="fill:#009af9; stroke:none; fill-opacity:0" cx="2161.9" cy="1419.93" r="2"/>
<circle clip-path="url(#clip812)" style="fill:#009af9; stroke:none; fill-opacity:0" cx="2211.49" cy="1416.69" r="2"/>
</svg>