<?xml version="1.0" encoding="utf-8"?>
<svg xmlns="http://www.w3.org/2000/svg" xmlns:xlink="http://www.w3.org/1999/xlink" width="600" height="400" viewBox="0 0 2400 1600">
<defs>
  <clipPath id="clip630">
    <rect x="0" y="0" width="2400" height="1600"/>
  </clipPath>
</defs>
<path clip-path="url(#clip630)" d="M0 1600 L2400 1600 L2400 0 L0 0  Z" fill="#ffffff" fill-rule="evenodd" fill-opacity="1"/>
<defs>
  <clipPath id="clip631">
    <rect x="480" y="0" width="1681" height="1600"/>
  </clipPath>
</defs>
<path clip-path="url(#clip630)" d="M249.542 1423.18 L2352.76 1423.18 L2352.76 123.472 L249.542 123.472  Z" fill="#ffffff" fill-rule="evenodd" fill-opacity="1"/>
<defs>
  <clipPath id="clip632">
    <rect x="249" y="123" width="2104" height="1301"/>
  </clipPath>
</defs>
<polyline clip-path="url(#clip632)" style="stroke:#000000; stroke-linecap:round; stroke-linejoin:round; stroke-width:2; stroke-opacity:0.1; fill:none" points="512.444,1423.18 512.444,123.472 "/>
<polyline clip-path="url(#clip632)" style="stroke:#000000; stroke-linecap:round; stroke-linejoin:round; stroke-width:2; stroke-opacity:0.1; fill:none" points="950.613,1423.18 950.613,123.472 "/>
<polyline clip-path="url(#clip632)" style="stroke:#000000; stroke-linecap:round; stroke-linejoin:round; stroke-width:2; stroke-opacity:0.1; fill:none" points="1388.78,1423.18 1388.78,123.472 "/>
<polyline clip-path="url(#clip632)" style="stroke:#000000; stroke-linecap:round; stroke-linejoin:round; stroke-width:2; stroke-opacity:0.1; fill:none" points="1826.95,1423.18 1826.95,123.472 "/>
<polyline clip-path="url(#clip632)" style="stroke:#000000; stroke-linecap:round; stroke-linejoin:round; stroke-width:2; stroke-opacity:0.1; fill:none" points="2265.12,1423.18 2265.12,123.472 "/>
<polyline clip-path="url(#clip632)" style="stroke:#000000; stroke-linecap:round; stroke-linejoin:round; stroke-width:2; stroke-opacity:0.1; fill:none" points="249.542,1423.18 2352.76,1423.18 "/>
<polyline clip-path="url(#clip632)" style="stroke:#000000; stroke-linecap:round; stroke-linejoin:round; stroke-width:2; stroke-opacity:0.1; fill:none" points="249.542,1042.7 2352.76,1042.7 "/>
<polyline clip-path="url(#clip632)" style="stroke:#000000; stroke-linecap:round; stroke-linejoin:round; stroke-width:2; stroke-opacity:0.1; fill:none" points="249.542,662.227 2352.76,662.227 "/>
<polyline clip-path="url(#clip632)" style="stroke:#000000; stroke-linecap:round; stroke-linejoin:round; stroke-width:2; stroke-opacity:0.1; fill:none" points="249.542,281.75 2352.76,281.75 "/>
<polyline clip-path="url(#clip630)" style="stroke:#000000; stroke-linecap:round; stroke-linejoin:round; stroke-width:4; stroke-opacity:1; fill:none" points="249.542,1423.18 2352.76,1423.18 "/>
<polyline clip-path="url(#clip630)" style="stroke:#000000; stroke-linecap:round; stroke-linejoin:round; stroke-width:4; stroke-opacity:1; fill:none" points="512.444,1423.18 512.444,1404.28 "/>
<polyline clip-path="url(#clip630)" style="stroke:#000000; stroke-linecap:round; stroke-linejoin:round; stroke-width:4; stroke-opacity:1; fill:none" points="950.613,1423.18 950.613,1404.28 "/>
<polyline clip-path="url(#clip630)" style="stroke:#000000; stroke-linecap:round; stroke-linejoin:round; stroke-width:4; stroke-opacity:1; fill:none" points="1388.78,1423.18 1388.78,1404.28 "/>
<polyline clip-path="url(#clip630)" style="stroke:#000000; stroke-linecap:round; stroke-linejoin:round; stroke-width:4; stroke-opacity:1; fill:none" points="1826.95,1423.18 1826.95,1404.28 "/>
<polyline clip-path="url(#clip630)" style="stroke:#000000; stroke-linecap:round; stroke-linejoin:round; stroke-width:4; stroke-opacity:1; fill:none" points="2265.12,1423.18 2265.12,1404.28 "/>
<path clip-path="url(#clip630)" d="M484.18 1481.64 L500.499 1481.64 L500.499 1485.58 L478.555 1485.58 L478.555 1481.64 Q481.217 1478.89 485.8 1474.26 Q490.407 1469.61 491.587 1468.27 Q493.833 1465.74 494.712 1464.01 Q495.615 1462.25 495.615 1460.56 Q495.615 1457.8 493.671 1456.07 Q491.749 1454.33 488.648 1454.33 Q486.449 1454.33 483.995 1455.09 Q481.564 1455.86 478.787 1457.41 L478.787 1452.69 Q481.611 1451.55 484.064 1450.97 Q486.518 1450.39 488.555 1450.39 Q493.925 1450.39 497.12 1453.08 Q500.314 1455.77 500.314 1460.26 Q500.314 1462.39 499.504 1464.31 Q498.717 1466.2 496.611 1468.8 Q496.032 1469.47 492.93 1472.69 Q489.828 1475.88 484.18 1481.64 Z" fill="#000000" fill-rule="nonzero" fill-opacity="1" /><path clip-path="url(#clip630)" d="M510.314 1479.7 L515.198 1479.7 L515.198 1485.58 L510.314 1485.58 L510.314 1479.7 Z" fill="#000000" fill-rule="nonzero" fill-opacity="1" /><path clip-path="url(#clip630)" d="M525.43 1451.02 L543.786 1451.02 L543.786 1454.96 L529.712 1454.96 L529.712 1463.43 Q530.731 1463.08 531.749 1462.92 Q532.768 1462.73 533.786 1462.73 Q539.573 1462.73 542.953 1465.9 Q546.332 1469.08 546.332 1474.49 Q546.332 1480.07 542.86 1483.17 Q539.388 1486.25 533.069 1486.25 Q530.893 1486.25 528.624 1485.88 Q526.379 1485.51 523.971 1484.77 L523.971 1480.07 Q526.055 1481.2 528.277 1481.76 Q530.499 1482.32 532.976 1482.32 Q536.981 1482.32 539.319 1480.21 Q541.657 1478.1 541.657 1474.49 Q541.657 1470.88 539.319 1468.77 Q536.981 1466.67 532.976 1466.67 Q531.101 1466.67 529.226 1467.08 Q527.374 1467.5 525.43 1468.38 L525.43 1451.02 Z" fill="#000000" fill-rule="nonzero" fill-opacity="1" /><path clip-path="url(#clip630)" d="M917.778 1451.02 L936.134 1451.02 L936.134 1454.96 L922.06 1454.96 L922.06 1463.43 Q923.079 1463.08 924.097 1462.92 Q925.116 1462.73 926.134 1462.73 Q931.921 1462.73 935.301 1465.9 Q938.681 1469.08 938.681 1474.49 Q938.681 1480.07 935.208 1483.17 Q931.736 1486.25 925.417 1486.25 Q923.241 1486.25 920.972 1485.88 Q918.727 1485.51 916.32 1484.77 L916.32 1480.07 Q918.403 1481.2 920.625 1481.76 Q922.847 1482.32 925.324 1482.32 Q929.329 1482.32 931.667 1480.21 Q934.005 1478.1 934.005 1474.49 Q934.005 1470.88 931.667 1468.77 Q929.329 1466.67 925.324 1466.67 Q923.449 1466.67 921.574 1467.08 Q919.722 1467.5 917.778 1468.38 L917.778 1451.02 Z" fill="#000000" fill-rule="nonzero" fill-opacity="1" /><path clip-path="url(#clip630)" d="M947.893 1479.7 L952.778 1479.7 L952.778 1485.58 L947.893 1485.58 L947.893 1479.7 Z" fill="#000000" fill-rule="nonzero" fill-opacity="1" /><path clip-path="url(#clip630)" d="M972.963 1454.1 Q969.352 1454.1 967.523 1457.66 Q965.717 1461.2 965.717 1468.33 Q965.717 1475.44 967.523 1479.01 Q969.352 1482.55 972.963 1482.55 Q976.597 1482.55 978.403 1479.01 Q980.231 1475.44 980.231 1468.33 Q980.231 1461.2 978.403 1457.66 Q976.597 1454.1 972.963 1454.1 M972.963 1450.39 Q978.773 1450.39 981.828 1455 Q984.907 1459.58 984.907 1468.33 Q984.907 1477.06 981.828 1481.67 Q978.773 1486.25 972.963 1486.25 Q967.153 1486.25 964.074 1481.67 Q961.018 1477.06 961.018 1468.33 Q961.018 1459.58 964.074 1455 Q967.153 1450.39 972.963 1450.39 Z" fill="#000000" fill-rule="nonzero" fill-opacity="1" /><path clip-path="url(#clip630)" d="M1355.1 1451.02 L1377.32 1451.02 L1377.32 1453.01 L1364.78 1485.58 L1359.89 1485.58 L1371.7 1454.96 L1355.1 1454.96 L1355.1 1451.02 Z" fill="#000000" fill-rule="nonzero" fill-opacity="1" /><path clip-path="url(#clip630)" d="M1386.44 1479.7 L1391.33 1479.7 L1391.33 1485.58 L1386.44 1485.58 L1386.44 1479.7 Z" fill="#000000" fill-rule="nonzero" fill-opacity="1" /><path clip-path="url(#clip630)" d="M1401.56 1451.02 L1419.92 1451.02 L1419.92 1454.96 L1405.84 1454.96 L1405.84 1463.43 Q1406.86 1463.08 1407.88 1462.92 Q1408.9 1462.73 1409.92 1462.73 Q1415.7 1462.73 1419.08 1465.9 Q1422.46 1469.08 1422.46 1474.49 Q1422.46 1480.07 1418.99 1483.17 Q1415.52 1486.25 1409.2 1486.25 Q1407.02 1486.25 1404.76 1485.88 Q1402.51 1485.51 1400.1 1484.77 L1400.1 1480.07 Q1402.19 1481.2 1404.41 1481.76 Q1406.63 1482.32 1409.11 1482.32 Q1413.11 1482.32 1415.45 1480.21 Q1417.79 1478.1 1417.79 1474.49 Q1417.79 1470.88 1415.45 1468.77 Q1413.11 1466.67 1409.11 1466.67 Q1407.23 1466.67 1405.36 1467.08 Q1403.51 1467.5 1401.56 1468.38 L1401.56 1451.02 Z" fill="#000000" fill-rule="nonzero" fill-opacity="1" /><path clip-path="url(#clip630)" d="M1779.02 1481.64 L1786.66 1481.64 L1786.66 1455.28 L1778.35 1456.95 L1778.35 1452.69 L1786.62 1451.02 L1791.29 1451.02 L1791.29 1481.64 L1798.93 1481.64 L1798.93 1485.58 L1779.02 1485.58 L1779.02 1481.64 Z" fill="#000000" fill-rule="nonzero" fill-opacity="1" /><path clip-path="url(#clip630)" d="M1818.38 1454.1 Q1814.77 1454.1 1812.94 1457.66 Q1811.13 1461.2 1811.13 1468.33 Q1811.13 1475.44 1812.94 1479.01 Q1814.77 1482.55 1818.38 1482.55 Q1822.01 1482.55 1823.82 1479.01 Q1825.64 1475.44 1825.64 1468.33 Q1825.64 1461.2 1823.82 1457.66 Q1822.01 1454.1 1818.38 1454.1 M1818.38 1450.39 Q1824.19 1450.39 1827.24 1455 Q1830.32 1459.58 1830.32 1468.33 Q1830.32 1477.06 1827.24 1481.67 Q1824.19 1486.25 1818.38 1486.25 Q1812.57 1486.25 1809.49 1481.67 Q1806.43 1477.06 1806.43 1468.33 Q1806.43 1459.58 1809.49 1455 Q1812.57 1450.39 1818.38 1450.39 Z" fill="#000000" fill-rule="nonzero" fill-opacity="1" /><path clip-path="url(#clip630)" d="M1838.54 1479.7 L1843.42 1479.7 L1843.42 1485.58 L1838.54 1485.58 L1838.54 1479.7 Z" fill="#000000" fill-rule="nonzero" fill-opacity="1" /><path clip-path="url(#clip630)" d="M1863.61 1454.1 Q1860 1454.1 1858.17 1457.66 Q1856.36 1461.2 1856.36 1468.33 Q1856.36 1475.44 1858.17 1479.01 Q1860 1482.55 1863.61 1482.55 Q1867.24 1482.55 1869.05 1479.01 Q1870.88 1475.44 1870.88 1468.33 Q1870.88 1461.2 1869.05 1457.66 Q1867.24 1454.1 1863.61 1454.1 M1863.61 1450.39 Q1869.42 1450.39 1872.47 1455 Q1875.55 1459.58 1875.55 1468.33 Q1875.55 1477.06 1872.47 1481.67 Q1869.42 1486.25 1863.61 1486.25 Q1857.8 1486.25 1854.72 1481.67 Q1851.66 1477.06 1851.66 1468.33 Q1851.66 1459.58 1854.72 1455 Q1857.8 1450.39 1863.61 1450.39 Z" fill="#000000" fill-rule="nonzero" fill-opacity="1" /><path clip-path="url(#clip630)" d="M2217.69 1481.64 L2225.33 1481.64 L2225.33 1455.28 L2217.02 1456.95 L2217.02 1452.69 L2225.28 1451.02 L2229.96 1451.02 L2229.96 1481.64 L2237.6 1481.64 L2237.6 1485.58 L2217.69 1485.58 L2217.69 1481.64 Z" fill="#000000" fill-rule="nonzero" fill-opacity="1" /><path clip-path="url(#clip630)" d="M2251.07 1481.64 L2267.39 1481.64 L2267.39 1485.58 L2245.45 1485.58 L2245.45 1481.64 Q2248.11 1478.89 2252.69 1474.26 Q2257.3 1469.61 2258.48 1468.27 Q2260.72 1465.74 2261.6 1464.01 Q2262.51 1462.25 2262.51 1460.56 Q2262.51 1457.8 2260.56 1456.07 Q2258.64 1454.33 2255.54 1454.33 Q2253.34 1454.33 2250.89 1455.09 Q2248.46 1455.86 2245.68 1457.41 L2245.68 1452.69 Q2248.5 1451.55 2250.96 1450.97 Q2253.41 1450.39 2255.45 1450.39 Q2260.82 1450.39 2264.01 1453.08 Q2267.21 1455.77 2267.21 1460.26 Q2267.21 1462.39 2266.4 1464.31 Q2265.61 1466.2 2263.5 1468.8 Q2262.92 1469.47 2259.82 1472.69 Q2256.72 1475.88 2251.07 1481.64 Z" fill="#000000" fill-rule="nonzero" fill-opacity="1" /><path clip-path="url(#clip630)" d="M2277.21 1479.7 L2282.09 1479.7 L2282.09 1485.58 L2277.21 1485.58 L2277.21 1479.7 Z" fill="#000000" fill-rule="nonzero" fill-opacity="1" /><path clip-path="url(#clip630)" d="M2292.32 1451.02 L2310.68 1451.02 L2310.68 1454.96 L2296.6 1454.96 L2296.6 1463.43 Q2297.62 1463.08 2298.64 1462.92 Q2299.66 1462.73 2300.68 1462.73 Q2306.46 1462.73 2309.84 1465.9 Q2313.22 1469.08 2313.22 1474.49 Q2313.22 1480.07 2309.75 1483.17 Q2306.28 1486.25 2299.96 1486.25 Q2297.78 1486.25 2295.52 1485.88 Q2293.27 1485.51 2290.86 1484.77 L2290.86 1480.07 Q2292.95 1481.2 2295.17 1481.76 Q2297.39 1482.32 2299.87 1482.32 Q2303.87 1482.32 2306.21 1480.21 Q2308.55 1478.1 2308.55 1474.49 Q2308.55 1470.88 2306.21 1468.77 Q2303.87 1466.67 2299.87 1466.67 Q2297.99 1466.67 2296.12 1467.08 Q2294.27 1467.5 2292.32 1468.38 L2292.32 1451.02 Z" fill="#000000" fill-rule="nonzero" fill-opacity="1" /><path clip-path="url(#clip630)" d="M1107.17 1522.08 L1107.17 1528.35 Q1103.51 1526.6 1100.26 1525.74 Q1097.02 1524.88 1093.99 1524.88 Q1088.74 1524.88 1085.88 1526.92 Q1083.04 1528.96 1083.04 1532.71 Q1083.04 1535.87 1084.92 1537.49 Q1086.83 1539.08 1092.12 1540.07 L1096 1540.86 Q1103.19 1542.23 1106.6 1545.7 Q1110.03 1549.14 1110.03 1554.93 Q1110.03 1561.84 1105.39 1565.4 Q1100.77 1568.97 1091.83 1568.97 Q1088.45 1568.97 1084.64 1568.2 Q1080.85 1567.44 1076.77 1565.94 L1076.77 1559.32 Q1080.69 1561.52 1084.44 1562.63 Q1088.2 1563.75 1091.83 1563.75 Q1097.33 1563.75 1100.33 1561.58 Q1103.32 1559.42 1103.32 1555.41 Q1103.32 1551.91 1101.15 1549.93 Q1099.02 1547.96 1094.12 1546.97 L1090.21 1546.21 Q1083.01 1544.78 1079.8 1541.72 Q1076.58 1538.67 1076.58 1533.22 Q1076.58 1526.92 1081.01 1523.29 Q1085.46 1519.66 1093.26 1519.66 Q1096.6 1519.66 1100.07 1520.27 Q1103.54 1520.87 1107.17 1522.08 Z" fill="#000000" fill-rule="nonzero" fill-opacity="1" /><path clip-path="url(#clip630)" d="M1119.2 1553.98 L1119.2 1532.4 L1125.06 1532.4 L1125.06 1553.75 Q1125.06 1558.81 1127.03 1561.36 Q1129 1563.87 1132.95 1563.87 Q1137.69 1563.87 1140.43 1560.85 Q1143.2 1557.83 1143.2 1552.61 L1143.2 1532.4 L1149.06 1532.4 L1149.06 1568.04 L1143.2 1568.04 L1143.2 1562.57 Q1141.07 1565.82 1138.23 1567.41 Q1135.43 1568.97 1131.71 1568.97 Q1125.57 1568.97 1122.38 1565.15 Q1119.2 1561.33 1119.2 1553.98 M1133.94 1531.54 L1133.94 1531.54 Z" fill="#000000" fill-rule="nonzero" fill-opacity="1" /><path clip-path="url(#clip630)" d="M1188.87 1539.24 Q1191.07 1535.29 1194.13 1533.41 Q1197.18 1531.54 1201.32 1531.54 Q1206.89 1531.54 1209.91 1535.45 Q1212.94 1539.33 1212.94 1546.53 L1212.94 1568.04 L1207.05 1568.04 L1207.05 1546.72 Q1207.05 1541.59 1205.23 1539.11 Q1203.42 1536.63 1199.7 1536.63 Q1195.14 1536.63 1192.5 1539.65 Q1189.86 1542.68 1189.86 1547.9 L1189.86 1568.04 L1183.97 1568.04 L1183.97 1546.72 Q1183.97 1541.56 1182.16 1539.11 Q1180.34 1536.63 1176.56 1536.63 Q1172.07 1536.63 1169.43 1539.68 Q1166.78 1542.71 1166.78 1547.9 L1166.78 1568.04 L1160.9 1568.04 L1160.9 1532.4 L1166.78 1532.4 L1166.78 1537.93 Q1168.79 1534.66 1171.59 1533.1 Q1174.39 1531.54 1178.24 1531.54 Q1182.13 1531.54 1184.83 1533.51 Q1187.57 1535.48 1188.87 1539.24 Z" fill="#000000" fill-rule="nonzero" fill-opacity="1" /><path clip-path="url(#clip630)" d="M1259.15 1536.5 Q1254.44 1536.5 1251.7 1540.19 Q1248.97 1543.85 1248.97 1550.25 Q1248.97 1556.65 1251.67 1560.34 Q1254.41 1564 1259.15 1564 Q1263.83 1564 1266.57 1560.31 Q1269.3 1556.62 1269.3 1550.25 Q1269.3 1543.92 1266.57 1540.23 Q1263.83 1536.5 1259.15 1536.5 M1259.15 1531.54 Q1266.79 1531.54 1271.15 1536.5 Q1275.51 1541.47 1275.51 1550.25 Q1275.51 1559 1271.15 1564 Q1266.79 1568.97 1259.15 1568.97 Q1251.48 1568.97 1247.12 1564 Q1242.79 1559 1242.79 1550.25 Q1242.79 1541.47 1247.12 1536.5 Q1251.48 1531.54 1259.15 1531.54 Z" fill="#000000" fill-rule="nonzero" fill-opacity="1" /><path clip-path="url(#clip630)" d="M1303.27 1518.52 L1303.27 1523.39 L1297.66 1523.39 Q1294.51 1523.39 1293.27 1524.66 Q1292.06 1525.93 1292.06 1529.24 L1292.06 1532.4 L1301.71 1532.4 L1301.71 1536.95 L1292.06 1536.95 L1292.06 1568.04 L1286.17 1568.04 L1286.17 1536.95 L1280.57 1536.95 L1280.57 1532.4 L1286.17 1532.4 L1286.17 1529.91 Q1286.17 1523.96 1288.94 1521.26 Q1291.71 1518.52 1297.73 1518.52 L1303.27 1518.52 Z" fill="#000000" fill-rule="nonzero" fill-opacity="1" /><path clip-path="url(#clip630)" d="M1335.25 1562.63 L1357.69 1562.63 L1357.69 1568.04 L1327.52 1568.04 L1327.52 1562.63 Q1331.18 1558.85 1337.48 1552.48 Q1343.82 1546.08 1345.44 1544.24 Q1348.53 1540.77 1349.74 1538.38 Q1350.98 1535.96 1350.98 1533.64 Q1350.98 1529.85 1348.3 1527.46 Q1345.66 1525.08 1341.4 1525.08 Q1338.37 1525.08 1335 1526.13 Q1331.66 1527.18 1327.84 1529.31 L1327.84 1522.82 Q1331.72 1521.26 1335.09 1520.46 Q1338.47 1519.66 1341.27 1519.66 Q1348.65 1519.66 1353.05 1523.36 Q1357.44 1527.05 1357.44 1533.22 Q1357.44 1536.15 1356.32 1538.79 Q1355.24 1541.4 1352.35 1544.97 Q1351.55 1545.89 1347.28 1550.32 Q1343.02 1554.71 1335.25 1562.63 Z" fill="#000000" fill-rule="nonzero" fill-opacity="1" /><path clip-path="url(#clip630)" d="M1397.76 1525.81 L1397.76 1562.76 L1405.53 1562.76 Q1415.37 1562.76 1419.92 1558.3 Q1424.5 1553.85 1424.5 1544.24 Q1424.5 1534.69 1419.92 1530.26 Q1415.37 1525.81 1405.53 1525.81 L1397.76 1525.81 M1391.34 1520.52 L1404.54 1520.52 Q1418.36 1520.52 1424.82 1526.28 Q1431.28 1532.01 1431.28 1544.24 Q1431.28 1556.52 1424.79 1562.28 Q1418.29 1568.04 1404.54 1568.04 L1391.34 1568.04 L1391.34 1520.52 Z" fill="#000000" fill-rule="nonzero" fill-opacity="1" /><path clip-path="url(#clip630)" d="M1441.27 1532.4 L1447.13 1532.4 L1447.13 1568.04 L1441.27 1568.04 L1441.27 1532.4 M1441.27 1518.52 L1447.13 1518.52 L1447.13 1525.93 L1441.27 1525.93 L1441.27 1518.52 Z" fill="#000000" fill-rule="nonzero" fill-opacity="1" /><path clip-path="url(#clip630)" d="M1485.04 1533.76 L1485.04 1539.24 Q1482.56 1537.87 1480.04 1537.2 Q1477.56 1536.5 1475.01 1536.5 Q1469.32 1536.5 1466.16 1540.13 Q1463.01 1543.73 1463.01 1550.25 Q1463.01 1556.78 1466.16 1560.4 Q1469.32 1564 1475.01 1564 Q1477.56 1564 1480.04 1563.33 Q1482.56 1562.63 1485.04 1561.26 L1485.04 1566.68 Q1482.59 1567.82 1479.95 1568.39 Q1477.34 1568.97 1474.38 1568.97 Q1466.32 1568.97 1461.58 1563.91 Q1456.84 1558.85 1456.84 1550.25 Q1456.84 1541.53 1461.61 1536.53 Q1466.42 1531.54 1474.76 1531.54 Q1477.46 1531.54 1480.04 1532.11 Q1482.62 1532.65 1485.04 1533.76 Z" fill="#000000" fill-rule="nonzero" fill-opacity="1" /><path clip-path="url(#clip630)" d="M1525.72 1548.76 L1525.72 1551.62 L1498.79 1551.62 Q1499.17 1557.67 1502.42 1560.85 Q1505.7 1564 1511.52 1564 Q1514.89 1564 1518.04 1563.17 Q1521.23 1562.35 1524.35 1560.69 L1524.35 1566.23 Q1521.2 1567.57 1517.89 1568.27 Q1514.58 1568.97 1511.17 1568.97 Q1502.64 1568.97 1497.64 1564 Q1492.68 1559.04 1492.68 1550.57 Q1492.68 1541.82 1497.39 1536.69 Q1502.13 1531.54 1510.15 1531.54 Q1517.34 1531.54 1521.51 1536.18 Q1525.72 1540.8 1525.72 1548.76 M1519.86 1547.04 Q1519.8 1542.23 1517.15 1539.37 Q1514.54 1536.5 1510.21 1536.5 Q1505.31 1536.5 1502.35 1539.27 Q1499.42 1542.04 1498.98 1547.07 L1519.86 1547.04 Z" fill="#000000" fill-rule="nonzero" fill-opacity="1" /><polyline clip-path="url(#clip630)" style="stroke:#000000; stroke-linecap:round; stroke-linejoin:round; stroke-width:4; stroke-opacity:1; fill:none" points="249.542,1423.18 249.542,123.472 "/>
<polyline clip-path="url(#clip630)" style="stroke:#000000; stroke-linecap:round; stroke-linejoin:round; stroke-width:4; stroke-opacity:1; fill:none" points="249.542,1423.18 268.44,1423.18 "/>
<polyline clip-path="url(#clip630)" style="stroke:#000000; stroke-linecap:round; stroke-linejoin:round; stroke-width:4; stroke-opacity:1; fill:none" points="249.542,1042.7 268.44,1042.7 "/>
<polyline clip-path="url(#clip630)" style="stroke:#000000; stroke-linecap:round; stroke-linejoin:round; stroke-width:4; stroke-opacity:1; fill:none" points="249.542,662.227 268.44,662.227 "/>
<polyline clip-path="url(#clip630)" style="stroke:#000000; stroke-linecap:round; stroke-linejoin:round; stroke-width:4; stroke-opacity:1; fill:none" points="249.542,281.75 268.44,281.75 "/>
<path clip-path="url(#clip630)" d="M126.205 1408.98 Q122.593 1408.98 120.765 1412.54 Q118.959 1416.08 118.959 1423.21 Q118.959 1430.32 120.765 1433.89 Q122.593 1437.43 126.205 1437.43 Q129.839 1437.43 131.644 1433.89 Q133.473 1430.32 133.473 1423.21 Q133.473 1416.08 131.644 1412.54 Q129.839 1408.98 126.205 1408.98 M126.205 1405.27 Q132.015 1405.27 135.07 1409.88 Q138.149 1414.46 138.149 1423.21 Q138.149 1431.94 135.07 1436.55 Q132.015 1441.13 126.205 1441.13 Q120.394 1441.13 117.316 1436.55 Q114.26 1431.94 114.26 1423.21 Q114.26 1414.46 117.316 1409.88 Q120.394 1405.27 126.205 1405.27 Z" fill="#000000" fill-rule="nonzero" fill-opacity="1" /><path clip-path="url(#clip630)" d="M146.366 1434.58 L151.251 1434.58 L151.251 1440.46 L146.366 1440.46 L146.366 1434.58 Z" fill="#000000" fill-rule="nonzero" fill-opacity="1" /><path clip-path="url(#clip630)" d="M171.436 1408.98 Q167.825 1408.98 165.996 1412.54 Q164.19 1416.08 164.19 1423.21 Q164.19 1430.32 165.996 1433.89 Q167.825 1437.43 171.436 1437.43 Q175.07 1437.43 176.876 1433.89 Q178.704 1430.32 178.704 1423.21 Q178.704 1416.08 176.876 1412.54 Q175.07 1408.98 171.436 1408.98 M171.436 1405.27 Q177.246 1405.27 180.301 1409.88 Q183.38 1414.46 183.38 1423.21 Q183.38 1431.94 180.301 1436.55 Q177.246 1441.13 171.436 1441.13 Q165.626 1441.13 162.547 1436.55 Q159.491 1431.94 159.491 1423.21 Q159.491 1414.46 162.547 1409.88 Q165.626 1405.27 171.436 1405.27 Z" fill="#000000" fill-rule="nonzero" fill-opacity="1" /><path clip-path="url(#clip630)" d="M201.598 1408.98 Q197.987 1408.98 196.158 1412.54 Q194.352 1416.08 194.352 1423.21 Q194.352 1430.32 196.158 1433.89 Q197.987 1437.43 201.598 1437.43 Q205.232 1437.43 207.037 1433.89 Q208.866 1430.32 208.866 1423.21 Q208.866 1416.08 207.037 1412.54 Q205.232 1408.98 201.598 1408.98 M201.598 1405.27 Q207.408 1405.27 210.463 1409.88 Q213.542 1414.46 213.542 1423.21 Q213.542 1431.94 210.463 1436.55 Q207.408 1441.13 201.598 1441.13 Q195.787 1441.13 192.709 1436.55 Q189.653 1431.94 189.653 1423.21 Q189.653 1414.46 192.709 1409.88 Q195.787 1405.27 201.598 1405.27 Z" fill="#000000" fill-rule="nonzero" fill-opacity="1" /><path clip-path="url(#clip630)" d="M127.2 1028.5 Q123.589 1028.5 121.76 1032.07 Q119.955 1035.61 119.955 1042.74 Q119.955 1049.84 121.76 1053.41 Q123.589 1056.95 127.2 1056.95 Q130.834 1056.95 132.64 1053.41 Q134.468 1049.84 134.468 1042.74 Q134.468 1035.61 132.64 1032.07 Q130.834 1028.5 127.2 1028.5 M127.2 1024.8 Q133.01 1024.8 136.066 1029.4 Q139.144 1033.99 139.144 1042.74 Q139.144 1051.46 136.066 1056.07 Q133.01 1060.65 127.2 1060.65 Q121.39 1060.65 118.311 1056.07 Q115.256 1051.46 115.256 1042.74 Q115.256 1033.99 118.311 1029.4 Q121.39 1024.8 127.2 1024.8 Z" fill="#000000" fill-rule="nonzero" fill-opacity="1" /><path clip-path="url(#clip630)" d="M147.362 1054.1 L152.246 1054.1 L152.246 1059.98 L147.362 1059.98 L147.362 1054.1 Z" fill="#000000" fill-rule="nonzero" fill-opacity="1" /><path clip-path="url(#clip630)" d="M172.431 1028.5 Q168.82 1028.5 166.991 1032.07 Q165.186 1035.61 165.186 1042.74 Q165.186 1049.84 166.991 1053.41 Q168.82 1056.95 172.431 1056.95 Q176.065 1056.95 177.871 1053.41 Q179.7 1049.84 179.7 1042.74 Q179.7 1035.61 177.871 1032.07 Q176.065 1028.5 172.431 1028.5 M172.431 1024.8 Q178.241 1024.8 181.297 1029.4 Q184.376 1033.99 184.376 1042.74 Q184.376 1051.46 181.297 1056.07 Q178.241 1060.65 172.431 1060.65 Q166.621 1060.65 163.542 1056.07 Q160.487 1051.46 160.487 1042.74 Q160.487 1033.99 163.542 1029.4 Q166.621 1024.8 172.431 1024.8 Z" fill="#000000" fill-rule="nonzero" fill-opacity="1" /><path clip-path="url(#clip630)" d="M192.639 1025.42 L210.996 1025.42 L210.996 1029.36 L196.922 1029.36 L196.922 1037.83 Q197.94 1037.48 198.959 1037.32 Q199.977 1037.14 200.996 1037.14 Q206.783 1037.14 210.162 1040.31 Q213.542 1043.48 213.542 1048.9 Q213.542 1054.47 210.07 1057.58 Q206.598 1060.65 200.278 1060.65 Q198.102 1060.65 195.834 1060.28 Q193.588 1059.91 191.181 1059.17 L191.181 1054.47 Q193.264 1055.61 195.487 1056.16 Q197.709 1056.72 200.186 1056.72 Q204.19 1056.72 206.528 1054.61 Q208.866 1052.51 208.866 1048.9 Q208.866 1045.28 206.528 1043.18 Q204.19 1041.07 200.186 1041.07 Q198.311 1041.07 196.436 1041.49 Q194.584 1041.9 192.639 1042.78 L192.639 1025.42 Z" fill="#000000" fill-rule="nonzero" fill-opacity="1" /><path clip-path="url(#clip630)" d="M126.205 648.026 Q122.593 648.026 120.765 651.59 Q118.959 655.132 118.959 662.262 Q118.959 669.368 120.765 672.933 Q122.593 676.474 126.205 676.474 Q129.839 676.474 131.644 672.933 Q133.473 669.368 133.473 662.262 Q133.473 655.132 131.644 651.59 Q129.839 648.026 126.205 648.026 M126.205 644.322 Q132.015 644.322 135.07 648.928 Q138.149 653.512 138.149 662.262 Q138.149 670.988 135.07 675.595 Q132.015 680.178 126.205 680.178 Q120.394 680.178 117.316 675.595 Q114.26 670.988 114.26 662.262 Q114.26 653.512 117.316 648.928 Q120.394 644.322 126.205 644.322 Z" fill="#000000" fill-rule="nonzero" fill-opacity="1" /><path clip-path="url(#clip630)" d="M146.366 673.627 L151.251 673.627 L151.251 679.507 L146.366 679.507 L146.366 673.627 Z" fill="#000000" fill-rule="nonzero" fill-opacity="1" /><path clip-path="url(#clip630)" d="M162.246 675.572 L169.885 675.572 L169.885 649.206 L161.575 650.873 L161.575 646.614 L169.839 644.947 L174.514 644.947 L174.514 675.572 L182.153 675.572 L182.153 679.507 L162.246 679.507 L162.246 675.572 Z" fill="#000000" fill-rule="nonzero" fill-opacity="1" /><path clip-path="url(#clip630)" d="M201.598 648.026 Q197.987 648.026 196.158 651.59 Q194.352 655.132 194.352 662.262 Q194.352 669.368 196.158 672.933 Q197.987 676.474 201.598 676.474 Q205.232 676.474 207.037 672.933 Q208.866 669.368 208.866 662.262 Q208.866 655.132 207.037 651.59 Q205.232 648.026 201.598 648.026 M201.598 644.322 Q207.408 644.322 210.463 648.928 Q213.542 653.512 213.542 662.262 Q213.542 670.988 210.463 675.595 Q207.408 680.178 201.598 680.178 Q195.787 680.178 192.709 675.595 Q189.653 670.988 189.653 662.262 Q189.653 653.512 192.709 648.928 Q195.787 644.322 201.598 644.322 Z" fill="#000000" fill-rule="nonzero" fill-opacity="1" /><path clip-path="url(#clip630)" d="M127.2 267.549 Q123.589 267.549 121.76 271.114 Q119.955 274.655 119.955 281.785 Q119.955 288.892 121.76 292.456 Q123.589 295.998 127.2 295.998 Q130.834 295.998 132.64 292.456 Q134.468 288.892 134.468 281.785 Q134.468 274.655 132.64 271.114 Q130.834 267.549 127.2 267.549 M127.2 263.845 Q133.01 263.845 136.066 268.452 Q139.144 273.035 139.144 281.785 Q139.144 290.512 136.066 295.118 Q133.01 299.702 127.2 299.702 Q121.39 299.702 118.311 295.118 Q115.256 290.512 115.256 281.785 Q115.256 273.035 118.311 268.452 Q121.39 263.845 127.2 263.845 Z" fill="#000000" fill-rule="nonzero" fill-opacity="1" /><path clip-path="url(#clip630)" d="M147.362 293.151 L152.246 293.151 L152.246 299.03 L147.362 299.03 L147.362 293.151 Z" fill="#000000" fill-rule="nonzero" fill-opacity="1" /><path clip-path="url(#clip630)" d="M163.241 295.095 L170.88 295.095 L170.88 268.73 L162.57 270.396 L162.57 266.137 L170.834 264.47 L175.51 264.47 L175.51 295.095 L183.149 295.095 L183.149 299.03 L163.241 299.03 L163.241 295.095 Z" fill="#000000" fill-rule="nonzero" fill-opacity="1" /><path clip-path="url(#clip630)" d="M192.639 264.47 L210.996 264.47 L210.996 268.406 L196.922 268.406 L196.922 276.878 Q197.94 276.53 198.959 276.368 Q199.977 276.183 200.996 276.183 Q206.783 276.183 210.162 279.355 Q213.542 282.526 213.542 287.942 Q213.542 293.521 210.07 296.623 Q206.598 299.702 200.278 299.702 Q198.102 299.702 195.834 299.331 Q193.588 298.961 191.181 298.22 L191.181 293.521 Q193.264 294.655 195.487 295.211 Q197.709 295.766 200.186 295.766 Q204.19 295.766 206.528 293.66 Q208.866 291.554 208.866 287.942 Q208.866 284.331 206.528 282.225 Q204.19 280.118 200.186 280.118 Q198.311 280.118 196.436 280.535 Q194.584 280.952 192.639 281.831 L192.639 264.47 Z" fill="#000000" fill-rule="nonzero" fill-opacity="1" /><path clip-path="url(#clip630)" d="M21.7677 935.015 L39.6235 935.015 L39.6235 926.93 Q39.6235 922.443 37.3 919.992 Q34.9765 917.541 30.6797 917.541 Q26.4147 917.541 24.0912 919.992 Q21.7677 922.443 21.7677 926.93 L21.7677 935.015 M16.4842 941.444 L16.4842 926.93 Q16.4842 918.942 20.1126 914.867 Q23.7092 910.762 30.6797 910.762 Q37.7138 910.762 41.3104 914.867 Q44.907 918.942 44.907 926.93 L44.907 935.015 L64.0042 935.015 L64.0042 941.444 L16.4842 941.444 Z" fill="#000000" fill-rule="nonzero" fill-opacity="1" /><path clip-path="url(#clip630)" d="M33.8307 882.88 Q33.2578 883.866 33.0032 885.044 Q32.7167 886.19 32.7167 887.59 Q32.7167 892.556 35.9632 895.229 Q39.1779 897.871 45.2253 897.871 L64.0042 897.871 L64.0042 903.759 L28.3562 903.759 L28.3562 897.871 L33.8944 897.871 Q30.6479 896.025 29.0883 893.065 Q27.4968 890.105 27.4968 885.872 Q27.4968 885.267 27.5923 884.535 Q27.656 883.803 27.8151 882.912 L33.8307 882.88 Z" fill="#000000" fill-rule="nonzero" fill-opacity="1" /><path clip-path="url(#clip630)" d="M32.4621 864.356 Q32.4621 869.066 36.1542 871.803 Q39.8145 874.541 46.212 874.541 Q52.6095 874.541 56.3017 871.835 Q59.9619 869.098 59.9619 864.356 Q59.9619 859.677 56.2698 856.94 Q52.5777 854.202 46.212 854.202 Q39.8781 854.202 36.186 856.94 Q32.4621 859.677 32.4621 864.356 M27.4968 864.356 Q27.4968 856.717 32.4621 852.356 Q37.4273 847.996 46.212 847.996 Q54.9649 847.996 59.9619 852.356 Q64.9272 856.717 64.9272 864.356 Q64.9272 872.026 59.9619 876.387 Q54.9649 880.715 46.212 880.715 Q37.4273 880.715 32.4621 876.387 Q27.4968 872.026 27.4968 864.356 Z" fill="#000000" fill-rule="nonzero" fill-opacity="1" /><path clip-path="url(#clip630)" d="M46.212 812.698 Q39.7508 812.698 36.0905 815.371 Q32.3984 818.013 32.3984 822.66 Q32.3984 827.307 36.0905 829.981 Q39.7508 832.623 46.212 832.623 Q52.6732 832.623 56.3653 829.981 Q60.0256 827.307 60.0256 822.66 Q60.0256 818.013 56.3653 815.371 Q52.6732 812.698 46.212 812.698 M33.7671 832.623 Q30.5842 830.776 29.0564 827.976 Q27.4968 825.143 27.4968 821.228 Q27.4968 814.735 32.6531 810.693 Q37.8093 806.619 46.212 806.619 Q54.6147 806.619 59.771 810.693 Q64.9272 814.735 64.9272 821.228 Q64.9272 825.143 63.3994 827.976 Q61.8398 830.776 58.657 832.623 L64.0042 832.623 L64.0042 838.511 L14.479 838.511 L14.479 832.623 L33.7671 832.623 Z" fill="#000000" fill-rule="nonzero" fill-opacity="1" /><path clip-path="url(#clip630)" d="M46.0847 780.71 Q46.0847 787.808 47.7079 790.545 Q49.3312 793.282 53.2461 793.282 Q56.3653 793.282 58.2114 791.245 Q60.0256 789.177 60.0256 785.644 Q60.0256 780.774 56.5881 777.846 Q53.1188 774.886 47.3897 774.886 L46.0847 774.886 L46.0847 780.71 M43.6657 769.029 L64.0042 769.029 L64.0042 774.886 L58.5933 774.886 Q61.8398 776.891 63.3994 779.883 Q64.9272 782.875 64.9272 787.203 Q64.9272 792.678 61.8716 795.924 Q58.7843 799.139 53.6281 799.139 Q47.6125 799.139 44.5569 795.129 Q41.5014 791.086 41.5014 783.097 L41.5014 774.886 L40.9285 774.886 Q36.8862 774.886 34.6901 777.559 Q32.4621 780.201 32.4621 785.007 Q32.4621 788.063 33.1941 790.959 Q33.9262 793.855 35.3903 796.529 L29.9795 796.529 Q28.7381 793.314 28.1334 790.291 Q27.4968 787.267 27.4968 784.402 Q27.4968 776.668 31.5072 772.849 Q35.5176 769.029 43.6657 769.029 Z" fill="#000000" fill-rule="nonzero" fill-opacity="1" /><path clip-path="url(#clip630)" d="M46.212 731.376 Q39.7508 731.376 36.0905 734.05 Q32.3984 736.691 32.3984 741.338 Q32.3984 745.985 36.0905 748.659 Q39.7508 751.301 46.212 751.301 Q52.6732 751.301 56.3653 748.659 Q60.0256 745.985 60.0256 741.338 Q60.0256 736.691 56.3653 734.05 Q52.6732 731.376 46.212 731.376 M33.7671 751.301 Q30.5842 749.455 29.0564 746.654 Q27.4968 743.821 27.4968 739.906 Q27.4968 733.413 32.6531 729.371 Q37.8093 725.297 46.212 725.297 Q54.6147 725.297 59.771 729.371 Q64.9272 733.413 64.9272 739.906 Q64.9272 743.821 63.3994 746.654 Q61.8398 749.455 58.657 751.301 L64.0042 751.301 L64.0042 757.189 L14.479 757.189 L14.479 751.301 L33.7671 751.301 Z" fill="#000000" fill-rule="nonzero" fill-opacity="1" /><path clip-path="url(#clip630)" d="M28.3562 715.589 L28.3562 709.733 L64.0042 709.733 L64.0042 715.589 L28.3562 715.589 M14.479 715.589 L14.479 709.733 L21.895 709.733 L21.895 715.589 L14.479 715.589 Z" fill="#000000" fill-rule="nonzero" fill-opacity="1" /><path clip-path="url(#clip630)" d="M14.479 697.479 L14.479 691.622 L64.0042 691.622 L64.0042 697.479 L14.479 697.479 Z" fill="#000000" fill-rule="nonzero" fill-opacity="1" /><path clip-path="url(#clip630)" d="M28.3562 679.368 L28.3562 673.512 L64.0042 673.512 L64.0042 679.368 L28.3562 679.368 M14.479 679.368 L14.479 673.512 L21.895 673.512 L21.895 679.368 L14.479 679.368 Z" fill="#000000" fill-rule="nonzero" fill-opacity="1" /><path clip-path="url(#clip630)" d="M18.2347 655.465 L28.3562 655.465 L28.3562 643.402 L32.9077 643.402 L32.9077 655.465 L52.2594 655.465 Q56.6199 655.465 57.8613 654.287 Q59.1026 653.078 59.1026 649.418 L59.1026 643.402 L64.0042 643.402 L64.0042 649.418 Q64.0042 656.197 61.4897 658.775 Q58.9434 661.353 52.2594 661.353 L32.9077 661.353 L32.9077 665.65 L28.3562 665.65 L28.3562 661.353 L18.2347 661.353 L18.2347 655.465 Z" fill="#000000" fill-rule="nonzero" fill-opacity="1" /><path clip-path="url(#clip630)" d="M67.3143 620.867 Q73.68 623.35 75.6216 625.705 Q77.5631 628.061 77.5631 632.007 L77.5631 636.686 L72.6615 636.686 L72.6615 633.249 Q72.6615 630.83 71.5157 629.493 Q70.3699 628.156 66.1048 626.533 L63.4312 625.482 L28.3562 639.901 L28.3562 633.694 L56.238 622.554 L28.3562 611.414 L28.3562 605.208 L67.3143 620.867 Z" fill="#000000" fill-rule="nonzero" fill-opacity="1" /><path clip-path="url(#clip630)" d="M755.553 18.8205 L755.553 65.8515 L765.437 65.8515 Q777.954 65.8515 783.747 60.1802 Q789.581 54.509 789.581 42.2752 Q789.581 30.1225 783.747 24.4918 Q777.954 18.8205 765.437 18.8205 L755.553 18.8205 M747.37 12.096 L764.181 12.096 Q781.762 12.096 789.986 19.4281 Q798.209 26.7198 798.209 42.2752 Q798.209 57.9117 789.945 65.2439 Q781.681 72.576 764.181 72.576 L747.37 72.576 L747.37 12.096 Z" fill="#000000" fill-rule="nonzero" fill-opacity="1" /><path clip-path="url(#clip630)" d="M810.929 27.2059 L818.382 27.2059 L818.382 72.576 L810.929 72.576 L810.929 27.2059 M810.929 9.54393 L818.382 9.54393 L818.382 18.9825 L810.929 18.9825 L810.929 9.54393 Z" fill="#000000" fill-rule="nonzero" fill-opacity="1" /><path clip-path="url(#clip630)" d="M862.902 28.5427 L862.902 35.5912 Q859.742 33.9709 856.339 33.1607 Q852.937 32.3505 849.291 32.3505 Q843.741 32.3505 840.946 34.0519 Q838.191 35.7533 838.191 39.156 Q838.191 41.7486 840.176 43.2475 Q842.161 44.7058 848.157 46.0426 L850.709 46.6097 Q858.648 48.3111 861.97 51.4303 Q865.332 54.509 865.332 60.0587 Q865.332 66.3781 860.309 70.0644 Q855.327 73.7508 846.577 73.7508 Q842.931 73.7508 838.961 73.0216 Q835.032 72.3329 830.657 70.9151 L830.657 63.2184 Q834.789 65.3654 838.799 66.4591 Q842.809 67.5124 846.739 67.5124 Q852.005 67.5124 854.841 65.73 Q857.676 63.9071 857.676 60.6258 Q857.676 57.5877 855.61 55.9673 Q853.585 54.3469 846.658 52.8481 L844.065 52.2405 Q837.138 50.7821 834.059 47.7845 Q830.981 44.7463 830.981 39.4801 Q830.981 33.0797 835.518 29.5959 Q840.055 26.1121 848.4 26.1121 Q852.532 26.1121 856.177 26.7198 Q859.823 27.3274 862.902 28.5427 Z" fill="#000000" fill-rule="nonzero" fill-opacity="1" /><path clip-path="url(#clip630)" d="M884.574 14.324 L884.574 27.2059 L899.927 27.2059 L899.927 32.9987 L884.574 32.9987 L884.574 57.6282 Q884.574 63.1779 886.073 64.7578 Q887.612 66.3376 892.271 66.3376 L899.927 66.3376 L899.927 72.576 L892.271 72.576 Q883.643 72.576 880.361 69.3758 Q877.08 66.1351 877.08 57.6282 L877.08 32.9987 L871.611 32.9987 L871.611 27.2059 L877.08 27.2059 L877.08 14.324 L884.574 14.324 Z" fill="#000000" fill-rule="nonzero" fill-opacity="1" /><path clip-path="url(#clip630)" d="M936.021 34.1734 Q934.765 33.4443 933.266 33.1202 Q931.808 32.7556 930.025 32.7556 Q923.706 32.7556 920.303 36.8875 Q916.941 40.9789 916.941 48.6757 L916.941 72.576 L909.447 72.576 L909.447 27.2059 L916.941 27.2059 L916.941 34.2544 Q919.29 30.1225 923.058 28.1376 Q926.825 26.1121 932.213 26.1121 Q932.983 26.1121 933.914 26.2337 Q934.846 26.3147 935.98 26.5172 L936.021 34.1734 Z" fill="#000000" fill-rule="nonzero" fill-opacity="1" /><path clip-path="url(#clip630)" d="M943.839 27.2059 L951.293 27.2059 L951.293 72.576 L943.839 72.576 L943.839 27.2059 M943.839 9.54393 L951.293 9.54393 L951.293 18.9825 L943.839 18.9825 L943.839 9.54393 Z" fill="#000000" fill-rule="nonzero" fill-opacity="1" /><path clip-path="url(#clip630)" d="M999.458 49.9314 Q999.458 41.7081 996.055 37.0496 Q992.693 32.3505 986.779 32.3505 Q980.864 32.3505 977.461 37.0496 Q974.099 41.7081 974.099 49.9314 Q974.099 58.1548 977.461 62.8538 Q980.864 67.5124 986.779 67.5124 Q992.693 67.5124 996.055 62.8538 Q999.458 58.1548 999.458 49.9314 M974.099 34.0924 Q976.449 30.0415 980.014 28.0971 Q983.619 26.1121 988.601 26.1121 Q996.865 26.1121 1002.01 32.6746 Q1007.2 39.2371 1007.2 49.9314 Q1007.2 60.6258 1002.01 67.1883 Q996.865 73.7508 988.601 73.7508 Q983.619 73.7508 980.014 71.8063 Q976.449 69.8214 974.099 65.7705 L974.099 72.576 L966.605 72.576 L966.605 9.54393 L974.099 9.54393 L974.099 34.0924 Z" fill="#000000" fill-rule="nonzero" fill-opacity="1" /><path clip-path="url(#clip630)" d="M1018.78 54.671 L1018.78 27.2059 L1026.23 27.2059 L1026.23 54.3874 Q1026.23 60.8284 1028.75 64.0691 Q1031.26 67.2693 1036.28 67.2693 Q1042.32 67.2693 1045.8 63.421 Q1049.32 59.5726 1049.32 52.9291 L1049.32 27.2059 L1056.78 27.2059 L1056.78 72.576 L1049.32 72.576 L1049.32 65.6084 Q1046.61 69.7404 1043.01 71.7658 Q1039.44 73.7508 1034.7 73.7508 Q1026.88 73.7508 1022.83 68.8897 Q1018.78 64.0286 1018.78 54.671 M1037.54 26.1121 L1037.54 26.1121 Z" fill="#000000" fill-rule="nonzero" fill-opacity="1" /><path clip-path="url(#clip630)" d="M1079.5 14.324 L1079.5 27.2059 L1094.86 27.2059 L1094.86 32.9987 L1079.5 32.9987 L1079.5 57.6282 Q1079.5 63.1779 1081 64.7578 Q1082.54 66.3376 1087.2 66.3376 L1094.86 66.3376 L1094.86 72.576 L1087.2 72.576 Q1078.57 72.576 1075.29 69.3758 Q1072.01 66.1351 1072.01 57.6282 L1072.01 32.9987 L1066.54 32.9987 L1066.54 27.2059 L1072.01 27.2059 L1072.01 14.324 L1079.5 14.324 Z" fill="#000000" fill-rule="nonzero" fill-opacity="1" /><path clip-path="url(#clip630)" d="M1104.66 27.2059 L1112.11 27.2059 L1112.11 72.576 L1104.66 72.576 L1104.66 27.2059 M1104.66 9.54393 L1112.11 9.54393 L1112.11 18.9825 L1104.66 18.9825 L1104.66 9.54393 Z" fill="#000000" fill-rule="nonzero" fill-opacity="1" /><path clip-path="url(#clip630)" d="M1145.29 32.4315 Q1139.3 32.4315 1135.81 37.1306 Q1132.33 41.7891 1132.33 49.9314 Q1132.33 58.0738 1135.77 62.7728 Q1139.25 67.4314 1145.29 67.4314 Q1151.25 67.4314 1154.73 62.7323 Q1158.21 58.0333 1158.21 49.9314 Q1158.21 41.8701 1154.73 37.1711 Q1151.25 32.4315 1145.29 32.4315 M1145.29 26.1121 Q1155.01 26.1121 1160.56 32.4315 Q1166.11 38.7509 1166.11 49.9314 Q1166.11 61.0714 1160.56 67.4314 Q1155.01 73.7508 1145.29 73.7508 Q1135.53 73.7508 1129.98 67.4314 Q1124.47 61.0714 1124.47 49.9314 Q1124.47 38.7509 1129.98 32.4315 Q1135.53 26.1121 1145.29 26.1121 Z" fill="#000000" fill-rule="nonzero" fill-opacity="1" /><path clip-path="url(#clip630)" d="M1216.18 45.1919 L1216.18 72.576 L1208.73 72.576 L1208.73 45.4349 Q1208.73 38.994 1206.22 35.7938 Q1203.7 32.5936 1198.68 32.5936 Q1192.65 32.5936 1189.16 36.4419 Q1185.68 40.2903 1185.68 46.9338 L1185.68 72.576 L1178.18 72.576 L1178.18 27.2059 L1185.68 27.2059 L1185.68 34.2544 Q1188.35 30.163 1191.96 28.1376 Q1195.6 26.1121 1200.34 26.1121 Q1208.16 26.1121 1212.17 30.9732 Q1216.18 35.7938 1216.18 45.1919 Z" fill="#000000" fill-rule="nonzero" fill-opacity="1" /><path clip-path="url(#clip630)" d="M1275 32.4315 Q1269.01 32.4315 1265.52 37.1306 Q1262.04 41.7891 1262.04 49.9314 Q1262.04 58.0738 1265.48 62.7728 Q1268.96 67.4314 1275 67.4314 Q1280.96 67.4314 1284.44 62.7323 Q1287.92 58.0333 1287.92 49.9314 Q1287.92 41.8701 1284.44 37.1711 Q1280.96 32.4315 1275 32.4315 M1275 26.1121 Q1284.72 26.1121 1290.27 32.4315 Q1295.82 38.7509 1295.82 49.9314 Q1295.82 61.0714 1290.27 67.4314 Q1284.72 73.7508 1275 73.7508 Q1265.24 73.7508 1259.69 67.4314 Q1254.18 61.0714 1254.18 49.9314 Q1254.18 38.7509 1259.69 32.4315 Q1265.24 26.1121 1275 26.1121 Z" fill="#000000" fill-rule="nonzero" fill-opacity="1" /><path clip-path="url(#clip630)" d="M1331.15 9.54393 L1331.15 15.7418 L1324.02 15.7418 Q1320.01 15.7418 1318.43 17.3622 Q1316.89 18.9825 1316.89 23.1955 L1316.89 27.2059 L1329.16 27.2059 L1329.16 32.9987 L1316.89 32.9987 L1316.89 72.576 L1309.39 72.576 L1309.39 32.9987 L1302.26 32.9987 L1302.26 27.2059 L1309.39 27.2059 L1309.39 24.0462 Q1309.39 16.471 1312.92 13.0277 Q1316.44 9.54393 1324.1 9.54393 L1331.15 9.54393 Z" fill="#000000" fill-rule="nonzero" fill-opacity="1" /><path clip-path="url(#clip630)" d="M1366.23 65.6895 L1379.59 65.6895 L1379.59 19.5497 L1365.05 22.4663 L1365.05 15.0127 L1379.51 12.096 L1387.7 12.096 L1387.7 65.6895 L1401.06 65.6895 L1401.06 72.576 L1366.23 72.576 L1366.23 65.6895 Z" fill="#000000" fill-rule="nonzero" fill-opacity="1" /><path clip-path="url(#clip630)" d="M1435.09 17.4837 Q1428.77 17.4837 1425.57 23.7221 Q1422.41 29.92 1422.41 42.3968 Q1422.41 54.833 1425.57 61.0714 Q1428.77 67.2693 1435.09 67.2693 Q1441.45 67.2693 1444.61 61.0714 Q1447.81 54.833 1447.81 42.3968 Q1447.81 29.92 1444.61 23.7221 Q1441.45 17.4837 1435.09 17.4837 M1435.09 11.0023 Q1445.26 11.0023 1450.61 19.0636 Q1455.99 27.0843 1455.99 42.3968 Q1455.99 57.6687 1450.61 65.73 Q1445.26 73.7508 1435.09 73.7508 Q1424.92 73.7508 1419.54 65.73 Q1414.19 57.6687 1414.19 42.3968 Q1414.19 27.0843 1419.54 19.0636 Q1424.92 11.0023 1435.09 11.0023 Z" fill="#000000" fill-rule="nonzero" fill-opacity="1" /><path clip-path="url(#clip630)" d="M1487.88 17.4837 Q1481.56 17.4837 1478.36 23.7221 Q1475.2 29.92 1475.2 42.3968 Q1475.2 54.833 1478.36 61.0714 Q1481.56 67.2693 1487.88 67.2693 Q1494.24 67.2693 1497.4 61.0714 Q1500.6 54.833 1500.6 42.3968 Q1500.6 29.92 1497.4 23.7221 Q1494.24 17.4837 1487.88 17.4837 M1487.88 11.0023 Q1498.04 11.0023 1503.39 19.0636 Q1508.78 27.0843 1508.78 42.3968 Q1508.78 57.6687 1503.39 65.73 Q1498.04 73.7508 1487.88 73.7508 Q1477.71 73.7508 1472.32 65.73 Q1466.97 57.6687 1466.97 42.3968 Q1466.97 27.0843 1472.32 19.0636 Q1477.71 11.0023 1487.88 11.0023 Z" fill="#000000" fill-rule="nonzero" fill-opacity="1" /><path clip-path="url(#clip630)" d="M1540.66 17.4837 Q1534.34 17.4837 1531.14 23.7221 Q1527.98 29.92 1527.98 42.3968 Q1527.98 54.833 1531.14 61.0714 Q1534.34 67.2693 1540.66 67.2693 Q1547.02 67.2693 1550.18 61.0714 Q1553.38 54.833 1553.38 42.3968 Q1553.38 29.92 1550.18 23.7221 Q1547.02 17.4837 1540.66 17.4837 M1540.66 11.0023 Q1550.83 11.0023 1556.17 19.0636 Q1561.56 27.0843 1561.56 42.3968 Q1561.56 57.6687 1556.17 65.73 Q1550.83 73.7508 1540.66 73.7508 Q1530.49 73.7508 1525.1 65.73 Q1519.76 57.6687 1519.76 42.3968 Q1519.76 27.0843 1525.1 19.0636 Q1530.49 11.0023 1540.66 11.0023 Z" fill="#000000" fill-rule="nonzero" fill-opacity="1" /><path clip-path="url(#clip630)" d="M1593.44 17.4837 Q1587.12 17.4837 1583.92 23.7221 Q1580.76 29.92 1580.76 42.3968 Q1580.76 54.833 1583.92 61.0714 Q1587.12 67.2693 1593.44 67.2693 Q1599.8 67.2693 1602.96 61.0714 Q1606.16 54.833 1606.16 42.3968 Q1606.16 29.92 1602.96 23.7221 Q1599.8 17.4837 1593.44 17.4837 M1593.44 11.0023 Q1603.61 11.0023 1608.96 19.0636 Q1614.34 27.0843 1614.34 42.3968 Q1614.34 57.6687 1608.96 65.73 Q1603.61 73.7508 1593.44 73.7508 Q1583.27 73.7508 1577.89 65.73 Q1572.54 57.6687 1572.54 42.3968 Q1572.54 27.0843 1577.89 19.0636 Q1583.27 11.0023 1593.44 11.0023 Z" fill="#000000" fill-rule="nonzero" fill-opacity="1" /><path clip-path="url(#clip630)" d="M1645.98 12.096 L1697.15 12.096 L1697.15 18.9825 L1675.68 18.9825 L1675.68 72.576 L1667.45 72.576 L1667.45 18.9825 L1645.98 18.9825 L1645.98 12.096 Z" fill="#000000" fill-rule="nonzero" fill-opacity="1" /><path clip-path="url(#clip630)" d="M1718.82 34.1734 Q1717.56 33.4443 1716.06 33.1202 Q1714.6 32.7556 1712.82 32.7556 Q1706.5 32.7556 1703.1 36.8875 Q1699.74 40.9789 1699.74 48.6757 L1699.74 72.576 L1692.24 72.576 L1692.24 27.2059 L1699.74 27.2059 L1699.74 34.2544 Q1702.09 30.1225 1705.85 28.1376 Q1709.62 26.1121 1715.01 26.1121 Q1715.78 26.1121 1716.71 26.2337 Q1717.64 26.3147 1718.78 26.5172 L1718.82 34.1734 Z" fill="#000000" fill-rule="nonzero" fill-opacity="1" /><path clip-path="url(#clip630)" d="M1726.64 27.2059 L1734.09 27.2059 L1734.09 72.576 L1726.64 72.576 L1726.64 27.2059 M1726.64 9.54393 L1734.09 9.54393 L1734.09 18.9825 L1726.64 18.9825 L1726.64 9.54393 Z" fill="#000000" fill-rule="nonzero" fill-opacity="1" /><path clip-path="url(#clip630)" d="M1770.3 49.7694 Q1761.27 49.7694 1757.79 51.8354 Q1754.3 53.9013 1754.3 58.8839 Q1754.3 62.8538 1756.9 65.2034 Q1759.53 67.5124 1764.03 67.5124 Q1770.22 67.5124 1773.95 63.1374 Q1777.72 58.7219 1777.72 51.4303 L1777.72 49.7694 L1770.3 49.7694 M1785.17 46.6907 L1785.17 72.576 L1777.72 72.576 L1777.72 65.6895 Q1775.17 69.8214 1771.36 71.8063 Q1767.55 73.7508 1762.04 73.7508 Q1755.07 73.7508 1750.94 69.8619 Q1746.85 65.9325 1746.85 59.3701 Q1746.85 51.7138 1751.95 47.825 Q1757.1 43.9361 1767.27 43.9361 L1777.72 43.9361 L1777.72 43.2069 Q1777.72 38.0623 1774.31 35.2672 Q1770.95 32.4315 1764.84 32.4315 Q1760.95 32.4315 1757.26 33.3632 Q1753.57 34.295 1750.17 36.1584 L1750.17 29.2718 Q1754.26 27.692 1758.11 26.9223 Q1761.96 26.1121 1765.61 26.1121 Q1775.45 26.1121 1780.31 31.2163 Q1785.17 36.3204 1785.17 46.6907 Z" fill="#000000" fill-rule="nonzero" fill-opacity="1" /><path clip-path="url(#clip630)" d="M1800.52 9.54393 L1807.98 9.54393 L1807.98 72.576 L1800.52 72.576 L1800.52 9.54393 Z" fill="#000000" fill-rule="nonzero" fill-opacity="1" /><path clip-path="url(#clip630)" d="M1852.5 28.5427 L1852.5 35.5912 Q1849.34 33.9709 1845.93 33.1607 Q1842.53 32.3505 1838.89 32.3505 Q1833.34 32.3505 1830.54 34.0519 Q1827.79 35.7533 1827.79 39.156 Q1827.79 41.7486 1829.77 43.2475 Q1831.76 44.7058 1837.75 46.0426 L1840.3 46.6097 Q1848.24 48.3111 1851.57 51.4303 Q1854.93 54.509 1854.93 60.0587 Q1854.93 66.3781 1849.9 70.0644 Q1844.92 73.7508 1836.17 73.7508 Q1832.53 73.7508 1828.56 73.0216 Q1824.63 72.3329 1820.25 70.9151 L1820.25 63.2184 Q1824.38 65.3654 1828.39 66.4591 Q1832.4 67.5124 1836.33 67.5124 Q1841.6 67.5124 1844.44 65.73 Q1847.27 63.9071 1847.27 60.6258 Q1847.27 57.5877 1845.21 55.9673 Q1843.18 54.3469 1836.25 52.8481 L1833.66 52.2405 Q1826.73 50.7821 1823.65 47.7845 Q1820.58 44.7463 1820.58 39.4801 Q1820.58 33.0797 1825.11 29.5959 Q1829.65 26.1121 1838 26.1121 Q1842.13 26.1121 1845.77 26.7198 Q1849.42 27.3274 1852.5 28.5427 Z" fill="#000000" fill-rule="nonzero" fill-opacity="1" /><path clip-path="url(#clip632)" d="M179.435 1423.18 L179.435 1423.18 L319.649 1423.18 L319.649 1423.18 L179.435 1423.18 L179.435 1423.18  Z" fill="#009af9" fill-rule="evenodd" fill-opacity="1"/>
<polyline clip-path="url(#clip632)" style="stroke:#000000; stroke-linecap:round; stroke-linejoin:round; stroke-width:4; stroke-opacity:1; fill:none" points="179.435,1423.18 179.435,1423.18 319.649,1423.18 179.435,1423.18 "/>
<path clip-path="url(#clip632)" d="M354.703 1215.44 L354.703 1423.18 L494.917 1423.18 L494.917 1215.44 L354.703 1215.44 L354.703 1215.44  Z" fill="#009af9" fill-rule="evenodd" fill-opacity="1"/>
<polyline clip-path="url(#clip632)" style="stroke:#000000; stroke-linecap:round; stroke-linejoin:round; stroke-width:4; stroke-opacity:1; fill:none" points="354.703,1215.44 354.703,1423.18 494.917,1423.18 494.917,1215.44 354.703,1215.44 "/>
<path clip-path="url(#clip632)" d="M529.971 1011.5 L529.971 1423.18 L670.185 1423.18 L670.185 1011.5 L529.971 1011.5 L529.971 1011.5  Z" fill="#009af9" fill-rule="evenodd" fill-opacity="1"/>
<polyline clip-path="url(#clip632)" style="stroke:#000000; stroke-linecap:round; stroke-linejoin:round; stroke-width:4; stroke-opacity:1; fill:none" points="529.971,1011.5 529.971,1423.18 670.185,1423.18 670.185,1011.5 529.971,1011.5 "/>
<path clip-path="url(#clip632)" d="M705.238 792.35 L705.238 1423.18 L845.453 1423.18 L845.453 792.35 L705.238 792.35 L705.238 792.35  Z" fill="#009af9" fill-rule="evenodd" fill-opacity="1"/>
<polyline clip-path="url(#clip632)" style="stroke:#000000; stroke-linecap:round; stroke-linejoin:round; stroke-width:4; stroke-opacity:1; fill:none" points="705.238,792.35 705.238,1423.18 845.453,1423.18 845.453,792.35 705.238,792.35 "/>
<path clip-path="url(#clip632)" d="M880.506 540.474 L880.506 1423.18 L1020.72 1423.18 L1020.72 540.474 L880.506 540.474 L880.506 540.474  Z" fill="#009af9" fill-rule="evenodd" fill-opacity="1"/>
<polyline clip-path="url(#clip632)" style="stroke:#000000; stroke-linecap:round; stroke-linejoin:round; stroke-width:4; stroke-opacity:1; fill:none" points="880.506,540.474 880.506,1423.18 1020.72,1423.18 1020.72,540.474 880.506,540.474 "/>
<path clip-path="url(#clip632)" d="M1055.77 382.957 L1055.77 1423.18 L1195.99 1423.18 L1195.99 382.957 L1055.77 382.957 L1055.77 382.957  Z" fill="#009af9" fill-rule="evenodd" fill-opacity="1"/>
<polyline clip-path="url(#clip632)" style="stroke:#000000; stroke-linecap:round; stroke-linejoin:round; stroke-width:4; stroke-opacity:1; fill:none" points="1055.77,382.957 1055.77,1423.18 1195.99,1423.18 1195.99,382.957 1055.77,382.957 "/>
<path clip-path="url(#clip632)" d="M1231.04 123.472 L1231.04 1423.18 L1371.26 1423.18 L1371.26 123.472 L1231.04 123.472 L1231.04 123.472  Z" fill="#009af9" fill-rule="evenodd" fill-opacity="1"/>
<polyline clip-path="url(#clip632)" style="stroke:#000000; stroke-linecap:round; stroke-linejoin:round; stroke-width:4; stroke-opacity:1; fill:none" points="1231.04,123.472 1231.04,1423.18 1371.26,1423.18 1371.26,123.472 1231.04,123.472 "/>
<path clip-path="url(#clip632)" d="M1406.31 373.826 L1406.31 1423.18 L1546.52 1423.18 L1546.52 373.826 L1406.31 373.826 L1406.31 373.826  Z" fill="#009af9" fill-rule="evenodd" fill-opacity="1"/>
<polyline clip-path="url(#clip632)" style="stroke:#000000; stroke-linecap:round; stroke-linejoin:round; stroke-width:4; stroke-opacity:1; fill:none" points="1406.31,373.826 1406.31,1423.18 1546.52,1423.18 1546.52,373.826 1406.31,373.826 "/>
<path clip-path="url(#clip632)" d="M1581.58 587.653 L1581.58 1423.18 L1721.79 1423.18 L1721.79 587.653 L1581.58 587.653 L1581.58 587.653  Z" fill="#009af9" fill-rule="evenodd" fill-opacity="1"/>
<polyline clip-path="url(#clip632)" style="stroke:#000000; stroke-linecap:round; stroke-linejoin:round; stroke-width:4; stroke-opacity:1; fill:none" points="1581.58,587.653 1581.58,1423.18 1721.79,1423.18 1721.79,587.653 1581.58,587.653 "/>
<path clip-path="url(#clip632)" d="M1756.85 815.939 L1756.85 1423.18 L1897.06 1423.18 L1897.06 815.939 L1756.85 815.939 L1756.85 815.939  Z" fill="#009af9" fill-rule="evenodd" fill-opacity="1"/>
<polyline clip-path="url(#clip632)" style="stroke:#000000; stroke-linecap:round; stroke-linejoin:round; stroke-width:4; stroke-opacity:1; fill:none" points="1756.85,815.939 1756.85,1423.18 1897.06,1423.18 1897.06,815.939 1756.85,815.939 "/>
<path clip-path="url(#clip632)" d="M1932.11 999.329 L1932.11 1423.18 L2072.33 1423.18 L2072.33 999.329 L1932.11 999.329 L1932.11 999.329  Z" fill="#009af9" fill-rule="evenodd" fill-opacity="1"/>
<polyline clip-path="url(#clip632)" style="stroke:#000000; stroke-linecap:round; stroke-linejoin:round; stroke-width:4; stroke-opacity:1; fill:none" points="1932.11,999.329 1932.11,1423.18 2072.33,1423.18 2072.33,999.329 1932.11,999.329 "/>
<path clip-path="url(#clip632)" d="M2107.38 1202.5 L2107.38 1423.18 L2247.6 1423.18 L2247.6 1202.5 L2107.38 1202.5 L2107.38 1202.5  Z" fill="#009af9" fill-rule="evenodd" fill-opacity="1"/>
<polyline clip-path="url(#clip632)" style="stroke:#000000; stroke-linecap:round; stroke-linejoin:round; stroke-width:4; stroke-opacity:1; fill:none" points="2107.38,1202.5 2107.38,1423.18 2247.6,1423.18 2247.6,1202.5 2107.38,1202.5 "/>
<circle clip-path="url(#clip632)" style="fill:#009af9; stroke:none; fill-opacity:0" cx="249.542" cy="1423.18" r="2"/>
<circle clip-path="url(#clip632)" style="fill:#009af9; stroke:none; fill-opacity:0" cx="424.81" cy="1215.44" r="2"/>
<circle clip-path="url(#clip632)" style="fill:#009af9; stroke:none; fill-opacity:0" cx="600.078" cy="1011.5" r="2"/>
<circle clip-path="url(#clip632)" style="fill:#009af9; stroke:none; fill-opacity:0" cx="775.346" cy="792.35" r="2"/>
<circle clip-path="url(#clip632)" style="fill:#009af9; stroke:none; fill-opacity:0" cx="950.613" cy="540.474" r="2"/>
<circle clip-path="url(#clip632)" style="fill:#009af9; stroke:none; fill-opacity:0" cx="1125.88" cy="382.957" r="2"/>
<circle clip-path="url(#clip632)" style="fill:#009af9; stroke:none; fill-opacity:0" cx="1301.15" cy="123.472" r="2"/>
<circle clip-path="url(#clip632)" style="fill:#009af9; stroke:none; fill-opacity:0" cx="1476.42" cy="373.826" r="2"/>
<circle clip-path="url(#clip632)" style="fill:#009af9; stroke:none; fill-opacity:0" cx="1651.68" cy="587.653" r="2"/>
<circle clip-path="url(#clip632)" style="fill:#009af9; stroke:none; fill-opacity:0" cx="1826.95" cy="815.939" r="2"/>
<circle clip-path="url(#clip632)" style="fill:#009af9; stroke:none; fill-opacity:0" cx="2002.22" cy="999.329" r="2"/>
<circle clip-path="url(#clip632)" style="fill:#009af9; stroke:none; fill-opacity:0" cx="2177.49" cy="1202.5" r="2"/>
</svg>