<?xml version="1.0" encoding="utf-8"?>
<svg xmlns="http://www.w3.org/2000/svg" xmlns:xlink="http://www.w3.org/1999/xlink" width="600" height="400" viewBox="0 0 2400 1600">
<defs>
  <clipPath id="clip930">
    <rect x="0" y="0" width="2400" height="1600"/>
  </clipPath>
</defs>
<path clip-path="url(#clip930)" d="M0 1600 L2400 1600 L2400 0 L0 0  Z" fill="#ffffff" fill-rule="evenodd" fill-opacity="1"/>
<defs>
  <clipPath id="clip931">
    <rect x="480" y="0" width="1681" height="1600"/>
  </clipPath>
</defs>
<path clip-path="url(#clip930)" d="M193.936 1486.45 L1980.79 1486.45 L1980.79 123.472 L193.936 123.472  Z" fill="#ffffff" fill-rule="evenodd" fill-opacity="1"/>
<defs>
  <clipPath id="clip932">
    <rect x="193" y="123" width="1788" height="1364"/>
  </clipPath>
</defs>
<polyline clip-path="url(#clip932)" style="stroke:#000000; stroke-linecap:round; stroke-linejoin:round; stroke-width:2; stroke-opacity:0.1; fill:none" points="244.507,1486.45 244.507,123.472 "/>
<polyline clip-path="url(#clip932)" style="stroke:#000000; stroke-linecap:round; stroke-linejoin:round; stroke-width:2; stroke-opacity:0.1; fill:none" points="512.797,1486.45 512.797,123.472 "/>
<polyline clip-path="url(#clip932)" style="stroke:#000000; stroke-linecap:round; stroke-linejoin:round; stroke-width:2; stroke-opacity:0.1; fill:none" points="781.087,1486.45 781.087,123.472 "/>
<polyline clip-path="url(#clip932)" style="stroke:#000000; stroke-linecap:round; stroke-linejoin:round; stroke-width:2; stroke-opacity:0.1; fill:none" points="1049.38,1486.45 1049.38,123.472 "/>
<polyline clip-path="url(#clip932)" style="stroke:#000000; stroke-linecap:round; stroke-linejoin:round; stroke-width:2; stroke-opacity:0.1; fill:none" points="1317.67,1486.45 1317.67,123.472 "/>
<polyline clip-path="url(#clip932)" style="stroke:#000000; stroke-linecap:round; stroke-linejoin:round; stroke-width:2; stroke-opacity:0.1; fill:none" points="1585.96,1486.45 1585.96,123.472 "/>
<polyline clip-path="url(#clip932)" style="stroke:#000000; stroke-linecap:round; stroke-linejoin:round; stroke-width:2; stroke-opacity:0.1; fill:none" points="1854.25,1486.45 1854.25,123.472 "/>
<polyline clip-path="url(#clip932)" style="stroke:#000000; stroke-linecap:round; stroke-linejoin:round; stroke-width:2; stroke-opacity:0.1; fill:none" points="193.936,1409.52 1980.79,1409.52 "/>
<polyline clip-path="url(#clip932)" style="stroke:#000000; stroke-linecap:round; stroke-linejoin:round; stroke-width:2; stroke-opacity:0.1; fill:none" points="193.936,1113.91 1980.79,1113.91 "/>
<polyline clip-path="url(#clip932)" style="stroke:#000000; stroke-linecap:round; stroke-linejoin:round; stroke-width:2; stroke-opacity:0.1; fill:none" points="193.936,818.303 1980.79,818.303 "/>
<polyline clip-path="url(#clip932)" style="stroke:#000000; stroke-linecap:round; stroke-linejoin:round; stroke-width:2; stroke-opacity:0.1; fill:none" points="193.936,522.692 1980.79,522.692 "/>
<polyline clip-path="url(#clip932)" style="stroke:#000000; stroke-linecap:round; stroke-linejoin:round; stroke-width:2; stroke-opacity:0.1; fill:none" points="193.936,227.081 1980.79,227.081 "/>
<polyline clip-path="url(#clip930)" style="stroke:#000000; stroke-linecap:round; stroke-linejoin:round; stroke-width:4; stroke-opacity:1; fill:none" points="193.936,1486.45 1980.79,1486.45 "/>
<polyline clip-path="url(#clip930)" style="stroke:#000000; stroke-linecap:round; stroke-linejoin:round; stroke-width:4; stroke-opacity:1; fill:none" points="244.507,1486.45 244.507,1467.55 "/>
<polyline clip-path="url(#clip930)" style="stroke:#000000; stroke-linecap:round; stroke-linejoin:round; stroke-width:4; stroke-opacity:1; fill:none" points="512.797,1486.45 512.797,1467.55 "/>
<polyline clip-path="url(#clip930)" style="stroke:#000000; stroke-linecap:round; stroke-linejoin:round; stroke-width:4; stroke-opacity:1; fill:none" points="781.087,1486.45 781.087,1467.55 "/>
<polyline clip-path="url(#clip930)" style="stroke:#000000; stroke-linecap:round; stroke-linejoin:round; stroke-width:4; stroke-opacity:1; fill:none" points="1049.38,1486.45 1049.38,1467.55 "/>
<polyline clip-path="url(#clip930)" style="stroke:#000000; stroke-linecap:round; stroke-linejoin:round; stroke-width:4; stroke-opacity:1; fill:none" points="1317.67,1486.45 1317.67,1467.55 "/>
<polyline clip-path="url(#clip930)" style="stroke:#000000; stroke-linecap:round; stroke-linejoin:round; stroke-width:4; stroke-opacity:1; fill:none" points="1585.96,1486.45 1585.96,1467.55 "/>
<polyline clip-path="url(#clip930)" style="stroke:#000000; stroke-linecap:round; stroke-linejoin:round; stroke-width:4; stroke-opacity:1; fill:none" points="1854.25,1486.45 1854.25,1467.55 "/>
<path clip-path="url(#clip930)" d="M244.507 1517.37 Q240.896 1517.37 239.068 1520.93 Q237.262 1524.47 237.262 1531.6 Q237.262 1538.71 239.068 1542.27 Q240.896 1545.82 244.507 1545.82 Q248.142 1545.82 249.947 1542.27 Q251.776 1538.71 251.776 1531.6 Q251.776 1524.47 249.947 1520.93 Q248.142 1517.37 244.507 1517.37 M244.507 1513.66 Q250.318 1513.66 253.373 1518.27 Q256.452 1522.85 256.452 1531.6 Q256.452 1540.33 253.373 1544.94 Q250.318 1549.52 244.507 1549.52 Q238.697 1549.52 235.619 1544.94 Q232.563 1540.33 232.563 1531.6 Q232.563 1522.85 235.619 1518.27 Q238.697 1513.66 244.507 1513.66 Z" fill="#000000" fill-rule="nonzero" fill-opacity="1" /><path clip-path="url(#clip930)" d="M503.179 1544.91 L510.818 1544.91 L510.818 1518.55 L502.508 1520.21 L502.508 1515.95 L510.772 1514.29 L515.448 1514.29 L515.448 1544.91 L523.087 1544.91 L523.087 1548.85 L503.179 1548.85 L503.179 1544.91 Z" fill="#000000" fill-rule="nonzero" fill-opacity="1" /><path clip-path="url(#clip930)" d="M775.74 1544.91 L792.059 1544.91 L792.059 1548.85 L770.115 1548.85 L770.115 1544.91 Q772.777 1542.16 777.36 1537.53 Q781.967 1532.88 783.147 1531.53 Q785.393 1529.01 786.272 1527.27 Q787.175 1525.51 787.175 1523.82 Q787.175 1521.07 785.231 1519.33 Q783.309 1517.6 780.207 1517.6 Q778.008 1517.6 775.555 1518.36 Q773.124 1519.13 770.346 1520.68 L770.346 1515.95 Q773.17 1514.82 775.624 1514.24 Q778.078 1513.66 780.115 1513.66 Q785.485 1513.66 788.68 1516.35 Q791.874 1519.03 791.874 1523.52 Q791.874 1525.65 791.064 1527.57 Q790.277 1529.47 788.17 1532.07 Q787.592 1532.74 784.49 1535.95 Q781.388 1539.15 775.74 1544.91 Z" fill="#000000" fill-rule="nonzero" fill-opacity="1" /><path clip-path="url(#clip930)" d="M1053.62 1530.21 Q1056.98 1530.93 1058.86 1533.2 Q1060.75 1535.47 1060.75 1538.8 Q1060.75 1543.92 1057.24 1546.72 Q1053.72 1549.52 1047.24 1549.52 Q1045.06 1549.52 1042.74 1549.08 Q1040.45 1548.66 1038 1547.81 L1038 1543.29 Q1039.94 1544.43 1042.26 1545.01 Q1044.57 1545.58 1047.1 1545.58 Q1051.49 1545.58 1053.79 1543.85 Q1056.1 1542.11 1056.1 1538.8 Q1056.1 1535.75 1053.95 1534.03 Q1051.82 1532.3 1048 1532.3 L1043.97 1532.3 L1043.97 1528.45 L1048.18 1528.45 Q1051.63 1528.45 1053.46 1527.09 Q1055.29 1525.7 1055.29 1523.11 Q1055.29 1520.45 1053.39 1519.03 Q1051.52 1517.6 1048 1517.6 Q1046.08 1517.6 1043.88 1518.01 Q1041.68 1518.43 1039.04 1519.31 L1039.04 1515.14 Q1041.7 1514.4 1044.02 1514.03 Q1046.36 1513.66 1048.42 1513.66 Q1053.74 1513.66 1056.84 1516.09 Q1059.94 1518.5 1059.94 1522.62 Q1059.94 1525.49 1058.3 1527.48 Q1056.66 1529.45 1053.62 1530.21 Z" fill="#000000" fill-rule="nonzero" fill-opacity="1" /><path clip-path="url(#clip930)" d="M1320.68 1518.36 L1308.87 1536.81 L1320.68 1536.81 L1320.68 1518.36 M1319.45 1514.29 L1325.33 1514.29 L1325.33 1536.81 L1330.26 1536.81 L1330.26 1540.7 L1325.33 1540.7 L1325.33 1548.85 L1320.68 1548.85 L1320.68 1540.7 L1305.07 1540.7 L1305.07 1536.19 L1319.45 1514.29 Z" fill="#000000" fill-rule="nonzero" fill-opacity="1" /><path clip-path="url(#clip930)" d="M1576.23 1514.29 L1594.59 1514.29 L1594.59 1518.22 L1580.52 1518.22 L1580.52 1526.7 Q1581.54 1526.35 1582.55 1526.19 Q1583.57 1526 1584.59 1526 Q1590.38 1526 1593.76 1529.17 Q1597.14 1532.34 1597.14 1537.76 Q1597.14 1543.34 1593.66 1546.44 Q1590.19 1549.52 1583.87 1549.52 Q1581.7 1549.52 1579.43 1549.15 Q1577.18 1548.78 1574.78 1548.04 L1574.78 1543.34 Q1576.86 1544.47 1579.08 1545.03 Q1581.3 1545.58 1583.78 1545.58 Q1587.79 1545.58 1590.12 1543.48 Q1592.46 1541.37 1592.46 1537.76 Q1592.46 1534.15 1590.12 1532.04 Q1587.79 1529.94 1583.78 1529.94 Q1581.91 1529.94 1580.03 1530.35 Q1578.18 1530.77 1576.23 1531.65 L1576.23 1514.29 Z" fill="#000000" fill-rule="nonzero" fill-opacity="1" /><path clip-path="url(#clip930)" d="M1854.65 1529.7 Q1851.5 1529.7 1849.65 1531.86 Q1847.82 1534.01 1847.82 1537.76 Q1847.82 1541.49 1849.65 1543.66 Q1851.5 1545.82 1854.65 1545.82 Q1857.8 1545.82 1859.63 1543.66 Q1861.48 1541.49 1861.48 1537.76 Q1861.48 1534.01 1859.63 1531.86 Q1857.8 1529.7 1854.65 1529.7 M1863.93 1515.05 L1863.93 1519.31 Q1862.17 1518.48 1860.37 1518.04 Q1858.59 1517.6 1856.83 1517.6 Q1852.2 1517.6 1849.74 1520.72 Q1847.31 1523.85 1846.97 1530.17 Q1848.33 1528.15 1850.39 1527.09 Q1852.45 1526 1854.93 1526 Q1860.14 1526 1863.15 1529.17 Q1866.18 1532.32 1866.18 1537.76 Q1866.18 1543.08 1863.03 1546.3 Q1859.88 1549.52 1854.65 1549.52 Q1848.66 1549.52 1845.48 1544.94 Q1842.31 1540.33 1842.31 1531.6 Q1842.31 1523.41 1846.2 1518.55 Q1850.09 1513.66 1856.64 1513.66 Q1858.4 1513.66 1860.18 1514.01 Q1861.99 1514.36 1863.93 1515.05 Z" fill="#000000" fill-rule="nonzero" fill-opacity="1" /><polyline clip-path="url(#clip930)" style="stroke:#000000; stroke-linecap:round; stroke-linejoin:round; stroke-width:4; stroke-opacity:1; fill:none" points="193.936,1486.45 193.936,123.472 "/>
<polyline clip-path="url(#clip930)" style="stroke:#000000; stroke-linecap:round; stroke-linejoin:round; stroke-width:4; stroke-opacity:1; fill:none" points="193.936,1409.52 209.578,1409.52 "/>
<polyline clip-path="url(#clip930)" style="stroke:#000000; stroke-linecap:round; stroke-linejoin:round; stroke-width:4; stroke-opacity:1; fill:none" points="193.936,1113.91 209.578,1113.91 "/>
<polyline clip-path="url(#clip930)" style="stroke:#000000; stroke-linecap:round; stroke-linejoin:round; stroke-width:4; stroke-opacity:1; fill:none" points="193.936,818.303 209.578,818.303 "/>
<polyline clip-path="url(#clip930)" style="stroke:#000000; stroke-linecap:round; stroke-linejoin:round; stroke-width:4; stroke-opacity:1; fill:none" points="193.936,522.692 209.578,522.692 "/>
<polyline clip-path="url(#clip930)" style="stroke:#000000; stroke-linecap:round; stroke-linejoin:round; stroke-width:4; stroke-opacity:1; fill:none" points="193.936,227.081 209.578,227.081 "/>
<path clip-path="url(#clip930)" d="M50.9921 1409.98 L80.6679 1409.98 L80.6679 1413.91 L50.9921 1413.91 L50.9921 1409.98 Z" fill="#000000" fill-rule="nonzero" fill-opacity="1" /><path clip-path="url(#clip930)" d="M91.5706 1422.87 L99.2095 1422.87 L99.2095 1396.5 L90.8993 1398.17 L90.8993 1393.91 L99.1632 1392.24 L103.839 1392.24 L103.839 1422.87 L111.478 1422.87 L111.478 1426.8 L91.5706 1426.8 L91.5706 1422.87 Z" fill="#000000" fill-rule="nonzero" fill-opacity="1" /><path clip-path="url(#clip930)" d="M120.922 1420.92 L125.807 1420.92 L125.807 1426.8 L120.922 1426.8 L120.922 1420.92 Z" fill="#000000" fill-rule="nonzero" fill-opacity="1" /><path clip-path="url(#clip930)" d="M145.992 1395.32 Q142.381 1395.32 140.552 1398.89 Q138.746 1402.43 138.746 1409.56 Q138.746 1416.67 140.552 1420.23 Q142.381 1423.77 145.992 1423.77 Q149.626 1423.77 151.431 1420.23 Q153.26 1416.67 153.26 1409.56 Q153.26 1402.43 151.431 1398.89 Q149.626 1395.32 145.992 1395.32 M145.992 1391.62 Q151.802 1391.62 154.857 1396.23 Q157.936 1400.81 157.936 1409.56 Q157.936 1418.29 154.857 1422.89 Q151.802 1427.48 145.992 1427.48 Q140.181 1427.48 137.103 1422.89 Q134.047 1418.29 134.047 1409.56 Q134.047 1400.81 137.103 1396.23 Q140.181 1391.62 145.992 1391.62 Z" fill="#000000" fill-rule="nonzero" fill-opacity="1" /><path clip-path="url(#clip930)" d="M51.9875 1114.36 L81.6633 1114.36 L81.6633 1118.3 L51.9875 1118.3 L51.9875 1114.36 Z" fill="#000000" fill-rule="nonzero" fill-opacity="1" /><path clip-path="url(#clip930)" d="M101.756 1099.71 Q98.1447 1099.71 96.316 1103.28 Q94.5104 1106.82 94.5104 1113.95 Q94.5104 1121.05 96.316 1124.62 Q98.1447 1128.16 101.756 1128.16 Q105.39 1128.16 107.196 1124.62 Q109.024 1121.05 109.024 1113.95 Q109.024 1106.82 107.196 1103.28 Q105.39 1099.71 101.756 1099.71 M101.756 1096.01 Q107.566 1096.01 110.621 1100.61 Q113.7 1105.2 113.7 1113.95 Q113.7 1122.67 110.621 1127.28 Q107.566 1131.86 101.756 1131.86 Q95.9456 1131.86 92.8669 1127.28 Q89.8114 1122.67 89.8114 1113.95 Q89.8114 1105.2 92.8669 1100.61 Q95.9456 1096.01 101.756 1096.01 Z" fill="#000000" fill-rule="nonzero" fill-opacity="1" /><path clip-path="url(#clip930)" d="M121.918 1125.31 L126.802 1125.31 L126.802 1131.19 L121.918 1131.19 L121.918 1125.31 Z" fill="#000000" fill-rule="nonzero" fill-opacity="1" /><path clip-path="url(#clip930)" d="M137.033 1096.63 L155.39 1096.63 L155.39 1100.57 L141.316 1100.57 L141.316 1109.04 Q142.334 1108.69 143.353 1108.53 Q144.371 1108.35 145.39 1108.35 Q151.177 1108.35 154.556 1111.52 Q157.936 1114.69 157.936 1120.11 Q157.936 1125.68 154.464 1128.79 Q150.992 1131.86 144.672 1131.86 Q142.496 1131.86 140.228 1131.49 Q137.982 1131.12 135.575 1130.38 L135.575 1125.68 Q137.658 1126.82 139.881 1127.37 Q142.103 1127.93 144.58 1127.93 Q148.584 1127.93 150.922 1125.82 Q153.26 1123.72 153.26 1120.11 Q153.26 1116.49 150.922 1114.39 Q148.584 1112.28 144.58 1112.28 Q142.705 1112.28 140.83 1112.7 Q138.978 1113.11 137.033 1113.99 L137.033 1096.63 Z" fill="#000000" fill-rule="nonzero" fill-opacity="1" /><path clip-path="url(#clip930)" d="M100.76 804.101 Q97.1493 804.101 95.3206 807.666 Q93.515 811.208 93.515 818.337 Q93.515 825.444 95.3206 829.009 Q97.1493 832.55 100.76 832.55 Q104.395 832.55 106.2 829.009 Q108.029 825.444 108.029 818.337 Q108.029 811.208 106.2 807.666 Q104.395 804.101 100.76 804.101 M100.76 800.398 Q106.571 800.398 109.626 805.004 Q112.705 809.587 112.705 818.337 Q112.705 827.064 109.626 831.671 Q106.571 836.254 100.76 836.254 Q94.9502 836.254 91.8715 831.671 Q88.816 827.064 88.816 818.337 Q88.816 809.587 91.8715 805.004 Q94.9502 800.398 100.76 800.398 Z" fill="#000000" fill-rule="nonzero" fill-opacity="1" /><path clip-path="url(#clip930)" d="M120.922 829.703 L125.807 829.703 L125.807 835.583 L120.922 835.583 L120.922 829.703 Z" fill="#000000" fill-rule="nonzero" fill-opacity="1" /><path clip-path="url(#clip930)" d="M145.992 804.101 Q142.381 804.101 140.552 807.666 Q138.746 811.208 138.746 818.337 Q138.746 825.444 140.552 829.009 Q142.381 832.55 145.992 832.55 Q149.626 832.55 151.431 829.009 Q153.26 825.444 153.26 818.337 Q153.26 811.208 151.431 807.666 Q149.626 804.101 145.992 804.101 M145.992 800.398 Q151.802 800.398 154.857 805.004 Q157.936 809.587 157.936 818.337 Q157.936 827.064 154.857 831.671 Q151.802 836.254 145.992 836.254 Q140.181 836.254 137.103 831.671 Q134.047 827.064 134.047 818.337 Q134.047 809.587 137.103 805.004 Q140.181 800.398 145.992 800.398 Z" fill="#000000" fill-rule="nonzero" fill-opacity="1" /><path clip-path="url(#clip930)" d="M101.756 508.491 Q98.1447 508.491 96.316 512.055 Q94.5104 515.597 94.5104 522.727 Q94.5104 529.833 96.316 533.398 Q98.1447 536.94 101.756 536.94 Q105.39 536.94 107.196 533.398 Q109.024 529.833 109.024 522.727 Q109.024 515.597 107.196 512.055 Q105.39 508.491 101.756 508.491 M101.756 504.787 Q107.566 504.787 110.621 509.393 Q113.7 513.977 113.7 522.727 Q113.7 531.454 110.621 536.06 Q107.566 540.643 101.756 540.643 Q95.9456 540.643 92.8669 536.06 Q89.8114 531.454 89.8114 522.727 Q89.8114 513.977 92.8669 509.393 Q95.9456 504.787 101.756 504.787 Z" fill="#000000" fill-rule="nonzero" fill-opacity="1" /><path clip-path="url(#clip930)" d="M121.918 534.092 L126.802 534.092 L126.802 539.972 L121.918 539.972 L121.918 534.092 Z" fill="#000000" fill-rule="nonzero" fill-opacity="1" /><path clip-path="url(#clip930)" d="M137.033 505.412 L155.39 505.412 L155.39 509.347 L141.316 509.347 L141.316 517.819 Q142.334 517.472 143.353 517.31 Q144.371 517.125 145.39 517.125 Q151.177 517.125 154.556 520.296 Q157.936 523.467 157.936 528.884 Q157.936 534.463 154.464 537.565 Q150.992 540.643 144.672 540.643 Q142.496 540.643 140.228 540.273 Q137.982 539.903 135.575 539.162 L135.575 534.463 Q137.658 535.597 139.881 536.153 Q142.103 536.708 144.58 536.708 Q148.584 536.708 150.922 534.602 Q153.26 532.495 153.26 528.884 Q153.26 525.273 150.922 523.167 Q148.584 521.06 144.58 521.06 Q142.705 521.06 140.83 521.477 Q138.978 521.893 137.033 522.773 L137.033 505.412 Z" fill="#000000" fill-rule="nonzero" fill-opacity="1" /><path clip-path="url(#clip930)" d="M91.5706 240.426 L99.2095 240.426 L99.2095 214.061 L90.8993 215.727 L90.8993 211.468 L99.1632 209.801 L103.839 209.801 L103.839 240.426 L111.478 240.426 L111.478 244.361 L91.5706 244.361 L91.5706 240.426 Z" fill="#000000" fill-rule="nonzero" fill-opacity="1" /><path clip-path="url(#clip930)" d="M120.922 238.482 L125.807 238.482 L125.807 244.361 L120.922 244.361 L120.922 238.482 Z" fill="#000000" fill-rule="nonzero" fill-opacity="1" /><path clip-path="url(#clip930)" d="M145.992 212.88 Q142.381 212.88 140.552 216.445 Q138.746 219.986 138.746 227.116 Q138.746 234.222 140.552 237.787 Q142.381 241.329 145.992 241.329 Q149.626 241.329 151.431 237.787 Q153.26 234.222 153.26 227.116 Q153.26 219.986 151.431 216.445 Q149.626 212.88 145.992 212.88 M145.992 209.176 Q151.802 209.176 154.857 213.783 Q157.936 218.366 157.936 227.116 Q157.936 235.843 154.857 240.449 Q151.802 245.033 145.992 245.033 Q140.181 245.033 137.103 240.449 Q134.047 235.843 134.047 227.116 Q134.047 218.366 137.103 213.783 Q140.181 209.176 145.992 209.176 Z" fill="#000000" fill-rule="nonzero" fill-opacity="1" /><path clip-path="url(#clip930)" d="M270.621 18.8205 L270.621 41.5461 L280.911 41.5461 Q286.622 41.5461 289.742 38.5889 Q292.861 35.6318 292.861 30.163 Q292.861 24.7348 289.742 21.7777 Q286.622 18.8205 280.911 18.8205 L270.621 18.8205 M262.439 12.096 L280.911 12.096 Q291.078 12.096 296.264 16.714 Q301.489 21.2916 301.489 30.163 Q301.489 39.1155 296.264 43.6931 Q291.078 48.2706 280.911 48.2706 L270.621 48.2706 L270.621 72.576 L262.439 72.576 L262.439 12.096 Z" fill="#000000" fill-rule="nonzero" fill-opacity="1" /><path clip-path="url(#clip930)" d="M312.143 9.54393 L319.597 9.54393 L319.597 72.576 L312.143 72.576 L312.143 9.54393 Z" fill="#000000" fill-rule="nonzero" fill-opacity="1" /><path clip-path="url(#clip930)" d="M352.774 32.4315 Q346.778 32.4315 343.295 37.1306 Q339.811 41.7891 339.811 49.9314 Q339.811 58.0738 343.254 62.7728 Q346.738 67.4314 352.774 67.4314 Q358.729 67.4314 362.212 62.7323 Q365.696 58.0333 365.696 49.9314 Q365.696 41.8701 362.212 37.1711 Q358.729 32.4315 352.774 32.4315 M352.774 26.1121 Q362.496 26.1121 368.046 32.4315 Q373.595 38.7509 373.595 49.9314 Q373.595 61.0714 368.046 67.4314 Q362.496 73.7508 352.774 73.7508 Q343.011 73.7508 337.461 67.4314 Q331.952 61.0714 331.952 49.9314 Q331.952 38.7509 337.461 32.4315 Q343.011 26.1121 352.774 26.1121 Z" fill="#000000" fill-rule="nonzero" fill-opacity="1" /><path clip-path="url(#clip930)" d="M393.323 14.324 L393.323 27.2059 L408.676 27.2059 L408.676 32.9987 L393.323 32.9987 L393.323 57.6282 Q393.323 63.1779 394.822 64.7578 Q396.361 66.3376 401.02 66.3376 L408.676 66.3376 L408.676 72.576 L401.02 72.576 Q392.392 72.576 389.11 69.3758 Q385.829 66.1351 385.829 57.6282 L385.829 32.9987 L380.36 32.9987 L380.36 27.2059 L385.829 27.2059 L385.829 14.324 L393.323 14.324 Z" fill="#000000" fill-rule="nonzero" fill-opacity="1" /><path clip-path="url(#clip930)" d="M425.852 14.324 L425.852 27.2059 L441.205 27.2059 L441.205 32.9987 L425.852 32.9987 L425.852 57.6282 Q425.852 63.1779 427.351 64.7578 Q428.89 66.3376 433.549 66.3376 L441.205 66.3376 L441.205 72.576 L433.549 72.576 Q424.92 72.576 421.639 69.3758 Q418.358 66.1351 418.358 57.6282 L418.358 32.9987 L412.889 32.9987 L412.889 27.2059 L418.358 27.2059 L418.358 14.324 L425.852 14.324 Z" fill="#000000" fill-rule="nonzero" fill-opacity="1" /><path clip-path="url(#clip930)" d="M451.008 27.2059 L458.462 27.2059 L458.462 72.576 L451.008 72.576 L451.008 27.2059 M451.008 9.54393 L458.462 9.54393 L458.462 18.9825 L451.008 18.9825 L451.008 9.54393 Z" fill="#000000" fill-rule="nonzero" fill-opacity="1" /><path clip-path="url(#clip930)" d="M511.772 45.1919 L511.772 72.576 L504.318 72.576 L504.318 45.4349 Q504.318 38.994 501.806 35.7938 Q499.295 32.5936 494.272 32.5936 Q488.236 32.5936 484.752 36.4419 Q481.268 40.2903 481.268 46.9338 L481.268 72.576 L473.774 72.576 L473.774 27.2059 L481.268 27.2059 L481.268 34.2544 Q483.942 30.163 487.547 28.1376 Q491.193 26.1121 495.933 26.1121 Q503.751 26.1121 507.761 30.9732 Q511.772 35.7938 511.772 45.1919 Z" fill="#000000" fill-rule="nonzero" fill-opacity="1" /><path clip-path="url(#clip930)" d="M556.494 49.3643 Q556.494 41.2625 553.131 36.8065 Q549.81 32.3505 543.774 32.3505 Q537.778 32.3505 534.416 36.8065 Q531.094 41.2625 531.094 49.3643 Q531.094 57.4256 534.416 61.8816 Q537.778 66.3376 543.774 66.3376 Q549.81 66.3376 553.131 61.8816 Q556.494 57.4256 556.494 49.3643 M563.947 66.9452 Q563.947 78.5308 558.803 84.1616 Q553.658 89.8329 543.045 89.8329 Q539.115 89.8329 535.632 89.2252 Q532.148 88.6581 528.866 87.4428 L528.866 80.1917 Q532.148 81.9741 535.348 82.8248 Q538.548 83.6755 541.87 83.6755 Q549.202 83.6755 552.848 79.8271 Q556.494 76.0193 556.494 68.282 L556.494 64.5957 Q554.185 68.6061 550.579 70.5911 Q546.974 72.576 541.951 72.576 Q533.606 72.576 528.502 66.2161 Q523.398 59.8562 523.398 49.3643 Q523.398 38.832 528.502 32.472 Q533.606 26.1121 541.951 26.1121 Q546.974 26.1121 550.579 28.0971 Q554.185 30.082 556.494 34.0924 L556.494 27.2059 L563.947 27.2059 L563.947 66.9452 Z" fill="#000000" fill-rule="nonzero" fill-opacity="1" /><path clip-path="url(#clip930)" d="M626.291 49.7694 Q617.257 49.7694 613.773 51.8354 Q610.29 53.9013 610.29 58.8839 Q610.29 62.8538 612.882 65.2034 Q615.515 67.5124 620.012 67.5124 Q626.21 67.5124 629.937 63.1374 Q633.704 58.7219 633.704 51.4303 L633.704 49.7694 L626.291 49.7694 M641.158 46.6907 L641.158 72.576 L633.704 72.576 L633.704 65.6895 Q631.152 69.8214 627.344 71.8063 Q623.536 73.7508 618.027 73.7508 Q611.059 73.7508 606.927 69.8619 Q602.836 65.9325 602.836 59.3701 Q602.836 51.7138 607.94 47.825 Q613.085 43.9361 623.253 43.9361 L633.704 43.9361 L633.704 43.2069 Q633.704 38.0623 630.301 35.2672 Q626.939 32.4315 620.822 32.4315 Q616.933 32.4315 613.247 33.3632 Q609.561 34.295 606.158 36.1584 L606.158 29.2718 Q610.249 27.692 614.098 26.9223 Q617.946 26.1121 621.592 26.1121 Q631.435 26.1121 636.296 31.2163 Q641.158 36.3204 641.158 46.6907 Z" fill="#000000" fill-rule="nonzero" fill-opacity="1" /><path clip-path="url(#clip930)" d="M683.206 12.096 L717.963 12.096 L717.963 18.9825 L691.389 18.9825 L691.389 36.8065 L715.37 36.8065 L715.37 43.6931 L691.389 43.6931 L691.389 72.576 L683.206 72.576 L683.206 12.096 Z" fill="#000000" fill-rule="nonzero" fill-opacity="1" /><path clip-path="url(#clip930)" d="M725.295 54.671 L725.295 27.2059 L732.749 27.2059 L732.749 54.3874 Q732.749 60.8284 735.26 64.0691 Q737.772 67.2693 742.795 67.2693 Q748.831 67.2693 752.314 63.421 Q755.839 59.5726 755.839 52.9291 L755.839 27.2059 L763.292 27.2059 L763.292 72.576 L755.839 72.576 L755.839 65.6084 Q753.125 69.7404 749.519 71.7658 Q745.954 73.7508 741.215 73.7508 Q733.397 73.7508 729.346 68.8897 Q725.295 64.0286 725.295 54.671 M744.051 26.1121 L744.051 26.1121 Z" fill="#000000" fill-rule="nonzero" fill-opacity="1" /><path clip-path="url(#clip930)" d="M816.359 45.1919 L816.359 72.576 L808.906 72.576 L808.906 45.4349 Q808.906 38.994 806.394 35.7938 Q803.882 32.5936 798.859 32.5936 Q792.823 32.5936 789.34 36.4419 Q785.856 40.2903 785.856 46.9338 L785.856 72.576 L778.362 72.576 L778.362 27.2059 L785.856 27.2059 L785.856 34.2544 Q788.529 30.163 792.135 28.1376 Q795.781 26.1121 800.52 26.1121 Q808.338 26.1121 812.349 30.9732 Q816.359 35.7938 816.359 45.1919 Z" fill="#000000" fill-rule="nonzero" fill-opacity="1" /><path clip-path="url(#clip930)" d="M863.876 28.9478 L863.876 35.9153 Q860.717 34.1734 857.516 33.3227 Q854.357 32.4315 851.116 32.4315 Q843.865 32.4315 839.854 37.0496 Q835.844 41.6271 835.844 49.9314 Q835.844 58.2358 839.854 62.8538 Q843.865 67.4314 851.116 67.4314 Q854.357 67.4314 857.516 66.5807 Q860.717 65.6895 863.876 63.9476 L863.876 70.8341 Q860.757 72.2924 857.395 73.0216 Q854.073 73.7508 850.306 73.7508 Q840.057 73.7508 834.021 67.3098 Q827.985 60.8689 827.985 49.9314 Q827.985 38.832 834.062 32.472 Q840.178 26.1121 850.792 26.1121 Q854.235 26.1121 857.516 26.8413 Q860.798 27.5299 863.876 28.9478 Z" fill="#000000" fill-rule="nonzero" fill-opacity="1" /><path clip-path="url(#clip930)" d="M884.212 14.324 L884.212 27.2059 L899.565 27.2059 L899.565 32.9987 L884.212 32.9987 L884.212 57.6282 Q884.212 63.1779 885.711 64.7578 Q887.25 66.3376 891.909 66.3376 L899.565 66.3376 L899.565 72.576 L891.909 72.576 Q883.28 72.576 879.999 69.3758 Q876.718 66.1351 876.718 57.6282 L876.718 32.9987 L871.249 32.9987 L871.249 27.2059 L876.718 27.2059 L876.718 14.324 L884.212 14.324 Z" fill="#000000" fill-rule="nonzero" fill-opacity="1" /><path clip-path="url(#clip930)" d="M909.368 27.2059 L916.822 27.2059 L916.822 72.576 L909.368 72.576 L909.368 27.2059 M909.368 9.54393 L916.822 9.54393 L916.822 18.9825 L909.368 18.9825 L909.368 9.54393 Z" fill="#000000" fill-rule="nonzero" fill-opacity="1" /><path clip-path="url(#clip930)" d="M949.999 32.4315 Q944.003 32.4315 940.519 37.1306 Q937.036 41.7891 937.036 49.9314 Q937.036 58.0738 940.479 62.7728 Q943.963 67.4314 949.999 67.4314 Q955.953 67.4314 959.437 62.7323 Q962.921 58.0333 962.921 49.9314 Q962.921 41.8701 959.437 37.1711 Q955.953 32.4315 949.999 32.4315 M949.999 26.1121 Q959.721 26.1121 965.27 32.4315 Q970.82 38.7509 970.82 49.9314 Q970.82 61.0714 965.27 67.4314 Q959.721 73.7508 949.999 73.7508 Q940.236 73.7508 934.686 67.4314 Q929.177 61.0714 929.177 49.9314 Q929.177 38.7509 934.686 32.4315 Q940.236 26.1121 949.999 26.1121 Z" fill="#000000" fill-rule="nonzero" fill-opacity="1" /><path clip-path="url(#clip930)" d="M1020.89 45.1919 L1020.89 72.576 L1013.44 72.576 L1013.44 45.4349 Q1013.44 38.994 1010.92 35.7938 Q1008.41 32.5936 1003.39 32.5936 Q997.354 32.5936 993.87 36.4419 Q990.386 40.2903 990.386 46.9338 L990.386 72.576 L982.892 72.576 L982.892 27.2059 L990.386 27.2059 L990.386 34.2544 Q993.06 30.163 996.665 28.1376 Q1000.31 26.1121 1005.05 26.1121 Q1012.87 26.1121 1016.88 30.9732 Q1020.89 35.7938 1020.89 45.1919 Z" fill="#000000" fill-rule="nonzero" fill-opacity="1" /><path clip-path="url(#clip930)" d="M1056.78 27.2059 L1064.68 27.2059 L1078.86 65.2844 L1093.04 27.2059 L1100.94 27.2059 L1083.92 72.576 L1073.79 72.576 L1056.78 27.2059 Z" fill="#000000" fill-rule="nonzero" fill-opacity="1" /><path clip-path="url(#clip930)" d="M1111.22 27.2059 L1118.68 27.2059 L1118.68 72.576 L1111.22 72.576 L1111.22 27.2059 M1111.22 9.54393 L1118.68 9.54393 L1118.68 18.9825 L1111.22 18.9825 L1111.22 9.54393 Z" fill="#000000" fill-rule="nonzero" fill-opacity="1" /><path clip-path="url(#clip930)" d="M1154.89 49.7694 Q1145.86 49.7694 1142.38 51.8354 Q1138.89 53.9013 1138.89 58.8839 Q1138.89 62.8538 1141.48 65.2034 Q1144.12 67.5124 1148.61 67.5124 Q1154.81 67.5124 1158.54 63.1374 Q1162.31 58.7219 1162.31 51.4303 L1162.31 49.7694 L1154.89 49.7694 M1169.76 46.6907 L1169.76 72.576 L1162.31 72.576 L1162.31 65.6895 Q1159.75 69.8214 1155.95 71.8063 Q1152.14 73.7508 1146.63 73.7508 Q1139.66 73.7508 1135.53 69.8619 Q1131.44 65.9325 1131.44 59.3701 Q1131.44 51.7138 1136.54 47.825 Q1141.69 43.9361 1151.86 43.9361 L1162.31 43.9361 L1162.31 43.2069 Q1162.31 38.0623 1158.9 35.2672 Q1155.54 32.4315 1149.42 32.4315 Q1145.54 32.4315 1141.85 33.3632 Q1138.16 34.295 1134.76 36.1584 L1134.76 29.2718 Q1138.85 27.692 1142.7 26.9223 Q1146.55 26.1121 1150.19 26.1121 Q1160.04 26.1121 1164.9 31.2163 Q1169.76 36.3204 1169.76 46.6907 Z" fill="#000000" fill-rule="nonzero" fill-opacity="1" /><path clip-path="url(#clip930)" d="M1211.81 12.096 L1224 12.096 L1239.44 53.2532 L1254.95 12.096 L1267.14 12.096 L1267.14 72.576 L1259.16 72.576 L1259.16 19.4686 L1243.57 60.9499 L1235.34 60.9499 L1219.75 19.4686 L1219.75 72.576 L1211.81 72.576 L1211.81 12.096 Z" fill="#000000" fill-rule="nonzero" fill-opacity="1" /><path clip-path="url(#clip930)" d="M1303.68 49.7694 Q1294.65 49.7694 1291.17 51.8354 Q1287.68 53.9013 1287.68 58.8839 Q1287.68 62.8538 1290.27 65.2034 Q1292.91 67.5124 1297.4 67.5124 Q1303.6 67.5124 1307.33 63.1374 Q1311.1 58.7219 1311.1 51.4303 L1311.1 49.7694 L1303.68 49.7694 M1318.55 46.6907 L1318.55 72.576 L1311.1 72.576 L1311.1 65.6895 Q1308.54 69.8214 1304.74 71.8063 Q1300.93 73.7508 1295.42 73.7508 Q1288.45 73.7508 1284.32 69.8619 Q1280.23 65.9325 1280.23 59.3701 Q1280.23 51.7138 1285.33 47.825 Q1290.48 43.9361 1300.64 43.9361 L1311.1 43.9361 L1311.1 43.2069 Q1311.1 38.0623 1307.69 35.2672 Q1304.33 32.4315 1298.21 32.4315 Q1294.33 32.4315 1290.64 33.3632 Q1286.95 34.295 1283.55 36.1584 L1283.55 29.2718 Q1287.64 27.692 1291.49 26.9223 Q1295.34 26.1121 1298.98 26.1121 Q1308.83 26.1121 1313.69 31.2163 Q1318.55 36.3204 1318.55 46.6907 Z" fill="#000000" fill-rule="nonzero" fill-opacity="1" /><path clip-path="url(#clip930)" d="M1371.62 45.1919 L1371.62 72.576 L1364.16 72.576 L1364.16 45.4349 Q1364.16 38.994 1361.65 35.7938 Q1359.14 32.5936 1354.12 32.5936 Q1348.08 32.5936 1344.6 36.4419 Q1341.11 40.2903 1341.11 46.9338 L1341.11 72.576 L1333.62 72.576 L1333.62 27.2059 L1341.11 27.2059 L1341.11 34.2544 Q1343.79 30.163 1347.39 28.1376 Q1351.04 26.1121 1355.78 26.1121 Q1363.6 26.1121 1367.61 30.9732 Q1371.62 35.7938 1371.62 45.1919 Z" fill="#000000" fill-rule="nonzero" fill-opacity="1" /><path clip-path="url(#clip930)" d="M1385.71 54.671 L1385.71 27.2059 L1393.17 27.2059 L1393.17 54.3874 Q1393.17 60.8284 1395.68 64.0691 Q1398.19 67.2693 1403.21 67.2693 Q1409.25 67.2693 1412.73 63.421 Q1416.26 59.5726 1416.26 52.9291 L1416.26 27.2059 L1423.71 27.2059 L1423.71 72.576 L1416.26 72.576 L1416.26 65.6084 Q1413.54 69.7404 1409.94 71.7658 Q1406.37 73.7508 1401.63 73.7508 Q1393.82 73.7508 1389.76 68.8897 Q1385.71 64.0286 1385.71 54.671 M1404.47 26.1121 L1404.47 26.1121 Z" fill="#000000" fill-rule="nonzero" fill-opacity="1" /><path clip-path="url(#clip930)" d="M1459.68 49.7694 Q1450.65 49.7694 1447.17 51.8354 Q1443.68 53.9013 1443.68 58.8839 Q1443.68 62.8538 1446.27 65.2034 Q1448.91 67.5124 1453.4 67.5124 Q1459.6 67.5124 1463.33 63.1374 Q1467.1 58.7219 1467.1 51.4303 L1467.1 49.7694 L1459.68 49.7694 M1474.55 46.6907 L1474.55 72.576 L1467.1 72.576 L1467.1 65.6895 Q1464.54 69.8214 1460.74 71.8063 Q1456.93 73.7508 1451.42 73.7508 Q1444.45 73.7508 1440.32 69.8619 Q1436.23 65.9325 1436.23 59.3701 Q1436.23 51.7138 1441.33 47.825 Q1446.48 43.9361 1456.65 43.9361 L1467.1 43.9361 L1467.1 43.2069 Q1467.1 38.0623 1463.69 35.2672 Q1460.33 32.4315 1454.21 32.4315 Q1450.33 32.4315 1446.64 33.3632 Q1442.95 34.295 1439.55 36.1584 L1439.55 29.2718 Q1443.64 27.692 1447.49 26.9223 Q1451.34 26.1121 1454.98 26.1121 Q1464.83 26.1121 1469.69 31.2163 Q1474.55 36.3204 1474.55 46.6907 Z" fill="#000000" fill-rule="nonzero" fill-opacity="1" /><path clip-path="url(#clip930)" d="M1489.9 9.54393 L1497.36 9.54393 L1497.36 72.576 L1489.9 72.576 L1489.9 9.54393 Z" fill="#000000" fill-rule="nonzero" fill-opacity="1" /><path clip-path="url(#clip930)" d="M1575.9 14.0809 L1575.9 22.0612 Q1571.25 19.8332 1567.11 18.7395 Q1562.98 17.6457 1559.13 17.6457 Q1552.45 17.6457 1548.8 20.2383 Q1545.2 22.8309 1545.2 27.611 Q1545.2 31.6214 1547.59 33.6873 Q1550.02 35.7128 1556.74 36.9686 L1561.69 37.9813 Q1570.84 39.7232 1575.17 44.1387 Q1579.55 48.5136 1579.55 55.8863 Q1579.55 64.6767 1573.64 69.2137 Q1567.76 73.7508 1556.38 73.7508 Q1552.08 73.7508 1547.22 72.7785 Q1542.4 71.8063 1537.22 69.9024 L1537.22 61.4765 Q1542.2 64.2716 1546.98 65.6895 Q1551.76 67.1073 1556.38 67.1073 Q1563.39 67.1073 1567.19 64.3527 Q1571 61.598 1571 56.4939 Q1571 52.0379 1568.25 49.5264 Q1565.53 47.0148 1559.3 45.759 L1554.31 44.7868 Q1545.16 42.9639 1541.07 39.075 Q1536.97 35.1862 1536.97 28.2591 Q1536.97 20.2383 1542.61 15.6203 Q1548.28 11.0023 1558.2 11.0023 Q1562.45 11.0023 1566.87 11.7719 Q1571.29 12.5416 1575.9 14.0809 Z" fill="#000000" fill-rule="nonzero" fill-opacity="1" /><path clip-path="url(#clip930)" d="M1612.6 49.7694 Q1603.57 49.7694 1600.09 51.8354 Q1596.6 53.9013 1596.6 58.8839 Q1596.6 62.8538 1599.2 65.2034 Q1601.83 67.5124 1606.33 67.5124 Q1612.52 67.5124 1616.25 63.1374 Q1620.02 58.7219 1620.02 51.4303 L1620.02 49.7694 L1612.6 49.7694 M1627.47 46.6907 L1627.47 72.576 L1620.02 72.576 L1620.02 65.6895 Q1617.47 69.8214 1613.66 71.8063 Q1609.85 73.7508 1604.34 73.7508 Q1597.37 73.7508 1593.24 69.8619 Q1589.15 65.9325 1589.15 59.3701 Q1589.15 51.7138 1594.25 47.825 Q1599.4 43.9361 1609.57 43.9361 L1620.02 43.9361 L1620.02 43.2069 Q1620.02 38.0623 1616.62 35.2672 Q1613.25 32.4315 1607.14 32.4315 Q1603.25 32.4315 1599.56 33.3632 Q1595.87 34.295 1592.47 36.1584 L1592.47 29.2718 Q1596.56 27.692 1600.41 26.9223 Q1604.26 26.1121 1607.91 26.1121 Q1617.75 26.1121 1622.61 31.2163 Q1627.47 36.3204 1627.47 46.6907 Z" fill="#000000" fill-rule="nonzero" fill-opacity="1" /><path clip-path="url(#clip930)" d="M1678.15 35.9153 Q1680.94 30.8922 1684.83 28.5022 Q1688.72 26.1121 1693.99 26.1121 Q1701.08 26.1121 1704.93 31.0947 Q1708.77 36.0368 1708.77 45.1919 L1708.77 72.576 L1701.28 72.576 L1701.28 45.4349 Q1701.28 38.913 1698.97 35.7533 Q1696.66 32.5936 1691.92 32.5936 Q1686.13 32.5936 1682.77 36.4419 Q1679.4 40.2903 1679.4 46.9338 L1679.4 72.576 L1671.91 72.576 L1671.91 45.4349 Q1671.91 38.8725 1669.6 35.7533 Q1667.29 32.5936 1662.47 32.5936 Q1656.76 32.5936 1653.4 36.4824 Q1650.04 40.3308 1650.04 46.9338 L1650.04 72.576 L1642.54 72.576 L1642.54 27.2059 L1650.04 27.2059 L1650.04 34.2544 Q1652.59 30.082 1656.15 28.0971 Q1659.72 26.1121 1664.62 26.1121 Q1669.56 26.1121 1673 28.6237 Q1676.49 31.1352 1678.15 35.9153 Z" fill="#000000" fill-rule="nonzero" fill-opacity="1" /><path clip-path="url(#clip930)" d="M1730.85 65.7705 L1730.85 89.8329 L1723.36 89.8329 L1723.36 27.2059 L1730.85 27.2059 L1730.85 34.0924 Q1733.2 30.0415 1736.77 28.0971 Q1740.37 26.1121 1745.35 26.1121 Q1753.62 26.1121 1758.76 32.6746 Q1763.95 39.2371 1763.95 49.9314 Q1763.95 60.6258 1758.76 67.1883 Q1753.62 73.7508 1745.35 73.7508 Q1740.37 73.7508 1736.77 71.8063 Q1733.2 69.8214 1730.85 65.7705 M1756.21 49.9314 Q1756.21 41.7081 1752.81 37.0496 Q1749.44 32.3505 1743.53 32.3505 Q1737.62 32.3505 1734.21 37.0496 Q1730.85 41.7081 1730.85 49.9314 Q1730.85 58.1548 1734.21 62.8538 Q1737.62 67.5124 1743.53 67.5124 Q1749.44 67.5124 1752.81 62.8538 Q1756.21 58.1548 1756.21 49.9314 Z" fill="#000000" fill-rule="nonzero" fill-opacity="1" /><path clip-path="url(#clip930)" d="M1776.3 9.54393 L1783.76 9.54393 L1783.76 72.576 L1776.3 72.576 L1776.3 9.54393 Z" fill="#000000" fill-rule="nonzero" fill-opacity="1" /><path clip-path="url(#clip930)" d="M1799.35 27.2059 L1806.81 27.2059 L1806.81 72.576 L1799.35 72.576 L1799.35 27.2059 M1799.35 9.54393 L1806.81 9.54393 L1806.81 18.9825 L1799.35 18.9825 L1799.35 9.54393 Z" fill="#000000" fill-rule="nonzero" fill-opacity="1" /><path clip-path="url(#clip930)" d="M1860.12 45.1919 L1860.12 72.576 L1852.66 72.576 L1852.66 45.4349 Q1852.66 38.994 1850.15 35.7938 Q1847.64 32.5936 1842.62 32.5936 Q1836.58 32.5936 1833.1 36.4419 Q1829.61 40.2903 1829.61 46.9338 L1829.61 72.576 L1822.12 72.576 L1822.12 27.2059 L1829.61 27.2059 L1829.61 34.2544 Q1832.29 30.163 1835.89 28.1376 Q1839.54 26.1121 1844.28 26.1121 Q1852.09 26.1121 1856.1 30.9732 Q1860.12 35.7938 1860.12 45.1919 Z" fill="#000000" fill-rule="nonzero" fill-opacity="1" /><path clip-path="url(#clip930)" d="M1904.84 49.3643 Q1904.84 41.2625 1901.47 36.8065 Q1898.15 32.3505 1892.12 32.3505 Q1886.12 32.3505 1882.76 36.8065 Q1879.44 41.2625 1879.44 49.3643 Q1879.44 57.4256 1882.76 61.8816 Q1886.12 66.3376 1892.12 66.3376 Q1898.15 66.3376 1901.47 61.8816 Q1904.84 57.4256 1904.84 49.3643 M1912.29 66.9452 Q1912.29 78.5308 1907.15 84.1616 Q1902 89.8329 1891.39 89.8329 Q1887.46 89.8329 1883.97 89.2252 Q1880.49 88.6581 1877.21 87.4428 L1877.21 80.1917 Q1880.49 81.9741 1883.69 82.8248 Q1886.89 83.6755 1890.21 83.6755 Q1897.55 83.6755 1901.19 79.8271 Q1904.84 76.0193 1904.84 68.282 L1904.84 64.5957 Q1902.53 68.6061 1898.92 70.5911 Q1895.32 72.576 1890.29 72.576 Q1881.95 72.576 1876.85 66.2161 Q1871.74 59.8562 1871.74 49.3643 Q1871.74 38.832 1876.85 32.472 Q1881.95 26.1121 1890.29 26.1121 Q1895.32 26.1121 1898.92 28.0971 Q1902.53 30.082 1904.84 34.0924 L1904.84 27.2059 L1912.29 27.2059 L1912.29 66.9452 Z" fill="#000000" fill-rule="nonzero" fill-opacity="1" /><polyline clip-path="url(#clip932)" style="stroke:#009af9; stroke-linecap:round; stroke-linejoin:round; stroke-width:4; stroke-opacity:1; fill:none" points="244.507,162.047 246.195,163.307 247.882,166.653 249.57,170.951 251.257,174.799 252.944,177.063 254.632,177.31 256.319,175.972 258.007,174.179 259.694,173.325 261.381,174.529 263.069,178.208 264.756,183.912 266.444,190.493 268.131,196.539 269.818,200.916 271.506,203.191 273.193,203.797 274.881,203.863 276.568,204.775 278.255,207.642 279.943,212.866 281.63,219.985 283.318,227.839 285.005,235.016 286.692,240.379 288.38,243.503 290.067,244.826 291.755,245.48 293.442,246.85 295.129,250.039 296.817,255.44 298.504,262.582 300.192,270.303 301.879,277.19 303.566,282.115 305.254,284.664 306.941,285.285 308.629,285.121 310.316,285.558 312.004,287.7 313.691,291.938 315.378,297.796 317.066,304.113 318.753,309.484 320.441,312.793 322.128,313.64 323.815,312.492 325.503,310.502 327.19,309.065 328.878,309.288 330.565,311.561 332.252,315.409 333.94,319.677 335.627,322.966 337.315,324.177 339.002,322.926 340.689,319.698 342.377,315.658 344.064,312.214 345.752,310.472 347.439,310.825 349.126,312.798 350.814,315.238 352.501,316.756 354.189,316.265 355.876,313.398 357.563,308.654 359.251,303.212 360.938,298.483 362.626,295.576 364.313,294.88 366,295.917 367.688,297.533 369.375,298.345 371.063,297.274 372.75,293.965 374.437,288.927 376.125,283.346 377.812,278.635 379.5,275.898 381.187,275.514 382.874,276.998 384.562,279.191 386.249,280.707 387.937,280.472 389.624,278.136 391.311,274.213 392.999,269.892 394.686,266.578 396.374,265.368 398.061,266.626 399.748,269.853 401.436,273.879 403.123,277.313 404.811,279.079 406.498,278.827 408.185,277.075 409.873,275.006 411.56,274.018 413.248,275.192 414.935,278.877 416.622,284.556 418.31,291.046 419.997,296.946 421.685,301.178 423.372,303.393 425.059,304.104 426.747,304.492 428.434,305.946 430.122,309.532 431.809,315.582 433.496,323.561 435.184,332.274 436.871,340.313 438.559,346.596 440.246,350.777 441.933,353.369 443.621,355.551 445.308,358.706 446.996,363.886 448.683,371.411 450.37,380.732 452.058,390.645 453.745,399.739 455.433,406.934 457.12,411.887 458.807,415.121 460.495,417.815 462.182,421.35 463.87,426.773 465.557,434.393 467.244,443.655 468.932,453.351 470.619,462.071 472.307,468.745 473.994,473.04 475.681,475.489 477.369,477.281 479.056,479.799 480.744,484.091 482.431,490.461 484.118,498.353 485.806,506.558 487.493,513.675 489.181,518.646 490.868,521.154 492.556,521.749 494.243,521.63 495.93,522.19 497.618,524.476 499.305,528.796 500.993,534.591 502.68,540.66 504.367,545.609 506.055,548.396 507.742,548.722 509.43,547.153 511.117,544.903 512.804,543.371 514.492,543.609 516.179,545.924 517.867,549.759 519.554,553.914 521.241,557.008 522.929,558.008 524.616,556.635 526.304,553.468 527.991,549.732 529.678,546.833 531.366,545.823 533.053,547.004 534.741,549.817 536.428,553.063 538.115,555.364 539.803,555.699 541.49,553.799 543.178,550.253 544.865,546.294 546.552,543.327 548.24,542.399 549.927,543.804 551.615,546.975 553.302,550.706 554.989,553.62 556.677,554.699 558.364,553.679 560.052,551.158 561.739,548.365 563.426,546.701 565.114,547.204 566.801,550.152 568.489,554.966 570.176,560.429 571.863,565.158 573.551,568.135 575.238,569.098 576.926,568.642 578.613,567.996 580.3,568.552 581.988,571.33 583.675,576.594 585.363,583.746 587.05,591.557 588.737,598.638 590.425,603.964 592.112,607.275 593.8,609.165 595.487,610.857 597.174,613.733 598.862,618.8 600.549,626.303 602.237,635.628 603.924,645.533 605.611,654.621 607.299,661.869 608.986,667.015 610.674,670.654 612.361,674.009 614.048,678.451 615.736,684.977 617.423,693.817 619.111,704.345 620.798,715.311 622.485,725.313 624.173,733.331 625.86,739.11 627.548,743.251 629.235,746.976 630.922,751.657 632.61,758.282 634.297,767.074 635.985,777.398 637.672,788 639.359,797.484 641.047,804.836 642.734,809.812 644.422,813.024 646.109,815.704 647.796,819.226 649.484,824.575 651.171,831.972 652.859,840.779 654.546,849.746 656.233,857.482 657.921,862.988 659.608,866.035 661.296,867.252 662.983,867.882 664.67,869.304 666.358,872.508 668.045,877.713 669.733,884.284 671.42,890.973 673.108,896.402 674.795,899.586 676.482,900.314 678.17,899.232 679.857,897.595 681.545,896.792 683.232,897.813 684.919,900.879 686.607,905.355 688.294,909.997 689.982,913.436 691.669,914.702 693.356,913.6 695.044,910.79 696.731,907.539 698.419,905.24 700.106,904.883 701.793,906.686 703.481,910.009 705.168,913.612 706.856,916.13 708.543,916.601 710.23,914.845 711.918,911.53 713.605,907.928 715.293,905.434 716.98,905.031 718.667,906.928 720.355,910.479 722.042,914.436 723.73,917.436 725.417,918.522 727.104,917.518 728.792,915.097 730.479,912.532 732.167,911.211 733.854,912.107 735.541,915.414 737.229,920.473 738.916,926.027 740.604,930.706 742.291,933.554 743.978,934.396 745.666,933.905 747.353,933.351 749.041,934.11 750.728,937.142 752.415,942.623 754.103,949.878 755.79,957.636 757.478,964.522 759.165,969.575 760.852,972.619 762.54,974.33 764.227,975.968 765.915,978.901 767.602,984.073 769.289,991.642 770.977,1000.92 772.664,1010.62 774.352,1019.36 776.039,1026.18 777.726,1030.91 779.414,1034.21 781.101,1037.36 782.789,1041.71 784.476,1048.18 786.163,1056.93 787.851,1067.25 789.538,1077.85 791.226,1087.35 792.913,1094.79 794.6,1099.99 796.288,1103.64 797.975,1107 799.663,1111.43 801.35,1117.85 803.037,1126.39 804.725,1136.35 806.412,1146.43 808.1,1155.25 809.787,1161.86 811.474,1166.11 813.162,1168.68 814.849,1170.84 816.537,1173.96 818.224,1178.95 819.911,1185.94 821.599,1194.23 823.286,1202.52 824.974,1209.45 826.661,1214.06 828.348,1216.23 830.036,1216.66 831.723,1216.63 833.411,1217.5 835.098,1220.2 836.785,1224.87 838.473,1230.78 840.16,1236.65 841.848,1241.12 843.535,1243.28 845.222,1243 846.91,1240.99 848.597,1238.56 850.285,1237.08 851.972,1237.46 853.66,1239.85 855.347,1243.54 857.034,1247.23 858.722,1249.59 860.409,1249.7 862.097,1247.46 863.784,1243.61 865.471,1239.44 867.159,1236.34 868.846,1235.23 870.534,1236.23 872.221,1238.64 873.908,1241.18 875.596,1242.5 877.283,1241.7 878.971,1238.69 880.658,1234.21 882.345,1229.58 884.033,1226.17 885.72,1224.9 887.408,1225.88 889.095,1228.41 890.782,1231.18 892.47,1232.87 894.157,1232.57 895.845,1230.2 897.532,1226.51 899.219,1222.8 900.907,1220.45 902.594,1220.37 904.282,1222.65 905.969,1226.56 907.656,1230.82 909.344,1234.07 911.031,1235.42 912.719,1234.79 914.406,1232.91 916.093,1231.1 917.781,1230.72 919.468,1232.65 921.156,1236.99 922.843,1242.99 924.53,1249.34 926.218,1254.67 927.905,1258.11 929.593,1259.56 931.28,1259.77 932.967,1260.04 934.655,1261.71 936.342,1265.67 938.03,1271.98 939.717,1279.87 941.404,1288.04 943.092,1295.11 944.779,1300.2 946.467,1303.21 948.154,1304.9 949.841,1306.55 951.529,1309.52 953.216,1314.66 954.904,1322.03 956.591,1330.85 958.278,1339.79 959.966,1347.5 961.653,1353.08 963.341,1356.45 965.028,1358.37 966.715,1360.13 968.403,1363.06 970.09,1368.02 971.778,1375.07 973.465,1383.41 975.152,1391.72 976.84,1398.63 978.527,1403.28 980.215,1405.58 981.902,1406.3 983.589,1406.75 985.277,1408.26 986.964,1411.69 988.652,1417.08 990.339,1423.65 992.026,1430.07 993.714,1434.98 995.401,1437.53 997.089,1437.66 998.776,1436.14 1000.46,1434.3 1002.15,1433.48 1003.84,1434.52 1005.53,1437.49 1007.21,1441.58 1008.9,1445.49 1010.59,1447.87 1012.28,1447.87 1013.96,1445.46 1015.65,1441.44 1017.34,1437.12 1019.02,1433.86 1020.71,1432.51 1022.4,1433.13 1024.09,1434.92 1025.77,1436.58 1027.46,1436.77 1029.15,1434.66 1030.84,1430.23 1032.52,1424.29 1034.21,1418.17 1035.9,1413.23 1037.59,1410.32 1039.27,1409.49 1040.96,1409.95 1042.65,1410.39 1044.34,1409.48 1046.02,1406.4 1047.71,1401.15 1049.4,1394.53 1051.09,1387.9 1052.77,1382.6 1054.46,1379.48 1056.15,1378.58 1057.84,1379.1 1059.52,1379.73 1061.21,1379.14 1062.9,1376.51 1064.58,1371.85 1066.27,1365.97 1067.96,1360.22 1069.65,1355.93 1071.33,1353.96 1073.02,1354.31 1074.71,1356.17 1076.4,1358.24 1078.08,1359.17 1079.77,1358.15 1081.46,1355.17 1083.15,1351.07 1084.83,1347.17 1086.52,1344.81 1088.21,1344.81 1089.9,1347.17 1091.58,1351.07 1093.27,1355.17 1094.96,1358.15 1096.65,1359.17 1098.33,1358.24 1100.02,1356.17 1101.71,1354.31 1103.39,1353.96 1105.08,1355.93 1106.77,1360.22 1108.46,1365.97 1110.14,1371.85 1111.83,1376.51 1113.52,1379.14 1115.21,1379.73 1116.89,1379.1 1118.58,1378.58 1120.27,1379.48 1121.96,1382.6 1123.64,1387.9 1125.33,1394.53 1127.02,1401.15 1128.71,1406.4 1130.39,1409.48 1132.08,1410.39 1133.77,1409.95 1135.46,1409.49 1137.14,1410.32 1138.83,1413.23 1140.52,1418.17 1142.21,1424.29 1143.89,1430.23 1145.58,1434.66 1147.27,1436.77 1148.95,1436.58 1150.64,1434.92 1152.33,1433.13 1154.02,1432.51 1155.7,1433.86 1157.39,1437.12 1159.08,1441.44 1160.77,1445.46 1162.45,1447.87 1164.14,1447.87 1165.83,1445.49 1167.52,1441.58 1169.2,1437.49 1170.89,1434.52 1172.58,1433.48 1174.27,1434.3 1175.95,1436.14 1177.64,1437.66 1179.33,1437.53 1181.02,1434.98 1182.7,1430.07 1184.39,1423.65 1186.08,1417.08 1187.77,1411.69 1189.45,1408.26 1191.14,1406.75 1192.83,1406.3 1194.51,1405.58 1196.2,1403.28 1197.89,1398.63 1199.58,1391.72 1201.26,1383.41 1202.95,1375.07 1204.64,1368.02 1206.33,1363.06 1208.01,1360.13 1209.7,1358.37 1211.39,1356.45 1213.08,1353.08 1214.76,1347.5 1216.45,1339.79 1218.14,1330.85 1219.83,1322.03 1221.51,1314.66 1223.2,1309.52 1224.89,1306.55 1226.58,1304.9 1228.26,1303.21 1229.95,1300.2 1231.64,1295.11 1233.32,1288.04 1235.01,1279.87 1236.7,1271.98 1238.39,1265.67 1240.07,1261.71 1241.76,1260.04 1243.45,1259.77 1245.14,1259.56 1246.82,1258.11 1248.51,1254.67 1250.2,1249.34 1251.89,1242.99 1253.57,1236.99 1255.26,1232.65 1256.95,1230.72 1258.64,1231.1 1260.32,1232.91 1262.01,1234.79 1263.7,1235.42 1265.39,1234.07 1267.07,1230.82 1268.76,1226.56 1270.45,1222.65 1272.14,1220.37 1273.82,1220.45 1275.51,1222.8 1277.2,1226.51 1278.88,1230.2 1280.57,1232.57 1282.26,1232.87 1283.95,1231.18 1285.63,1228.41 1287.32,1225.88 1289.01,1224.9 1290.7,1226.17 1292.38,1229.58 1294.07,1234.21 1295.76,1238.69 1297.45,1241.7 1299.13,1242.5 1300.82,1241.18 1302.51,1238.64 1304.2,1236.23 1305.88,1235.23 1307.57,1236.34 1309.26,1239.44 1310.95,1243.61 1312.63,1247.46 1314.32,1249.7 1316.01,1249.59 1317.7,1247.23 1319.38,1243.54 1321.07,1239.85 1322.76,1237.46 1324.44,1237.08 1326.13,1238.56 1327.82,1240.99 1329.51,1243 1331.19,1243.28 1332.88,1241.12 1334.57,1236.65 1336.26,1230.78 1337.94,1224.87 1339.63,1220.2 1341.32,1217.5 1343.01,1216.63 1344.69,1216.66 1346.38,1216.23 1348.07,1214.06 1349.76,1209.45 1351.44,1202.52 1353.13,1194.23 1354.82,1185.94 1356.51,1178.95 1358.19,1173.96 1359.88,1170.84 1361.57,1168.68 1363.25,1166.11 1364.94,1161.86 1366.63,1155.25 1368.32,1146.43 1370,1136.35 1371.69,1126.39 1373.38,1117.85 1375.07,1111.43 1376.75,1107 1378.44,1103.64 1380.13,1099.99 1381.82,1094.79 1383.5,1087.35 1385.19,1077.85 1386.88,1067.25 1388.57,1056.93 1390.25,1048.18 1391.94,1041.71 1393.63,1037.36 1395.32,1034.21 1397,1030.91 1398.69,1026.18 1400.38,1019.36 1402.07,1010.62 1403.75,1000.92 1405.44,991.642 1407.13,984.073 1408.81,978.901 1410.5,975.968 1412.19,974.33 1413.88,972.619 1415.56,969.575 1417.25,964.522 1418.94,957.636 1420.63,949.878 1422.31,942.623 1424,937.142 1425.69,934.11 1427.38,933.351 1429.06,933.905 1430.75,934.396 1432.44,933.554 1434.13,930.706 1435.81,926.027 1437.5,920.473 1439.19,915.414 1440.88,912.107 1442.56,911.211 1444.25,912.532 1445.94,915.097 1447.62,917.518 1449.31,918.522 1451,917.436 1452.69,914.436 1454.37,910.479 1456.06,906.928 1457.75,905.031 1459.44,905.434 1461.12,907.928 1462.81,911.53 1464.5,914.845 1466.19,916.601 1467.87,916.13 1469.56,913.612 1471.25,910.009 1472.94,906.686 1474.62,904.883 1476.31,905.24 1478,907.539 1479.69,910.79 1481.37,913.6 1483.06,914.702 1484.75,913.436 1486.44,909.997 1488.12,905.355 1489.81,900.879 1491.5,897.813 1493.18,896.792 1494.87,897.595 1496.56,899.232 1498.25,900.314 1499.93,899.586 1501.62,896.402 1503.31,890.973 1505,884.284 1506.68,877.713 1508.37,872.508 1510.06,869.304 1511.75,867.882 1513.43,867.252 1515.12,866.035 1516.81,862.988 1518.5,857.482 1520.18,849.746 1521.87,840.779 1523.56,831.972 1525.25,824.575 1526.93,819.226 1528.62,815.704 1530.31,813.024 1532,809.812 1533.68,804.836 1535.37,797.484 1537.06,788 1538.74,777.398 1540.43,767.074 1542.12,758.282 1543.81,751.657 1545.49,746.976 1547.18,743.251 1548.87,739.11 1550.56,733.331 1552.24,725.313 1553.93,715.311 1555.62,704.345 1557.31,693.817 1558.99,684.977 1560.68,678.451 1562.37,674.009 1564.06,670.654 1565.74,667.015 1567.43,661.869 1569.12,654.621 1570.81,645.533 1572.49,635.628 1574.18,626.303 1575.87,618.8 1577.55,613.733 1579.24,610.857 1580.93,609.165 1582.62,607.275 1584.3,603.964 1585.99,598.638 1587.68,591.557 1589.37,583.746 1591.05,576.594 1592.74,571.33 1594.43,568.552 1596.12,567.996 1597.8,568.642 1599.49,569.098 1601.18,568.135 1602.87,565.158 1604.55,560.429 1606.24,554.966 1607.93,550.152 1609.62,547.204 1611.3,546.701 1612.99,548.365 1614.68,551.158 1616.37,553.679 1618.05,554.699 1619.74,553.62 1621.43,550.706 1623.11,546.975 1624.8,543.804 1626.49,542.399 1628.18,543.327 1629.86,546.294 1631.55,550.253 1633.24,553.799 1634.93,555.699 1636.61,555.364 1638.3,553.063 1639.99,549.817 1641.68,547.004 1643.36,545.823 1645.05,546.833 1646.74,549.732 1648.43,553.468 1650.11,556.635 1651.8,558.008 1653.49,557.008 1655.18,553.914 1656.86,549.759 1658.55,545.924 1660.24,543.609 1661.93,543.371 1663.61,544.903 1665.3,547.153 1666.99,548.722 1668.67,548.396 1670.36,545.609 1672.05,540.66 1673.74,534.591 1675.42,528.796 1677.11,524.476 1678.8,522.19 1680.49,521.63 1682.17,521.749 1683.86,521.154 1685.55,518.646 1687.24,513.675 1688.92,506.558 1690.61,498.353 1692.3,490.461 1693.99,484.091 1695.67,479.799 1697.36,477.281 1699.05,475.489 1700.74,473.04 1702.42,468.745 1704.11,462.071 1705.8,453.351 1707.48,443.655 1709.17,434.393 1710.86,426.773 1712.55,421.35 1714.23,417.815 1715.92,415.121 1717.61,411.887 1719.3,406.934 1720.98,399.739 1722.67,390.645 1724.36,380.732 1726.05,371.411 1727.73,363.886 1729.42,358.706 1731.11,355.551 1732.8,353.369 1734.48,350.777 1736.17,346.596 1737.86,340.313 1739.55,332.274 1741.23,323.561 1742.92,315.582 1744.61,309.532 1746.3,305.946 1747.98,304.492 1749.67,304.104 1751.36,303.393 1753.04,301.178 1754.73,296.946 1756.42,291.046 1758.11,284.556 1759.79,278.877 1761.48,275.192 1763.17,274.018 1764.86,275.006 1766.54,277.075 1768.23,278.827 1769.92,279.079 1771.61,277.313 1773.29,273.879 1774.98,269.853 1776.67,266.626 1778.36,265.368 1780.04,266.578 1781.73,269.892 1783.42,274.213 1785.11,278.136 1786.79,280.472 1788.48,280.707 1790.17,279.191 1791.85,276.998 1793.54,275.514 1795.23,275.898 1796.92,278.635 1798.6,283.346 1800.29,288.927 1801.98,293.965 1803.67,297.274 1805.35,298.345 1807.04,297.533 1808.73,295.917 1810.42,294.88 1812.1,295.576 1813.79,298.483 1815.48,303.212 1817.17,308.654 1818.85,313.398 1820.54,316.265 1822.23,316.756 1823.92,315.238 1825.6,312.798 1827.29,310.825 1828.98,310.472 1830.67,312.214 1832.35,315.658 1834.04,319.698 1835.73,322.926 1837.41,324.177 1839.1,322.966 1840.79,319.677 1842.48,315.409 1844.16,311.561 1845.85,309.288 1847.54,309.065 1849.23,310.502 1850.91,312.492 1852.6,313.64 1854.29,312.793 1855.98,309.484 1857.66,304.113 1859.35,297.796 1861.04,291.938 1862.73,287.7 1864.41,285.558 1866.1,285.121 1867.79,285.285 1869.48,284.664 1871.16,282.115 1872.85,277.19 1874.54,270.303 1876.23,262.582 1877.91,255.44 1879.6,250.039 1881.29,246.85 1882.97,245.48 1884.66,244.826 1886.35,243.503 1888.04,240.379 1889.72,235.016 1891.41,227.839 1893.1,219.985 1894.79,212.866 1896.47,207.642 1898.16,204.775 1899.85,203.863 1901.54,203.797 1903.22,203.191 1904.91,200.916 1906.6,196.539 1908.29,190.493 1909.97,183.912 1911.66,178.208 1913.35,174.529 1915.04,173.325 1916.72,174.179 1918.41,175.972 1920.1,177.31 1921.78,177.063 1923.47,174.799 1925.16,170.951 1926.85,166.653 1928.53,163.307 1930.22,162.047 "/>
<path clip-path="url(#clip930)" d="M2052.75 272.585 L2352.76 272.585 L2352.76 168.905 L2052.75 168.905  Z" fill="#ffffff" fill-rule="evenodd" fill-opacity="1"/>
<polyline clip-path="url(#clip930)" style="stroke:#000000; stroke-linecap:round; stroke-linejoin:round; stroke-width:4; stroke-opacity:1; fill:none" points="2052.75,272.585 2352.76,272.585 2352.76,168.905 2052.75,168.905 2052.75,272.585 "/>
<polyline clip-path="url(#clip930)" style="stroke:#009af9; stroke-linecap:round; stroke-linejoin:round; stroke-width:4; stroke-opacity:1; fill:none" points="2076.74,220.745 2220.66,220.745 "/>
<path clip-path="url(#clip930)" d="M2244.65 202.006 L2248.93 202.006 L2248.93 223.279 L2261.64 212.099 L2267.08 212.099 L2253.33 224.228 L2267.66 238.025 L2262.1 238.025 L2248.93 225.363 L2248.93 238.025 L2244.65 238.025 L2244.65 202.006 Z" fill="#000000" fill-rule="nonzero" fill-opacity="1" /><path clip-path="url(#clip930)" d="M2282.5 202.053 Q2279.39 207.377 2277.89 212.585 Q2276.39 217.793 2276.39 223.14 Q2276.39 228.488 2277.89 233.742 Q2279.42 238.974 2282.5 244.275 L2278.79 244.275 Q2275.32 238.835 2273.58 233.58 Q2271.87 228.326 2271.87 223.14 Q2271.87 217.978 2273.58 212.747 Q2275.3 207.516 2278.79 202.053 L2282.5 202.053 Z" fill="#000000" fill-rule="nonzero" fill-opacity="1" /><path clip-path="url(#clip930)" d="M2312.31 212.099 L2302.94 224.715 L2312.8 238.025 L2307.77 238.025 L2300.23 227.84 L2292.68 238.025 L2287.66 238.025 L2297.73 224.46 L2288.51 212.099 L2293.54 212.099 L2300.41 221.335 L2307.29 212.099 L2312.31 212.099 Z" fill="#000000" fill-rule="nonzero" fill-opacity="1" /><path clip-path="url(#clip930)" d="M2318.14 202.053 L2321.85 202.053 Q2325.32 207.516 2327.03 212.747 Q2328.77 217.978 2328.77 223.14 Q2328.77 228.326 2327.03 233.58 Q2325.32 238.835 2321.85 244.275 L2318.14 244.275 Q2321.22 238.974 2322.73 233.742 Q2324.26 228.488 2324.26 223.14 Q2324.26 217.793 2322.73 212.585 Q2321.22 207.377 2318.14 202.053 Z" fill="#000000" fill-rule="nonzero" fill-opacity="1" /></svg>