<?xml version="1.0" encoding="utf-8"?>
<svg xmlns="http://www.w3.org/2000/svg" xmlns:xlink="http://www.w3.org/1999/xlink" width="600" height="400" viewBox="0 0 2400 1600">
<defs>
  <clipPath id="clip160">
    <rect x="0" y="0" width="2400" height="1600"/>
  </clipPath>
</defs>
<path clip-path="url(#clip160)" d="M0 1600 L2400 1600 L2400 0 L0 0  Z" fill="#ffffff" fill-rule="evenodd" fill-opacity="1"/>
<defs>
  <clipPath id="clip161">
    <rect x="480" y="0" width="1681" height="1600"/>
  </clipPath>
</defs>
<path clip-path="url(#clip160)" d="M203.964 1423.18 L2352.76 1423.18 L2352.76 123.472 L203.964 123.472  Z" fill="#ffffff" fill-rule="evenodd" fill-opacity="1"/>
<defs>
  <clipPath id="clip162">
    <rect x="203" y="123" width="2150" height="1301"/>
  </clipPath>
</defs>
<polyline clip-path="url(#clip162)" style="stroke:#000000; stroke-linecap:round; stroke-linejoin:round; stroke-width:2; stroke-opacity:0.1; fill:none" points="264.778,1423.18 264.778,123.472 "/>
<polyline clip-path="url(#clip162)" style="stroke:#000000; stroke-linecap:round; stroke-linejoin:round; stroke-width:2; stroke-opacity:0.1; fill:none" points="771.569,1423.18 771.569,123.472 "/>
<polyline clip-path="url(#clip162)" style="stroke:#000000; stroke-linecap:round; stroke-linejoin:round; stroke-width:2; stroke-opacity:0.1; fill:none" points="1278.36,1423.18 1278.36,123.472 "/>
<polyline clip-path="url(#clip162)" style="stroke:#000000; stroke-linecap:round; stroke-linejoin:round; stroke-width:2; stroke-opacity:0.1; fill:none" points="1785.15,1423.18 1785.15,123.472 "/>
<polyline clip-path="url(#clip162)" style="stroke:#000000; stroke-linecap:round; stroke-linejoin:round; stroke-width:2; stroke-opacity:0.1; fill:none" points="2291.94,1423.18 2291.94,123.472 "/>
<polyline clip-path="url(#clip162)" style="stroke:#000000; stroke-linecap:round; stroke-linejoin:round; stroke-width:2; stroke-opacity:0.1; fill:none" points="203.964,1303.64 2352.76,1303.64 "/>
<polyline clip-path="url(#clip162)" style="stroke:#000000; stroke-linecap:round; stroke-linejoin:round; stroke-width:2; stroke-opacity:0.1; fill:none" points="203.964,1099.36 2352.76,1099.36 "/>
<polyline clip-path="url(#clip162)" style="stroke:#000000; stroke-linecap:round; stroke-linejoin:round; stroke-width:2; stroke-opacity:0.1; fill:none" points="203.964,895.081 2352.76,895.081 "/>
<polyline clip-path="url(#clip162)" style="stroke:#000000; stroke-linecap:round; stroke-linejoin:round; stroke-width:2; stroke-opacity:0.1; fill:none" points="203.964,690.802 2352.76,690.802 "/>
<polyline clip-path="url(#clip162)" style="stroke:#000000; stroke-linecap:round; stroke-linejoin:round; stroke-width:2; stroke-opacity:0.1; fill:none" points="203.964,486.523 2352.76,486.523 "/>
<polyline clip-path="url(#clip162)" style="stroke:#000000; stroke-linecap:round; stroke-linejoin:round; stroke-width:2; stroke-opacity:0.1; fill:none" points="203.964,282.244 2352.76,282.244 "/>
<polyline clip-path="url(#clip160)" style="stroke:#000000; stroke-linecap:round; stroke-linejoin:round; stroke-width:4; stroke-opacity:1; fill:none" points="203.964,1423.18 2352.76,1423.18 "/>
<polyline clip-path="url(#clip160)" style="stroke:#000000; stroke-linecap:round; stroke-linejoin:round; stroke-width:4; stroke-opacity:1; fill:none" points="264.778,1423.18 264.778,1404.28 "/>
<polyline clip-path="url(#clip160)" style="stroke:#000000; stroke-linecap:round; stroke-linejoin:round; stroke-width:4; stroke-opacity:1; fill:none" points="771.569,1423.18 771.569,1404.28 "/>
<polyline clip-path="url(#clip160)" style="stroke:#000000; stroke-linecap:round; stroke-linejoin:round; stroke-width:4; stroke-opacity:1; fill:none" points="1278.36,1423.18 1278.36,1404.28 "/>
<polyline clip-path="url(#clip160)" style="stroke:#000000; stroke-linecap:round; stroke-linejoin:round; stroke-width:4; stroke-opacity:1; fill:none" points="1785.15,1423.18 1785.15,1404.28 "/>
<polyline clip-path="url(#clip160)" style="stroke:#000000; stroke-linecap:round; stroke-linejoin:round; stroke-width:4; stroke-opacity:1; fill:none" points="2291.94,1423.18 2291.94,1404.28 "/>
<path clip-path="url(#clip160)" d="M242.163 1454.1 Q238.552 1454.1 236.723 1457.66 Q234.917 1461.2 234.917 1468.33 Q234.917 1475.44 236.723 1479.01 Q238.552 1482.55 242.163 1482.55 Q245.797 1482.55 247.603 1479.01 Q249.431 1475.44 249.431 1468.33 Q249.431 1461.2 247.603 1457.66 Q245.797 1454.1 242.163 1454.1 M242.163 1450.39 Q247.973 1450.39 251.029 1455 Q254.107 1459.58 254.107 1468.33 Q254.107 1477.06 251.029 1481.67 Q247.973 1486.25 242.163 1486.25 Q236.353 1486.25 233.274 1481.67 Q230.218 1477.06 230.218 1468.33 Q230.218 1459.58 233.274 1455 Q236.353 1450.39 242.163 1450.39 Z" fill="#000000" fill-rule="nonzero" fill-opacity="1" /><path clip-path="url(#clip160)" d="M262.325 1479.7 L267.209 1479.7 L267.209 1485.58 L262.325 1485.58 L262.325 1479.7 Z" fill="#000000" fill-rule="nonzero" fill-opacity="1" /><path clip-path="url(#clip160)" d="M287.394 1454.1 Q283.783 1454.1 281.954 1457.66 Q280.149 1461.2 280.149 1468.33 Q280.149 1475.44 281.954 1479.01 Q283.783 1482.55 287.394 1482.55 Q291.028 1482.55 292.834 1479.01 Q294.663 1475.44 294.663 1468.33 Q294.663 1461.2 292.834 1457.66 Q291.028 1454.1 287.394 1454.1 M287.394 1450.39 Q293.204 1450.39 296.26 1455 Q299.338 1459.58 299.338 1468.33 Q299.338 1477.06 296.26 1481.67 Q293.204 1486.25 287.394 1486.25 Q281.584 1486.25 278.505 1481.67 Q275.45 1477.06 275.45 1468.33 Q275.45 1459.58 278.505 1455 Q281.584 1450.39 287.394 1450.39 Z" fill="#000000" fill-rule="nonzero" fill-opacity="1" /><path clip-path="url(#clip160)" d="M743.305 1481.64 L759.625 1481.64 L759.625 1485.58 L737.68 1485.58 L737.68 1481.64 Q740.342 1478.89 744.926 1474.26 Q749.532 1469.61 750.713 1468.27 Q752.958 1465.74 753.838 1464.01 Q754.74 1462.25 754.74 1460.56 Q754.74 1457.8 752.796 1456.07 Q750.875 1454.33 747.773 1454.33 Q745.574 1454.33 743.12 1455.09 Q740.69 1455.86 737.912 1457.41 L737.912 1452.69 Q740.736 1451.55 743.19 1450.97 Q745.643 1450.39 747.68 1450.39 Q753.051 1450.39 756.245 1453.08 Q759.44 1455.77 759.44 1460.26 Q759.44 1462.39 758.629 1464.31 Q757.842 1466.2 755.736 1468.8 Q755.157 1469.47 752.055 1472.69 Q748.953 1475.88 743.305 1481.64 Z" fill="#000000" fill-rule="nonzero" fill-opacity="1" /><path clip-path="url(#clip160)" d="M769.439 1479.7 L774.324 1479.7 L774.324 1485.58 L769.439 1485.58 L769.439 1479.7 Z" fill="#000000" fill-rule="nonzero" fill-opacity="1" /><path clip-path="url(#clip160)" d="M784.555 1451.02 L802.912 1451.02 L802.912 1454.96 L788.838 1454.96 L788.838 1463.43 Q789.856 1463.08 790.875 1462.92 Q791.893 1462.73 792.912 1462.73 Q798.699 1462.73 802.078 1465.9 Q805.458 1469.08 805.458 1474.49 Q805.458 1480.07 801.986 1483.17 Q798.513 1486.25 792.194 1486.25 Q790.018 1486.25 787.75 1485.88 Q785.504 1485.51 783.097 1484.77 L783.097 1480.07 Q785.18 1481.2 787.402 1481.76 Q789.625 1482.32 792.101 1482.32 Q796.106 1482.32 798.444 1480.21 Q800.782 1478.1 800.782 1474.49 Q800.782 1470.88 798.444 1468.77 Q796.106 1466.67 792.101 1466.67 Q790.226 1466.67 788.351 1467.08 Q786.5 1467.5 784.555 1468.38 L784.555 1451.02 Z" fill="#000000" fill-rule="nonzero" fill-opacity="1" /><path clip-path="url(#clip160)" d="M1245.52 1451.02 L1263.88 1451.02 L1263.88 1454.96 L1249.81 1454.96 L1249.81 1463.43 Q1250.83 1463.08 1251.84 1462.92 Q1252.86 1462.73 1253.88 1462.73 Q1259.67 1462.73 1263.05 1465.9 Q1266.43 1469.08 1266.43 1474.49 Q1266.43 1480.07 1262.95 1483.17 Q1259.48 1486.25 1253.16 1486.25 Q1250.99 1486.25 1248.72 1485.88 Q1246.47 1485.51 1244.07 1484.77 L1244.07 1480.07 Q1246.15 1481.2 1248.37 1481.76 Q1250.59 1482.32 1253.07 1482.32 Q1257.08 1482.32 1259.41 1480.21 Q1261.75 1478.1 1261.75 1474.49 Q1261.75 1470.88 1259.41 1468.77 Q1257.08 1466.67 1253.07 1466.67 Q1251.2 1466.67 1249.32 1467.08 Q1247.47 1467.5 1245.52 1468.38 L1245.52 1451.02 Z" fill="#000000" fill-rule="nonzero" fill-opacity="1" /><path clip-path="url(#clip160)" d="M1275.64 1479.7 L1280.52 1479.7 L1280.52 1485.58 L1275.64 1485.58 L1275.64 1479.7 Z" fill="#000000" fill-rule="nonzero" fill-opacity="1" /><path clip-path="url(#clip160)" d="M1300.71 1454.1 Q1297.1 1454.1 1295.27 1457.66 Q1293.46 1461.2 1293.46 1468.33 Q1293.46 1475.44 1295.27 1479.01 Q1297.1 1482.55 1300.71 1482.55 Q1304.34 1482.55 1306.15 1479.01 Q1307.98 1475.44 1307.98 1468.33 Q1307.98 1461.2 1306.15 1457.66 Q1304.34 1454.1 1300.71 1454.1 M1300.71 1450.39 Q1306.52 1450.39 1309.57 1455 Q1312.65 1459.58 1312.65 1468.33 Q1312.65 1477.06 1309.57 1481.67 Q1306.52 1486.25 1300.71 1486.25 Q1294.9 1486.25 1291.82 1481.67 Q1288.76 1477.06 1288.76 1468.33 Q1288.76 1459.58 1291.82 1455 Q1294.9 1450.39 1300.71 1450.39 Z" fill="#000000" fill-rule="nonzero" fill-opacity="1" /><path clip-path="url(#clip160)" d="M1751.47 1451.02 L1773.69 1451.02 L1773.69 1453.01 L1761.15 1485.58 L1756.26 1485.58 L1768.07 1454.96 L1751.47 1454.96 L1751.47 1451.02 Z" fill="#000000" fill-rule="nonzero" fill-opacity="1" /><path clip-path="url(#clip160)" d="M1782.81 1479.7 L1787.7 1479.7 L1787.7 1485.58 L1782.81 1485.58 L1782.81 1479.7 Z" fill="#000000" fill-rule="nonzero" fill-opacity="1" /><path clip-path="url(#clip160)" d="M1797.93 1451.02 L1816.28 1451.02 L1816.28 1454.96 L1802.21 1454.96 L1802.21 1463.43 Q1803.23 1463.08 1804.25 1462.92 Q1805.27 1462.73 1806.28 1462.73 Q1812.07 1462.73 1815.45 1465.9 Q1818.83 1469.08 1818.83 1474.49 Q1818.83 1480.07 1815.36 1483.17 Q1811.89 1486.25 1805.57 1486.25 Q1803.39 1486.25 1801.12 1485.88 Q1798.88 1485.51 1796.47 1484.77 L1796.47 1480.07 Q1798.55 1481.2 1800.78 1481.76 Q1803 1482.32 1805.47 1482.32 Q1809.48 1482.32 1811.82 1480.21 Q1814.15 1478.1 1814.15 1474.49 Q1814.15 1470.88 1811.82 1468.77 Q1809.48 1466.67 1805.47 1466.67 Q1803.6 1466.67 1801.72 1467.08 Q1799.87 1467.5 1797.93 1468.38 L1797.93 1451.02 Z" fill="#000000" fill-rule="nonzero" fill-opacity="1" /><path clip-path="url(#clip160)" d="M2244.01 1481.64 L2251.65 1481.64 L2251.65 1455.28 L2243.34 1456.95 L2243.34 1452.69 L2251.61 1451.02 L2256.28 1451.02 L2256.28 1481.64 L2263.92 1481.64 L2263.92 1485.58 L2244.01 1485.58 L2244.01 1481.64 Z" fill="#000000" fill-rule="nonzero" fill-opacity="1" /><path clip-path="url(#clip160)" d="M2283.36 1454.1 Q2279.75 1454.1 2277.92 1457.66 Q2276.12 1461.2 2276.12 1468.33 Q2276.12 1475.44 2277.92 1479.01 Q2279.75 1482.55 2283.36 1482.55 Q2287 1482.55 2288.8 1479.01 Q2290.63 1475.44 2290.63 1468.33 Q2290.63 1461.2 2288.8 1457.66 Q2287 1454.1 2283.36 1454.1 M2283.36 1450.39 Q2289.17 1450.39 2292.23 1455 Q2295.31 1459.58 2295.31 1468.33 Q2295.31 1477.06 2292.23 1481.67 Q2289.17 1486.25 2283.36 1486.25 Q2277.55 1486.25 2274.48 1481.67 Q2271.42 1477.06 2271.42 1468.33 Q2271.42 1459.58 2274.48 1455 Q2277.55 1450.39 2283.36 1450.39 Z" fill="#000000" fill-rule="nonzero" fill-opacity="1" /><path clip-path="url(#clip160)" d="M2303.53 1479.7 L2308.41 1479.7 L2308.41 1485.58 L2303.53 1485.58 L2303.53 1479.7 Z" fill="#000000" fill-rule="nonzero" fill-opacity="1" /><path clip-path="url(#clip160)" d="M2328.6 1454.1 Q2324.98 1454.1 2323.16 1457.66 Q2321.35 1461.2 2321.35 1468.33 Q2321.35 1475.44 2323.16 1479.01 Q2324.98 1482.55 2328.6 1482.55 Q2332.23 1482.55 2334.04 1479.01 Q2335.86 1475.44 2335.86 1468.33 Q2335.86 1461.2 2334.04 1457.66 Q2332.23 1454.1 2328.6 1454.1 M2328.6 1450.39 Q2334.41 1450.39 2337.46 1455 Q2340.54 1459.58 2340.54 1468.33 Q2340.54 1477.06 2337.46 1481.67 Q2334.41 1486.25 2328.6 1486.25 Q2322.79 1486.25 2319.71 1481.67 Q2316.65 1477.06 2316.65 1468.33 Q2316.65 1459.58 2319.71 1455 Q2322.79 1450.39 2328.6 1450.39 Z" fill="#000000" fill-rule="nonzero" fill-opacity="1" /><path clip-path="url(#clip160)" d="M1294.97 1532.4 L1282.08 1549.74 L1295.64 1568.04 L1288.74 1568.04 L1278.36 1554.04 L1267.98 1568.04 L1261.08 1568.04 L1274.92 1549.39 L1262.25 1532.4 L1269.16 1532.4 L1278.61 1545.1 L1288.07 1532.4 L1294.97 1532.4 Z" fill="#000000" fill-rule="nonzero" fill-opacity="1" /><polyline clip-path="url(#clip160)" style="stroke:#000000; stroke-linecap:round; stroke-linejoin:round; stroke-width:4; stroke-opacity:1; fill:none" points="203.964,1423.18 203.964,123.472 "/>
<polyline clip-path="url(#clip160)" style="stroke:#000000; stroke-linecap:round; stroke-linejoin:round; stroke-width:4; stroke-opacity:1; fill:none" points="203.964,1303.64 222.861,1303.64 "/>
<polyline clip-path="url(#clip160)" style="stroke:#000000; stroke-linecap:round; stroke-linejoin:round; stroke-width:4; stroke-opacity:1; fill:none" points="203.964,1099.36 222.861,1099.36 "/>
<polyline clip-path="url(#clip160)" style="stroke:#000000; stroke-linecap:round; stroke-linejoin:round; stroke-width:4; stroke-opacity:1; fill:none" points="203.964,895.081 222.861,895.081 "/>
<polyline clip-path="url(#clip160)" style="stroke:#000000; stroke-linecap:round; stroke-linejoin:round; stroke-width:4; stroke-opacity:1; fill:none" points="203.964,690.802 222.861,690.802 "/>
<polyline clip-path="url(#clip160)" style="stroke:#000000; stroke-linecap:round; stroke-linejoin:round; stroke-width:4; stroke-opacity:1; fill:none" points="203.964,486.523 222.861,486.523 "/>
<polyline clip-path="url(#clip160)" style="stroke:#000000; stroke-linecap:round; stroke-linejoin:round; stroke-width:4; stroke-opacity:1; fill:none" points="203.964,282.244 222.861,282.244 "/>
<path clip-path="url(#clip160)" d="M156.019 1289.44 Q152.408 1289.44 150.579 1293 Q148.774 1296.54 148.774 1303.67 Q148.774 1310.78 150.579 1314.35 Q152.408 1317.89 156.019 1317.89 Q159.653 1317.89 161.459 1314.35 Q163.288 1310.78 163.288 1303.67 Q163.288 1296.54 161.459 1293 Q159.653 1289.44 156.019 1289.44 M156.019 1285.73 Q161.829 1285.73 164.885 1290.34 Q167.964 1294.92 167.964 1303.67 Q167.964 1312.4 164.885 1317.01 Q161.829 1321.59 156.019 1321.59 Q150.209 1321.59 147.13 1317.01 Q144.075 1312.4 144.075 1303.67 Q144.075 1294.92 147.13 1290.34 Q150.209 1285.73 156.019 1285.73 Z" fill="#000000" fill-rule="nonzero" fill-opacity="1" /><path clip-path="url(#clip160)" d="M147.061 1082.08 L165.417 1082.08 L165.417 1086.02 L151.343 1086.02 L151.343 1094.49 Q152.362 1094.14 153.38 1093.98 Q154.399 1093.79 155.417 1093.79 Q161.204 1093.79 164.584 1096.96 Q167.964 1100.14 167.964 1105.55 Q167.964 1111.13 164.491 1114.23 Q161.019 1117.31 154.7 1117.31 Q152.524 1117.31 150.255 1116.94 Q148.01 1116.57 145.603 1115.83 L145.603 1111.13 Q147.686 1112.27 149.908 1112.82 Q152.13 1113.38 154.607 1113.38 Q158.612 1113.38 160.95 1111.27 Q163.288 1109.16 163.288 1105.55 Q163.288 1101.94 160.95 1099.84 Q158.612 1097.73 154.607 1097.73 Q152.732 1097.73 150.857 1098.15 Q149.005 1098.56 147.061 1099.44 L147.061 1082.08 Z" fill="#000000" fill-rule="nonzero" fill-opacity="1" /><path clip-path="url(#clip160)" d="M116.668 908.426 L124.306 908.426 L124.306 882.061 L115.996 883.727 L115.996 879.468 L124.26 877.801 L128.936 877.801 L128.936 908.426 L136.575 908.426 L136.575 912.361 L116.668 912.361 L116.668 908.426 Z" fill="#000000" fill-rule="nonzero" fill-opacity="1" /><path clip-path="url(#clip160)" d="M156.019 880.88 Q152.408 880.88 150.579 884.445 Q148.774 887.986 148.774 895.116 Q148.774 902.223 150.579 905.787 Q152.408 909.329 156.019 909.329 Q159.653 909.329 161.459 905.787 Q163.288 902.223 163.288 895.116 Q163.288 887.986 161.459 884.445 Q159.653 880.88 156.019 880.88 M156.019 877.176 Q161.829 877.176 164.885 881.783 Q167.964 886.366 167.964 895.116 Q167.964 903.843 164.885 908.449 Q161.829 913.033 156.019 913.033 Q150.209 913.033 147.13 908.449 Q144.075 903.843 144.075 895.116 Q144.075 886.366 147.13 881.783 Q150.209 877.176 156.019 877.176 Z" fill="#000000" fill-rule="nonzero" fill-opacity="1" /><path clip-path="url(#clip160)" d="M117.663 704.147 L125.302 704.147 L125.302 677.781 L116.992 679.448 L116.992 675.189 L125.255 673.522 L129.931 673.522 L129.931 704.147 L137.57 704.147 L137.57 708.082 L117.663 708.082 L117.663 704.147 Z" fill="#000000" fill-rule="nonzero" fill-opacity="1" /><path clip-path="url(#clip160)" d="M147.061 673.522 L165.417 673.522 L165.417 677.457 L151.343 677.457 L151.343 685.93 Q152.362 685.582 153.38 685.42 Q154.399 685.235 155.417 685.235 Q161.204 685.235 164.584 688.406 Q167.964 691.578 167.964 696.994 Q167.964 702.573 164.491 705.675 Q161.019 708.754 154.7 708.754 Q152.524 708.754 150.255 708.383 Q148.01 708.013 145.603 707.272 L145.603 702.573 Q147.686 703.707 149.908 704.263 Q152.13 704.818 154.607 704.818 Q158.612 704.818 160.95 702.712 Q163.288 700.605 163.288 696.994 Q163.288 693.383 160.95 691.277 Q158.612 689.17 154.607 689.17 Q152.732 689.17 150.857 689.587 Q149.005 690.004 147.061 690.883 L147.061 673.522 Z" fill="#000000" fill-rule="nonzero" fill-opacity="1" /><path clip-path="url(#clip160)" d="M119.885 499.868 L136.204 499.868 L136.204 503.803 L114.26 503.803 L114.26 499.868 Q116.922 497.113 121.505 492.484 Q126.112 487.831 127.292 486.488 Q129.538 483.965 130.417 482.229 Q131.32 480.47 131.32 478.78 Q131.32 476.025 129.376 474.289 Q127.455 472.553 124.353 472.553 Q122.154 472.553 119.7 473.317 Q117.269 474.081 114.492 475.632 L114.492 470.91 Q117.316 469.775 119.769 469.197 Q122.223 468.618 124.26 468.618 Q129.63 468.618 132.825 471.303 Q136.019 473.988 136.019 478.479 Q136.019 480.609 135.209 482.53 Q134.422 484.428 132.316 487.021 Q131.737 487.692 128.635 490.91 Q125.533 494.104 119.885 499.868 Z" fill="#000000" fill-rule="nonzero" fill-opacity="1" /><path clip-path="url(#clip160)" d="M156.019 472.322 Q152.408 472.322 150.579 475.887 Q148.774 479.428 148.774 486.558 Q148.774 493.664 150.579 497.229 Q152.408 500.771 156.019 500.771 Q159.653 500.771 161.459 497.229 Q163.288 493.664 163.288 486.558 Q163.288 479.428 161.459 475.887 Q159.653 472.322 156.019 472.322 M156.019 468.618 Q161.829 468.618 164.885 473.225 Q167.964 477.808 167.964 486.558 Q167.964 495.285 164.885 499.891 Q161.829 504.474 156.019 504.474 Q150.209 504.474 147.13 499.891 Q144.075 495.285 144.075 486.558 Q144.075 477.808 147.13 473.225 Q150.209 468.618 156.019 468.618 Z" fill="#000000" fill-rule="nonzero" fill-opacity="1" /><path clip-path="url(#clip160)" d="M120.88 295.589 L137.2 295.589 L137.2 299.524 L115.256 299.524 L115.256 295.589 Q117.918 292.834 122.501 288.205 Q127.107 283.552 128.288 282.209 Q130.533 279.686 131.413 277.95 Q132.316 276.191 132.316 274.501 Q132.316 271.746 130.371 270.01 Q128.45 268.274 125.348 268.274 Q123.149 268.274 120.695 269.038 Q118.265 269.802 115.487 271.353 L115.487 266.631 Q118.311 265.496 120.765 264.918 Q123.218 264.339 125.255 264.339 Q130.626 264.339 133.82 267.024 Q137.015 269.709 137.015 274.2 Q137.015 276.33 136.204 278.251 Q135.417 280.149 133.311 282.742 Q132.732 283.413 129.63 286.631 Q126.529 289.825 120.88 295.589 Z" fill="#000000" fill-rule="nonzero" fill-opacity="1" /><path clip-path="url(#clip160)" d="M147.061 264.964 L165.417 264.964 L165.417 268.899 L151.343 268.899 L151.343 277.371 Q152.362 277.024 153.38 276.862 Q154.399 276.677 155.417 276.677 Q161.204 276.677 164.584 279.848 Q167.964 283.019 167.964 288.436 Q167.964 294.015 164.491 297.117 Q161.019 300.195 154.7 300.195 Q152.524 300.195 150.255 299.825 Q148.01 299.455 145.603 298.714 L145.603 294.015 Q147.686 295.149 149.908 295.705 Q152.13 296.26 154.607 296.26 Q158.612 296.26 160.95 294.154 Q163.288 292.047 163.288 288.436 Q163.288 284.825 160.95 282.719 Q158.612 280.612 154.607 280.612 Q152.732 280.612 150.857 281.029 Q149.005 281.445 147.061 282.325 L147.061 264.964 Z" fill="#000000" fill-rule="nonzero" fill-opacity="1" /><path clip-path="url(#clip160)" d="M67.3143 771.639 Q73.68 774.122 75.6216 776.477 Q77.5631 778.832 77.5631 782.779 L77.5631 787.458 L72.6615 787.458 L72.6615 784.02 Q72.6615 781.601 71.5157 780.265 Q70.3699 778.928 66.1048 777.305 L63.4312 776.254 L28.3562 790.673 L28.3562 784.466 L56.238 773.326 L28.3562 762.186 L28.3562 755.979 L67.3143 771.639 Z" fill="#000000" fill-rule="nonzero" fill-opacity="1" /><path clip-path="url(#clip160)" d="M509.053 12.096 L517.235 12.096 L517.235 65.6895 L546.685 65.6895 L546.685 72.576 L509.053 72.576 L509.053 12.096 Z" fill="#000000" fill-rule="nonzero" fill-opacity="1" /><path clip-path="url(#clip160)" d="M554.949 27.2059 L562.403 27.2059 L562.403 72.576 L554.949 72.576 L554.949 27.2059 M554.949 9.54393 L562.403 9.54393 L562.403 18.9825 L554.949 18.9825 L554.949 9.54393 Z" fill="#000000" fill-rule="nonzero" fill-opacity="1" /><path clip-path="url(#clip160)" d="M615.713 45.1919 L615.713 72.576 L608.259 72.576 L608.259 45.4349 Q608.259 38.994 605.748 35.7938 Q603.236 32.5936 598.213 32.5936 Q592.177 32.5936 588.693 36.4419 Q585.21 40.2903 585.21 46.9338 L585.21 72.576 L577.715 72.576 L577.715 27.2059 L585.21 27.2059 L585.21 34.2544 Q587.883 30.163 591.488 28.1376 Q595.134 26.1121 599.874 26.1121 Q607.692 26.1121 611.702 30.9732 Q615.713 35.7938 615.713 45.1919 Z" fill="#000000" fill-rule="nonzero" fill-opacity="1" /><path clip-path="url(#clip160)" d="M669.387 48.0275 L669.387 51.6733 L635.117 51.6733 Q635.603 59.3701 639.735 63.421 Q643.907 67.4314 651.32 67.4314 Q655.614 67.4314 659.625 66.3781 Q663.676 65.3249 667.645 63.2184 L667.645 70.267 Q663.635 71.9684 659.422 72.8596 Q655.209 73.7508 650.875 73.7508 Q640.018 73.7508 633.658 67.4314 Q627.339 61.1119 627.339 50.3365 Q627.339 39.1965 633.334 32.6746 Q639.37 26.1121 649.578 26.1121 Q658.733 26.1121 664.04 32.0264 Q669.387 37.9003 669.387 48.0275 M661.934 45.84 Q661.853 39.7232 658.49 36.0774 Q655.169 32.4315 649.659 32.4315 Q643.421 32.4315 639.654 35.9558 Q635.927 39.4801 635.36 45.8805 L661.934 45.84 Z" fill="#000000" fill-rule="nonzero" fill-opacity="1" /><path clip-path="url(#clip160)" d="M702.24 49.7694 Q693.207 49.7694 689.723 51.8354 Q686.239 53.9013 686.239 58.8839 Q686.239 62.8538 688.832 65.2034 Q691.465 67.5124 695.961 67.5124 Q702.159 67.5124 705.886 63.1374 Q709.653 58.7219 709.653 51.4303 L709.653 49.7694 L702.24 49.7694 M717.107 46.6907 L717.107 72.576 L709.653 72.576 L709.653 65.6895 Q707.101 69.8214 703.293 71.8063 Q699.486 73.7508 693.976 73.7508 Q687.009 73.7508 682.877 69.8619 Q678.785 65.9325 678.785 59.3701 Q678.785 51.7138 683.89 47.825 Q689.034 43.9361 699.202 43.9361 L709.653 43.9361 L709.653 43.2069 Q709.653 38.0623 706.251 35.2672 Q702.888 32.4315 696.771 32.4315 Q692.883 32.4315 689.196 33.3632 Q685.51 34.295 682.107 36.1584 L682.107 29.2718 Q686.199 27.692 690.047 26.9223 Q693.895 26.1121 697.541 26.1121 Q707.385 26.1121 712.246 31.2163 Q717.107 36.3204 717.107 46.6907 Z" fill="#000000" fill-rule="nonzero" fill-opacity="1" /><path clip-path="url(#clip160)" d="M758.75 34.1734 Q757.494 33.4443 755.996 33.1202 Q754.537 32.7556 752.755 32.7556 Q746.436 32.7556 743.033 36.8875 Q739.67 40.9789 739.67 48.6757 L739.67 72.576 L732.176 72.576 L732.176 27.2059 L739.67 27.2059 L739.67 34.2544 Q742.02 30.1225 745.787 28.1376 Q749.555 26.1121 754.942 26.1121 Q755.712 26.1121 756.644 26.2337 Q757.575 26.3147 758.71 26.5172 L758.75 34.1734 Z" fill="#000000" fill-rule="nonzero" fill-opacity="1" /><path clip-path="url(#clip160)" d="M821.944 44.2197 Q824.577 45.1109 827.049 48.0275 Q829.56 50.9442 832.072 56.0483 L840.376 72.576 L831.586 72.576 L823.848 57.061 Q820.851 50.9847 818.015 48.9997 Q815.22 47.0148 810.359 47.0148 L801.447 47.0148 L801.447 72.576 L793.264 72.576 L793.264 12.096 L811.736 12.096 Q822.106 12.096 827.211 16.4305 Q832.315 20.7649 832.315 29.5149 Q832.315 35.2267 829.641 38.994 Q827.008 42.7613 821.944 44.2197 M801.447 18.8205 L801.447 40.2903 L811.736 40.2903 Q817.65 40.2903 820.648 37.5762 Q823.686 34.8216 823.686 29.5149 Q823.686 24.2082 820.648 21.5346 Q817.65 18.8205 811.736 18.8205 L801.447 18.8205 Z" fill="#000000" fill-rule="nonzero" fill-opacity="1" /><path clip-path="url(#clip160)" d="M885.665 48.0275 L885.665 51.6733 L851.394 51.6733 Q851.881 59.3701 856.012 63.421 Q860.185 67.4314 867.598 67.4314 Q871.892 67.4314 875.902 66.3781 Q879.953 65.3249 883.923 63.2184 L883.923 70.267 Q879.913 71.9684 875.7 72.8596 Q871.487 73.7508 867.152 73.7508 Q856.296 73.7508 849.936 67.4314 Q843.617 61.1119 843.617 50.3365 Q843.617 39.1965 849.612 32.6746 Q855.648 26.1121 865.856 26.1121 Q875.011 26.1121 880.318 32.0264 Q885.665 37.9003 885.665 48.0275 M878.211 45.84 Q878.13 39.7232 874.768 36.0774 Q871.446 32.4315 865.937 32.4315 Q859.699 32.4315 855.931 35.9558 Q852.205 39.4801 851.637 45.8805 L878.211 45.84 Z" fill="#000000" fill-rule="nonzero" fill-opacity="1" /><path clip-path="url(#clip160)" d="M927.754 49.3643 Q927.754 41.2625 924.392 36.8065 Q921.07 32.3505 915.034 32.3505 Q909.039 32.3505 905.677 36.8065 Q902.355 41.2625 902.355 49.3643 Q902.355 57.4256 905.677 61.8816 Q909.039 66.3376 915.034 66.3376 Q921.07 66.3376 924.392 61.8816 Q927.754 57.4256 927.754 49.3643 M935.208 66.9452 Q935.208 78.5308 930.063 84.1616 Q924.918 89.8329 914.305 89.8329 Q910.376 89.8329 906.892 89.2252 Q903.408 88.6581 900.127 87.4428 L900.127 80.1917 Q903.408 81.9741 906.608 82.8248 Q909.808 83.6755 913.13 83.6755 Q920.462 83.6755 924.108 79.8271 Q927.754 76.0193 927.754 68.282 L927.754 64.5957 Q925.445 68.6061 921.84 70.5911 Q918.234 72.576 913.211 72.576 Q904.866 72.576 899.762 66.2161 Q894.658 59.8562 894.658 49.3643 Q894.658 38.832 899.762 32.472 Q904.866 26.1121 913.211 26.1121 Q918.234 26.1121 921.84 28.0971 Q925.445 30.082 927.754 34.0924 L927.754 27.2059 L935.208 27.2059 L935.208 66.9452 Z" fill="#000000" fill-rule="nonzero" fill-opacity="1" /><path clip-path="url(#clip160)" d="M976.851 34.1734 Q975.595 33.4443 974.096 33.1202 Q972.638 32.7556 970.856 32.7556 Q964.536 32.7556 961.133 36.8875 Q957.771 40.9789 957.771 48.6757 L957.771 72.576 L950.277 72.576 L950.277 27.2059 L957.771 27.2059 L957.771 34.2544 Q960.121 30.1225 963.888 28.1376 Q967.655 26.1121 973.043 26.1121 Q973.813 26.1121 974.744 26.2337 Q975.676 26.3147 976.81 26.5172 L976.851 34.1734 Z" fill="#000000" fill-rule="nonzero" fill-opacity="1" /><path clip-path="url(#clip160)" d="M1021.65 48.0275 L1021.65 51.6733 L987.383 51.6733 Q987.869 59.3701 992.001 63.421 Q996.174 67.4314 1003.59 67.4314 Q1007.88 67.4314 1011.89 66.3781 Q1015.94 65.3249 1019.91 63.2184 L1019.91 70.267 Q1015.9 71.9684 1011.69 72.8596 Q1007.48 73.7508 1003.14 73.7508 Q992.285 73.7508 985.925 67.4314 Q979.606 61.1119 979.606 50.3365 Q979.606 39.1965 985.601 32.6746 Q991.637 26.1121 1001.85 26.1121 Q1011 26.1121 1016.31 32.0264 Q1021.65 37.9003 1021.65 48.0275 M1014.2 45.84 Q1014.12 39.7232 1010.76 36.0774 Q1007.44 32.4315 1001.93 32.4315 Q995.688 32.4315 991.92 35.9558 Q988.193 39.4801 987.626 45.8805 L1014.2 45.84 Z" fill="#000000" fill-rule="nonzero" fill-opacity="1" /><path clip-path="url(#clip160)" d="M1062.81 28.5427 L1062.81 35.5912 Q1059.65 33.9709 1056.25 33.1607 Q1052.85 32.3505 1049.2 32.3505 Q1043.65 32.3505 1040.86 34.0519 Q1038.1 35.7533 1038.1 39.156 Q1038.1 41.7486 1040.09 43.2475 Q1042.07 44.7058 1048.07 46.0426 L1050.62 46.6097 Q1058.56 48.3111 1061.88 51.4303 Q1065.24 54.509 1065.24 60.0587 Q1065.24 66.3781 1060.22 70.0644 Q1055.24 73.7508 1046.49 73.7508 Q1042.84 73.7508 1038.87 73.0216 Q1034.94 72.3329 1030.57 70.9151 L1030.57 63.2184 Q1034.7 65.3654 1038.71 66.4591 Q1042.72 67.5124 1046.65 67.5124 Q1051.91 67.5124 1054.75 65.73 Q1057.59 63.9071 1057.59 60.6258 Q1057.59 57.5877 1055.52 55.9673 Q1053.49 54.3469 1046.57 52.8481 L1043.97 52.2405 Q1037.05 50.7821 1033.97 47.7845 Q1030.89 44.7463 1030.89 39.4801 Q1030.89 33.0797 1035.43 29.5959 Q1039.96 26.1121 1048.31 26.1121 Q1052.44 26.1121 1056.09 26.7198 Q1059.73 27.3274 1062.81 28.5427 Z" fill="#000000" fill-rule="nonzero" fill-opacity="1" /><path clip-path="url(#clip160)" d="M1106.03 28.5427 L1106.03 35.5912 Q1102.87 33.9709 1099.47 33.1607 Q1096.07 32.3505 1092.42 32.3505 Q1086.87 32.3505 1084.08 34.0519 Q1081.32 35.7533 1081.32 39.156 Q1081.32 41.7486 1083.31 43.2475 Q1085.29 44.7058 1091.29 46.0426 L1093.84 46.6097 Q1101.78 48.3111 1105.1 51.4303 Q1108.46 54.509 1108.46 60.0587 Q1108.46 66.3781 1103.44 70.0644 Q1098.46 73.7508 1089.71 73.7508 Q1086.06 73.7508 1082.09 73.0216 Q1078.16 72.3329 1073.79 70.9151 L1073.79 63.2184 Q1077.92 65.3654 1081.93 66.4591 Q1085.94 67.5124 1089.87 67.5124 Q1095.14 67.5124 1097.97 65.73 Q1100.81 63.9071 1100.81 60.6258 Q1100.81 57.5877 1098.74 55.9673 Q1096.72 54.3469 1089.79 52.8481 L1087.2 52.2405 Q1080.27 50.7821 1077.19 47.7845 Q1074.11 44.7463 1074.11 39.4801 Q1074.11 33.0797 1078.65 29.5959 Q1083.19 26.1121 1091.53 26.1121 Q1095.66 26.1121 1099.31 26.7198 Q1102.96 27.3274 1106.03 28.5427 Z" fill="#000000" fill-rule="nonzero" fill-opacity="1" /><path clip-path="url(#clip160)" d="M1120.33 27.2059 L1127.79 27.2059 L1127.79 72.576 L1120.33 72.576 L1120.33 27.2059 M1120.33 9.54393 L1127.79 9.54393 L1127.79 18.9825 L1120.33 18.9825 L1120.33 9.54393 Z" fill="#000000" fill-rule="nonzero" fill-opacity="1" /><path clip-path="url(#clip160)" d="M1160.96 32.4315 Q1154.97 32.4315 1151.49 37.1306 Q1148 41.7891 1148 49.9314 Q1148 58.0738 1151.44 62.7728 Q1154.93 67.4314 1160.96 67.4314 Q1166.92 67.4314 1170.4 62.7323 Q1173.89 58.0333 1173.89 49.9314 Q1173.89 41.8701 1170.4 37.1711 Q1166.92 32.4315 1160.96 32.4315 M1160.96 26.1121 Q1170.69 26.1121 1176.24 32.4315 Q1181.79 38.7509 1181.79 49.9314 Q1181.79 61.0714 1176.24 67.4314 Q1170.69 73.7508 1160.96 73.7508 Q1151.2 73.7508 1145.65 67.4314 Q1140.14 61.0714 1140.14 49.9314 Q1140.14 38.7509 1145.65 32.4315 Q1151.2 26.1121 1160.96 26.1121 Z" fill="#000000" fill-rule="nonzero" fill-opacity="1" /><path clip-path="url(#clip160)" d="M1231.86 45.1919 L1231.86 72.576 L1224.4 72.576 L1224.4 45.4349 Q1224.4 38.994 1221.89 35.7938 Q1219.38 32.5936 1214.36 32.5936 Q1208.32 32.5936 1204.84 36.4419 Q1201.35 40.2903 1201.35 46.9338 L1201.35 72.576 L1193.86 72.576 L1193.86 27.2059 L1201.35 27.2059 L1201.35 34.2544 Q1204.03 30.163 1207.63 28.1376 Q1211.28 26.1121 1216.02 26.1121 Q1223.83 26.1121 1227.84 30.9732 Q1231.86 35.7938 1231.86 45.1919 Z" fill="#000000" fill-rule="nonzero" fill-opacity="1" /><path clip-path="url(#clip160)" d="M1268.76 27.2059 L1276.21 27.2059 L1285.53 62.6108 L1294.81 27.2059 L1303.6 27.2059 L1312.91 62.6108 L1322.19 27.2059 L1329.64 27.2059 L1317.78 72.576 L1308.98 72.576 L1299.22 35.3887 L1289.42 72.576 L1280.63 72.576 L1268.76 27.2059 Z" fill="#000000" fill-rule="nonzero" fill-opacity="1" /><path clip-path="url(#clip160)" d="M1340.95 27.2059 L1348.4 27.2059 L1348.4 72.576 L1340.95 72.576 L1340.95 27.2059 M1340.95 9.54393 L1348.4 9.54393 L1348.4 18.9825 L1340.95 18.9825 L1340.95 9.54393 Z" fill="#000000" fill-rule="nonzero" fill-opacity="1" /><path clip-path="url(#clip160)" d="M1371.37 14.324 L1371.37 27.2059 L1386.72 27.2059 L1386.72 32.9987 L1371.37 32.9987 L1371.37 57.6282 Q1371.37 63.1779 1372.87 64.7578 Q1374.41 66.3376 1379.07 66.3376 L1386.72 66.3376 L1386.72 72.576 L1379.07 72.576 Q1370.44 72.576 1367.16 69.3758 Q1363.87 66.1351 1363.87 57.6282 L1363.87 32.9987 L1358.41 32.9987 L1358.41 27.2059 L1363.87 27.2059 L1363.87 14.324 L1371.37 14.324 Z" fill="#000000" fill-rule="nonzero" fill-opacity="1" /><path clip-path="url(#clip160)" d="M1434.24 45.1919 L1434.24 72.576 L1426.78 72.576 L1426.78 45.4349 Q1426.78 38.994 1424.27 35.7938 Q1421.76 32.5936 1416.74 32.5936 Q1410.7 32.5936 1407.22 36.4419 Q1403.74 40.2903 1403.74 46.9338 L1403.74 72.576 L1396.24 72.576 L1396.24 9.54393 L1403.74 9.54393 L1403.74 34.2544 Q1406.41 30.163 1410.01 28.1376 Q1413.66 26.1121 1418.4 26.1121 Q1426.22 26.1121 1430.23 30.9732 Q1434.24 35.7938 1434.24 45.1919 Z" fill="#000000" fill-rule="nonzero" fill-opacity="1" /><path clip-path="url(#clip160)" d="M1475.8 12.096 L1483.98 12.096 L1483.98 65.6895 L1513.43 65.6895 L1513.43 72.576 L1475.8 72.576 L1475.8 12.096 Z" fill="#000000" fill-rule="nonzero" fill-opacity="1" /><path clip-path="url(#clip160)" d="M1559.05 48.0275 L1559.05 51.6733 L1524.78 51.6733 Q1525.26 59.3701 1529.39 63.421 Q1533.57 67.4314 1540.98 67.4314 Q1545.27 67.4314 1549.28 66.3781 Q1553.34 65.3249 1557.31 63.2184 L1557.31 70.267 Q1553.29 71.9684 1549.08 72.8596 Q1544.87 73.7508 1540.53 73.7508 Q1529.68 73.7508 1523.32 67.4314 Q1517 61.1119 1517 50.3365 Q1517 39.1965 1522.99 32.6746 Q1529.03 26.1121 1539.24 26.1121 Q1548.39 26.1121 1553.7 32.0264 Q1559.05 37.9003 1559.05 48.0275 M1551.59 45.84 Q1551.51 39.7232 1548.15 36.0774 Q1544.83 32.4315 1539.32 32.4315 Q1533.08 32.4315 1529.31 35.9558 Q1525.59 39.4801 1525.02 45.8805 L1551.59 45.84 Z" fill="#000000" fill-rule="nonzero" fill-opacity="1" /><path clip-path="url(#clip160)" d="M1591.9 49.7694 Q1582.87 49.7694 1579.38 51.8354 Q1575.9 53.9013 1575.9 58.8839 Q1575.9 62.8538 1578.49 65.2034 Q1581.12 67.5124 1585.62 67.5124 Q1591.82 67.5124 1595.55 63.1374 Q1599.31 58.7219 1599.31 51.4303 L1599.31 49.7694 L1591.9 49.7694 M1606.77 46.6907 L1606.77 72.576 L1599.31 72.576 L1599.31 65.6895 Q1596.76 69.8214 1592.95 71.8063 Q1589.15 73.7508 1583.64 73.7508 Q1576.67 73.7508 1572.54 69.8619 Q1568.44 65.9325 1568.44 59.3701 Q1568.44 51.7138 1573.55 47.825 Q1578.69 43.9361 1588.86 43.9361 L1599.31 43.9361 L1599.31 43.2069 Q1599.31 38.0623 1595.91 35.2672 Q1592.55 32.4315 1586.43 32.4315 Q1582.54 32.4315 1578.86 33.3632 Q1575.17 34.295 1571.77 36.1584 L1571.77 29.2718 Q1575.86 27.692 1579.71 26.9223 Q1583.55 26.1121 1587.2 26.1121 Q1597.04 26.1121 1601.91 31.2163 Q1606.77 36.3204 1606.77 46.6907 Z" fill="#000000" fill-rule="nonzero" fill-opacity="1" /><path clip-path="url(#clip160)" d="M1651.04 28.5427 L1651.04 35.5912 Q1647.88 33.9709 1644.48 33.1607 Q1641.08 32.3505 1637.43 32.3505 Q1631.88 32.3505 1629.09 34.0519 Q1626.33 35.7533 1626.33 39.156 Q1626.33 41.7486 1628.32 43.2475 Q1630.3 44.7058 1636.3 46.0426 L1638.85 46.6097 Q1646.79 48.3111 1650.11 51.4303 Q1653.47 54.509 1653.47 60.0587 Q1653.47 66.3781 1648.45 70.0644 Q1643.47 73.7508 1634.72 73.7508 Q1631.07 73.7508 1627.1 73.0216 Q1623.17 72.3329 1618.8 70.9151 L1618.8 63.2184 Q1622.93 65.3654 1626.94 66.4591 Q1630.95 67.5124 1634.88 67.5124 Q1640.15 67.5124 1642.98 65.73 Q1645.82 63.9071 1645.82 60.6258 Q1645.82 57.5877 1643.75 55.9673 Q1641.73 54.3469 1634.8 52.8481 L1632.21 52.2405 Q1625.28 50.7821 1622.2 47.7845 Q1619.12 44.7463 1619.12 39.4801 Q1619.12 33.0797 1623.66 29.5959 Q1628.2 26.1121 1636.54 26.1121 Q1640.67 26.1121 1644.32 26.7198 Q1647.96 27.3274 1651.04 28.5427 Z" fill="#000000" fill-rule="nonzero" fill-opacity="1" /><path clip-path="url(#clip160)" d="M1672.72 14.324 L1672.72 27.2059 L1688.07 27.2059 L1688.07 32.9987 L1672.72 32.9987 L1672.72 57.6282 Q1672.72 63.1779 1674.21 64.7578 Q1675.75 66.3376 1680.41 66.3376 L1688.07 66.3376 L1688.07 72.576 L1680.41 72.576 Q1671.78 72.576 1668.5 69.3758 Q1665.22 66.1351 1665.22 57.6282 L1665.22 32.9987 L1659.75 32.9987 L1659.75 27.2059 L1665.22 27.2059 L1665.22 14.324 L1672.72 14.324 Z" fill="#000000" fill-rule="nonzero" fill-opacity="1" /><path clip-path="url(#clip160)" d="M1760.82 14.0809 L1760.82 22.0612 Q1756.16 19.8332 1752.03 18.7395 Q1747.9 17.6457 1744.05 17.6457 Q1737.37 17.6457 1733.72 20.2383 Q1730.12 22.8309 1730.12 27.611 Q1730.12 31.6214 1732.51 33.6873 Q1734.94 35.7128 1741.66 36.9686 L1746.6 37.9813 Q1755.76 39.7232 1760.09 44.1387 Q1764.47 48.5136 1764.47 55.8863 Q1764.47 64.6767 1758.55 69.2137 Q1752.68 73.7508 1741.3 73.7508 Q1737 73.7508 1732.14 72.7785 Q1727.32 71.8063 1722.14 69.9024 L1722.14 61.4765 Q1727.12 64.2716 1731.9 65.6895 Q1736.68 67.1073 1741.3 67.1073 Q1748.31 67.1073 1752.11 64.3527 Q1755.92 61.598 1755.92 56.4939 Q1755.92 52.0379 1753.17 49.5264 Q1750.45 47.0148 1744.21 45.759 L1739.23 44.7868 Q1730.08 42.9639 1725.98 39.075 Q1721.89 35.1862 1721.89 28.2591 Q1721.89 20.2383 1727.52 15.6203 Q1733.2 11.0023 1743.12 11.0023 Q1747.37 11.0023 1751.79 11.7719 Q1756.2 12.5416 1760.82 14.0809 Z" fill="#000000" fill-rule="nonzero" fill-opacity="1" /><path clip-path="url(#clip160)" d="M1781.36 49.9314 Q1781.36 58.1548 1784.72 62.8538 Q1788.13 67.5124 1794.04 67.5124 Q1799.95 67.5124 1803.36 62.8538 Q1806.76 58.1548 1806.76 49.9314 Q1806.76 41.7081 1803.36 37.0496 Q1799.95 32.3505 1794.04 32.3505 Q1788.13 32.3505 1784.72 37.0496 Q1781.36 41.7081 1781.36 49.9314 M1806.76 65.7705 Q1804.41 69.8214 1800.8 71.8063 Q1797.24 73.7508 1792.22 73.7508 Q1783.99 73.7508 1778.81 67.1883 Q1773.66 60.6258 1773.66 49.9314 Q1773.66 39.2371 1778.81 32.6746 Q1783.99 26.1121 1792.22 26.1121 Q1797.24 26.1121 1800.8 28.0971 Q1804.41 30.0415 1806.76 34.0924 L1806.76 27.2059 L1814.21 27.2059 L1814.21 89.8329 L1806.76 89.8329 L1806.76 65.7705 Z" fill="#000000" fill-rule="nonzero" fill-opacity="1" /><path clip-path="url(#clip160)" d="M1828.8 54.671 L1828.8 27.2059 L1836.25 27.2059 L1836.25 54.3874 Q1836.25 60.8284 1838.76 64.0691 Q1841.27 67.2693 1846.3 67.2693 Q1852.33 67.2693 1855.82 63.421 Q1859.34 59.5726 1859.34 52.9291 L1859.34 27.2059 L1866.79 27.2059 L1866.79 72.576 L1859.34 72.576 L1859.34 65.6084 Q1856.63 69.7404 1853.02 71.7658 Q1849.46 73.7508 1844.72 73.7508 Q1836.9 73.7508 1832.85 68.8897 Q1828.8 64.0286 1828.8 54.671 M1847.55 26.1121 L1847.55 26.1121 Z" fill="#000000" fill-rule="nonzero" fill-opacity="1" /><path clip-path="url(#clip160)" d="M1902.77 49.7694 Q1893.73 49.7694 1890.25 51.8354 Q1886.77 53.9013 1886.77 58.8839 Q1886.77 62.8538 1889.36 65.2034 Q1891.99 67.5124 1896.49 67.5124 Q1902.69 67.5124 1906.41 63.1374 Q1910.18 58.7219 1910.18 51.4303 L1910.18 49.7694 L1902.77 49.7694 M1917.63 46.6907 L1917.63 72.576 L1910.18 72.576 L1910.18 65.6895 Q1907.63 69.8214 1903.82 71.8063 Q1900.01 73.7508 1894.5 73.7508 Q1887.53 73.7508 1883.4 69.8619 Q1879.31 65.9325 1879.31 59.3701 Q1879.31 51.7138 1884.42 47.825 Q1889.56 43.9361 1899.73 43.9361 L1910.18 43.9361 L1910.18 43.2069 Q1910.18 38.0623 1906.78 35.2672 Q1903.41 32.4315 1897.3 32.4315 Q1893.41 32.4315 1889.72 33.3632 Q1886.04 34.295 1882.63 36.1584 L1882.63 29.2718 Q1886.72 27.692 1890.57 26.9223 Q1894.42 26.1121 1898.07 26.1121 Q1907.91 26.1121 1912.77 31.2163 Q1917.63 36.3204 1917.63 46.6907 Z" fill="#000000" fill-rule="nonzero" fill-opacity="1" /><path clip-path="url(#clip160)" d="M1959.28 34.1734 Q1958.02 33.4443 1956.52 33.1202 Q1955.06 32.7556 1953.28 32.7556 Q1946.96 32.7556 1943.56 36.8875 Q1940.2 40.9789 1940.2 48.6757 L1940.2 72.576 L1932.7 72.576 L1932.7 27.2059 L1940.2 27.2059 L1940.2 34.2544 Q1942.55 30.1225 1946.31 28.1376 Q1950.08 26.1121 1955.47 26.1121 Q1956.24 26.1121 1957.17 26.2337 Q1958.1 26.3147 1959.24 26.5172 L1959.28 34.1734 Z" fill="#000000" fill-rule="nonzero" fill-opacity="1" /><path clip-path="url(#clip160)" d="M2004.08 48.0275 L2004.08 51.6733 L1969.81 51.6733 Q1970.29 59.3701 1974.43 63.421 Q1978.6 67.4314 1986.01 67.4314 Q1990.31 67.4314 1994.32 66.3781 Q1998.37 65.3249 2002.34 63.2184 L2002.34 70.267 Q1998.33 71.9684 1994.11 72.8596 Q1989.9 73.7508 1985.57 73.7508 Q1974.71 73.7508 1968.35 67.4314 Q1962.03 61.1119 1962.03 50.3365 Q1962.03 39.1965 1968.03 32.6746 Q1974.06 26.1121 1984.27 26.1121 Q1993.43 26.1121 1998.73 32.0264 Q2004.08 37.9003 2004.08 48.0275 M1996.63 45.84 Q1996.54 39.7232 1993.18 36.0774 Q1989.86 32.4315 1984.35 32.4315 Q1978.11 32.4315 1974.35 35.9558 Q1970.62 39.4801 1970.05 45.8805 L1996.63 45.84 Z" fill="#000000" fill-rule="nonzero" fill-opacity="1" /><path clip-path="url(#clip160)" d="M2045.24 28.5427 L2045.24 35.5912 Q2042.08 33.9709 2038.67 33.1607 Q2035.27 32.3505 2031.63 32.3505 Q2026.08 32.3505 2023.28 34.0519 Q2020.53 35.7533 2020.53 39.156 Q2020.53 41.7486 2022.51 43.2475 Q2024.5 44.7058 2030.49 46.0426 L2033.04 46.6097 Q2040.98 48.3111 2044.3 51.4303 Q2047.67 54.509 2047.67 60.0587 Q2047.67 66.3781 2042.64 70.0644 Q2037.66 73.7508 2028.91 73.7508 Q2025.27 73.7508 2021.3 73.0216 Q2017.37 72.3329 2012.99 70.9151 L2012.99 63.2184 Q2017.12 65.3654 2021.13 66.4591 Q2025.14 67.5124 2029.07 67.5124 Q2034.34 67.5124 2037.18 65.73 Q2040.01 63.9071 2040.01 60.6258 Q2040.01 57.5877 2037.94 55.9673 Q2035.92 54.3469 2028.99 52.8481 L2026.4 52.2405 Q2019.47 50.7821 2016.39 47.7845 Q2013.32 44.7463 2013.32 39.4801 Q2013.32 33.0797 2017.85 29.5959 Q2022.39 26.1121 2030.73 26.1121 Q2034.87 26.1121 2038.51 26.7198 Q2042.16 27.3274 2045.24 28.5427 Z" fill="#000000" fill-rule="nonzero" fill-opacity="1" /><circle clip-path="url(#clip162)" cx="264.778" cy="1317.2" r="10.8" fill="#009af9" fill-rule="evenodd" fill-opacity="1" stroke="none"/>
<circle clip-path="url(#clip162)" cx="285.05" cy="1383.87" r="10.8" fill="#009af9" fill-rule="evenodd" fill-opacity="1" stroke="none"/>
<circle clip-path="url(#clip162)" cx="305.322" cy="1346.85" r="10.8" fill="#009af9" fill-rule="evenodd" fill-opacity="1" stroke="none"/>
<circle clip-path="url(#clip162)" cx="325.593" cy="1299.46" r="10.8" fill="#009af9" fill-rule="evenodd" fill-opacity="1" stroke="none"/>
<circle clip-path="url(#clip162)" cx="345.865" cy="1386.4" r="10.8" fill="#009af9" fill-rule="evenodd" fill-opacity="1" stroke="none"/>
<circle clip-path="url(#clip162)" cx="366.137" cy="1274.74" r="10.8" fill="#009af9" fill-rule="evenodd" fill-opacity="1" stroke="none"/>
<circle clip-path="url(#clip162)" cx="386.408" cy="1323.24" r="10.8" fill="#009af9" fill-rule="evenodd" fill-opacity="1" stroke="none"/>
<circle clip-path="url(#clip162)" cx="406.68" cy="1267.89" r="10.8" fill="#009af9" fill-rule="evenodd" fill-opacity="1" stroke="none"/>
<circle clip-path="url(#clip162)" cx="426.951" cy="1312.86" r="10.8" fill="#009af9" fill-rule="evenodd" fill-opacity="1" stroke="none"/>
<circle clip-path="url(#clip162)" cx="447.223" cy="1279.82" r="10.8" fill="#009af9" fill-rule="evenodd" fill-opacity="1" stroke="none"/>
<circle clip-path="url(#clip162)" cx="467.495" cy="1268.33" r="10.8" fill="#009af9" fill-rule="evenodd" fill-opacity="1" stroke="none"/>
<circle clip-path="url(#clip162)" cx="487.766" cy="1198.52" r="10.8" fill="#009af9" fill-rule="evenodd" fill-opacity="1" stroke="none"/>
<circle clip-path="url(#clip162)" cx="508.038" cy="1242.23" r="10.8" fill="#009af9" fill-rule="evenodd" fill-opacity="1" stroke="none"/>
<circle clip-path="url(#clip162)" cx="528.31" cy="1187.12" r="10.8" fill="#009af9" fill-rule="evenodd" fill-opacity="1" stroke="none"/>
<circle clip-path="url(#clip162)" cx="548.581" cy="1249.58" r="10.8" fill="#009af9" fill-rule="evenodd" fill-opacity="1" stroke="none"/>
<circle clip-path="url(#clip162)" cx="568.853" cy="1209.51" r="10.8" fill="#009af9" fill-rule="evenodd" fill-opacity="1" stroke="none"/>
<circle clip-path="url(#clip162)" cx="589.124" cy="1191.54" r="10.8" fill="#009af9" fill-rule="evenodd" fill-opacity="1" stroke="none"/>
<circle clip-path="url(#clip162)" cx="609.396" cy="1238.42" r="10.8" fill="#009af9" fill-rule="evenodd" fill-opacity="1" stroke="none"/>
<circle clip-path="url(#clip162)" cx="629.668" cy="1219.74" r="10.8" fill="#009af9" fill-rule="evenodd" fill-opacity="1" stroke="none"/>
<circle clip-path="url(#clip162)" cx="649.939" cy="1171.95" r="10.8" fill="#009af9" fill-rule="evenodd" fill-opacity="1" stroke="none"/>
<circle clip-path="url(#clip162)" cx="670.211" cy="1128.25" r="10.8" fill="#009af9" fill-rule="evenodd" fill-opacity="1" stroke="none"/>
<circle clip-path="url(#clip162)" cx="690.483" cy="1165.41" r="10.8" fill="#009af9" fill-rule="evenodd" fill-opacity="1" stroke="none"/>
<circle clip-path="url(#clip162)" cx="710.754" cy="1148.32" r="10.8" fill="#009af9" fill-rule="evenodd" fill-opacity="1" stroke="none"/>
<circle clip-path="url(#clip162)" cx="731.026" cy="1201.2" r="10.8" fill="#009af9" fill-rule="evenodd" fill-opacity="1" stroke="none"/>
<circle clip-path="url(#clip162)" cx="751.297" cy="1113.12" r="10.8" fill="#009af9" fill-rule="evenodd" fill-opacity="1" stroke="none"/>
<circle clip-path="url(#clip162)" cx="771.569" cy="1083.19" r="10.8" fill="#009af9" fill-rule="evenodd" fill-opacity="1" stroke="none"/>
<circle clip-path="url(#clip162)" cx="791.841" cy="1038.28" r="10.8" fill="#009af9" fill-rule="evenodd" fill-opacity="1" stroke="none"/>
<circle clip-path="url(#clip162)" cx="812.112" cy="1042.28" r="10.8" fill="#009af9" fill-rule="evenodd" fill-opacity="1" stroke="none"/>
<circle clip-path="url(#clip162)" cx="832.384" cy="1026.63" r="10.8" fill="#009af9" fill-rule="evenodd" fill-opacity="1" stroke="none"/>
<circle clip-path="url(#clip162)" cx="852.656" cy="937.549" r="10.8" fill="#009af9" fill-rule="evenodd" fill-opacity="1" stroke="none"/>
<circle clip-path="url(#clip162)" cx="872.927" cy="1000.67" r="10.8" fill="#009af9" fill-rule="evenodd" fill-opacity="1" stroke="none"/>
<circle clip-path="url(#clip162)" cx="893.199" cy="966.66" r="10.8" fill="#009af9" fill-rule="evenodd" fill-opacity="1" stroke="none"/>
<circle clip-path="url(#clip162)" cx="913.47" cy="986.085" r="10.8" fill="#009af9" fill-rule="evenodd" fill-opacity="1" stroke="none"/>
<circle clip-path="url(#clip162)" cx="933.742" cy="1003.02" r="10.8" fill="#009af9" fill-rule="evenodd" fill-opacity="1" stroke="none"/>
<circle clip-path="url(#clip162)" cx="954.014" cy="1024.9" r="10.8" fill="#009af9" fill-rule="evenodd" fill-opacity="1" stroke="none"/>
<circle clip-path="url(#clip162)" cx="974.285" cy="1030.45" r="10.8" fill="#009af9" fill-rule="evenodd" fill-opacity="1" stroke="none"/>
<circle clip-path="url(#clip162)" cx="994.557" cy="923.879" r="10.8" fill="#009af9" fill-rule="evenodd" fill-opacity="1" stroke="none"/>
<circle clip-path="url(#clip162)" cx="1014.83" cy="904.142" r="10.8" fill="#009af9" fill-rule="evenodd" fill-opacity="1" stroke="none"/>
<circle clip-path="url(#clip162)" cx="1035.1" cy="941.902" r="10.8" fill="#009af9" fill-rule="evenodd" fill-opacity="1" stroke="none"/>
<circle clip-path="url(#clip162)" cx="1055.37" cy="922.788" r="10.8" fill="#009af9" fill-rule="evenodd" fill-opacity="1" stroke="none"/>
<circle clip-path="url(#clip162)" cx="1075.64" cy="907.671" r="10.8" fill="#009af9" fill-rule="evenodd" fill-opacity="1" stroke="none"/>
<circle clip-path="url(#clip162)" cx="1095.92" cy="891.889" r="10.8" fill="#009af9" fill-rule="evenodd" fill-opacity="1" stroke="none"/>
<circle clip-path="url(#clip162)" cx="1116.19" cy="914.027" r="10.8" fill="#009af9" fill-rule="evenodd" fill-opacity="1" stroke="none"/>
<circle clip-path="url(#clip162)" cx="1136.46" cy="885.171" r="10.8" fill="#009af9" fill-rule="evenodd" fill-opacity="1" stroke="none"/>
<circle clip-path="url(#clip162)" cx="1156.73" cy="702.792" r="10.8" fill="#009af9" fill-rule="evenodd" fill-opacity="1" stroke="none"/>
<circle clip-path="url(#clip162)" cx="1177" cy="798.403" r="10.8" fill="#009af9" fill-rule="evenodd" fill-opacity="1" stroke="none"/>
<circle clip-path="url(#clip162)" cx="1197.27" cy="781.787" r="10.8" fill="#009af9" fill-rule="evenodd" fill-opacity="1" stroke="none"/>
<circle clip-path="url(#clip162)" cx="1217.54" cy="839.101" r="10.8" fill="#009af9" fill-rule="evenodd" fill-opacity="1" stroke="none"/>
<circle clip-path="url(#clip162)" cx="1237.82" cy="771.079" r="10.8" fill="#009af9" fill-rule="evenodd" fill-opacity="1" stroke="none"/>
<circle clip-path="url(#clip162)" cx="1258.09" cy="810.048" r="10.8" fill="#009af9" fill-rule="evenodd" fill-opacity="1" stroke="none"/>
<circle clip-path="url(#clip162)" cx="1278.36" cy="741.937" r="10.8" fill="#009af9" fill-rule="evenodd" fill-opacity="1" stroke="none"/>
<circle clip-path="url(#clip162)" cx="1298.63" cy="709.192" r="10.8" fill="#009af9" fill-rule="evenodd" fill-opacity="1" stroke="none"/>
<circle clip-path="url(#clip162)" cx="1318.9" cy="799.713" r="10.8" fill="#009af9" fill-rule="evenodd" fill-opacity="1" stroke="none"/>
<circle clip-path="url(#clip162)" cx="1339.17" cy="752.84" r="10.8" fill="#009af9" fill-rule="evenodd" fill-opacity="1" stroke="none"/>
<circle clip-path="url(#clip162)" cx="1359.45" cy="713.111" r="10.8" fill="#009af9" fill-rule="evenodd" fill-opacity="1" stroke="none"/>
<circle clip-path="url(#clip162)" cx="1379.72" cy="732.182" r="10.8" fill="#009af9" fill-rule="evenodd" fill-opacity="1" stroke="none"/>
<circle clip-path="url(#clip162)" cx="1399.99" cy="835.334" r="10.8" fill="#009af9" fill-rule="evenodd" fill-opacity="1" stroke="none"/>
<circle clip-path="url(#clip162)" cx="1420.26" cy="697.985" r="10.8" fill="#009af9" fill-rule="evenodd" fill-opacity="1" stroke="none"/>
<circle clip-path="url(#clip162)" cx="1440.53" cy="642.483" r="10.8" fill="#009af9" fill-rule="evenodd" fill-opacity="1" stroke="none"/>
<circle clip-path="url(#clip162)" cx="1460.8" cy="605.23" r="10.8" fill="#009af9" fill-rule="evenodd" fill-opacity="1" stroke="none"/>
<circle clip-path="url(#clip162)" cx="1481.08" cy="632.51" r="10.8" fill="#009af9" fill-rule="evenodd" fill-opacity="1" stroke="none"/>
<circle clip-path="url(#clip162)" cx="1501.35" cy="650.614" r="10.8" fill="#009af9" fill-rule="evenodd" fill-opacity="1" stroke="none"/>
<circle clip-path="url(#clip162)" cx="1521.62" cy="614.173" r="10.8" fill="#009af9" fill-rule="evenodd" fill-opacity="1" stroke="none"/>
<circle clip-path="url(#clip162)" cx="1541.89" cy="596.595" r="10.8" fill="#009af9" fill-rule="evenodd" fill-opacity="1" stroke="none"/>
<circle clip-path="url(#clip162)" cx="1562.16" cy="524.954" r="10.8" fill="#009af9" fill-rule="evenodd" fill-opacity="1" stroke="none"/>
<circle clip-path="url(#clip162)" cx="1582.43" cy="558.424" r="10.8" fill="#009af9" fill-rule="evenodd" fill-opacity="1" stroke="none"/>
<circle clip-path="url(#clip162)" cx="1602.71" cy="617.816" r="10.8" fill="#009af9" fill-rule="evenodd" fill-opacity="1" stroke="none"/>
<circle clip-path="url(#clip162)" cx="1622.98" cy="549.318" r="10.8" fill="#009af9" fill-rule="evenodd" fill-opacity="1" stroke="none"/>
<circle clip-path="url(#clip162)" cx="1643.25" cy="533.252" r="10.8" fill="#009af9" fill-rule="evenodd" fill-opacity="1" stroke="none"/>
<circle clip-path="url(#clip162)" cx="1663.52" cy="544.312" r="10.8" fill="#009af9" fill-rule="evenodd" fill-opacity="1" stroke="none"/>
<circle clip-path="url(#clip162)" cx="1683.79" cy="574.261" r="10.8" fill="#009af9" fill-rule="evenodd" fill-opacity="1" stroke="none"/>
<circle clip-path="url(#clip162)" cx="1704.06" cy="484.599" r="10.8" fill="#009af9" fill-rule="evenodd" fill-opacity="1" stroke="none"/>
<circle clip-path="url(#clip162)" cx="1724.34" cy="512.649" r="10.8" fill="#009af9" fill-rule="evenodd" fill-opacity="1" stroke="none"/>
<circle clip-path="url(#clip162)" cx="1744.61" cy="529.805" r="10.8" fill="#009af9" fill-rule="evenodd" fill-opacity="1" stroke="none"/>
<circle clip-path="url(#clip162)" cx="1764.88" cy="486.896" r="10.8" fill="#009af9" fill-rule="evenodd" fill-opacity="1" stroke="none"/>
<circle clip-path="url(#clip162)" cx="1785.15" cy="540.695" r="10.8" fill="#009af9" fill-rule="evenodd" fill-opacity="1" stroke="none"/>
<circle clip-path="url(#clip162)" cx="1805.42" cy="529.875" r="10.8" fill="#009af9" fill-rule="evenodd" fill-opacity="1" stroke="none"/>
<circle clip-path="url(#clip162)" cx="1825.69" cy="464.627" r="10.8" fill="#009af9" fill-rule="evenodd" fill-opacity="1" stroke="none"/>
<circle clip-path="url(#clip162)" cx="1845.97" cy="463.818" r="10.8" fill="#009af9" fill-rule="evenodd" fill-opacity="1" stroke="none"/>
<circle clip-path="url(#clip162)" cx="1866.24" cy="378.856" r="10.8" fill="#009af9" fill-rule="evenodd" fill-opacity="1" stroke="none"/>
<circle clip-path="url(#clip162)" cx="1886.51" cy="333.771" r="10.8" fill="#009af9" fill-rule="evenodd" fill-opacity="1" stroke="none"/>
<circle clip-path="url(#clip162)" cx="1906.78" cy="382.224" r="10.8" fill="#009af9" fill-rule="evenodd" fill-opacity="1" stroke="none"/>
<circle clip-path="url(#clip162)" cx="1927.05" cy="399.7" r="10.8" fill="#009af9" fill-rule="evenodd" fill-opacity="1" stroke="none"/>
<circle clip-path="url(#clip162)" cx="1947.32" cy="376.448" r="10.8" fill="#009af9" fill-rule="evenodd" fill-opacity="1" stroke="none"/>
<circle clip-path="url(#clip162)" cx="1967.6" cy="334.107" r="10.8" fill="#009af9" fill-rule="evenodd" fill-opacity="1" stroke="none"/>
<circle clip-path="url(#clip162)" cx="1987.87" cy="344.75" r="10.8" fill="#009af9" fill-rule="evenodd" fill-opacity="1" stroke="none"/>
<circle clip-path="url(#clip162)" cx="2008.14" cy="299.064" r="10.8" fill="#009af9" fill-rule="evenodd" fill-opacity="1" stroke="none"/>
<circle clip-path="url(#clip162)" cx="2028.41" cy="317.13" r="10.8" fill="#009af9" fill-rule="evenodd" fill-opacity="1" stroke="none"/>
<circle clip-path="url(#clip162)" cx="2048.68" cy="357.226" r="10.8" fill="#009af9" fill-rule="evenodd" fill-opacity="1" stroke="none"/>
<circle clip-path="url(#clip162)" cx="2068.95" cy="300.801" r="10.8" fill="#009af9" fill-rule="evenodd" fill-opacity="1" stroke="none"/>
<circle clip-path="url(#clip162)" cx="2089.22" cy="322.275" r="10.8" fill="#009af9" fill-rule="evenodd" fill-opacity="1" stroke="none"/>
<circle clip-path="url(#clip162)" cx="2109.5" cy="311.854" r="10.8" fill="#009af9" fill-rule="evenodd" fill-opacity="1" stroke="none"/>
<circle clip-path="url(#clip162)" cx="2129.77" cy="314.738" r="10.8" fill="#009af9" fill-rule="evenodd" fill-opacity="1" stroke="none"/>
<circle clip-path="url(#clip162)" cx="2150.04" cy="313.642" r="10.8" fill="#009af9" fill-rule="evenodd" fill-opacity="1" stroke="none"/>
<circle clip-path="url(#clip162)" cx="2170.31" cy="284.928" r="10.8" fill="#009af9" fill-rule="evenodd" fill-opacity="1" stroke="none"/>
<circle clip-path="url(#clip162)" cx="2190.58" cy="210.609" r="10.8" fill="#009af9" fill-rule="evenodd" fill-opacity="1" stroke="none"/>
<circle clip-path="url(#clip162)" cx="2210.85" cy="272.294" r="10.8" fill="#009af9" fill-rule="evenodd" fill-opacity="1" stroke="none"/>
<circle clip-path="url(#clip162)" cx="2231.13" cy="160.256" r="10.8" fill="#009af9" fill-rule="evenodd" fill-opacity="1" stroke="none"/>
<circle clip-path="url(#clip162)" cx="2251.4" cy="225.833" r="10.8" fill="#009af9" fill-rule="evenodd" fill-opacity="1" stroke="none"/>
<circle clip-path="url(#clip162)" cx="2271.67" cy="230.682" r="10.8" fill="#009af9" fill-rule="evenodd" fill-opacity="1" stroke="none"/>
<circle clip-path="url(#clip162)" cx="2291.94" cy="172.317" r="10.8" fill="#009af9" fill-rule="evenodd" fill-opacity="1" stroke="none"/>
<polyline clip-path="url(#clip162)" style="stroke:#ff0000; stroke-linecap:round; stroke-linejoin:round; stroke-width:8; stroke-opacity:1; fill:none" points="264.778,1378.55 285.05,1366.54 305.322,1354.52 325.593,1342.5 345.865,1330.48 366.137,1318.46 386.408,1306.45 406.68,1294.43 426.951,1282.41 447.223,1270.39 467.495,1258.37 487.766,1246.36 508.038,1234.34 528.31,1222.32 548.581,1210.3 568.853,1198.28 589.124,1186.27 609.396,1174.25 629.668,1162.23 649.939,1150.21 670.211,1138.19 690.483,1126.17 710.754,1114.16 731.026,1102.14 751.297,1090.12 771.569,1078.1 791.841,1066.08 812.112,1054.07 832.384,1042.05 852.656,1030.03 872.927,1018.01 893.199,1005.99 913.47,993.976 933.742,981.958 954.014,969.94 974.285,957.922 994.557,945.903 1014.83,933.885 1035.1,921.867 1055.37,909.849 1075.64,897.831 1095.92,885.813 1116.19,873.795 1136.46,861.777 1156.73,849.759 1177,837.741 1197.27,825.723 1217.54,813.704 1237.82,801.686 1258.09,789.668 1278.36,777.65 1298.63,765.632 1318.9,753.614 1339.17,741.596 1359.45,729.578 1379.72,717.56 1399.99,705.542 1420.26,693.524 1440.53,681.505 1460.8,669.487 1481.08,657.469 1501.35,645.451 1521.62,633.433 1541.89,621.415 1562.16,609.397 1582.43,597.379 1602.71,585.361 1622.98,573.343 1643.25,561.325 1663.52,549.306 1683.79,537.288 1704.06,525.27 1724.34,513.252 1744.61,501.234 1764.88,489.216 1785.15,477.198 1805.42,465.18 1825.69,453.162 1845.97,441.144 1866.24,429.126 1886.51,417.108 1906.78,405.089 1927.05,393.071 1947.32,381.053 1967.6,369.035 1987.87,357.017 2008.14,344.999 2028.41,332.981 2048.68,320.963 2068.95,308.945 2089.22,296.927 2109.5,284.909 2129.77,272.89 2150.04,260.872 2170.31,248.854 2190.58,236.836 2210.85,224.818 2231.13,212.8 2251.4,200.782 2271.67,188.764 2291.94,176.746 "/>
<path clip-path="url(#clip160)" d="M275.59 322.316 L891.115 322.316 L891.115 166.796 L275.59 166.796  Z" fill="#ffffff" fill-rule="evenodd" fill-opacity="1"/>
<polyline clip-path="url(#clip160)" style="stroke:#000000; stroke-linecap:round; stroke-linejoin:round; stroke-width:4; stroke-opacity:1; fill:none" points="275.59,322.316 891.115,322.316 891.115,166.796 275.59,166.796 275.59,322.316 "/>
<circle clip-path="url(#clip160)" cx="371.092" cy="218.636" r="23.04" fill="#009af9" fill-rule="evenodd" fill-opacity="1" stroke="none"/>
<path clip-path="url(#clip160)" d="M471.27 205.198 L471.27 232.073 L476.918 232.073 Q484.071 232.073 487.381 228.832 Q490.714 225.592 490.714 218.601 Q490.714 211.657 487.381 208.439 Q484.071 205.198 476.918 205.198 L471.27 205.198 M466.594 201.356 L476.2 201.356 Q486.246 201.356 490.945 205.546 Q495.645 209.712 495.645 218.601 Q495.645 227.536 490.922 231.726 Q486.2 235.916 476.2 235.916 L466.594 235.916 L466.594 201.356 Z" fill="#000000" fill-rule="nonzero" fill-opacity="1" /><path clip-path="url(#clip160)" d="M514.695 222.883 Q509.533 222.883 507.543 224.064 Q505.552 225.244 505.552 228.092 Q505.552 230.36 507.033 231.703 Q508.538 233.022 511.107 233.022 Q514.649 233.022 516.779 230.522 Q518.931 227.999 518.931 223.832 L518.931 222.883 L514.695 222.883 M523.191 221.124 L523.191 235.916 L518.931 235.916 L518.931 231.981 Q517.473 234.342 515.297 235.476 Q513.121 236.587 509.973 236.587 Q505.992 236.587 503.631 234.365 Q501.293 232.119 501.293 228.369 Q501.293 223.994 504.209 221.772 Q507.149 219.55 512.959 219.55 L518.931 219.55 L518.931 219.133 Q518.931 216.194 516.987 214.596 Q515.066 212.976 511.57 212.976 Q509.348 212.976 507.242 213.508 Q505.135 214.041 503.191 215.106 L503.191 211.17 Q505.529 210.268 507.728 209.828 Q509.927 209.365 512.01 209.365 Q517.635 209.365 520.413 212.282 Q523.191 215.198 523.191 221.124 Z" fill="#000000" fill-rule="nonzero" fill-opacity="1" /><path clip-path="url(#clip160)" d="M536.177 202.629 L536.177 209.99 L544.95 209.99 L544.95 213.3 L536.177 213.3 L536.177 227.374 Q536.177 230.545 537.033 231.448 Q537.913 232.351 540.575 232.351 L544.95 232.351 L544.95 235.916 L540.575 235.916 Q535.644 235.916 533.769 234.087 Q531.894 232.235 531.894 227.374 L531.894 213.3 L528.769 213.3 L528.769 209.99 L531.894 209.99 L531.894 202.629 L536.177 202.629 Z" fill="#000000" fill-rule="nonzero" fill-opacity="1" /><path clip-path="url(#clip160)" d="M562.334 222.883 Q557.172 222.883 555.181 224.064 Q553.191 225.244 553.191 228.092 Q553.191 230.36 554.672 231.703 Q556.177 233.022 558.746 233.022 Q562.288 233.022 564.417 230.522 Q566.57 227.999 566.57 223.832 L566.57 222.883 L562.334 222.883 M570.829 221.124 L570.829 235.916 L566.57 235.916 L566.57 231.981 Q565.112 234.342 562.936 235.476 Q560.76 236.587 557.612 236.587 Q553.63 236.587 551.269 234.365 Q548.931 232.119 548.931 228.369 Q548.931 223.994 551.848 221.772 Q554.788 219.55 560.598 219.55 L566.57 219.55 L566.57 219.133 Q566.57 216.194 564.626 214.596 Q562.704 212.976 559.209 212.976 Q556.987 212.976 554.88 213.508 Q552.774 214.041 550.829 215.106 L550.829 211.17 Q553.167 210.268 555.366 209.828 Q557.565 209.365 559.649 209.365 Q565.274 209.365 568.052 212.282 Q570.829 215.198 570.829 221.124 Z" fill="#000000" fill-rule="nonzero" fill-opacity="1" /><path clip-path="url(#clip160)" d="M599.533 205.198 L599.533 218.184 L605.412 218.184 Q608.676 218.184 610.459 216.495 Q612.241 214.805 612.241 211.68 Q612.241 208.578 610.459 206.888 Q608.676 205.198 605.412 205.198 L599.533 205.198 M594.857 201.356 L605.412 201.356 Q611.223 201.356 614.186 203.995 Q617.172 206.61 617.172 211.68 Q617.172 216.795 614.186 219.411 Q611.223 222.027 605.412 222.027 L599.533 222.027 L599.533 235.916 L594.857 235.916 L594.857 201.356 Z" fill="#000000" fill-rule="nonzero" fill-opacity="1" /><path clip-path="url(#clip160)" d="M631.616 212.976 Q628.19 212.976 626.199 215.661 Q624.209 218.323 624.209 222.976 Q624.209 227.629 626.176 230.314 Q628.167 232.976 631.616 232.976 Q635.019 232.976 637.01 230.291 Q639 227.606 639 222.976 Q639 218.37 637.01 215.684 Q635.019 212.976 631.616 212.976 M631.616 209.365 Q637.172 209.365 640.343 212.976 Q643.514 216.587 643.514 222.976 Q643.514 229.342 640.343 232.976 Q637.172 236.587 631.616 236.587 Q626.037 236.587 622.866 232.976 Q619.718 229.342 619.718 222.976 Q619.718 216.587 622.866 212.976 Q626.037 209.365 631.616 209.365 Z" fill="#000000" fill-rule="nonzero" fill-opacity="1" /><path clip-path="url(#clip160)" d="M650.574 209.99 L654.833 209.99 L654.833 235.916 L650.574 235.916 L650.574 209.99 M650.574 199.897 L654.833 199.897 L654.833 205.291 L650.574 205.291 L650.574 199.897 Z" fill="#000000" fill-rule="nonzero" fill-opacity="1" /><path clip-path="url(#clip160)" d="M685.296 220.268 L685.296 235.916 L681.037 235.916 L681.037 220.407 Q681.037 216.726 679.602 214.897 Q678.167 213.069 675.296 213.069 Q671.847 213.069 669.857 215.268 Q667.866 217.467 667.866 221.263 L667.866 235.916 L663.583 235.916 L663.583 209.99 L667.866 209.99 L667.866 214.018 Q669.394 211.68 671.454 210.522 Q673.537 209.365 676.245 209.365 Q680.713 209.365 683.005 212.143 Q685.296 214.897 685.296 220.268 Z" fill="#000000" fill-rule="nonzero" fill-opacity="1" /><path clip-path="url(#clip160)" d="M698.005 202.629 L698.005 209.99 L706.778 209.99 L706.778 213.3 L698.005 213.3 L698.005 227.374 Q698.005 230.545 698.861 231.448 Q699.741 232.351 702.403 232.351 L706.778 232.351 L706.778 235.916 L702.403 235.916 Q697.472 235.916 695.597 234.087 Q693.722 232.235 693.722 227.374 L693.722 213.3 L690.597 213.3 L690.597 209.99 L693.722 209.99 L693.722 202.629 L698.005 202.629 Z" fill="#000000" fill-rule="nonzero" fill-opacity="1" /><path clip-path="url(#clip160)" d="M728.907 210.754 L728.907 214.782 Q727.102 213.856 725.157 213.393 Q723.213 212.93 721.129 212.93 Q717.958 212.93 716.361 213.902 Q714.787 214.874 714.787 216.819 Q714.787 218.3 715.921 219.157 Q717.055 219.99 720.481 220.754 L721.94 221.078 Q726.477 222.05 728.375 223.832 Q730.296 225.592 730.296 228.763 Q730.296 232.374 727.426 234.481 Q724.578 236.587 719.579 236.587 Q717.495 236.587 715.227 236.17 Q712.981 235.777 710.481 234.967 L710.481 230.569 Q712.842 231.795 715.134 232.42 Q717.426 233.022 719.671 233.022 Q722.68 233.022 724.301 232.004 Q725.921 230.962 725.921 229.087 Q725.921 227.351 724.741 226.425 Q723.583 225.499 719.625 224.643 L718.143 224.295 Q714.185 223.462 712.426 221.749 Q710.667 220.013 710.667 217.004 Q710.667 213.346 713.259 211.356 Q715.852 209.365 720.62 209.365 Q722.981 209.365 725.065 209.712 Q727.148 210.059 728.907 210.754 Z" fill="#000000" fill-rule="nonzero" fill-opacity="1" /><polyline clip-path="url(#clip160)" style="stroke:#ff0000; stroke-linecap:round; stroke-linejoin:round; stroke-width:8; stroke-opacity:1; fill:none" points="299.465,270.476 442.718,270.476 "/>
<path clip-path="url(#clip160)" d="M466.594 253.196 L471.27 253.196 L471.27 283.821 L488.098 283.821 L488.098 287.756 L466.594 287.756 L466.594 253.196 Z" fill="#000000" fill-rule="nonzero" fill-opacity="1" /><path clip-path="url(#clip160)" d="M514.163 273.728 L514.163 275.811 L494.58 275.811 Q494.857 280.209 497.219 282.524 Q499.603 284.816 503.839 284.816 Q506.293 284.816 508.584 284.214 Q510.899 283.612 513.168 282.409 L513.168 286.436 Q510.876 287.408 508.469 287.918 Q506.061 288.427 503.584 288.427 Q497.381 288.427 493.746 284.816 Q490.135 281.205 490.135 275.047 Q490.135 268.682 493.561 264.955 Q497.01 261.205 502.844 261.205 Q508.075 261.205 511.107 264.585 Q514.163 267.941 514.163 273.728 M509.904 272.478 Q509.857 268.983 507.936 266.899 Q506.038 264.816 502.89 264.816 Q499.325 264.816 497.172 266.83 Q495.043 268.844 494.719 272.501 L509.904 272.478 Z" fill="#000000" fill-rule="nonzero" fill-opacity="1" /><path clip-path="url(#clip160)" d="M532.936 274.723 Q527.774 274.723 525.783 275.904 Q523.793 277.084 523.793 279.932 Q523.793 282.2 525.274 283.543 Q526.779 284.862 529.348 284.862 Q532.89 284.862 535.019 282.362 Q537.172 279.839 537.172 275.672 L537.172 274.723 L532.936 274.723 M541.431 272.964 L541.431 287.756 L537.172 287.756 L537.172 283.821 Q535.714 286.182 533.538 287.316 Q531.362 288.427 528.214 288.427 Q524.232 288.427 521.871 286.205 Q519.533 283.959 519.533 280.209 Q519.533 275.834 522.45 273.612 Q525.39 271.39 531.2 271.39 L537.172 271.39 L537.172 270.973 Q537.172 268.034 535.228 266.436 Q533.306 264.816 529.811 264.816 Q527.589 264.816 525.482 265.348 Q523.376 265.881 521.431 266.946 L521.431 263.01 Q523.769 262.108 525.968 261.668 Q528.167 261.205 530.251 261.205 Q535.876 261.205 538.654 264.122 Q541.431 267.038 541.431 272.964 Z" fill="#000000" fill-rule="nonzero" fill-opacity="1" /><path clip-path="url(#clip160)" d="M566.732 262.594 L566.732 266.622 Q564.927 265.696 562.982 265.233 Q561.038 264.77 558.954 264.77 Q555.783 264.77 554.186 265.742 Q552.612 266.714 552.612 268.659 Q552.612 270.14 553.746 270.997 Q554.88 271.83 558.306 272.594 L559.765 272.918 Q564.302 273.89 566.2 275.672 Q568.121 277.432 568.121 280.603 Q568.121 284.214 565.251 286.321 Q562.403 288.427 557.403 288.427 Q555.32 288.427 553.052 288.01 Q550.806 287.617 548.306 286.807 L548.306 282.409 Q550.667 283.635 552.959 284.26 Q555.251 284.862 557.496 284.862 Q560.505 284.862 562.126 283.844 Q563.746 282.802 563.746 280.927 Q563.746 279.191 562.565 278.265 Q561.408 277.339 557.45 276.483 L555.968 276.135 Q552.01 275.302 550.251 273.589 Q548.491 271.853 548.491 268.844 Q548.491 265.186 551.084 263.196 Q553.677 261.205 558.445 261.205 Q560.806 261.205 562.89 261.552 Q564.973 261.899 566.732 262.594 Z" fill="#000000" fill-rule="nonzero" fill-opacity="1" /><path clip-path="url(#clip160)" d="M579.116 254.469 L579.116 261.83 L587.889 261.83 L587.889 265.14 L579.116 265.14 L579.116 279.214 Q579.116 282.385 579.973 283.288 Q580.852 284.191 583.514 284.191 L587.889 284.191 L587.889 287.756 L583.514 287.756 Q578.584 287.756 576.709 285.927 Q574.834 284.075 574.834 279.214 L574.834 265.14 L571.709 265.14 L571.709 261.83 L574.834 261.83 L574.834 254.469 L579.116 254.469 Z" fill="#000000" fill-rule="nonzero" fill-opacity="1" /><path clip-path="url(#clip160)" d="M591.338 272.872 L603.815 272.872 L603.815 276.668 L591.338 276.668 L591.338 272.872 Z" fill="#000000" fill-rule="nonzero" fill-opacity="1" /><path clip-path="url(#clip160)" d="M631.5 254.33 L631.5 258.89 Q628.838 257.617 626.477 256.992 Q624.116 256.367 621.917 256.367 Q618.098 256.367 616.014 257.848 Q613.954 259.33 613.954 262.061 Q613.954 264.353 615.32 265.534 Q616.709 266.691 620.551 267.409 L623.375 267.987 Q628.607 268.983 631.084 271.506 Q633.584 274.006 633.584 278.219 Q633.584 283.242 630.204 285.834 Q626.848 288.427 620.343 288.427 Q617.889 288.427 615.111 287.871 Q612.357 287.316 609.394 286.228 L609.394 281.413 Q612.241 283.01 614.973 283.821 Q617.704 284.631 620.343 284.631 Q624.348 284.631 626.523 283.057 Q628.699 281.483 628.699 278.566 Q628.699 276.02 627.125 274.584 Q625.574 273.149 622.01 272.432 L619.162 271.876 Q613.931 270.835 611.593 268.612 Q609.255 266.39 609.255 262.432 Q609.255 257.848 612.473 255.21 Q615.713 252.571 621.385 252.571 Q623.815 252.571 626.338 253.011 Q628.861 253.45 631.5 254.33 Z" fill="#000000" fill-rule="nonzero" fill-opacity="1" /><path clip-path="url(#clip160)" d="M643.236 274.816 Q643.236 279.515 645.158 282.2 Q647.102 284.862 650.482 284.862 Q653.861 284.862 655.806 282.2 Q657.75 279.515 657.75 274.816 Q657.75 270.117 655.806 267.455 Q653.861 264.77 650.482 264.77 Q647.102 264.77 645.158 267.455 Q643.236 270.117 643.236 274.816 M657.75 283.867 Q656.408 286.182 654.347 287.316 Q652.31 288.427 649.44 288.427 Q644.741 288.427 641.778 284.677 Q638.838 280.927 638.838 274.816 Q638.838 268.705 641.778 264.955 Q644.741 261.205 649.44 261.205 Q652.31 261.205 654.347 262.339 Q656.408 263.45 657.75 265.765 L657.75 261.83 L662.009 261.83 L662.009 297.617 L657.75 297.617 L657.75 283.867 Z" fill="#000000" fill-rule="nonzero" fill-opacity="1" /><path clip-path="url(#clip160)" d="M670.343 277.524 L670.343 261.83 L674.602 261.83 L674.602 277.362 Q674.602 281.043 676.037 282.895 Q677.472 284.723 680.343 284.723 Q683.792 284.723 685.782 282.524 Q687.796 280.325 687.796 276.529 L687.796 261.83 L692.056 261.83 L692.056 287.756 L687.796 287.756 L687.796 283.774 Q686.245 286.135 684.185 287.293 Q682.148 288.427 679.44 288.427 Q674.972 288.427 672.657 285.649 Q670.343 282.871 670.343 277.524 M681.06 261.205 L681.06 261.205 Z" fill="#000000" fill-rule="nonzero" fill-opacity="1" /><path clip-path="url(#clip160)" d="M712.611 274.723 Q707.449 274.723 705.458 275.904 Q703.467 277.084 703.467 279.932 Q703.467 282.2 704.949 283.543 Q706.454 284.862 709.023 284.862 Q712.565 284.862 714.694 282.362 Q716.847 279.839 716.847 275.672 L716.847 274.723 L712.611 274.723 M721.106 272.964 L721.106 287.756 L716.847 287.756 L716.847 283.821 Q715.389 286.182 713.213 287.316 Q711.037 288.427 707.889 288.427 Q703.907 288.427 701.546 286.205 Q699.208 283.959 699.208 280.209 Q699.208 275.834 702.125 273.612 Q705.065 271.39 710.875 271.39 L716.847 271.39 L716.847 270.973 Q716.847 268.034 714.903 266.436 Q712.981 264.816 709.486 264.816 Q707.264 264.816 705.157 265.348 Q703.051 265.881 701.106 266.946 L701.106 263.01 Q703.444 262.108 705.643 261.668 Q707.842 261.205 709.926 261.205 Q715.551 261.205 718.329 264.122 Q721.106 267.038 721.106 272.964 Z" fill="#000000" fill-rule="nonzero" fill-opacity="1" /><path clip-path="url(#clip160)" d="M744.902 265.811 Q744.185 265.395 743.328 265.21 Q742.495 265.001 741.477 265.001 Q737.865 265.001 735.921 267.362 Q734 269.7 734 274.098 L734 287.756 L729.717 287.756 L729.717 261.83 L734 261.83 L734 265.858 Q735.342 263.497 737.495 262.362 Q739.648 261.205 742.727 261.205 Q743.166 261.205 743.699 261.274 Q744.231 261.321 744.879 261.436 L744.902 265.811 Z" fill="#000000" fill-rule="nonzero" fill-opacity="1" /><path clip-path="url(#clip160)" d="M770.504 273.728 L770.504 275.811 L750.921 275.811 Q751.199 280.209 753.56 282.524 Q755.944 284.816 760.18 284.816 Q762.634 284.816 764.925 284.214 Q767.24 283.612 769.509 282.409 L769.509 286.436 Q767.217 287.408 764.81 287.918 Q762.402 288.427 759.926 288.427 Q753.722 288.427 750.088 284.816 Q746.477 281.205 746.477 275.047 Q746.477 268.682 749.902 264.955 Q753.351 261.205 759.185 261.205 Q764.416 261.205 767.449 264.585 Q770.504 267.941 770.504 273.728 M766.245 272.478 Q766.199 268.983 764.277 266.899 Q762.379 264.816 759.231 264.816 Q755.666 264.816 753.514 266.83 Q751.384 268.844 751.06 272.501 L766.245 272.478 Z" fill="#000000" fill-rule="nonzero" fill-opacity="1" /><path clip-path="url(#clip160)" d="M794.023 262.594 L794.023 266.622 Q792.217 265.696 790.273 265.233 Q788.328 264.77 786.245 264.77 Q783.074 264.77 781.476 265.742 Q779.902 266.714 779.902 268.659 Q779.902 270.14 781.037 270.997 Q782.171 271.83 785.597 272.594 L787.055 272.918 Q791.592 273.89 793.49 275.672 Q795.411 277.432 795.411 280.603 Q795.411 284.214 792.541 286.321 Q789.694 288.427 784.694 288.427 Q782.611 288.427 780.342 288.01 Q778.097 287.617 775.597 286.807 L775.597 282.409 Q777.958 283.635 780.249 284.26 Q782.541 284.862 784.786 284.862 Q787.796 284.862 789.416 283.844 Q791.036 282.802 791.036 280.927 Q791.036 279.191 789.856 278.265 Q788.699 277.339 784.74 276.483 L783.259 276.135 Q779.3 275.302 777.541 273.589 Q775.782 271.853 775.782 268.844 Q775.782 265.186 778.374 263.196 Q780.967 261.205 785.736 261.205 Q788.097 261.205 790.18 261.552 Q792.263 261.899 794.023 262.594 Z" fill="#000000" fill-rule="nonzero" fill-opacity="1" /><path clip-path="url(#clip160)" d="M817.448 253.196 L837.309 253.196 L837.309 257.131 L822.124 257.131 L822.124 267.316 L835.828 267.316 L835.828 271.251 L822.124 271.251 L822.124 287.756 L817.448 287.756 L817.448 253.196 Z" fill="#000000" fill-rule="nonzero" fill-opacity="1" /><path clip-path="url(#clip160)" d="M841.082 261.83 L845.342 261.83 L845.342 287.756 L841.082 287.756 L841.082 261.83 M841.082 251.737 L845.342 251.737 L845.342 257.131 L841.082 257.131 L841.082 251.737 Z" fill="#000000" fill-rule="nonzero" fill-opacity="1" /><path clip-path="url(#clip160)" d="M858.467 254.469 L858.467 261.83 L867.24 261.83 L867.24 265.14 L858.467 265.14 L858.467 279.214 Q858.467 282.385 859.323 283.288 Q860.203 284.191 862.865 284.191 L867.24 284.191 L867.24 287.756 L862.865 287.756 Q857.934 287.756 856.059 285.927 Q854.184 284.075 854.184 279.214 L854.184 265.14 L851.059 265.14 L851.059 261.83 L854.184 261.83 L854.184 254.469 L858.467 254.469 Z" fill="#000000" fill-rule="nonzero" fill-opacity="1" /></svg>