<?xml version="1.0" encoding="utf-8"?>
<svg xmlns="http://www.w3.org/2000/svg" xmlns:xlink="http://www.w3.org/1999/xlink" width="600" height="400" viewBox="0 0 2400 1600">
<defs>
  <clipPath id="clip750">
    <rect x="0" y="0" width="2400" height="1600"/>
  </clipPath>
</defs>
<path clip-path="url(#clip750)" d="M0 1600 L2400 1600 L2400 0 L0 0  Z" fill="#ffffff" fill-rule="evenodd" fill-opacity="1"/>
<defs>
  <clipPath id="clip751">
    <rect x="480" y="0" width="1681" height="1600"/>
  </clipPath>
</defs>
<path clip-path="url(#clip750)" d="M255.607 1423.18 L2352.76 1423.18 L2352.76 123.472 L255.607 123.472  Z" fill="#ffffff" fill-rule="evenodd" fill-opacity="1"/>
<defs>
  <clipPath id="clip752">
    <rect x="255" y="123" width="2098" height="1301"/>
  </clipPath>
</defs>
<polyline clip-path="url(#clip750)" style="stroke:#000000; stroke-linecap:round; stroke-linejoin:round; stroke-width:4; stroke-opacity:1; fill:none" points="255.607,1423.18 2352.76,1423.18 "/>
<polyline clip-path="url(#clip750)" style="stroke:#000000; stroke-linecap:round; stroke-linejoin:round; stroke-width:4; stroke-opacity:1; fill:none" points="307.943,1423.18 307.943,1404.28 "/>
<polyline clip-path="url(#clip750)" style="stroke:#000000; stroke-linecap:round; stroke-linejoin:round; stroke-width:4; stroke-opacity:1; fill:none" points="691.112,1423.18 691.112,1404.28 "/>
<polyline clip-path="url(#clip750)" style="stroke:#000000; stroke-linecap:round; stroke-linejoin:round; stroke-width:4; stroke-opacity:1; fill:none" points="1074.28,1423.18 1074.28,1404.28 "/>
<polyline clip-path="url(#clip750)" style="stroke:#000000; stroke-linecap:round; stroke-linejoin:round; stroke-width:4; stroke-opacity:1; fill:none" points="1457.45,1423.18 1457.45,1404.28 "/>
<polyline clip-path="url(#clip750)" style="stroke:#000000; stroke-linecap:round; stroke-linejoin:round; stroke-width:4; stroke-opacity:1; fill:none" points="1840.62,1423.18 1840.62,1404.28 "/>
<polyline clip-path="url(#clip750)" style="stroke:#000000; stroke-linecap:round; stroke-linejoin:round; stroke-width:4; stroke-opacity:1; fill:none" points="2223.79,1423.18 2223.79,1404.28 "/>
<path clip-path="url(#clip750)" d="M254.471 1468.75 L284.147 1468.75 L284.147 1472.69 L254.471 1472.69 L254.471 1468.75 Z" fill="#000000" fill-rule="nonzero" fill-opacity="1" /><path clip-path="url(#clip750)" d="M295.05 1481.64 L302.689 1481.64 L302.689 1455.28 L294.378 1456.95 L294.378 1452.69 L302.642 1451.02 L307.318 1451.02 L307.318 1481.64 L314.957 1481.64 L314.957 1485.58 L295.05 1485.58 L295.05 1481.64 Z" fill="#000000" fill-rule="nonzero" fill-opacity="1" /><path clip-path="url(#clip750)" d="M324.401 1479.7 L329.286 1479.7 L329.286 1485.58 L324.401 1485.58 L324.401 1479.7 Z" fill="#000000" fill-rule="nonzero" fill-opacity="1" /><path clip-path="url(#clip750)" d="M349.471 1454.1 Q345.86 1454.1 344.031 1457.66 Q342.225 1461.2 342.225 1468.33 Q342.225 1475.44 344.031 1479.01 Q345.86 1482.55 349.471 1482.55 Q353.105 1482.55 354.91 1479.01 Q356.739 1475.44 356.739 1468.33 Q356.739 1461.2 354.91 1457.66 Q353.105 1454.1 349.471 1454.1 M349.471 1450.39 Q355.281 1450.39 358.336 1455 Q361.415 1459.58 361.415 1468.33 Q361.415 1477.06 358.336 1481.67 Q355.281 1486.25 349.471 1486.25 Q343.661 1486.25 340.582 1481.67 Q337.526 1477.06 337.526 1468.33 Q337.526 1459.58 340.582 1455 Q343.661 1450.39 349.471 1450.39 Z" fill="#000000" fill-rule="nonzero" fill-opacity="1" /><path clip-path="url(#clip750)" d="M638.137 1468.75 L667.813 1468.75 L667.813 1472.69 L638.137 1472.69 L638.137 1468.75 Z" fill="#000000" fill-rule="nonzero" fill-opacity="1" /><path clip-path="url(#clip750)" d="M687.906 1454.1 Q684.295 1454.1 682.466 1457.66 Q680.66 1461.2 680.66 1468.33 Q680.66 1475.44 682.466 1479.01 Q684.295 1482.55 687.906 1482.55 Q691.54 1482.55 693.345 1479.01 Q695.174 1475.44 695.174 1468.33 Q695.174 1461.2 693.345 1457.66 Q691.54 1454.1 687.906 1454.1 M687.906 1450.39 Q693.716 1450.39 696.771 1455 Q699.85 1459.58 699.85 1468.33 Q699.85 1477.06 696.771 1481.67 Q693.716 1486.25 687.906 1486.25 Q682.096 1486.25 679.017 1481.67 Q675.961 1477.06 675.961 1468.33 Q675.961 1459.58 679.017 1455 Q682.096 1450.39 687.906 1450.39 Z" fill="#000000" fill-rule="nonzero" fill-opacity="1" /><path clip-path="url(#clip750)" d="M708.068 1479.7 L712.952 1479.7 L712.952 1485.58 L708.068 1485.58 L708.068 1479.7 Z" fill="#000000" fill-rule="nonzero" fill-opacity="1" /><path clip-path="url(#clip750)" d="M723.183 1451.02 L741.54 1451.02 L741.54 1454.96 L727.466 1454.96 L727.466 1463.43 Q728.484 1463.08 729.503 1462.92 Q730.521 1462.73 731.54 1462.73 Q737.327 1462.73 740.706 1465.9 Q744.086 1469.08 744.086 1474.49 Q744.086 1480.07 740.614 1483.17 Q737.142 1486.25 730.822 1486.25 Q728.646 1486.25 726.378 1485.88 Q724.132 1485.51 721.725 1484.77 L721.725 1480.07 Q723.808 1481.2 726.03 1481.76 Q728.253 1482.32 730.73 1482.32 Q734.734 1482.32 737.072 1480.21 Q739.41 1478.1 739.41 1474.49 Q739.41 1470.88 737.072 1468.77 Q734.734 1466.67 730.73 1466.67 Q728.855 1466.67 726.98 1467.08 Q725.128 1467.5 723.183 1468.38 L723.183 1451.02 Z" fill="#000000" fill-rule="nonzero" fill-opacity="1" /><path clip-path="url(#clip750)" d="M1051.66 1454.1 Q1048.05 1454.1 1046.22 1457.66 Q1044.42 1461.2 1044.42 1468.33 Q1044.42 1475.44 1046.22 1479.01 Q1048.05 1482.55 1051.66 1482.55 Q1055.3 1482.55 1057.1 1479.01 Q1058.93 1475.44 1058.93 1468.33 Q1058.93 1461.2 1057.1 1457.66 Q1055.3 1454.1 1051.66 1454.1 M1051.66 1450.39 Q1057.47 1450.39 1060.53 1455 Q1063.61 1459.58 1063.61 1468.33 Q1063.61 1477.06 1060.53 1481.67 Q1057.47 1486.25 1051.66 1486.25 Q1045.85 1486.25 1042.78 1481.67 Q1039.72 1477.06 1039.72 1468.33 Q1039.72 1459.58 1042.78 1455 Q1045.85 1450.39 1051.66 1450.39 Z" fill="#000000" fill-rule="nonzero" fill-opacity="1" /><path clip-path="url(#clip750)" d="M1071.83 1479.7 L1076.71 1479.7 L1076.71 1485.58 L1071.83 1485.58 L1071.83 1479.7 Z" fill="#000000" fill-rule="nonzero" fill-opacity="1" /><path clip-path="url(#clip750)" d="M1096.9 1454.1 Q1093.28 1454.1 1091.46 1457.66 Q1089.65 1461.2 1089.65 1468.33 Q1089.65 1475.44 1091.46 1479.01 Q1093.28 1482.55 1096.9 1482.55 Q1100.53 1482.55 1102.34 1479.01 Q1104.16 1475.44 1104.16 1468.33 Q1104.16 1461.2 1102.34 1457.66 Q1100.53 1454.1 1096.9 1454.1 M1096.9 1450.39 Q1102.71 1450.39 1105.76 1455 Q1108.84 1459.58 1108.84 1468.33 Q1108.84 1477.06 1105.76 1481.67 Q1102.71 1486.25 1096.9 1486.25 Q1091.09 1486.25 1088.01 1481.67 Q1084.95 1477.06 1084.95 1468.33 Q1084.95 1459.58 1088.01 1455 Q1091.09 1450.39 1096.9 1450.39 Z" fill="#000000" fill-rule="nonzero" fill-opacity="1" /><path clip-path="url(#clip750)" d="M1435.33 1454.1 Q1431.72 1454.1 1429.89 1457.66 Q1428.09 1461.2 1428.09 1468.33 Q1428.09 1475.44 1429.89 1479.01 Q1431.72 1482.55 1435.33 1482.55 Q1438.97 1482.55 1440.77 1479.01 Q1442.6 1475.44 1442.6 1468.33 Q1442.6 1461.2 1440.77 1457.66 Q1438.97 1454.1 1435.33 1454.1 M1435.33 1450.39 Q1441.14 1450.39 1444.2 1455 Q1447.28 1459.58 1447.28 1468.33 Q1447.28 1477.06 1444.2 1481.67 Q1441.14 1486.25 1435.33 1486.25 Q1429.52 1486.25 1426.44 1481.67 Q1423.39 1477.06 1423.39 1468.33 Q1423.39 1459.58 1426.44 1455 Q1429.52 1450.39 1435.33 1450.39 Z" fill="#000000" fill-rule="nonzero" fill-opacity="1" /><path clip-path="url(#clip750)" d="M1455.49 1479.7 L1460.38 1479.7 L1460.38 1485.58 L1455.49 1485.58 L1455.49 1479.7 Z" fill="#000000" fill-rule="nonzero" fill-opacity="1" /><path clip-path="url(#clip750)" d="M1470.61 1451.02 L1488.96 1451.02 L1488.96 1454.96 L1474.89 1454.96 L1474.89 1463.43 Q1475.91 1463.08 1476.93 1462.92 Q1477.95 1462.73 1478.96 1462.73 Q1484.75 1462.73 1488.13 1465.9 Q1491.51 1469.08 1491.51 1474.49 Q1491.51 1480.07 1488.04 1483.17 Q1484.57 1486.25 1478.25 1486.25 Q1476.07 1486.25 1473.8 1485.88 Q1471.56 1485.51 1469.15 1484.77 L1469.15 1480.07 Q1471.23 1481.2 1473.46 1481.76 Q1475.68 1482.32 1478.15 1482.32 Q1482.16 1482.32 1484.5 1480.21 Q1486.84 1478.1 1486.84 1474.49 Q1486.84 1470.88 1484.5 1468.77 Q1482.16 1466.67 1478.15 1466.67 Q1476.28 1466.67 1474.4 1467.08 Q1472.55 1467.5 1470.61 1468.38 L1470.61 1451.02 Z" fill="#000000" fill-rule="nonzero" fill-opacity="1" /><path clip-path="url(#clip750)" d="M1807.77 1481.64 L1815.41 1481.64 L1815.41 1455.28 L1807.1 1456.95 L1807.1 1452.69 L1815.36 1451.02 L1820.04 1451.02 L1820.04 1481.64 L1827.68 1481.64 L1827.68 1485.58 L1807.77 1485.58 L1807.77 1481.64 Z" fill="#000000" fill-rule="nonzero" fill-opacity="1" /><path clip-path="url(#clip750)" d="M1837.12 1479.7 L1842.01 1479.7 L1842.01 1485.58 L1837.12 1485.58 L1837.12 1479.7 Z" fill="#000000" fill-rule="nonzero" fill-opacity="1" /><path clip-path="url(#clip750)" d="M1862.19 1454.1 Q1858.58 1454.1 1856.75 1457.66 Q1854.95 1461.2 1854.95 1468.33 Q1854.95 1475.44 1856.75 1479.01 Q1858.58 1482.55 1862.19 1482.55 Q1865.83 1482.55 1867.63 1479.01 Q1869.46 1475.44 1869.46 1468.33 Q1869.46 1461.2 1867.63 1457.66 Q1865.83 1454.1 1862.19 1454.1 M1862.19 1450.39 Q1868 1450.39 1871.06 1455 Q1874.14 1459.58 1874.14 1468.33 Q1874.14 1477.06 1871.06 1481.67 Q1868 1486.25 1862.19 1486.25 Q1856.38 1486.25 1853.3 1481.67 Q1850.25 1477.06 1850.25 1468.33 Q1850.25 1459.58 1853.3 1455 Q1856.38 1450.39 1862.19 1450.39 Z" fill="#000000" fill-rule="nonzero" fill-opacity="1" /><path clip-path="url(#clip750)" d="M2191.44 1481.64 L2199.08 1481.64 L2199.08 1455.28 L2190.77 1456.95 L2190.77 1452.69 L2199.03 1451.02 L2203.7 1451.02 L2203.7 1481.64 L2211.34 1481.64 L2211.34 1485.58 L2191.44 1485.58 L2191.44 1481.64 Z" fill="#000000" fill-rule="nonzero" fill-opacity="1" /><path clip-path="url(#clip750)" d="M2220.79 1479.7 L2225.67 1479.7 L2225.67 1485.58 L2220.79 1485.58 L2220.79 1479.7 Z" fill="#000000" fill-rule="nonzero" fill-opacity="1" /><path clip-path="url(#clip750)" d="M2235.9 1451.02 L2254.26 1451.02 L2254.26 1454.96 L2240.19 1454.96 L2240.19 1463.43 Q2241.2 1463.08 2242.22 1462.92 Q2243.24 1462.73 2244.26 1462.73 Q2250.05 1462.73 2253.43 1465.9 Q2256.81 1469.08 2256.81 1474.49 Q2256.81 1480.07 2253.33 1483.17 Q2249.86 1486.25 2243.54 1486.25 Q2241.37 1486.25 2239.1 1485.88 Q2236.85 1485.51 2234.45 1484.77 L2234.45 1480.07 Q2236.53 1481.2 2238.75 1481.76 Q2240.97 1482.32 2243.45 1482.32 Q2247.45 1482.32 2249.79 1480.21 Q2252.13 1478.1 2252.13 1474.49 Q2252.13 1470.88 2249.79 1468.77 Q2247.45 1466.67 2243.45 1466.67 Q2241.58 1466.67 2239.7 1467.08 Q2237.85 1467.5 2235.9 1468.38 L2235.9 1451.02 Z" fill="#000000" fill-rule="nonzero" fill-opacity="1" /><path clip-path="url(#clip750)" d="M1097.92 1520.52 L1104.82 1520.52 L1116.63 1538.19 L1128.5 1520.52 L1135.41 1520.52 L1120.13 1543.34 L1136.43 1568.04 L1129.52 1568.04 L1116.15 1547.83 L1102.69 1568.04 L1095.75 1568.04 L1112.72 1542.68 L1097.92 1520.52 Z" fill="#000000" fill-rule="nonzero" fill-opacity="1" /><path clip-path="url(#clip750)" d="M1138.4 1547.58 L1155.56 1547.58 L1155.56 1552.8 L1138.4 1552.8 L1138.4 1547.58 Z" fill="#000000" fill-rule="nonzero" fill-opacity="1" /><path clip-path="url(#clip750)" d="M1200.72 1524.18 L1200.72 1530.96 Q1197.48 1527.94 1193.78 1526.44 Q1190.12 1524.95 1185.99 1524.95 Q1177.84 1524.95 1173.51 1529.95 Q1169.18 1534.91 1169.18 1544.33 Q1169.18 1553.72 1173.51 1558.72 Q1177.84 1563.68 1185.99 1563.68 Q1190.12 1563.68 1193.78 1562.19 Q1197.48 1560.69 1200.72 1557.67 L1200.72 1564.38 Q1197.35 1566.68 1193.56 1567.82 Q1189.81 1568.97 1185.6 1568.97 Q1174.81 1568.97 1168.61 1562.38 Q1162.4 1555.76 1162.4 1544.33 Q1162.4 1532.87 1168.61 1526.28 Q1174.81 1519.66 1185.6 1519.66 Q1189.87 1519.66 1193.62 1520.81 Q1197.41 1521.92 1200.72 1524.18 Z" fill="#000000" fill-rule="nonzero" fill-opacity="1" /><path clip-path="url(#clip750)" d="M1224.21 1536.5 Q1219.5 1536.5 1216.76 1540.19 Q1214.03 1543.85 1214.03 1550.25 Q1214.03 1556.65 1216.73 1560.34 Q1219.47 1564 1224.21 1564 Q1228.89 1564 1231.63 1560.31 Q1234.37 1556.62 1234.37 1550.25 Q1234.37 1543.92 1231.63 1540.23 Q1228.89 1536.5 1224.21 1536.5 M1224.21 1531.54 Q1231.85 1531.54 1236.21 1536.5 Q1240.57 1541.47 1240.57 1550.25 Q1240.57 1559 1236.21 1564 Q1231.85 1568.97 1224.21 1568.97 Q1216.54 1568.97 1212.18 1564 Q1207.85 1559 1207.85 1550.25 Q1207.85 1541.47 1212.18 1536.5 Q1216.54 1531.54 1224.21 1531.54 Z" fill="#000000" fill-rule="nonzero" fill-opacity="1" /><path clip-path="url(#clip750)" d="M1264.09 1536.5 Q1259.38 1536.5 1256.65 1540.19 Q1253.91 1543.85 1253.91 1550.25 Q1253.91 1556.65 1256.61 1560.34 Q1259.35 1564 1264.09 1564 Q1268.77 1564 1271.51 1560.31 Q1274.25 1556.62 1274.25 1550.25 Q1274.25 1543.92 1271.51 1540.23 Q1268.77 1536.5 1264.09 1536.5 M1264.09 1531.54 Q1271.73 1531.54 1276.09 1536.5 Q1280.45 1541.47 1280.45 1550.25 Q1280.45 1559 1276.09 1564 Q1271.73 1568.97 1264.09 1568.97 Q1256.42 1568.97 1252.06 1564 Q1247.73 1559 1247.73 1550.25 Q1247.73 1541.47 1252.06 1536.5 Q1256.42 1531.54 1264.09 1531.54 Z" fill="#000000" fill-rule="nonzero" fill-opacity="1" /><path clip-path="url(#clip750)" d="M1310.82 1537.87 Q1309.83 1537.3 1308.65 1537.04 Q1307.51 1536.76 1306.11 1536.76 Q1301.14 1536.76 1298.47 1540 Q1295.83 1543.22 1295.83 1549.27 L1295.83 1568.04 L1289.94 1568.04 L1289.94 1532.4 L1295.83 1532.4 L1295.83 1537.93 Q1297.67 1534.69 1300.63 1533.13 Q1303.59 1531.54 1307.83 1531.54 Q1308.43 1531.54 1309.16 1531.63 Q1309.89 1531.7 1310.79 1531.85 L1310.82 1537.87 Z" fill="#000000" fill-rule="nonzero" fill-opacity="1" /><path clip-path="url(#clip750)" d="M1339.27 1537.81 L1339.27 1518.52 L1345.13 1518.52 L1345.13 1568.04 L1339.27 1568.04 L1339.27 1562.7 Q1337.43 1565.88 1334.59 1567.44 Q1331.79 1568.97 1327.85 1568.97 Q1321.38 1568.97 1317.31 1563.81 Q1313.27 1558.65 1313.27 1550.25 Q1313.27 1541.85 1317.31 1536.69 Q1321.38 1531.54 1327.85 1531.54 Q1331.79 1531.54 1334.59 1533.1 Q1337.43 1534.62 1339.27 1537.81 M1319.32 1550.25 Q1319.32 1556.71 1321.96 1560.4 Q1324.63 1564.07 1329.28 1564.07 Q1333.93 1564.07 1336.6 1560.4 Q1339.27 1556.71 1339.27 1550.25 Q1339.27 1543.79 1336.6 1540.13 Q1333.93 1536.44 1329.28 1536.44 Q1324.63 1536.44 1321.96 1540.13 Q1319.32 1543.79 1319.32 1550.25 Z" fill="#000000" fill-rule="nonzero" fill-opacity="1" /><path clip-path="url(#clip750)" d="M1357.19 1532.4 L1363.05 1532.4 L1363.05 1568.04 L1357.19 1568.04 L1357.19 1532.4 M1357.19 1518.52 L1363.05 1518.52 L1363.05 1525.93 L1357.19 1525.93 L1357.19 1518.52 Z" fill="#000000" fill-rule="nonzero" fill-opacity="1" /><path clip-path="url(#clip750)" d="M1404.93 1546.53 L1404.93 1568.04 L1399.08 1568.04 L1399.08 1546.72 Q1399.08 1541.66 1397.1 1539.14 Q1395.13 1536.63 1391.18 1536.63 Q1386.44 1536.63 1383.7 1539.65 Q1380.97 1542.68 1380.97 1547.9 L1380.97 1568.04 L1375.08 1568.04 L1375.08 1532.4 L1380.97 1532.4 L1380.97 1537.93 Q1383.07 1534.72 1385.9 1533.13 Q1388.77 1531.54 1392.49 1531.54 Q1398.63 1531.54 1401.78 1535.36 Q1404.93 1539.14 1404.93 1546.53 Z" fill="#000000" fill-rule="nonzero" fill-opacity="1" /><path clip-path="url(#clip750)" d="M1432.82 1550.12 Q1425.72 1550.12 1422.98 1551.75 Q1420.24 1553.37 1420.24 1557.29 Q1420.24 1560.4 1422.28 1562.25 Q1424.35 1564.07 1427.88 1564.07 Q1432.75 1564.07 1435.68 1560.63 Q1438.64 1557.16 1438.64 1551.43 L1438.64 1550.12 L1432.82 1550.12 M1444.5 1547.71 L1444.5 1568.04 L1438.64 1568.04 L1438.64 1562.63 Q1436.64 1565.88 1433.64 1567.44 Q1430.65 1568.97 1426.32 1568.97 Q1420.85 1568.97 1417.6 1565.91 Q1414.39 1562.82 1414.39 1557.67 Q1414.39 1551.65 1418.4 1548.6 Q1422.44 1545.54 1430.43 1545.54 L1438.64 1545.54 L1438.64 1544.97 Q1438.64 1540.93 1435.97 1538.73 Q1433.33 1536.5 1428.52 1536.5 Q1425.46 1536.5 1422.57 1537.23 Q1419.67 1537.97 1417 1539.43 L1417 1534.02 Q1420.21 1532.78 1423.24 1532.17 Q1426.26 1531.54 1429.12 1531.54 Q1436.86 1531.54 1440.68 1535.55 Q1444.5 1539.56 1444.5 1547.71 Z" fill="#000000" fill-rule="nonzero" fill-opacity="1" /><path clip-path="url(#clip750)" d="M1462.35 1522.27 L1462.35 1532.4 L1474.42 1532.4 L1474.42 1536.95 L1462.35 1536.95 L1462.35 1556.3 Q1462.35 1560.66 1463.53 1561.9 Q1464.74 1563.14 1468.4 1563.14 L1474.42 1563.14 L1474.42 1568.04 L1468.4 1568.04 Q1461.62 1568.04 1459.04 1565.53 Q1456.46 1562.98 1456.46 1556.3 L1456.46 1536.95 L1452.17 1536.95 L1452.17 1532.4 L1456.46 1532.4 L1456.46 1522.27 L1462.35 1522.27 Z" fill="#000000" fill-rule="nonzero" fill-opacity="1" /><path clip-path="url(#clip750)" d="M1512.61 1548.76 L1512.61 1551.62 L1485.68 1551.62 Q1486.07 1557.67 1489.31 1560.85 Q1492.59 1564 1498.41 1564 Q1501.79 1564 1504.94 1563.17 Q1508.12 1562.35 1511.24 1560.69 L1511.24 1566.23 Q1508.09 1567.57 1504.78 1568.27 Q1501.47 1568.97 1498.06 1568.97 Q1489.53 1568.97 1484.54 1564 Q1479.57 1559.04 1479.57 1550.57 Q1479.57 1541.82 1484.28 1536.69 Q1489.03 1531.54 1497.05 1531.54 Q1504.24 1531.54 1508.41 1536.18 Q1512.61 1540.8 1512.61 1548.76 M1506.75 1547.04 Q1506.69 1542.23 1504.05 1539.37 Q1501.44 1536.5 1497.11 1536.5 Q1492.21 1536.5 1489.25 1539.27 Q1486.32 1542.04 1485.87 1547.07 L1506.75 1547.04 Z" fill="#000000" fill-rule="nonzero" fill-opacity="1" /><polyline clip-path="url(#clip750)" style="stroke:#000000; stroke-linecap:round; stroke-linejoin:round; stroke-width:4; stroke-opacity:1; fill:none" points="255.607,1423.18 255.607,123.472 "/>
<polyline clip-path="url(#clip750)" style="stroke:#000000; stroke-linecap:round; stroke-linejoin:round; stroke-width:4; stroke-opacity:1; fill:none" points="255.607,1309.76 274.504,1309.76 "/>
<polyline clip-path="url(#clip750)" style="stroke:#000000; stroke-linecap:round; stroke-linejoin:round; stroke-width:4; stroke-opacity:1; fill:none" points="255.607,1156.49 274.504,1156.49 "/>
<polyline clip-path="url(#clip750)" style="stroke:#000000; stroke-linecap:round; stroke-linejoin:round; stroke-width:4; stroke-opacity:1; fill:none" points="255.607,1003.23 274.504,1003.23 "/>
<polyline clip-path="url(#clip750)" style="stroke:#000000; stroke-linecap:round; stroke-linejoin:round; stroke-width:4; stroke-opacity:1; fill:none" points="255.607,849.96 274.504,849.96 "/>
<polyline clip-path="url(#clip750)" style="stroke:#000000; stroke-linecap:round; stroke-linejoin:round; stroke-width:4; stroke-opacity:1; fill:none" points="255.607,696.692 274.504,696.692 "/>
<polyline clip-path="url(#clip750)" style="stroke:#000000; stroke-linecap:round; stroke-linejoin:round; stroke-width:4; stroke-opacity:1; fill:none" points="255.607,543.425 274.504,543.425 "/>
<polyline clip-path="url(#clip750)" style="stroke:#000000; stroke-linecap:round; stroke-linejoin:round; stroke-width:4; stroke-opacity:1; fill:none" points="255.607,390.157 274.504,390.157 "/>
<polyline clip-path="url(#clip750)" style="stroke:#000000; stroke-linecap:round; stroke-linejoin:round; stroke-width:4; stroke-opacity:1; fill:none" points="255.607,236.89 274.504,236.89 "/>
<path clip-path="url(#clip750)" d="M114.26 1310.21 L143.936 1310.21 L143.936 1314.15 L114.26 1314.15 L114.26 1310.21 Z" fill="#000000" fill-rule="nonzero" fill-opacity="1" /><path clip-path="url(#clip750)" d="M164.028 1295.56 Q160.417 1295.56 158.589 1299.13 Q156.783 1302.67 156.783 1309.8 Q156.783 1316.9 158.589 1320.47 Q160.417 1324.01 164.028 1324.01 Q167.663 1324.01 169.468 1320.47 Q171.297 1316.9 171.297 1309.8 Q171.297 1302.67 169.468 1299.13 Q167.663 1295.56 164.028 1295.56 M164.028 1291.86 Q169.839 1291.86 172.894 1296.46 Q175.973 1301.05 175.973 1309.8 Q175.973 1318.52 172.894 1323.13 Q169.839 1327.71 164.028 1327.71 Q158.218 1327.71 155.14 1323.13 Q152.084 1318.52 152.084 1309.8 Q152.084 1301.05 155.14 1296.46 Q158.218 1291.86 164.028 1291.86 Z" fill="#000000" fill-rule="nonzero" fill-opacity="1" /><path clip-path="url(#clip750)" d="M184.19 1321.16 L189.075 1321.16 L189.075 1327.04 L184.19 1327.04 L184.19 1321.16 Z" fill="#000000" fill-rule="nonzero" fill-opacity="1" /><path clip-path="url(#clip750)" d="M203.287 1323.11 L219.607 1323.11 L219.607 1327.04 L197.662 1327.04 L197.662 1323.11 Q200.325 1320.35 204.908 1315.72 Q209.514 1311.07 210.695 1309.73 Q212.94 1307.2 213.82 1305.47 Q214.723 1303.71 214.723 1302.02 Q214.723 1299.26 212.778 1297.53 Q210.857 1295.79 207.755 1295.79 Q205.556 1295.79 203.102 1296.56 Q200.672 1297.32 197.894 1298.87 L197.894 1294.15 Q200.718 1293.01 203.172 1292.44 Q205.625 1291.86 207.662 1291.86 Q213.033 1291.86 216.227 1294.54 Q219.422 1297.23 219.422 1301.72 Q219.422 1303.85 218.611 1305.77 Q217.824 1307.67 215.718 1310.26 Q215.139 1310.93 212.037 1314.15 Q208.936 1317.34 203.287 1323.11 Z" fill="#000000" fill-rule="nonzero" fill-opacity="1" /><path clip-path="url(#clip750)" d="M162.431 1142.29 Q158.82 1142.29 156.991 1145.86 Q155.186 1149.4 155.186 1156.53 Q155.186 1163.64 156.991 1167.2 Q158.82 1170.74 162.431 1170.74 Q166.065 1170.74 167.871 1167.2 Q169.7 1163.64 169.7 1156.53 Q169.7 1149.4 167.871 1145.86 Q166.065 1142.29 162.431 1142.29 M162.431 1138.59 Q168.241 1138.59 171.297 1143.2 Q174.376 1147.78 174.376 1156.53 Q174.376 1165.26 171.297 1169.86 Q168.241 1174.45 162.431 1174.45 Q156.621 1174.45 153.542 1169.86 Q150.487 1165.26 150.487 1156.53 Q150.487 1147.78 153.542 1143.2 Q156.621 1138.59 162.431 1138.59 Z" fill="#000000" fill-rule="nonzero" fill-opacity="1" /><path clip-path="url(#clip750)" d="M182.593 1167.89 L187.477 1167.89 L187.477 1173.77 L182.593 1173.77 L182.593 1167.89 Z" fill="#000000" fill-rule="nonzero" fill-opacity="1" /><path clip-path="url(#clip750)" d="M207.662 1142.29 Q204.051 1142.29 202.223 1145.86 Q200.417 1149.4 200.417 1156.53 Q200.417 1163.64 202.223 1167.2 Q204.051 1170.74 207.662 1170.74 Q211.297 1170.74 213.102 1167.2 Q214.931 1163.64 214.931 1156.53 Q214.931 1149.4 213.102 1145.86 Q211.297 1142.29 207.662 1142.29 M207.662 1138.59 Q213.473 1138.59 216.528 1143.2 Q219.607 1147.78 219.607 1156.53 Q219.607 1165.26 216.528 1169.86 Q213.473 1174.45 207.662 1174.45 Q201.852 1174.45 198.774 1169.86 Q195.718 1165.26 195.718 1156.53 Q195.718 1147.78 198.774 1143.2 Q201.852 1138.59 207.662 1138.59 Z" fill="#000000" fill-rule="nonzero" fill-opacity="1" /><path clip-path="url(#clip750)" d="M164.028 989.026 Q160.417 989.026 158.589 992.591 Q156.783 996.132 156.783 1003.26 Q156.783 1010.37 158.589 1013.93 Q160.417 1017.47 164.028 1017.47 Q167.663 1017.47 169.468 1013.93 Q171.297 1010.37 171.297 1003.26 Q171.297 996.132 169.468 992.591 Q167.663 989.026 164.028 989.026 M164.028 985.322 Q169.839 985.322 172.894 989.929 Q175.973 994.512 175.973 1003.26 Q175.973 1011.99 172.894 1016.6 Q169.839 1021.18 164.028 1021.18 Q158.218 1021.18 155.14 1016.6 Q152.084 1011.99 152.084 1003.26 Q152.084 994.512 155.14 989.929 Q158.218 985.322 164.028 985.322 Z" fill="#000000" fill-rule="nonzero" fill-opacity="1" /><path clip-path="url(#clip750)" d="M184.19 1014.63 L189.075 1014.63 L189.075 1020.51 L184.19 1020.51 L184.19 1014.63 Z" fill="#000000" fill-rule="nonzero" fill-opacity="1" /><path clip-path="url(#clip750)" d="M203.287 1016.57 L219.607 1016.57 L219.607 1020.51 L197.662 1020.51 L197.662 1016.57 Q200.325 1013.82 204.908 1009.19 Q209.514 1004.53 210.695 1003.19 Q212.94 1000.67 213.82 998.933 Q214.723 997.174 214.723 995.484 Q214.723 992.729 212.778 990.993 Q210.857 989.257 207.755 989.257 Q205.556 989.257 203.102 990.021 Q200.672 990.785 197.894 992.336 L197.894 987.614 Q200.718 986.48 203.172 985.901 Q205.625 985.322 207.662 985.322 Q213.033 985.322 216.227 988.007 Q219.422 990.692 219.422 995.183 Q219.422 997.313 218.611 999.234 Q217.824 1001.13 215.718 1003.72 Q215.139 1004.4 212.037 1007.61 Q208.936 1010.81 203.287 1016.57 Z" fill="#000000" fill-rule="nonzero" fill-opacity="1" /><path clip-path="url(#clip750)" d="M161.945 835.758 Q158.334 835.758 156.505 839.323 Q154.7 842.865 154.7 849.994 Q154.7 857.101 156.505 860.666 Q158.334 864.207 161.945 864.207 Q165.579 864.207 167.385 860.666 Q169.214 857.101 169.214 849.994 Q169.214 842.865 167.385 839.323 Q165.579 835.758 161.945 835.758 M161.945 832.055 Q167.755 832.055 170.811 836.661 Q173.889 841.244 173.889 849.994 Q173.889 858.721 170.811 863.328 Q167.755 867.911 161.945 867.911 Q156.135 867.911 153.056 863.328 Q150.001 858.721 150.001 849.994 Q150.001 841.244 153.056 836.661 Q156.135 832.055 161.945 832.055 Z" fill="#000000" fill-rule="nonzero" fill-opacity="1" /><path clip-path="url(#clip750)" d="M182.107 861.36 L186.991 861.36 L186.991 867.24 L182.107 867.24 L182.107 861.36 Z" fill="#000000" fill-rule="nonzero" fill-opacity="1" /><path clip-path="url(#clip750)" d="M210.024 836.754 L198.218 855.203 L210.024 855.203 L210.024 836.754 M208.797 832.68 L214.676 832.68 L214.676 855.203 L219.607 855.203 L219.607 859.092 L214.676 859.092 L214.676 867.24 L210.024 867.24 L210.024 859.092 L194.422 859.092 L194.422 854.578 L208.797 832.68 Z" fill="#000000" fill-rule="nonzero" fill-opacity="1" /><path clip-path="url(#clip750)" d="M162.269 682.491 Q158.658 682.491 156.829 686.056 Q155.024 689.597 155.024 696.727 Q155.024 703.833 156.829 707.398 Q158.658 710.94 162.269 710.94 Q165.903 710.94 167.709 707.398 Q169.538 703.833 169.538 696.727 Q169.538 689.597 167.709 686.056 Q165.903 682.491 162.269 682.491 M162.269 678.787 Q168.079 678.787 171.135 683.394 Q174.214 687.977 174.214 696.727 Q174.214 705.454 171.135 710.06 Q168.079 714.644 162.269 714.644 Q156.459 714.644 153.38 710.06 Q150.325 705.454 150.325 696.727 Q150.325 687.977 153.38 683.394 Q156.459 678.787 162.269 678.787 Z" fill="#000000" fill-rule="nonzero" fill-opacity="1" /><path clip-path="url(#clip750)" d="M182.431 708.093 L187.315 708.093 L187.315 713.972 L182.431 713.972 L182.431 708.093 Z" fill="#000000" fill-rule="nonzero" fill-opacity="1" /><path clip-path="url(#clip750)" d="M208.079 694.829 Q204.931 694.829 203.079 696.982 Q201.25 699.134 201.25 702.884 Q201.25 706.611 203.079 708.787 Q204.931 710.94 208.079 710.94 Q211.227 710.94 213.056 708.787 Q214.908 706.611 214.908 702.884 Q214.908 699.134 213.056 696.982 Q211.227 694.829 208.079 694.829 M217.361 680.176 L217.361 684.435 Q215.602 683.602 213.797 683.162 Q212.014 682.722 210.255 682.722 Q205.625 682.722 203.172 685.847 Q200.741 688.972 200.394 695.292 Q201.76 693.278 203.82 692.213 Q205.88 691.125 208.357 691.125 Q213.565 691.125 216.574 694.296 Q219.607 697.445 219.607 702.884 Q219.607 708.208 216.459 711.426 Q213.311 714.644 208.079 714.644 Q202.084 714.644 198.912 710.06 Q195.741 705.454 195.741 696.727 Q195.741 688.533 199.63 683.672 Q203.519 678.787 210.07 678.787 Q211.829 678.787 213.611 679.134 Q215.417 679.482 217.361 680.176 Z" fill="#000000" fill-rule="nonzero" fill-opacity="1" /><path clip-path="url(#clip750)" d="M162.524 529.224 Q158.913 529.224 157.084 532.788 Q155.278 536.33 155.278 543.46 Q155.278 550.566 157.084 554.131 Q158.913 557.672 162.524 557.672 Q166.158 557.672 167.964 554.131 Q169.792 550.566 169.792 543.46 Q169.792 536.33 167.964 532.788 Q166.158 529.224 162.524 529.224 M162.524 525.52 Q168.334 525.52 171.389 530.126 Q174.468 534.71 174.468 543.46 Q174.468 552.186 171.389 556.793 Q168.334 561.376 162.524 561.376 Q156.714 561.376 153.635 556.793 Q150.579 552.186 150.579 543.46 Q150.579 534.71 153.635 530.126 Q156.714 525.52 162.524 525.52 Z" fill="#000000" fill-rule="nonzero" fill-opacity="1" /><path clip-path="url(#clip750)" d="M182.686 554.825 L187.57 554.825 L187.57 560.705 L182.686 560.705 L182.686 554.825 Z" fill="#000000" fill-rule="nonzero" fill-opacity="1" /><path clip-path="url(#clip750)" d="M207.755 544.293 Q204.422 544.293 202.5 546.075 Q200.602 547.858 200.602 550.983 Q200.602 554.108 202.5 555.89 Q204.422 557.672 207.755 557.672 Q211.088 557.672 213.01 555.89 Q214.931 554.085 214.931 550.983 Q214.931 547.858 213.01 546.075 Q211.111 544.293 207.755 544.293 M203.079 542.302 Q200.07 541.561 198.38 539.501 Q196.713 537.441 196.713 534.478 Q196.713 530.335 199.653 527.927 Q202.616 525.52 207.755 525.52 Q212.917 525.52 215.857 527.927 Q218.797 530.335 218.797 534.478 Q218.797 537.441 217.107 539.501 Q215.44 541.561 212.454 542.302 Q215.834 543.089 217.709 545.381 Q219.607 547.673 219.607 550.983 Q219.607 556.006 216.528 558.691 Q213.473 561.376 207.755 561.376 Q202.037 561.376 198.959 558.691 Q195.903 556.006 195.903 550.983 Q195.903 547.673 197.801 545.381 Q199.7 543.089 203.079 542.302 M201.366 534.918 Q201.366 537.603 203.033 539.108 Q204.723 540.612 207.755 540.612 Q210.764 540.612 212.454 539.108 Q214.167 537.603 214.167 534.918 Q214.167 532.233 212.454 530.728 Q210.764 529.224 207.755 529.224 Q204.723 529.224 203.033 530.728 Q201.366 532.233 201.366 534.918 Z" fill="#000000" fill-rule="nonzero" fill-opacity="1" /><path clip-path="url(#clip750)" d="M153.241 403.502 L160.88 403.502 L160.88 377.137 L152.57 378.803 L152.57 374.544 L160.834 372.877 L165.51 372.877 L165.51 403.502 L173.149 403.502 L173.149 407.437 L153.241 407.437 L153.241 403.502 Z" fill="#000000" fill-rule="nonzero" fill-opacity="1" /><path clip-path="url(#clip750)" d="M182.593 401.558 L187.477 401.558 L187.477 407.437 L182.593 407.437 L182.593 401.558 Z" fill="#000000" fill-rule="nonzero" fill-opacity="1" /><path clip-path="url(#clip750)" d="M207.662 375.956 Q204.051 375.956 202.223 379.521 Q200.417 383.063 200.417 390.192 Q200.417 397.299 202.223 400.863 Q204.051 404.405 207.662 404.405 Q211.297 404.405 213.102 400.863 Q214.931 397.299 214.931 390.192 Q214.931 383.063 213.102 379.521 Q211.297 375.956 207.662 375.956 M207.662 372.252 Q213.473 372.252 216.528 376.859 Q219.607 381.442 219.607 390.192 Q219.607 398.919 216.528 403.525 Q213.473 408.109 207.662 408.109 Q201.852 408.109 198.774 403.525 Q195.718 398.919 195.718 390.192 Q195.718 381.442 198.774 376.859 Q201.852 372.252 207.662 372.252 Z" fill="#000000" fill-rule="nonzero" fill-opacity="1" /><path clip-path="url(#clip750)" d="M154.839 250.235 L162.477 250.235 L162.477 223.869 L154.167 225.536 L154.167 221.277 L162.431 219.61 L167.107 219.61 L167.107 250.235 L174.746 250.235 L174.746 254.17 L154.839 254.17 L154.839 250.235 Z" fill="#000000" fill-rule="nonzero" fill-opacity="1" /><path clip-path="url(#clip750)" d="M184.19 248.29 L189.075 248.29 L189.075 254.17 L184.19 254.17 L184.19 248.29 Z" fill="#000000" fill-rule="nonzero" fill-opacity="1" /><path clip-path="url(#clip750)" d="M203.287 250.235 L219.607 250.235 L219.607 254.17 L197.662 254.17 L197.662 250.235 Q200.325 247.48 204.908 242.851 Q209.514 238.198 210.695 236.855 Q212.94 234.332 213.82 232.596 Q214.723 230.837 214.723 229.147 Q214.723 226.392 212.778 224.656 Q210.857 222.92 207.755 222.92 Q205.556 222.92 203.102 223.684 Q200.672 224.448 197.894 225.999 L197.894 221.277 Q200.718 220.142 203.172 219.564 Q205.625 218.985 207.662 218.985 Q213.033 218.985 216.227 221.67 Q219.422 224.355 219.422 228.846 Q219.422 230.976 218.611 232.897 Q217.824 234.795 215.718 237.388 Q215.139 238.059 212.037 241.277 Q208.936 244.471 203.287 250.235 Z" fill="#000000" fill-rule="nonzero" fill-opacity="1" /><path clip-path="url(#clip750)" d="M16.4842 978.127 L16.4842 971.22 L36.0269 958.043 L16.4842 944.961 L16.4842 938.055 L41.3741 954.86 L64.0042 954.86 L64.0042 961.321 L41.3741 961.321 L16.4842 978.127 Z" fill="#000000" fill-rule="nonzero" fill-opacity="1" /><path clip-path="url(#clip750)" d="M43.5384 942.733 L43.5384 925.578 L48.7583 925.578 L48.7583 942.733 L43.5384 942.733 Z" fill="#000000" fill-rule="nonzero" fill-opacity="1" /><path clip-path="url(#clip750)" d="M20.1444 880.413 L26.9239 880.413 Q23.9002 883.66 22.4043 887.352 Q20.9083 891.012 20.9083 895.15 Q20.9083 903.298 25.9054 907.626 Q30.8707 911.955 40.2919 911.955 Q49.6813 911.955 54.6784 907.626 Q59.6436 903.298 59.6436 895.15 Q59.6436 891.012 58.1477 887.352 Q56.6518 883.66 53.6281 880.413 L60.3439 880.413 Q62.6355 883.787 63.7814 887.575 Q64.9272 891.33 64.9272 895.532 Q64.9272 906.322 58.3387 912.528 Q51.7183 918.735 40.2919 918.735 Q28.8336 918.735 22.2451 912.528 Q15.6248 906.322 15.6248 895.532 Q15.6248 891.267 16.7706 887.511 Q17.8846 883.723 20.1444 880.413 Z" fill="#000000" fill-rule="nonzero" fill-opacity="1" /><path clip-path="url(#clip750)" d="M32.4621 856.924 Q32.4621 861.634 36.1542 864.372 Q39.8145 867.109 46.212 867.109 Q52.6095 867.109 56.3017 864.403 Q59.9619 861.666 59.9619 856.924 Q59.9619 852.245 56.2698 849.508 Q52.5777 846.77 46.212 846.77 Q39.8781 846.77 36.186 849.508 Q32.4621 852.245 32.4621 856.924 M27.4968 856.924 Q27.4968 849.285 32.4621 844.924 Q37.4273 840.564 46.212 840.564 Q54.9649 840.564 59.9619 844.924 Q64.9272 849.285 64.9272 856.924 Q64.9272 864.594 59.9619 868.955 Q54.9649 873.283 46.212 873.283 Q37.4273 873.283 32.4621 868.955 Q27.4968 864.594 27.4968 856.924 Z" fill="#000000" fill-rule="nonzero" fill-opacity="1" /><path clip-path="url(#clip750)" d="M32.4621 817.042 Q32.4621 821.753 36.1542 824.49 Q39.8145 827.228 46.212 827.228 Q52.6095 827.228 56.3017 824.522 Q59.9619 821.785 59.9619 817.042 Q59.9619 812.364 56.2698 809.626 Q52.5777 806.889 46.212 806.889 Q39.8781 806.889 36.186 809.626 Q32.4621 812.364 32.4621 817.042 M27.4968 817.042 Q27.4968 809.404 32.4621 805.043 Q37.4273 800.683 46.212 800.683 Q54.9649 800.683 59.9619 805.043 Q64.9272 809.404 64.9272 817.042 Q64.9272 824.713 59.9619 829.074 Q54.9649 833.402 46.212 833.402 Q37.4273 833.402 32.4621 829.074 Q27.4968 824.713 27.4968 817.042 Z" fill="#000000" fill-rule="nonzero" fill-opacity="1" /><path clip-path="url(#clip750)" d="M33.8307 770.318 Q33.2578 771.305 33.0032 772.483 Q32.7167 773.628 32.7167 775.029 Q32.7167 779.994 35.9632 782.668 Q39.1779 785.309 45.2253 785.309 L64.0042 785.309 L64.0042 791.198 L28.3562 791.198 L28.3562 785.309 L33.8944 785.309 Q30.6479 783.463 29.0883 780.503 Q27.4968 777.543 27.4968 773.31 Q27.4968 772.705 27.5923 771.973 Q27.656 771.241 27.8151 770.35 L33.8307 770.318 Z" fill="#000000" fill-rule="nonzero" fill-opacity="1" /><path clip-path="url(#clip750)" d="M33.7671 741.863 L14.479 741.863 L14.479 736.007 L64.0042 736.007 L64.0042 741.863 L58.657 741.863 Q61.8398 743.71 63.3994 746.542 Q64.9272 749.343 64.9272 753.29 Q64.9272 759.751 59.771 763.825 Q54.6147 767.867 46.212 767.867 Q37.8093 767.867 32.6531 763.825 Q27.4968 759.751 27.4968 753.29 Q27.4968 749.343 29.0564 746.542 Q30.5842 743.71 33.7671 741.863 M46.212 761.82 Q52.6732 761.82 56.3653 759.178 Q60.0256 756.505 60.0256 751.858 Q60.0256 747.211 56.3653 744.537 Q52.6732 741.863 46.212 741.863 Q39.7508 741.863 36.0905 744.537 Q32.3984 747.211 32.3984 751.858 Q32.3984 756.505 36.0905 759.178 Q39.7508 761.82 46.212 761.82 Z" fill="#000000" fill-rule="nonzero" fill-opacity="1" /><path clip-path="url(#clip750)" d="M28.3562 723.944 L28.3562 718.088 L64.0042 718.088 L64.0042 723.944 L28.3562 723.944 M14.479 723.944 L14.479 718.088 L21.895 718.088 L21.895 723.944 L14.479 723.944 Z" fill="#000000" fill-rule="nonzero" fill-opacity="1" /><path clip-path="url(#clip750)" d="M42.4881 676.201 L64.0042 676.201 L64.0042 682.058 L42.679 682.058 Q37.6183 682.058 35.1038 684.031 Q32.5894 686.004 32.5894 689.951 Q32.5894 694.694 35.6131 697.431 Q38.6368 700.168 43.8567 700.168 L64.0042 700.168 L64.0042 706.056 L28.3562 706.056 L28.3562 700.168 L33.8944 700.168 Q30.6797 698.067 29.0883 695.235 Q27.4968 692.37 27.4968 688.646 Q27.4968 682.503 31.3163 679.352 Q35.1038 676.201 42.4881 676.201 Z" fill="#000000" fill-rule="nonzero" fill-opacity="1" /><path clip-path="url(#clip750)" d="M46.0847 648.319 Q46.0847 655.417 47.7079 658.154 Q49.3312 660.892 53.2461 660.892 Q56.3653 660.892 58.2114 658.855 Q60.0256 656.786 60.0256 653.253 Q60.0256 648.383 56.5881 645.455 Q53.1188 642.495 47.3897 642.495 L46.0847 642.495 L46.0847 648.319 M43.6657 636.638 L64.0042 636.638 L64.0042 642.495 L58.5933 642.495 Q61.8398 644.5 63.3994 647.492 Q64.9272 650.484 64.9272 654.812 Q64.9272 660.287 61.8716 663.533 Q58.7843 666.748 53.6281 666.748 Q47.6125 666.748 44.5569 662.738 Q41.5014 658.696 41.5014 650.707 L41.5014 642.495 L40.9285 642.495 Q36.8862 642.495 34.6901 645.168 Q32.4621 647.81 32.4621 652.616 Q32.4621 655.672 33.1941 658.568 Q33.9262 661.465 35.3903 664.138 L29.9795 664.138 Q28.7381 660.924 28.1334 657.9 Q27.4968 654.876 27.4968 652.012 Q27.4968 644.277 31.5072 640.458 Q35.5176 636.638 43.6657 636.638 Z" fill="#000000" fill-rule="nonzero" fill-opacity="1" /><path clip-path="url(#clip750)" d="M18.2347 618.783 L28.3562 618.783 L28.3562 606.72 L32.9077 606.72 L32.9077 618.783 L52.2594 618.783 Q56.6199 618.783 57.8613 617.605 Q59.1026 616.395 59.1026 612.735 L59.1026 606.72 L64.0042 606.72 L64.0042 612.735 Q64.0042 619.515 61.4897 622.093 Q58.9434 624.671 52.2594 624.671 L32.9077 624.671 L32.9077 628.968 L28.3562 628.968 L28.3562 624.671 L18.2347 624.671 L18.2347 618.783 Z" fill="#000000" fill-rule="nonzero" fill-opacity="1" /><path clip-path="url(#clip750)" d="M44.7161 568.525 L47.5806 568.525 L47.5806 595.452 Q53.6281 595.07 56.8109 591.824 Q59.9619 588.545 59.9619 582.721 Q59.9619 579.347 59.1344 576.196 Q58.3069 573.013 56.6518 569.894 L62.1899 569.894 Q63.5267 573.045 64.227 576.355 Q64.9272 579.665 64.9272 583.071 Q64.9272 591.601 59.9619 596.598 Q54.9967 601.563 46.5303 601.563 Q37.7774 601.563 32.6531 596.853 Q27.4968 592.11 27.4968 584.089 Q27.4968 576.896 32.1438 572.727 Q36.7589 568.525 44.7161 568.525 M42.9973 574.382 Q38.1912 574.445 35.3266 577.087 Q32.4621 579.697 32.4621 584.026 Q32.4621 588.927 35.2312 591.887 Q38.0002 594.816 43.0292 595.261 L42.9973 574.382 Z" fill="#000000" fill-rule="nonzero" fill-opacity="1" /><path clip-path="url(#clip750)" d="M612.003 20.1573 L600.904 50.2555 L623.143 50.2555 L612.003 20.1573 M607.385 12.096 L616.662 12.096 L639.712 72.576 L631.205 72.576 L625.695 57.061 L598.433 57.061 L592.924 72.576 L584.295 72.576 L607.385 12.096 Z" fill="#000000" fill-rule="nonzero" fill-opacity="1" /><path clip-path="url(#clip750)" d="M711.169 14.0809 L711.169 22.0612 Q706.511 19.8332 702.379 18.7395 Q698.247 17.6457 694.399 17.6457 Q687.715 17.6457 684.069 20.2383 Q680.464 22.8309 680.464 27.611 Q680.464 31.6214 682.854 33.6873 Q685.284 35.7128 692.009 36.9686 L696.951 37.9813 Q706.106 39.7232 710.44 44.1387 Q714.815 48.5136 714.815 55.8863 Q714.815 64.6767 708.901 69.2137 Q703.027 73.7508 691.644 73.7508 Q687.35 73.7508 682.489 72.7785 Q677.669 71.8063 672.483 69.9024 L672.483 61.4765 Q677.466 64.2716 682.246 65.6895 Q687.026 67.1073 691.644 67.1073 Q698.652 67.1073 702.46 64.3527 Q706.268 61.598 706.268 56.4939 Q706.268 52.0379 703.513 49.5264 Q700.799 47.0148 694.561 45.759 L689.578 44.7868 Q680.423 42.9639 676.332 39.075 Q672.24 35.1862 672.24 28.2591 Q672.24 20.2383 677.871 15.6203 Q683.542 11.0023 693.467 11.0023 Q697.72 11.0023 702.136 11.7719 Q706.551 12.5416 711.169 14.0809 Z" fill="#000000" fill-rule="nonzero" fill-opacity="1" /><path clip-path="url(#clip750)" d="M727.252 27.2059 L734.705 27.2059 L734.705 72.576 L727.252 72.576 L727.252 27.2059 M727.252 9.54393 L734.705 9.54393 L734.705 18.9825 L727.252 18.9825 L727.252 9.54393 Z" fill="#000000" fill-rule="nonzero" fill-opacity="1" /><path clip-path="url(#clip750)" d="M785.625 35.9153 Q788.42 30.8922 792.309 28.5022 Q796.198 26.1121 801.464 26.1121 Q808.553 26.1121 812.402 31.0947 Q816.25 36.0368 816.25 45.1919 L816.25 72.576 L808.756 72.576 L808.756 45.4349 Q808.756 38.913 806.447 35.7533 Q804.138 32.5936 799.398 32.5936 Q793.605 32.5936 790.243 36.4419 Q786.881 40.2903 786.881 46.9338 L786.881 72.576 L779.387 72.576 L779.387 45.4349 Q779.387 38.8725 777.078 35.7533 Q774.769 32.5936 769.948 32.5936 Q764.236 32.5936 760.874 36.4824 Q757.512 40.3308 757.512 46.9338 L757.512 72.576 L750.018 72.576 L750.018 27.2059 L757.512 27.2059 L757.512 34.2544 Q760.064 30.082 763.629 28.0971 Q767.193 26.1121 772.095 26.1121 Q777.037 26.1121 780.48 28.6237 Q783.964 31.1352 785.625 35.9153 Z" fill="#000000" fill-rule="nonzero" fill-opacity="1" /><path clip-path="url(#clip750)" d="M838.327 65.7705 L838.327 89.8329 L830.833 89.8329 L830.833 27.2059 L838.327 27.2059 L838.327 34.0924 Q840.677 30.0415 844.242 28.0971 Q847.847 26.1121 852.83 26.1121 Q861.093 26.1121 866.238 32.6746 Q871.423 39.2371 871.423 49.9314 Q871.423 60.6258 866.238 67.1883 Q861.093 73.7508 852.83 73.7508 Q847.847 73.7508 844.242 71.8063 Q840.677 69.8214 838.327 65.7705 M863.686 49.9314 Q863.686 41.7081 860.283 37.0496 Q856.921 32.3505 851.007 32.3505 Q845.092 32.3505 841.69 37.0496 Q838.327 41.7081 838.327 49.9314 Q838.327 58.1548 841.69 62.8538 Q845.092 67.5124 851.007 67.5124 Q856.921 67.5124 860.283 62.8538 Q863.686 58.1548 863.686 49.9314 Z" fill="#000000" fill-rule="nonzero" fill-opacity="1" /><path clip-path="url(#clip750)" d="M883.779 9.54393 L891.232 9.54393 L891.232 72.576 L883.779 72.576 L883.779 9.54393 Z" fill="#000000" fill-rule="nonzero" fill-opacity="1" /><path clip-path="url(#clip750)" d="M945.636 48.0275 L945.636 51.6733 L911.365 51.6733 Q911.851 59.3701 915.983 63.421 Q920.156 67.4314 927.569 67.4314 Q931.863 67.4314 935.873 66.3781 Q939.924 65.3249 943.894 63.2184 L943.894 70.267 Q939.884 71.9684 935.671 72.8596 Q931.458 73.7508 927.123 73.7508 Q916.267 73.7508 909.907 67.4314 Q903.587 61.1119 903.587 50.3365 Q903.587 39.1965 909.583 32.6746 Q915.619 26.1121 925.827 26.1121 Q934.982 26.1121 940.289 32.0264 Q945.636 37.9003 945.636 48.0275 M938.182 45.84 Q938.101 39.7232 934.739 36.0774 Q931.417 32.4315 925.908 32.4315 Q919.67 32.4315 915.902 35.9558 Q912.175 39.4801 911.608 45.8805 L938.182 45.84 Z" fill="#000000" fill-rule="nonzero" fill-opacity="1" /><path clip-path="url(#clip750)" d="M992.748 18.8205 L992.748 41.5461 L1003.04 41.5461 Q1008.75 41.5461 1011.87 38.5889 Q1014.99 35.6318 1014.99 30.163 Q1014.99 24.7348 1011.87 21.7777 Q1008.75 18.8205 1003.04 18.8205 L992.748 18.8205 M984.565 12.096 L1003.04 12.096 Q1013.2 12.096 1018.39 16.714 Q1023.62 21.2916 1023.62 30.163 Q1023.62 39.1155 1018.39 43.6931 Q1013.2 48.2706 1003.04 48.2706 L992.748 48.2706 L992.748 72.576 L984.565 72.576 L984.565 12.096 Z" fill="#000000" fill-rule="nonzero" fill-opacity="1" /><path clip-path="url(#clip750)" d="M1034.27 9.54393 L1041.72 9.54393 L1041.72 72.576 L1034.27 72.576 L1034.27 9.54393 Z" fill="#000000" fill-rule="nonzero" fill-opacity="1" /><path clip-path="url(#clip750)" d="M1074.9 32.4315 Q1068.9 32.4315 1065.42 37.1306 Q1061.94 41.7891 1061.94 49.9314 Q1061.94 58.0738 1065.38 62.7728 Q1068.86 67.4314 1074.9 67.4314 Q1080.86 67.4314 1084.34 62.7323 Q1087.82 58.0333 1087.82 49.9314 Q1087.82 41.8701 1084.34 37.1711 Q1080.86 32.4315 1074.9 32.4315 M1074.9 26.1121 Q1084.62 26.1121 1090.17 32.4315 Q1095.72 38.7509 1095.72 49.9314 Q1095.72 61.0714 1090.17 67.4314 Q1084.62 73.7508 1074.9 73.7508 Q1065.14 73.7508 1059.59 67.4314 Q1054.08 61.0714 1054.08 49.9314 Q1054.08 38.7509 1059.59 32.4315 Q1065.14 26.1121 1074.9 26.1121 Z" fill="#000000" fill-rule="nonzero" fill-opacity="1" /><path clip-path="url(#clip750)" d="M1115.45 14.324 L1115.45 27.2059 L1130.8 27.2059 L1130.8 32.9987 L1115.45 32.9987 L1115.45 57.6282 Q1115.45 63.1779 1116.95 64.7578 Q1118.49 66.3376 1123.15 66.3376 L1130.8 66.3376 L1130.8 72.576 L1123.15 72.576 Q1114.52 72.576 1111.24 69.3758 Q1107.96 66.1351 1107.96 57.6282 L1107.96 32.9987 L1102.49 32.9987 L1102.49 27.2059 L1107.96 27.2059 L1107.96 14.324 L1115.45 14.324 Z" fill="#000000" fill-rule="nonzero" fill-opacity="1" /><path clip-path="url(#clip750)" d="M1184.56 32.4315 Q1178.56 32.4315 1175.08 37.1306 Q1171.6 41.7891 1171.6 49.9314 Q1171.6 58.0738 1175.04 62.7728 Q1178.52 67.4314 1184.56 67.4314 Q1190.51 67.4314 1194 62.7323 Q1197.48 58.0333 1197.48 49.9314 Q1197.48 41.8701 1194 37.1711 Q1190.51 32.4315 1184.56 32.4315 M1184.56 26.1121 Q1194.28 26.1121 1199.83 32.4315 Q1205.38 38.7509 1205.38 49.9314 Q1205.38 61.0714 1199.83 67.4314 Q1194.28 73.7508 1184.56 73.7508 Q1174.8 73.7508 1169.25 67.4314 Q1163.74 61.0714 1163.74 49.9314 Q1163.74 38.7509 1169.25 32.4315 Q1174.8 26.1121 1184.56 26.1121 Z" fill="#000000" fill-rule="nonzero" fill-opacity="1" /><path clip-path="url(#clip750)" d="M1240.7 9.54393 L1240.7 15.7418 L1233.57 15.7418 Q1229.56 15.7418 1227.98 17.3622 Q1226.44 18.9825 1226.44 23.1955 L1226.44 27.2059 L1238.72 27.2059 L1238.72 32.9987 L1226.44 32.9987 L1226.44 72.576 L1218.95 72.576 L1218.95 32.9987 L1211.82 32.9987 L1211.82 27.2059 L1218.95 27.2059 L1218.95 24.0462 Q1218.95 16.471 1222.47 13.0277 Q1226 9.54393 1233.66 9.54393 L1240.7 9.54393 Z" fill="#000000" fill-rule="nonzero" fill-opacity="1" /><path clip-path="url(#clip750)" d="M1314.88 63.9476 L1314.88 47.7034 L1301.51 47.7034 L1301.51 40.9789 L1322.98 40.9789 L1322.98 66.9452 Q1318.24 70.3075 1312.53 72.0494 Q1306.81 73.7508 1300.33 73.7508 Q1286.15 73.7508 1278.13 65.4869 Q1270.15 57.1826 1270.15 42.3968 Q1270.15 27.5705 1278.13 19.3066 Q1286.15 11.0023 1300.33 11.0023 Q1306.25 11.0023 1311.55 12.4606 Q1316.9 13.9189 1321.4 16.7545 L1321.4 25.464 Q1316.86 21.6156 1311.76 19.6712 Q1306.65 17.7268 1301.02 17.7268 Q1289.92 17.7268 1284.33 23.9246 Q1278.78 30.1225 1278.78 42.3968 Q1278.78 54.6305 1284.33 60.8284 Q1289.92 67.0263 1301.02 67.0263 Q1305.36 67.0263 1308.76 66.2971 Q1312.16 65.5274 1314.88 63.9476 Z" fill="#000000" fill-rule="nonzero" fill-opacity="1" /><path clip-path="url(#clip750)" d="M1376.41 48.0275 L1376.41 51.6733 L1342.14 51.6733 Q1342.62 59.3701 1346.76 63.421 Q1350.93 67.4314 1358.34 67.4314 Q1362.64 67.4314 1366.65 66.3781 Q1370.7 65.3249 1374.67 63.2184 L1374.67 70.267 Q1370.66 71.9684 1366.44 72.8596 Q1362.23 73.7508 1357.9 73.7508 Q1347.04 73.7508 1340.68 67.4314 Q1334.36 61.1119 1334.36 50.3365 Q1334.36 39.1965 1340.36 32.6746 Q1346.39 26.1121 1356.6 26.1121 Q1365.76 26.1121 1371.06 32.0264 Q1376.41 37.9003 1376.41 48.0275 M1368.96 45.84 Q1368.87 39.7232 1365.51 36.0774 Q1362.19 32.4315 1356.68 32.4315 Q1350.44 32.4315 1346.68 35.9558 Q1342.95 39.4801 1342.38 45.8805 L1368.96 45.84 Z" fill="#000000" fill-rule="nonzero" fill-opacity="1" /><path clip-path="url(#clip750)" d="M1406.22 32.4315 Q1400.23 32.4315 1396.74 37.1306 Q1393.26 41.7891 1393.26 49.9314 Q1393.26 58.0738 1396.7 62.7728 Q1400.19 67.4314 1406.22 67.4314 Q1412.18 67.4314 1415.66 62.7323 Q1419.15 58.0333 1419.15 49.9314 Q1419.15 41.8701 1415.66 37.1711 Q1412.18 32.4315 1406.22 32.4315 M1406.22 26.1121 Q1415.95 26.1121 1421.5 32.4315 Q1427.05 38.7509 1427.05 49.9314 Q1427.05 61.0714 1421.5 67.4314 Q1415.95 73.7508 1406.22 73.7508 Q1396.46 73.7508 1390.91 67.4314 Q1385.4 61.0714 1385.4 49.9314 Q1385.4 38.7509 1390.91 32.4315 Q1396.46 26.1121 1406.22 26.1121 Z" fill="#000000" fill-rule="nonzero" fill-opacity="1" /><path clip-path="url(#clip750)" d="M1474.72 35.9153 Q1477.52 30.8922 1481.41 28.5022 Q1485.3 26.1121 1490.56 26.1121 Q1497.65 26.1121 1501.5 31.0947 Q1505.35 36.0368 1505.35 45.1919 L1505.35 72.576 L1497.86 72.576 L1497.86 45.4349 Q1497.86 38.913 1495.55 35.7533 Q1493.24 32.5936 1488.5 32.5936 Q1482.7 32.5936 1479.34 36.4419 Q1475.98 40.2903 1475.98 46.9338 L1475.98 72.576 L1468.49 72.576 L1468.49 45.4349 Q1468.49 38.8725 1466.18 35.7533 Q1463.87 32.5936 1459.05 32.5936 Q1453.34 32.5936 1449.97 36.4824 Q1446.61 40.3308 1446.61 46.9338 L1446.61 72.576 L1439.12 72.576 L1439.12 27.2059 L1446.61 27.2059 L1446.61 34.2544 Q1449.16 30.082 1452.73 28.0971 Q1456.29 26.1121 1461.19 26.1121 Q1466.14 26.1121 1469.58 28.6237 Q1473.06 31.1352 1474.72 35.9153 Z" fill="#000000" fill-rule="nonzero" fill-opacity="1" /><path clip-path="url(#clip750)" d="M1559.02 48.0275 L1559.02 51.6733 L1524.75 51.6733 Q1525.24 59.3701 1529.37 63.421 Q1533.54 67.4314 1540.96 67.4314 Q1545.25 67.4314 1549.26 66.3781 Q1553.31 65.3249 1557.28 63.2184 L1557.28 70.267 Q1553.27 71.9684 1549.06 72.8596 Q1544.85 73.7508 1540.51 73.7508 Q1529.65 73.7508 1523.29 67.4314 Q1516.98 61.1119 1516.98 50.3365 Q1516.98 39.1965 1522.97 32.6746 Q1529.01 26.1121 1539.21 26.1121 Q1548.37 26.1121 1553.68 32.0264 Q1559.02 37.9003 1559.02 48.0275 M1551.57 45.84 Q1551.49 39.7232 1548.13 36.0774 Q1544.81 32.4315 1539.3 32.4315 Q1533.06 32.4315 1529.29 35.9558 Q1525.56 39.4801 1525 45.8805 L1551.57 45.84 Z" fill="#000000" fill-rule="nonzero" fill-opacity="1" /><path clip-path="url(#clip750)" d="M1578.63 14.324 L1578.63 27.2059 L1593.98 27.2059 L1593.98 32.9987 L1578.63 32.9987 L1578.63 57.6282 Q1578.63 63.1779 1580.13 64.7578 Q1581.67 66.3376 1586.33 66.3376 L1593.98 66.3376 L1593.98 72.576 L1586.33 72.576 Q1577.7 72.576 1574.42 69.3758 Q1571.14 66.1351 1571.14 57.6282 L1571.14 32.9987 L1565.67 32.9987 L1565.67 27.2059 L1571.14 27.2059 L1571.14 14.324 L1578.63 14.324 Z" fill="#000000" fill-rule="nonzero" fill-opacity="1" /><path clip-path="url(#clip750)" d="M1630.08 34.1734 Q1628.82 33.4443 1627.32 33.1202 Q1625.86 32.7556 1624.08 32.7556 Q1617.76 32.7556 1614.36 36.8875 Q1611 40.9789 1611 48.6757 L1611 72.576 L1603.5 72.576 L1603.5 27.2059 L1611 27.2059 L1611 34.2544 Q1613.35 30.1225 1617.11 28.1376 Q1620.88 26.1121 1626.27 26.1121 Q1627.04 26.1121 1627.97 26.2337 Q1628.9 26.3147 1630.04 26.5172 L1630.08 34.1734 Z" fill="#000000" fill-rule="nonzero" fill-opacity="1" /><path clip-path="url(#clip750)" d="M1637.89 27.2059 L1645.35 27.2059 L1645.35 72.576 L1637.89 72.576 L1637.89 27.2059 M1637.89 9.54393 L1645.35 9.54393 L1645.35 18.9825 L1637.89 18.9825 L1637.89 9.54393 Z" fill="#000000" fill-rule="nonzero" fill-opacity="1" /><path clip-path="url(#clip750)" d="M1693.59 28.9478 L1693.59 35.9153 Q1690.44 34.1734 1687.23 33.3227 Q1684.08 32.4315 1680.83 32.4315 Q1673.58 32.4315 1669.57 37.0496 Q1665.56 41.6271 1665.56 49.9314 Q1665.56 58.2358 1669.57 62.8538 Q1673.58 67.4314 1680.83 67.4314 Q1684.08 67.4314 1687.23 66.5807 Q1690.44 65.6895 1693.59 63.9476 L1693.59 70.8341 Q1690.48 72.2924 1687.11 73.0216 Q1683.79 73.7508 1680.02 73.7508 Q1669.78 73.7508 1663.74 67.3098 Q1657.7 60.8689 1657.7 49.9314 Q1657.7 38.832 1663.78 32.472 Q1669.9 26.1121 1680.51 26.1121 Q1683.95 26.1121 1687.23 26.8413 Q1690.52 27.5299 1693.59 28.9478 Z" fill="#000000" fill-rule="nonzero" fill-opacity="1" /><path clip-path="url(#clip750)" d="M1769.51 14.0809 L1769.51 22.0612 Q1764.85 19.8332 1760.72 18.7395 Q1756.59 17.6457 1752.74 17.6457 Q1746.05 17.6457 1742.41 20.2383 Q1738.8 22.8309 1738.8 27.611 Q1738.8 31.6214 1741.19 33.6873 Q1743.62 35.7128 1750.35 36.9686 L1755.29 37.9813 Q1764.45 39.7232 1768.78 44.1387 Q1773.15 48.5136 1773.15 55.8863 Q1773.15 64.6767 1767.24 69.2137 Q1761.37 73.7508 1749.98 73.7508 Q1745.69 73.7508 1740.83 72.7785 Q1736.01 71.8063 1730.82 69.9024 L1730.82 61.4765 Q1735.81 64.2716 1740.59 65.6895 Q1745.37 67.1073 1749.98 67.1073 Q1756.99 67.1073 1760.8 64.3527 Q1764.61 61.598 1764.61 56.4939 Q1764.61 52.0379 1761.85 49.5264 Q1759.14 47.0148 1752.9 45.759 L1747.92 44.7868 Q1738.76 42.9639 1734.67 39.075 Q1730.58 35.1862 1730.58 28.2591 Q1730.58 20.2383 1736.21 15.6203 Q1741.88 11.0023 1751.81 11.0023 Q1756.06 11.0023 1760.48 11.7719 Q1764.89 12.5416 1769.51 14.0809 Z" fill="#000000" fill-rule="nonzero" fill-opacity="1" /><path clip-path="url(#clip750)" d="M1823.3 45.1919 L1823.3 72.576 L1815.85 72.576 L1815.85 45.4349 Q1815.85 38.994 1813.34 35.7938 Q1810.83 32.5936 1805.8 32.5936 Q1799.77 32.5936 1796.29 36.4419 Q1792.8 40.2903 1792.8 46.9338 L1792.8 72.576 L1785.31 72.576 L1785.31 9.54393 L1792.8 9.54393 L1792.8 34.2544 Q1795.48 30.163 1799.08 28.1376 Q1802.73 26.1121 1807.47 26.1121 Q1815.28 26.1121 1819.29 30.9732 Q1823.3 35.7938 1823.3 45.1919 Z" fill="#000000" fill-rule="nonzero" fill-opacity="1" /><path clip-path="url(#clip750)" d="M1858.79 49.7694 Q1849.76 49.7694 1846.27 51.8354 Q1842.79 53.9013 1842.79 58.8839 Q1842.79 62.8538 1845.38 65.2034 Q1848.02 67.5124 1852.51 67.5124 Q1858.71 67.5124 1862.44 63.1374 Q1866.2 58.7219 1866.2 51.4303 L1866.2 49.7694 L1858.79 49.7694 M1873.66 46.6907 L1873.66 72.576 L1866.2 72.576 L1866.2 65.6895 Q1863.65 69.8214 1859.84 71.8063 Q1856.04 73.7508 1850.53 73.7508 Q1843.56 73.7508 1839.43 69.8619 Q1835.34 65.9325 1835.34 59.3701 Q1835.34 51.7138 1840.44 47.825 Q1845.58 43.9361 1855.75 43.9361 L1866.2 43.9361 L1866.2 43.2069 Q1866.2 38.0623 1862.8 35.2672 Q1859.44 32.4315 1853.32 32.4315 Q1849.43 32.4315 1845.75 33.3632 Q1842.06 34.295 1838.66 36.1584 L1838.66 29.2718 Q1842.75 27.692 1846.6 26.9223 Q1850.45 26.1121 1854.09 26.1121 Q1863.94 26.1121 1868.8 31.2163 Q1873.66 36.3204 1873.66 46.6907 Z" fill="#000000" fill-rule="nonzero" fill-opacity="1" /><path clip-path="url(#clip750)" d="M1896.22 65.7705 L1896.22 89.8329 L1888.73 89.8329 L1888.73 27.2059 L1896.22 27.2059 L1896.22 34.0924 Q1898.57 30.0415 1902.14 28.0971 Q1905.74 26.1121 1910.72 26.1121 Q1918.99 26.1121 1924.13 32.6746 Q1929.32 39.2371 1929.32 49.9314 Q1929.32 60.6258 1924.13 67.1883 Q1918.99 73.7508 1910.72 73.7508 Q1905.74 73.7508 1902.14 71.8063 Q1898.57 69.8214 1896.22 65.7705 M1921.58 49.9314 Q1921.58 41.7081 1918.18 37.0496 Q1914.81 32.3505 1908.9 32.3505 Q1902.99 32.3505 1899.58 37.0496 Q1896.22 41.7081 1896.22 49.9314 Q1896.22 58.1548 1899.58 62.8538 Q1902.99 67.5124 1908.9 67.5124 Q1914.81 67.5124 1918.18 62.8538 Q1921.58 58.1548 1921.58 49.9314 Z" fill="#000000" fill-rule="nonzero" fill-opacity="1" /><path clip-path="url(#clip750)" d="M1980.48 48.0275 L1980.48 51.6733 L1946.21 51.6733 Q1946.7 59.3701 1950.83 63.421 Q1955 67.4314 1962.41 67.4314 Q1966.71 67.4314 1970.72 66.3781 Q1974.77 65.3249 1978.74 63.2184 L1978.74 70.267 Q1974.73 71.9684 1970.51 72.8596 Q1966.3 73.7508 1961.97 73.7508 Q1951.11 73.7508 1944.75 67.4314 Q1938.43 61.1119 1938.43 50.3365 Q1938.43 39.1965 1944.43 32.6746 Q1950.46 26.1121 1960.67 26.1121 Q1969.83 26.1121 1975.13 32.0264 Q1980.48 37.9003 1980.48 48.0275 M1973.03 45.84 Q1972.95 39.7232 1969.58 36.0774 Q1966.26 32.4315 1960.75 32.4315 Q1954.51 32.4315 1950.75 35.9558 Q1947.02 39.4801 1946.45 45.8805 L1973.03 45.84 Z" fill="#000000" fill-rule="nonzero" fill-opacity="1" /><path clip-path="url(#clip750)" d="M2021.64 28.5427 L2021.64 35.5912 Q2018.48 33.9709 2015.07 33.1607 Q2011.67 32.3505 2008.03 32.3505 Q2002.48 32.3505 1999.68 34.0519 Q1996.93 35.7533 1996.93 39.156 Q1996.93 41.7486 1998.91 43.2475 Q2000.9 44.7058 2006.89 46.0426 L2009.44 46.6097 Q2017.38 48.3111 2020.71 51.4303 Q2024.07 54.509 2024.07 60.0587 Q2024.07 66.3781 2019.04 70.0644 Q2014.06 73.7508 2005.31 73.7508 Q2001.67 73.7508 1997.7 73.0216 Q1993.77 72.3329 1989.39 70.9151 L1989.39 63.2184 Q1993.52 65.3654 1997.53 66.4591 Q2001.54 67.5124 2005.47 67.5124 Q2010.74 67.5124 2013.58 65.73 Q2016.41 63.9071 2016.41 60.6258 Q2016.41 57.5877 2014.35 55.9673 Q2012.32 54.3469 2005.39 52.8481 L2002.8 52.2405 Q1995.87 50.7821 1992.79 47.7845 Q1989.72 44.7463 1989.72 39.4801 Q1989.72 33.0797 1994.25 29.5959 Q1998.79 26.1121 2007.13 26.1121 Q2011.27 26.1121 2014.91 26.7198 Q2018.56 27.3274 2021.64 28.5427 Z" fill="#000000" fill-rule="nonzero" fill-opacity="1" /><polyline clip-path="url(#clip752)" style="stroke:#009af9; stroke-linecap:round; stroke-linejoin:round; stroke-width:4; stroke-opacity:1; fill:none" points="691.112,696.692 1917.25,1386.4 1534.08,160.256 "/>
<polyline clip-path="url(#clip752)" style="stroke:#e26f46; stroke-linecap:round; stroke-linejoin:round; stroke-width:4; stroke-opacity:1; fill:none" points="1074.28,1156.49 1840.62,1156.49 1840.62,390.157 1074.28,390.157 1074.28,1156.49 "/>
</svg>