<?xml version="1.0" encoding="utf-8"?>
<svg xmlns="http://www.w3.org/2000/svg" xmlns:xlink="http://www.w3.org/1999/xlink" width="600" height="400" viewBox="0 0 2400 1600">
<defs>
  <clipPath id="clip020">
    <rect x="0" y="0" width="2400" height="1600"/>
  </clipPath>
</defs>
<path clip-path="url(#clip020)" d="M0 1600 L2400 1600 L2400 0 L0 0  Z" fill="#ffffff" fill-rule="evenodd" fill-opacity="1"/>
<defs>
  <clipPath id="clip021">
    <rect x="480" y="0" width="1681" height="1600"/>
  </clipPath>
</defs>
<path clip-path="url(#clip020)" d="M147.478 1486.45 L2352.76 1486.45 L2352.76 123.472 L147.478 123.472  Z" fill="#ffffff" fill-rule="evenodd" fill-opacity="1"/>
<defs>
  <clipPath id="clip022">
    <rect x="147" y="123" width="2206" height="1364"/>
  </clipPath>
</defs>
<polyline clip-path="url(#clip022)" style="stroke:#000000; stroke-linecap:round; stroke-linejoin:round; stroke-width:2; stroke-opacity:0.1; fill:none" points="208.307,1486.45 208.307,123.472 "/>
<polyline clip-path="url(#clip022)" style="stroke:#000000; stroke-linecap:round; stroke-linejoin:round; stroke-width:2; stroke-opacity:0.1; fill:none" points="729.212,1486.45 729.212,123.472 "/>
<polyline clip-path="url(#clip022)" style="stroke:#000000; stroke-linecap:round; stroke-linejoin:round; stroke-width:2; stroke-opacity:0.1; fill:none" points="1250.12,1486.45 1250.12,123.472 "/>
<polyline clip-path="url(#clip022)" style="stroke:#000000; stroke-linecap:round; stroke-linejoin:round; stroke-width:2; stroke-opacity:0.1; fill:none" points="1771.02,1486.45 1771.02,123.472 "/>
<polyline clip-path="url(#clip022)" style="stroke:#000000; stroke-linecap:round; stroke-linejoin:round; stroke-width:2; stroke-opacity:0.1; fill:none" points="2291.93,1486.45 2291.93,123.472 "/>
<polyline clip-path="url(#clip022)" style="stroke:#000000; stroke-linecap:round; stroke-linejoin:round; stroke-width:2; stroke-opacity:0.1; fill:none" points="147.478,1237.57 2352.76,1237.57 "/>
<polyline clip-path="url(#clip022)" style="stroke:#000000; stroke-linecap:round; stroke-linejoin:round; stroke-width:2; stroke-opacity:0.1; fill:none" points="147.478,977.119 2352.76,977.119 "/>
<polyline clip-path="url(#clip022)" style="stroke:#000000; stroke-linecap:round; stroke-linejoin:round; stroke-width:2; stroke-opacity:0.1; fill:none" points="147.478,716.666 2352.76,716.666 "/>
<polyline clip-path="url(#clip022)" style="stroke:#000000; stroke-linecap:round; stroke-linejoin:round; stroke-width:2; stroke-opacity:0.1; fill:none" points="147.478,456.214 2352.76,456.214 "/>
<polyline clip-path="url(#clip022)" style="stroke:#000000; stroke-linecap:round; stroke-linejoin:round; stroke-width:2; stroke-opacity:0.1; fill:none" points="147.478,195.761 2352.76,195.761 "/>
<polyline clip-path="url(#clip020)" style="stroke:#000000; stroke-linecap:round; stroke-linejoin:round; stroke-width:4; stroke-opacity:1; fill:none" points="147.478,1486.45 2352.76,1486.45 "/>
<polyline clip-path="url(#clip020)" style="stroke:#000000; stroke-linecap:round; stroke-linejoin:round; stroke-width:4; stroke-opacity:1; fill:none" points="208.307,1486.45 208.307,1467.55 "/>
<polyline clip-path="url(#clip020)" style="stroke:#000000; stroke-linecap:round; stroke-linejoin:round; stroke-width:4; stroke-opacity:1; fill:none" points="729.212,1486.45 729.212,1467.55 "/>
<polyline clip-path="url(#clip020)" style="stroke:#000000; stroke-linecap:round; stroke-linejoin:round; stroke-width:4; stroke-opacity:1; fill:none" points="1250.12,1486.45 1250.12,1467.55 "/>
<polyline clip-path="url(#clip020)" style="stroke:#000000; stroke-linecap:round; stroke-linejoin:round; stroke-width:4; stroke-opacity:1; fill:none" points="1771.02,1486.45 1771.02,1467.55 "/>
<polyline clip-path="url(#clip020)" style="stroke:#000000; stroke-linecap:round; stroke-linejoin:round; stroke-width:4; stroke-opacity:1; fill:none" points="2291.93,1486.45 2291.93,1467.55 "/>
<path clip-path="url(#clip020)" d="M177.208 1532.02 L206.883 1532.02 L206.883 1535.95 L177.208 1535.95 L177.208 1532.02 Z" fill="#000000" fill-rule="nonzero" fill-opacity="1" /><path clip-path="url(#clip020)" d="M229.823 1518.36 L218.018 1536.81 L229.823 1536.81 L229.823 1518.36 M228.596 1514.29 L234.476 1514.29 L234.476 1536.81 L239.406 1536.81 L239.406 1540.7 L234.476 1540.7 L234.476 1548.85 L229.823 1548.85 L229.823 1540.7 L214.221 1540.7 L214.221 1536.19 L228.596 1514.29 Z" fill="#000000" fill-rule="nonzero" fill-opacity="1" /><path clip-path="url(#clip020)" d="M699.154 1532.02 L728.83 1532.02 L728.83 1535.95 L699.154 1535.95 L699.154 1532.02 Z" fill="#000000" fill-rule="nonzero" fill-opacity="1" /><path clip-path="url(#clip020)" d="M742.95 1544.91 L759.27 1544.91 L759.27 1548.85 L737.325 1548.85 L737.325 1544.91 Q739.987 1542.16 744.571 1537.53 Q749.177 1532.88 750.358 1531.53 Q752.603 1529.01 753.483 1527.27 Q754.385 1525.51 754.385 1523.82 Q754.385 1521.07 752.441 1519.33 Q750.52 1517.6 747.418 1517.6 Q745.219 1517.6 742.765 1518.36 Q740.335 1519.13 737.557 1520.68 L737.557 1515.95 Q740.381 1514.82 742.835 1514.24 Q745.288 1513.66 747.325 1513.66 Q752.696 1513.66 755.89 1516.35 Q759.085 1519.03 759.085 1523.52 Q759.085 1525.65 758.274 1527.57 Q757.487 1529.47 755.381 1532.07 Q754.802 1532.74 751.7 1535.95 Q748.598 1539.15 742.95 1544.91 Z" fill="#000000" fill-rule="nonzero" fill-opacity="1" /><path clip-path="url(#clip020)" d="M1250.12 1517.37 Q1246.51 1517.37 1244.68 1520.93 Q1242.87 1524.47 1242.87 1531.6 Q1242.87 1538.71 1244.68 1542.27 Q1246.51 1545.82 1250.12 1545.82 Q1253.75 1545.82 1255.56 1542.27 Q1257.39 1538.71 1257.39 1531.6 Q1257.39 1524.47 1255.56 1520.93 Q1253.75 1517.37 1250.12 1517.37 M1250.12 1513.66 Q1255.93 1513.66 1258.98 1518.27 Q1262.06 1522.85 1262.06 1531.6 Q1262.06 1540.33 1258.98 1544.94 Q1255.93 1549.52 1250.12 1549.52 Q1244.31 1549.52 1241.23 1544.94 Q1238.17 1540.33 1238.17 1531.6 Q1238.17 1522.85 1241.23 1518.27 Q1244.31 1513.66 1250.12 1513.66 Z" fill="#000000" fill-rule="nonzero" fill-opacity="1" /><path clip-path="url(#clip020)" d="M1765.67 1544.91 L1781.99 1544.91 L1781.99 1548.85 L1760.05 1548.85 L1760.05 1544.91 Q1762.71 1542.16 1767.3 1537.53 Q1771.9 1532.88 1773.08 1531.53 Q1775.33 1529.01 1776.21 1527.27 Q1777.11 1525.51 1777.11 1523.82 Q1777.11 1521.07 1775.17 1519.33 Q1773.24 1517.6 1770.14 1517.6 Q1767.94 1517.6 1765.49 1518.36 Q1763.06 1519.13 1760.28 1520.68 L1760.28 1515.95 Q1763.11 1514.82 1765.56 1514.24 Q1768.01 1513.66 1770.05 1513.66 Q1775.42 1513.66 1778.61 1516.35 Q1781.81 1519.03 1781.81 1523.52 Q1781.81 1525.65 1781 1527.57 Q1780.21 1529.47 1778.11 1532.07 Q1777.53 1532.74 1774.42 1535.95 Q1771.32 1539.15 1765.67 1544.91 Z" fill="#000000" fill-rule="nonzero" fill-opacity="1" /><path clip-path="url(#clip020)" d="M2294.94 1518.36 L2283.13 1536.81 L2294.94 1536.81 L2294.94 1518.36 M2293.71 1514.29 L2299.59 1514.29 L2299.59 1536.81 L2304.52 1536.81 L2304.52 1540.7 L2299.59 1540.7 L2299.59 1548.85 L2294.94 1548.85 L2294.94 1540.7 L2279.33 1540.7 L2279.33 1536.19 L2293.71 1514.29 Z" fill="#000000" fill-rule="nonzero" fill-opacity="1" /><polyline clip-path="url(#clip020)" style="stroke:#000000; stroke-linecap:round; stroke-linejoin:round; stroke-width:4; stroke-opacity:1; fill:none" points="147.478,1486.45 147.478,123.472 "/>
<polyline clip-path="url(#clip020)" style="stroke:#000000; stroke-linecap:round; stroke-linejoin:round; stroke-width:4; stroke-opacity:1; fill:none" points="147.478,1237.57 166.376,1237.57 "/>
<polyline clip-path="url(#clip020)" style="stroke:#000000; stroke-linecap:round; stroke-linejoin:round; stroke-width:4; stroke-opacity:1; fill:none" points="147.478,977.119 166.376,977.119 "/>
<polyline clip-path="url(#clip020)" style="stroke:#000000; stroke-linecap:round; stroke-linejoin:round; stroke-width:4; stroke-opacity:1; fill:none" points="147.478,716.666 166.376,716.666 "/>
<polyline clip-path="url(#clip020)" style="stroke:#000000; stroke-linecap:round; stroke-linejoin:round; stroke-width:4; stroke-opacity:1; fill:none" points="147.478,456.214 166.376,456.214 "/>
<polyline clip-path="url(#clip020)" style="stroke:#000000; stroke-linecap:round; stroke-linejoin:round; stroke-width:4; stroke-opacity:1; fill:none" points="147.478,195.761 166.376,195.761 "/>
<path clip-path="url(#clip020)" d="M50.9921 1238.02 L80.6679 1238.02 L80.6679 1241.96 L50.9921 1241.96 L50.9921 1238.02 Z" fill="#000000" fill-rule="nonzero" fill-opacity="1" /><path clip-path="url(#clip020)" d="M91.5706 1250.92 L99.2095 1250.92 L99.2095 1224.55 L90.8993 1226.22 L90.8993 1221.96 L99.1632 1220.29 L103.839 1220.29 L103.839 1250.92 L111.478 1250.92 L111.478 1254.85 L91.5706 1254.85 L91.5706 1250.92 Z" fill="#000000" fill-rule="nonzero" fill-opacity="1" /><path clip-path="url(#clip020)" d="M99.5335 962.918 Q95.9224 962.918 94.0937 966.482 Q92.2882 970.024 92.2882 977.154 Q92.2882 984.26 94.0937 987.825 Q95.9224 991.366 99.5335 991.366 Q103.168 991.366 104.973 987.825 Q106.802 984.26 106.802 977.154 Q106.802 970.024 104.973 966.482 Q103.168 962.918 99.5335 962.918 M99.5335 959.214 Q105.344 959.214 108.399 963.82 Q111.478 968.404 111.478 977.154 Q111.478 985.88 108.399 990.487 Q105.344 995.07 99.5335 995.07 Q93.7234 995.07 90.6447 990.487 Q87.5892 985.88 87.5892 977.154 Q87.5892 968.404 90.6447 963.82 Q93.7234 959.214 99.5335 959.214 Z" fill="#000000" fill-rule="nonzero" fill-opacity="1" /><path clip-path="url(#clip020)" d="M91.5706 730.011 L99.2095 730.011 L99.2095 703.646 L90.8993 705.312 L90.8993 701.053 L99.1632 699.386 L103.839 699.386 L103.839 730.011 L111.478 730.011 L111.478 733.946 L91.5706 733.946 L91.5706 730.011 Z" fill="#000000" fill-rule="nonzero" fill-opacity="1" /><path clip-path="url(#clip020)" d="M95.1586 469.559 L111.478 469.559 L111.478 473.494 L89.5336 473.494 L89.5336 469.559 Q92.1956 466.804 96.7789 462.175 Q101.385 457.522 102.566 456.179 Q104.811 453.656 105.691 451.92 Q106.594 450.161 106.594 448.471 Q106.594 445.716 104.649 443.98 Q102.728 442.244 99.6261 442.244 Q97.4271 442.244 94.9734 443.008 Q92.5428 443.772 89.7651 445.323 L89.7651 440.601 Q92.5891 439.466 95.0428 438.888 Q97.4965 438.309 99.5335 438.309 Q104.904 438.309 108.098 440.994 Q111.293 443.679 111.293 448.17 Q111.293 450.3 110.483 452.221 Q109.696 454.119 107.589 456.712 Q107.01 457.383 103.909 460.6 Q100.807 463.795 95.1586 469.559 Z" fill="#000000" fill-rule="nonzero" fill-opacity="1" /><path clip-path="url(#clip020)" d="M104.348 194.407 Q107.705 195.125 109.58 197.393 Q111.478 199.662 111.478 202.995 Q111.478 208.111 107.959 210.912 Q104.441 213.713 97.9595 213.713 Q95.7836 213.713 93.4688 213.273 Q91.1771 212.856 88.7234 212 L88.7234 207.486 Q90.6678 208.62 92.9826 209.199 Q95.2974 209.778 97.8206 209.778 Q102.219 209.778 104.51 208.041 Q106.825 206.305 106.825 202.995 Q106.825 199.94 104.672 198.227 Q102.543 196.491 98.7234 196.491 L94.6956 196.491 L94.6956 192.648 L98.9085 192.648 Q102.358 192.648 104.186 191.282 Q106.015 189.893 106.015 187.301 Q106.015 184.639 104.117 183.227 Q102.242 181.792 98.7234 181.792 Q96.8021 181.792 94.603 182.208 Q92.4039 182.625 89.7651 183.505 L89.7651 179.338 Q92.4271 178.597 94.7419 178.227 Q97.0798 177.856 99.14 177.856 Q104.464 177.856 107.566 180.287 Q110.668 182.694 110.668 186.815 Q110.668 189.685 109.024 191.676 Q107.381 193.643 104.348 194.407 Z" fill="#000000" fill-rule="nonzero" fill-opacity="1" /><path clip-path="url(#clip020)" d="M845.776 12.096 L896.939 12.096 L896.939 18.9825 L875.469 18.9825 L875.469 72.576 L867.246 72.576 L867.246 18.9825 L845.776 18.9825 L845.776 12.096 Z" fill="#000000" fill-rule="nonzero" fill-opacity="1" /><path clip-path="url(#clip020)" d="M942.228 45.1919 L942.228 72.576 L934.774 72.576 L934.774 45.4349 Q934.774 38.994 932.263 35.7938 Q929.751 32.5936 924.728 32.5936 Q918.692 32.5936 915.208 36.4419 Q911.725 40.2903 911.725 46.9338 L911.725 72.576 L904.23 72.576 L904.23 9.54393 L911.725 9.54393 L911.725 34.2544 Q914.398 30.163 918.004 28.1376 Q921.649 26.1121 926.389 26.1121 Q934.207 26.1121 938.218 30.9732 Q942.228 35.7938 942.228 45.1919 Z" fill="#000000" fill-rule="nonzero" fill-opacity="1" /><path clip-path="url(#clip020)" d="M995.902 48.0275 L995.902 51.6733 L961.632 51.6733 Q962.118 59.3701 966.25 63.421 Q970.422 67.4314 977.835 67.4314 Q982.129 67.4314 986.14 66.3781 Q990.191 65.3249 994.161 63.2184 L994.161 70.267 Q990.15 71.9684 985.937 72.8596 Q981.724 73.7508 977.39 73.7508 Q966.533 73.7508 960.173 67.4314 Q953.854 61.1119 953.854 50.3365 Q953.854 39.1965 959.849 32.6746 Q965.885 26.1121 976.093 26.1121 Q985.249 26.1121 990.555 32.0264 Q995.902 37.9003 995.902 48.0275 M988.449 45.84 Q988.368 39.7232 985.005 36.0774 Q981.684 32.4315 976.175 32.4315 Q969.936 32.4315 966.169 35.9558 Q962.442 39.4801 961.875 45.8805 L988.449 45.84 Z" fill="#000000" fill-rule="nonzero" fill-opacity="1" /><path clip-path="url(#clip020)" d="M1043.01 43.6931 L1043.01 65.8515 L1056.14 65.8515 Q1062.74 65.8515 1065.9 63.1374 Q1069.1 60.3828 1069.1 54.752 Q1069.1 49.0808 1065.9 46.4072 Q1062.74 43.6931 1056.14 43.6931 L1043.01 43.6931 M1043.01 18.8205 L1043.01 37.0496 L1055.13 37.0496 Q1061.12 37.0496 1064.04 34.8216 Q1067 32.5531 1067 27.935 Q1067 23.3575 1064.04 21.089 Q1061.12 18.8205 1055.13 18.8205 L1043.01 18.8205 M1034.83 12.096 L1055.73 12.096 Q1065.09 12.096 1070.16 15.9849 Q1075.22 19.8737 1075.22 27.0438 Q1075.22 32.5936 1072.63 35.8748 Q1070.03 39.156 1065.01 39.9662 Q1071.05 41.2625 1074.37 45.3944 Q1077.73 49.4858 1077.73 55.6432 Q1077.73 63.745 1072.22 68.1605 Q1066.71 72.576 1056.54 72.576 L1034.83 72.576 L1034.83 12.096 Z" fill="#000000" fill-rule="nonzero" fill-opacity="1" /><path clip-path="url(#clip020)" d="M1090.65 54.671 L1090.65 27.2059 L1098.11 27.2059 L1098.11 54.3874 Q1098.11 60.8284 1100.62 64.0691 Q1103.13 67.2693 1108.15 67.2693 Q1114.19 67.2693 1117.67 63.421 Q1121.2 59.5726 1121.2 52.9291 L1121.2 27.2059 L1128.65 27.2059 L1128.65 72.576 L1121.2 72.576 L1121.2 65.6084 Q1118.48 69.7404 1114.88 71.7658 Q1111.31 73.7508 1106.57 73.7508 Q1098.75 73.7508 1094.7 68.8897 Q1090.65 64.0286 1090.65 54.671 M1109.41 26.1121 L1109.41 26.1121 Z" fill="#000000" fill-rule="nonzero" fill-opacity="1" /><path clip-path="url(#clip020)" d="M1151.38 14.324 L1151.38 27.2059 L1166.73 27.2059 L1166.73 32.9987 L1151.38 32.9987 L1151.38 57.6282 Q1151.38 63.1779 1152.87 64.7578 Q1154.41 66.3376 1159.07 66.3376 L1166.73 66.3376 L1166.73 72.576 L1159.07 72.576 Q1150.44 72.576 1147.16 69.3758 Q1143.88 66.1351 1143.88 57.6282 L1143.88 32.9987 L1138.41 32.9987 L1138.41 27.2059 L1143.88 27.2059 L1143.88 14.324 L1151.38 14.324 Z" fill="#000000" fill-rule="nonzero" fill-opacity="1" /><path clip-path="url(#clip020)" d="M1183.9 14.324 L1183.9 27.2059 L1199.26 27.2059 L1199.26 32.9987 L1183.9 32.9987 L1183.9 57.6282 Q1183.9 63.1779 1185.4 64.7578 Q1186.94 66.3376 1191.6 66.3376 L1199.26 66.3376 L1199.26 72.576 L1191.6 72.576 Q1182.97 72.576 1179.69 69.3758 Q1176.41 66.1351 1176.41 57.6282 L1176.41 32.9987 L1170.94 32.9987 L1170.94 27.2059 L1176.41 27.2059 L1176.41 14.324 L1183.9 14.324 Z" fill="#000000" fill-rule="nonzero" fill-opacity="1" /><path clip-path="url(#clip020)" d="M1247.87 48.0275 L1247.87 51.6733 L1213.6 51.6733 Q1214.08 59.3701 1218.22 63.421 Q1222.39 67.4314 1229.8 67.4314 Q1234.1 67.4314 1238.11 66.3781 Q1242.16 65.3249 1246.13 63.2184 L1246.13 70.267 Q1242.12 71.9684 1237.9 72.8596 Q1233.69 73.7508 1229.36 73.7508 Q1218.5 73.7508 1212.14 67.4314 Q1205.82 61.1119 1205.82 50.3365 Q1205.82 39.1965 1211.82 32.6746 Q1217.85 26.1121 1228.06 26.1121 Q1237.21 26.1121 1242.52 32.0264 Q1247.87 37.9003 1247.87 48.0275 M1240.41 45.84 Q1240.33 39.7232 1236.97 36.0774 Q1233.65 32.4315 1228.14 32.4315 Q1221.9 32.4315 1218.14 35.9558 Q1214.41 39.4801 1213.84 45.8805 L1240.41 45.84 Z" fill="#000000" fill-rule="nonzero" fill-opacity="1" /><path clip-path="url(#clip020)" d="M1286.39 34.1734 Q1285.14 33.4443 1283.64 33.1202 Q1282.18 32.7556 1280.4 32.7556 Q1274.08 32.7556 1270.68 36.8875 Q1267.31 40.9789 1267.31 48.6757 L1267.31 72.576 L1259.82 72.576 L1259.82 27.2059 L1267.31 27.2059 L1267.31 34.2544 Q1269.66 30.1225 1273.43 28.1376 Q1277.2 26.1121 1282.58 26.1121 Q1283.35 26.1121 1284.29 26.2337 Q1285.22 26.3147 1286.35 26.5172 L1286.39 34.1734 Z" fill="#000000" fill-rule="nonzero" fill-opacity="1" /><path clip-path="url(#clip020)" d="M1317.18 9.54393 L1317.18 15.7418 L1310.05 15.7418 Q1306.04 15.7418 1304.46 17.3622 Q1302.92 18.9825 1302.92 23.1955 L1302.92 27.2059 L1315.19 27.2059 L1315.19 32.9987 L1302.92 32.9987 L1302.92 72.576 L1295.43 72.576 L1295.43 32.9987 L1288.3 32.9987 L1288.3 27.2059 L1295.43 27.2059 L1295.43 24.0462 Q1295.43 16.471 1298.95 13.0277 Q1302.47 9.54393 1310.13 9.54393 L1317.18 9.54393 Z" fill="#000000" fill-rule="nonzero" fill-opacity="1" /><path clip-path="url(#clip020)" d="M1323.42 9.54393 L1330.87 9.54393 L1330.87 72.576 L1323.42 72.576 L1323.42 9.54393 Z" fill="#000000" fill-rule="nonzero" fill-opacity="1" /><path clip-path="url(#clip020)" d="M1365.34 76.7889 Q1362.19 84.8907 1359.19 87.3618 Q1356.19 89.8329 1351.17 89.8329 L1345.21 89.8329 L1345.21 83.5945 L1349.59 83.5945 Q1352.67 83.5945 1354.37 82.1361 Q1356.07 80.6778 1358.13 75.2496 L1359.47 71.8468 L1341.12 27.2059 L1349.02 27.2059 L1363.2 62.6918 L1377.38 27.2059 L1385.28 27.2059 L1365.34 76.7889 Z" fill="#000000" fill-rule="nonzero" fill-opacity="1" /><path clip-path="url(#clip020)" d="M1467.55 16.7545 L1467.55 25.383 Q1463.42 21.5346 1458.72 19.6307 Q1454.06 17.7268 1448.79 17.7268 Q1438.42 17.7268 1432.91 24.0867 Q1427.4 30.4061 1427.4 42.3968 Q1427.4 54.3469 1432.91 60.7069 Q1438.42 67.0263 1448.79 67.0263 Q1454.06 67.0263 1458.72 65.1223 Q1463.42 63.2184 1467.55 59.3701 L1467.55 67.9175 Q1463.26 70.8341 1458.43 72.2924 Q1453.65 73.7508 1448.31 73.7508 Q1434.57 73.7508 1426.68 65.3654 Q1418.78 56.9395 1418.78 42.3968 Q1418.78 27.8135 1426.68 19.4281 Q1434.57 11.0023 1448.31 11.0023 Q1453.74 11.0023 1458.52 12.4606 Q1463.34 13.8784 1467.55 16.7545 Z" fill="#000000" fill-rule="nonzero" fill-opacity="1" /><path clip-path="url(#clip020)" d="M1479.09 54.671 L1479.09 27.2059 L1486.55 27.2059 L1486.55 54.3874 Q1486.55 60.8284 1489.06 64.0691 Q1491.57 67.2693 1496.59 67.2693 Q1502.63 67.2693 1506.11 63.421 Q1509.64 59.5726 1509.64 52.9291 L1509.64 27.2059 L1517.09 27.2059 L1517.09 72.576 L1509.64 72.576 L1509.64 65.6084 Q1506.92 69.7404 1503.32 71.7658 Q1499.75 73.7508 1495.01 73.7508 Q1487.2 73.7508 1483.15 68.8897 Q1479.09 64.0286 1479.09 54.671 M1497.85 26.1121 L1497.85 26.1121 Z" fill="#000000" fill-rule="nonzero" fill-opacity="1" /><path clip-path="url(#clip020)" d="M1558.74 34.1734 Q1557.48 33.4443 1555.98 33.1202 Q1554.52 32.7556 1552.74 32.7556 Q1546.42 32.7556 1543.02 36.8875 Q1539.66 40.9789 1539.66 48.6757 L1539.66 72.576 L1532.16 72.576 L1532.16 27.2059 L1539.66 27.2059 L1539.66 34.2544 Q1542 30.1225 1545.77 28.1376 Q1549.54 26.1121 1554.93 26.1121 Q1555.7 26.1121 1556.63 26.2337 Q1557.56 26.3147 1558.69 26.5172 L1558.74 34.1734 Z" fill="#000000" fill-rule="nonzero" fill-opacity="1" /><path clip-path="url(#clip020)" d="M1561.21 27.2059 L1569.11 27.2059 L1583.28 65.2844 L1597.46 27.2059 L1605.36 27.2059 L1588.35 72.576 L1578.22 72.576 L1561.21 27.2059 Z" fill="#000000" fill-rule="nonzero" fill-opacity="1" /><path clip-path="url(#clip020)" d="M1654.46 48.0275 L1654.46 51.6733 L1620.19 51.6733 Q1620.67 59.3701 1624.81 63.421 Q1628.98 67.4314 1636.39 67.4314 Q1640.68 67.4314 1644.7 66.3781 Q1648.75 65.3249 1652.72 63.2184 L1652.72 70.267 Q1648.71 71.9684 1644.49 72.8596 Q1640.28 73.7508 1635.95 73.7508 Q1625.09 73.7508 1618.73 67.4314 Q1612.41 61.1119 1612.41 50.3365 Q1612.41 39.1965 1618.4 32.6746 Q1624.44 26.1121 1634.65 26.1121 Q1643.8 26.1121 1649.11 32.0264 Q1654.46 37.9003 1654.46 48.0275 M1647 45.84 Q1646.92 39.7232 1643.56 36.0774 Q1640.24 32.4315 1634.73 32.4315 Q1628.49 32.4315 1624.72 35.9558 Q1621 39.4801 1620.43 45.8805 L1647 45.84 Z" fill="#000000" fill-rule="nonzero" fill-opacity="1" /><polyline clip-path="url(#clip022)" style="stroke:#009af9; stroke-linecap:round; stroke-linejoin:round; stroke-width:4; stroke-opacity:1; fill:none" points="1250.12,790.041 1257.38,784.758 1265.85,769.089 1276.67,743.56 1290.89,709.028 1309.4,666.654 1332.88,617.862 1361.78,564.292 1396.29,507.743 1436.32,450.115 1481.5,393.347 1531.19,339.346 1584.48,289.934 1640.22,246.778 1697.07,211.345 1753.54,184.849 1808.03,168.213 1858.91,162.047 1904.55,166.625 1943.38,181.883 1974,207.425 1995.16,242.542 2005.87,286.237 2005.4,337.269 1993.33,394.194 1969.6,455.422 1934.46,519.272 1888.53,584.032 1832.75,648.023 1768.39,709.652 1696.96,767.47 1620.23,820.223 1540.14,866.886 1458.77,906.703 1378.22,939.205 1300.62,964.223 1228,981.885 1162.27,992.608 1105.13,997.076 1058.04,996.208 1022.14,991.117 998.257,983.06 986.855,973.393 988.022,963.507 1001.47,954.774 1026.56,948.491 1062.28,945.823 1107.36,947.759 1160.23,955.067 1219.11,968.258 1282.08,987.569 1347.12,1012.94 1412.19,1044.03 1475.3,1080.19 1534.54,1120.52 1588.2,1163.9 1634.75,1208.97 1672.95,1254.27 1701.85,1298.21 1720.82,1339.18 1729.58,1375.6 1728.18,1405.94 1717,1428.84 1696.75,1443.13 1668.39,1447.87 1633.14,1442.43 1592.39,1426.45 1547.68,1399.95 1500.62,1363.25 1452.84,1317.04 1405.92,1262.3 1361.34,1200.33 1320.44,1132.69 1284.34,1061.13 1253.93,987.594 1229.83,914.088 1212.39,842.674 1201.63,775.379 1197.32,714.134 1198.93,660.711 1205.69,616.666 1216.6,583.29 1230.5,561.563 1246.11,552.125 1262.06,555.255 1276.99,570.86 1289.55,598.478 1298.53,637.296 1302.83,686.175 1301.58,743.684 1294.11,808.153 1280.04,877.723 1259.27,950.408 1231.98,1024.16 1198.66,1096.92 1160.06,1166.72 1117.2,1231.71 1071.32,1290.21 1023.81,1340.81 976.229,1382.35 930.184,1413.99 887.302,1435.23 849.164,1445.9 817.244,1446.17 792.854,1436.54 777.092,1417.81 770.795,1391.02 774.507,1357.45 788.45,1318.57 812.507,1275.91 846.223,1231.09 888.806,1185.72 939.154,1141.33 995.882,1099.34 1057.36,1060.98 1121.78,1027.29 1187.17,999.027 1251.51,976.693 1312.76,960.492 1368.95,950.334 1418.21,945.842 1458.88,946.373 1489.51,951.044 1508.96,958.773 1516.41,968.323 1511.39,978.351 1493.8,987.47 1463.9,994.3 1422.36,997.526 1370.16,995.957 1308.6,988.573 1239.27,974.567 1163.99,953.386 1084.72,924.754 1003.55,888.692 922.62,845.52 844.016,795.852 769.753,740.582 701.691,680.853 641.481,618.025 590.522,553.622 549.916,489.29 520.442,426.73 502.541,367.646 496.305,313.681 501.485,266.358 517.512,227.028 543.516,196.812 578.376,176.569 620.753,166.853 669.152,167.895 721.974,179.591 777.578,201.496 834.339,232.842 890.704,272.552 945.25,319.284 996.731,371.461 1044.12,427.333 1086.63,485.026 1123.75,542.608 1155.25,598.151 1181.19,649.798 1201.88,695.82 1217.91,734.679 1230.05,765.076 1239.29,785.996 1246.71,796.745 1253.52,796.966 1260.91,786.66 1270.08,766.179 1282.12,736.218 1298.01,697.788 1318.54,652.187 1344.28,600.951 1375.56,545.807 1412.42,488.612 1454.63,431.29 1501.7,375.774 1552.83,323.933 1607,277.518 1662.96,238.102 1719.28,207.03 1774.43,185.372 1826.77,173.899 1874.67,173.051 1916.52,182.933 1950.83,203.312 1976.27,233.632 1991.72,273.035 1996.3,320.396 1989.45,374.366 1970.92,433.418 1940.82,495.91 1899.57,560.137 1847.95,624.396 1787.09,687.041 1718.37,746.547 1643.44,801.555 1564.18,850.92 1482.58,893.748 1400.76,929.425 1320.85,957.629 1244.92,978.341 1174.97,991.837 1112.79,998.67 1059.99,999.645 1017.86,995.784 987.409,988.279 969.272,978.444 963.731,967.659 970.689,957.314 989.679,948.752 1019.88,943.209 1060.14,941.77 1109.04,945.319 1164.9,954.5 1225.86,969.69 1289.95,990.981 1355.13,1018.17 1419.38,1050.76 1480.74,1087.99 1537.4,1128.83 1587.73,1172.04 1630.35,1216.21 1664.15,1259.81 1688.35,1301.23 1702.49,1338.87 1706.46,1371.17 1700.47,1396.69 1685.09,1414.15 1661.13,1422.49 1629.71,1420.93 1592.14,1408.97 1549.88,1386.45 1504.53,1353.53 1457.7,1310.72 1411.02,1258.87 1366.02,1199.12 1324.11,1132.91 1286.53,1061.91 1254.3,987.963 1228.16,913.064 1208.61,839.259 1195.82,768.603 1189.7,703.085 1189.86,644.568 1195.64,594.726 1206.15,554.991 1220.32,526.506 1236.9,510.088 1254.56,506.202 1271.93,514.943 1287.66,536.037 1300.44,568.846 1309.12,612.393 1312.7,665.39 1310.4,726.284 1301.7,793.305 1286.35,864.526 1264.38,937.922 1236.14,1011.44 1202.23,1083.06 1163.55,1150.85 1121.21,1213.07 1076.56,1268.14 1031.05,1314.8 986.28,1352.03 943.865,1379.17 905.414,1395.88 872.457,1402.16 846.39,1398.36 828.419,1385.12 819.512,1363.37 820.361,1334.29 831.345,1299.24 852.514,1259.74 883.576,1217.37 923.901,1173.76 972.536,1130.47 1028.23,1088.99 1089.46,1050.66 1154.49,1016.6 1221.43,987.715 1288.27,964.644 1352.96,947.735 1413.48,937.041 1467.91,932.326 1514.47,933.074 1551.58,938.514 1577.96,947.657 1592.6,959.332 1594.85,972.24 1584.42,985.005 1561.4,996.231 1526.24,1004.56 1479.77,1008.73 1423.12,1007.62 1357.76,1000.32 1285.38,986.122 1207.87,964.616 1127.28,935.664 1045.72,899.432 965.306,856.382 888.099,807.266 816.04,753.101 750.89,695.136 694.179,634.814 647.159,573.721 610.773,513.529 585.633,455.945 572.004,402.642 569.807,355.204 578.63,315.068 597.749,283.468 626.166,261.393 662.644,249.547 705.761,248.318 753.966,257.762 805.633,277.599 859.122,307.213 912.841,345.672 965.299,391.755 1015.16,443.99 1061.28,500.701 1102.76,560.062 1138.95,620.156 1169.49,679.04 1194.3,734.806 1213.55,785.65 1227.73,829.924 1237.51,866.2 1243.78,893.312 1247.6,910.395 1250.12,916.917 1252.55,912.697 1256.11,897.906 1261.95,873.066 1271.12,839.032 1284.52,796.959 1302.84,748.268 1326.53,694.594 1355.81,637.735 1390.57,579.587 1430.48,522.084 1474.87,467.136 1522.87,416.559 1573.32,372.021 1624.9,334.985 1676.13,306.666 1725.42,287.988 1771.14,279.558 1811.67,281.653 1845.46,294.209 1871.11,316.83 1887.38,348.81 1893.29,389.154 1888.12,436.622 1871.47,489.775 1843.27,547.024 1803.79,606.692 1753.66,667.074 1693.83,726.491 1625.57,783.358 1550.4,836.231 1470.11,883.859 1386.65,925.227 1302.08,959.583 1218.54,986.465 1138.15,1005.71 1062.95,1017.46 994.861,1022.13 935.586,1020.42 886.587,1013.25 849.022,1001.75 823.72,987.178 811.146,970.906 811.395,954.334 824.186,938.842 848.875,925.738 884.475,916.197 929.695,911.22 982.975,911.583 1042.55,917.811 1106.49,930.15 1172.78,948.556 1239.38,972.687 1304.3,1001.92 1365.64,1035.37 1421.67,1071.9 1470.88,1110.19 1512.02,1148.78 1544.13,1186.11 1566.59,1220.55 1579.12,1250.55 1581.75,1274.59 1574.87,1291.33 1559.18,1299.59 1535.64,1298.47 1505.46,1287.32 1470.02,1265.81 1430.87,1233.97 1389.6,1192.12 1347.83,1140.97 1307.15,1081.51 1269.01,1015.04 1234.76,943.143 1205.5,867.576 1182.11,790.276 1165.21,713.273 1155.13,638.633 1151.89,568.39 1155.23,504.483 1164.63,448.689 1179.3,402.572 1198.22,367.428 1220.24,344.243 1244.05,333.662 1268.27,335.967 1291.52,351.07 1312.46,378.513 1329.85,417.484 1342.58,466.847 1349.75,525.174 1350.71,590.795 1345.04,661.851 1332.64,736.357 1313.67,812.261 1288.6,887.514 1258.18,960.135 1223.41,1028.27 1185.51,1090.25 1145.88,1144.64 1106.03,1190.3 1067.58,1226.37 1032.14,1252.35 1001.27,1268.06 976.438,1273.67 958.939,1269.67 949.861,1256.85 950.03,1236.25 959.977,1209.14 979.912,1176.96 1009.71,1141.26 1048.9,1103.65 1096.69,1065.7 1151.96,1028.96 1213.31,994.813 1279.12,964.501 1347.55,939.033 1416.63,919.167 1484.35,905.387 1548.64,897.884 1607.53,896.555 1659.15,901.009 1701.83,910.59 1734.12,924.401 1754.87,941.345 1763.25,960.169 1758.8,979.518 1741.42,997.989 1711.36,1014.19 1669.29,1026.78 1616.19,1034.57 1553.36,1036.51 1482.4,1031.78 1405.11,1019.83 1323.47,1000.34 1239.58,973.34 1155.56,939.122 1073.52,898.291 995.465,851.725 923.27,800.553 858.591,746.119 802.831,689.937 757.1,633.635 722.185,578.903 698.535,527.433 686.251,480.854 685.093,440.678 694.502,408.242 713.619,384.658 741.331,370.772 776.315,367.129 817.084,373.95 862.054,391.12 909.594,418.186 958.092,454.371 1006.01,498.591 1051.94,549.496 1094.65,605.502 1133.11,664.853 1166.58,725.67 1194.54,786.015 1216.78,843.958 1233.38,897.635 1244.66,945.315 1251.22,985.459 1253.87,1016.76 1253.58,1038.22 1251.48,1049.12 1248.76,1049.12 1246.65,1038.22 1246.37,1016.76 1249.01,985.459 1255.57,945.315 1266.86,897.635 1283.45,843.958 1305.7,786.015 1333.66,725.67 1367.12,664.853 1405.59,605.502 1448.29,549.496 1494.22,498.591 1542.14,454.371 1590.64,418.186 1638.18,391.12 1683.15,373.95 1723.92,367.129 1758.9,370.772 1786.62,384.658 1805.73,408.242 1815.14,440.678 1813.98,480.854 1801.7,527.433 1778.05,578.903 1743.13,633.635 1697.4,689.937 1641.64,746.119 1576.96,800.553 1504.77,851.725 1426.72,898.291 1344.67,939.122 1260.65,973.34 1176.76,1000.34 1095.13,1019.83 1017.84,1031.78 946.874,1036.51 884.048,1034.57 830.944,1026.78 788.87,1014.19 758.818,997.989 741.429,979.518 736.979,960.169 745.366,941.345 766.117,924.401 798.406,910.59 841.082,901.009 892.704,896.555 951.593,897.884 1015.89,905.387 1083.6,919.167 1152.69,939.033 1221.12,964.501 1286.92,994.813 1348.28,1028.96 1403.55,1065.7 1451.33,1103.65 1490.52,1141.26 1520.32,1176.96 1540.26,1209.14 1550.2,1236.25 1550.37,1256.85 1541.29,1269.67 1523.8,1273.67 1498.96,1268.06 1468.09,1252.35 1432.65,1226.37 1394.2,1190.3 1354.36,1144.64 1314.72,1090.25 1276.82,1028.27 1242.05,960.135 1211.63,887.514 1186.57,812.261 1167.6,736.357 1155.19,661.851 1149.53,590.795 1150.48,525.174 1157.66,466.847 1170.39,417.484 1187.77,378.513 1208.71,351.07 1231.97,335.967 1256.19,333.662 1279.99,344.243 1302.01,367.428 1320.94,402.572 1335.6,448.689 1345,504.483 1348.35,568.39 1345.11,638.633 1335.02,713.273 1318.12,790.276 1294.74,867.576 1265.47,943.143 1231.22,1015.04 1193.09,1081.51 1152.4,1140.97 1110.64,1192.12 1069.37,1233.97 1030.21,1265.81 994.779,1287.32 964.594,1298.47 941.053,1299.59 925.36,1291.33 918.486,1274.59 921.119,1250.55 933.641,1220.55 956.103,1186.11 988.215,1148.78 1029.35,1110.19 1078.56,1071.9 1134.59,1035.37 1195.93,1001.92 1260.85,972.687 1327.46,948.556 1393.75,930.15 1457.69,917.811 1517.26,911.583 1570.54,911.22 1615.76,916.197 1651.36,925.738 1676.05,938.842 1688.84,954.334 1689.09,970.906 1676.51,987.178 1651.21,1001.75 1613.65,1013.25 1564.65,1020.42 1505.37,1022.13 1437.28,1017.46 1362.09,1005.71 1281.7,986.465 1198.15,959.583 1113.59,925.227 1030.12,883.859 949.832,836.231 874.668,783.358 806.402,726.491 746.571,667.074 696.442,606.692 656.966,547.024 628.765,489.775 612.114,436.622 606.945,389.154 612.853,348.81 629.126,316.83 654.773,294.209 688.568,281.653 729.096,279.558 774.813,287.988 824.102,306.666 875.331,334.985 926.914,372.021 977.368,416.559 1025.36,467.136 1069.76,522.084 1109.66,579.587 1144.43,637.735 1173.7,694.594 1197.4,748.268 1215.71,796.959 1229.11,839.032 1238.29,873.066 1244.13,897.906 1247.68,912.697 1250.12,916.917 1252.64,910.395 1256.45,893.312 1262.73,866.2 1272.51,829.924 1286.68,785.65 1305.94,734.806 1330.74,679.04 1361.28,620.156 1397.47,560.062 1438.95,500.701 1485.07,443.99 1534.93,391.755 1587.39,345.672 1641.11,307.213 1694.6,277.599 1746.27,257.762 1794.47,248.318 1837.59,249.547 1874.07,261.393 1902.48,283.468 1921.6,315.068 1930.43,355.204 1928.23,402.642 1914.6,455.945 1889.46,513.529 1853.08,573.721 1806.05,634.814 1749.34,695.136 1684.19,753.101 1612.14,807.266 1534.93,856.382 1454.51,899.432 1372.95,935.664 1292.36,964.616 1214.86,986.122 1142.47,1000.32 1077.11,1007.62 1020.47,1008.73 973.99,1004.56 938.833,996.231 915.813,985.005 905.385,972.24 907.636,959.332 922.275,947.657 948.65,938.514 985.766,933.074 1032.32,932.326 1086.75,937.041 1147.28,947.735 1211.97,964.644 1278.81,987.715 1345.74,1016.6 1410.78,1050.66 1472.01,1088.99 1527.7,1130.47 1576.33,1173.76 1616.66,1217.37 1647.72,1259.74 1668.89,1299.24 1679.87,1334.29 1680.72,1363.37 1671.82,1385.12 1653.84,1398.36 1627.78,1402.16 1594.82,1395.88 1556.37,1379.17 1513.95,1352.03 1469.18,1314.8 1423.68,1268.14 1379.02,1213.07 1336.69,1150.85 1298,1083.06 1264.1,1011.44 1235.85,937.922 1213.89,864.526 1198.53,793.305 1189.83,726.284 1187.54,665.39 1191.11,612.393 1199.79,568.846 1212.58,536.037 1228.3,514.943 1245.67,506.202 1263.34,510.088 1279.92,526.506 1294.08,554.991 1304.59,594.726 1310.37,644.568 1310.53,703.085 1304.41,768.603 1291.63,839.259 1272.07,913.064 1245.94,987.963 1213.7,1061.91 1176.12,1132.91 1134.22,1199.12 1089.22,1258.87 1042.53,1310.72 995.708,1353.53 950.354,1386.45 908.098,1408.97 870.522,1420.93 839.101,1422.49 815.147,1414.15 799.759,1396.69 793.777,1371.17 797.745,1338.87 811.885,1301.23 836.084,1259.81 869.885,1216.21 912.502,1172.04 962.831,1128.83 1019.49,1087.99 1080.85,1050.76 1145.1,1018.17 1210.29,990.981 1274.38,969.69 1335.34,954.5 1391.19,945.319 1440.09,941.77 1480.35,943.209 1510.56,948.752 1529.54,957.314 1536.5,967.659 1530.96,978.444 1512.83,988.279 1482.37,995.784 1440.25,999.645 1387.44,998.67 1325.27,991.837 1255.31,978.341 1179.39,957.629 1099.47,929.425 1017.65,893.748 936.058,850.92 856.793,801.555 781.868,746.547 713.146,687.041 652.279,624.396 600.669,560.137 559.418,495.91 529.309,433.418 510.784,374.366 503.935,320.396 508.518,273.035 523.962,233.632 549.402,203.312 583.716,182.933 625.567,173.051 673.462,173.899 725.803,185.372 780.949,207.03 837.278,238.102 893.237,277.518 947.405,323.933 998.535,375.774 1045.6,431.29 1087.82,488.612 1124.68,545.807 1155.95,600.951 1181.69,652.187 1202.22,697.788 1218.11,736.218 1230.16,766.179 1239.32,786.66 1246.72,796.966 1253.52,796.745 1260.95,785.996 1270.18,765.076 1282.33,734.679 1298.35,695.82 1319.05,649.798 1344.98,598.151 1376.49,542.608 1413.61,485.026 1456.12,427.333 1503.5,371.461 1554.98,319.284 1609.53,272.552 1665.9,232.842 1722.66,201.496 1778.26,179.591 1831.08,167.895 1879.48,166.853 1921.86,176.569 1956.72,196.812 1982.72,227.028 1998.75,266.358 2003.93,313.681 1997.69,367.646 1979.79,426.73 1950.32,489.29 1909.71,553.622 1858.75,618.025 1798.54,680.853 1730.48,740.582 1656.22,795.852 1577.61,845.52 1496.68,888.692 1415.52,924.754 1336.25,953.386 1260.96,974.567 1191.63,988.573 1130.08,995.957 1077.87,997.526 1036.33,994.3 1006.44,987.47 988.844,978.351 983.821,968.323 991.271,958.773 1010.72,951.044 1041.36,946.373 1082.02,945.842 1131.29,950.334 1187.47,960.492 1248.73,976.693 1313.07,999.027 1378.46,1027.29 1442.87,1060.98 1504.35,1099.34 1561.08,1141.33 1611.43,1185.72 1654.01,1231.09 1687.73,1275.91 1711.78,1318.57 1725.73,1357.45 1729.44,1391.02 1723.14,1417.81 1707.38,1436.54 1682.99,1446.17 1651.07,1445.9 1612.93,1435.23 1570.05,1413.99 1524,1382.35 1476.42,1340.81 1428.92,1290.21 1383.03,1231.71 1340.17,1166.72 1301.57,1096.92 1268.25,1024.16 1240.96,950.408 1220.19,877.723 1206.12,808.153 1198.65,743.684 1197.4,686.175 1201.7,637.296 1210.68,598.478 1223.25,570.86 1238.17,555.255 1254.13,552.125 1269.73,561.563 1283.64,583.29 1294.55,616.666 1301.3,660.711 1302.91,714.134 1298.6,775.379 1287.85,842.674 1270.4,914.088 1246.3,987.594 1215.9,1061.13 1179.79,1132.69 1138.89,1200.33 1094.32,1262.3 1047.4,1317.04 999.617,1363.25 952.558,1399.95 907.848,1426.45 867.098,1442.43 831.844,1447.87 803.485,1443.13 783.231,1428.84 772.057,1405.94 770.656,1375.6 779.415,1339.18 798.386,1298.21 827.284,1254.27 865.483,1208.97 912.034,1163.9 965.689,1120.52 1024.93,1080.19 1088.04,1044.03 1153.12,1012.94 1218.16,987.569 1281.13,968.258 1340.01,955.067 1392.87,947.759 1437.95,945.823 1473.68,948.491 1498.76,954.774 1512.21,963.507 1513.38,973.393 1501.98,983.06 1478.1,991.117 1442.2,996.208 1395.1,997.076 1337.96,992.608 1272.23,981.885 1199.61,964.223 1122.01,939.205 1041.47,906.703 960.091,866.886 880.007,820.223 803.279,767.47 731.849,709.652 667.48,648.023 611.704,584.032 565.774,519.272 530.637,455.422 506.902,394.194 494.838,337.269 494.365,286.237 505.07,242.542 526.233,207.425 556.851,181.883 595.689,166.625 641.324,162.047 692.203,168.213 746.698,184.849 803.168,211.345 860.019,246.778 915.757,289.934 969.041,339.346 1018.73,393.347 1063.91,450.115 1103.95,507.743 1138.46,564.292 1167.35,617.862 1190.83,666.654 1209.34,709.028 1223.56,743.56 1234.39,769.089 1242.85,784.758 1250.12,790.041 "/>
</svg>