<?xml version="1.0" encoding="utf-8"?>
<svg xmlns="http://www.w3.org/2000/svg" xmlns:xlink="http://www.w3.org/1999/xlink" width="600" height="400" viewBox="0 0 2400 1600">
<defs>
  <clipPath id="clip540">
    <rect x="0" y="0" width="2400" height="1600"/>
  </clipPath>
</defs>
<path clip-path="url(#clip540)" d="M0 1600 L2400 1600 L2400 0 L0 0  Z" fill="#ffffff" fill-rule="evenodd" fill-opacity="1"/>
<defs>
  <clipPath id="clip541">
    <rect x="480" y="0" width="1681" height="1600"/>
  </clipPath>
</defs>
<path clip-path="url(#clip540)" d="M249.542 1423.18 L2352.76 1423.18 L2352.76 123.472 L249.542 123.472  Z" fill="#ffffff" fill-rule="evenodd" fill-opacity="1"/>
<defs>
  <clipPath id="clip542">
    <rect x="249" y="123" width="2104" height="1301"/>
  </clipPath>
</defs>
<polyline clip-path="url(#clip542)" style="stroke:#000000; stroke-linecap:round; stroke-linejoin:round; stroke-width:2; stroke-opacity:0.1; fill:none" points="494.316,1423.18 494.316,123.472 "/>
<polyline clip-path="url(#clip542)" style="stroke:#000000; stroke-linecap:round; stroke-linejoin:round; stroke-width:2; stroke-opacity:0.1; fill:none" points="817.049,1423.18 817.049,123.472 "/>
<polyline clip-path="url(#clip542)" style="stroke:#000000; stroke-linecap:round; stroke-linejoin:round; stroke-width:2; stroke-opacity:0.1; fill:none" points="1139.78,1423.18 1139.78,123.472 "/>
<polyline clip-path="url(#clip542)" style="stroke:#000000; stroke-linecap:round; stroke-linejoin:round; stroke-width:2; stroke-opacity:0.1; fill:none" points="1462.52,1423.18 1462.52,123.472 "/>
<polyline clip-path="url(#clip542)" style="stroke:#000000; stroke-linecap:round; stroke-linejoin:round; stroke-width:2; stroke-opacity:0.1; fill:none" points="1785.25,1423.18 1785.25,123.472 "/>
<polyline clip-path="url(#clip542)" style="stroke:#000000; stroke-linecap:round; stroke-linejoin:round; stroke-width:2; stroke-opacity:0.1; fill:none" points="2107.98,1423.18 2107.98,123.472 "/>
<polyline clip-path="url(#clip542)" style="stroke:#000000; stroke-linecap:round; stroke-linejoin:round; stroke-width:2; stroke-opacity:0.1; fill:none" points="249.542,1423.18 2352.76,1423.18 "/>
<polyline clip-path="url(#clip542)" style="stroke:#000000; stroke-linecap:round; stroke-linejoin:round; stroke-width:2; stroke-opacity:0.1; fill:none" points="249.542,1163.24 2352.76,1163.24 "/>
<polyline clip-path="url(#clip542)" style="stroke:#000000; stroke-linecap:round; stroke-linejoin:round; stroke-width:2; stroke-opacity:0.1; fill:none" points="249.542,903.297 2352.76,903.297 "/>
<polyline clip-path="url(#clip542)" style="stroke:#000000; stroke-linecap:round; stroke-linejoin:round; stroke-width:2; stroke-opacity:0.1; fill:none" points="249.542,643.355 2352.76,643.355 "/>
<polyline clip-path="url(#clip542)" style="stroke:#000000; stroke-linecap:round; stroke-linejoin:round; stroke-width:2; stroke-opacity:0.1; fill:none" points="249.542,383.414 2352.76,383.414 "/>
<polyline clip-path="url(#clip540)" style="stroke:#000000; stroke-linecap:round; stroke-linejoin:round; stroke-width:4; stroke-opacity:1; fill:none" points="249.542,1423.18 2352.76,1423.18 "/>
<polyline clip-path="url(#clip540)" style="stroke:#000000; stroke-linecap:round; stroke-linejoin:round; stroke-width:4; stroke-opacity:1; fill:none" points="494.316,1423.18 494.316,1404.28 "/>
<polyline clip-path="url(#clip540)" style="stroke:#000000; stroke-linecap:round; stroke-linejoin:round; stroke-width:4; stroke-opacity:1; fill:none" points="817.049,1423.18 817.049,1404.28 "/>
<polyline clip-path="url(#clip540)" style="stroke:#000000; stroke-linecap:round; stroke-linejoin:round; stroke-width:4; stroke-opacity:1; fill:none" points="1139.78,1423.18 1139.78,1404.28 "/>
<polyline clip-path="url(#clip540)" style="stroke:#000000; stroke-linecap:round; stroke-linejoin:round; stroke-width:4; stroke-opacity:1; fill:none" points="1462.52,1423.18 1462.52,1404.28 "/>
<polyline clip-path="url(#clip540)" style="stroke:#000000; stroke-linecap:round; stroke-linejoin:round; stroke-width:4; stroke-opacity:1; fill:none" points="1785.25,1423.18 1785.25,1404.28 "/>
<polyline clip-path="url(#clip540)" style="stroke:#000000; stroke-linecap:round; stroke-linejoin:round; stroke-width:4; stroke-opacity:1; fill:none" points="2107.98,1423.18 2107.98,1404.28 "/>
<path clip-path="url(#clip540)" d="M484.698 1481.64 L492.337 1481.64 L492.337 1455.28 L484.027 1456.95 L484.027 1452.69 L492.29 1451.02 L496.966 1451.02 L496.966 1481.64 L504.605 1481.64 L504.605 1485.58 L484.698 1485.58 L484.698 1481.64 Z" fill="#000000" fill-rule="nonzero" fill-opacity="1" /><path clip-path="url(#clip540)" d="M811.702 1481.64 L828.021 1481.64 L828.021 1485.58 L806.077 1485.58 L806.077 1481.64 Q808.739 1478.89 813.322 1474.26 Q817.929 1469.61 819.109 1468.27 Q821.355 1465.74 822.234 1464.01 Q823.137 1462.25 823.137 1460.56 Q823.137 1457.8 821.193 1456.07 Q819.271 1454.33 816.169 1454.33 Q813.97 1454.33 811.517 1455.09 Q809.086 1455.86 806.308 1457.41 L806.308 1452.69 Q809.132 1451.55 811.586 1450.97 Q814.04 1450.39 816.077 1450.39 Q821.447 1450.39 824.642 1453.08 Q827.836 1455.77 827.836 1460.26 Q827.836 1462.39 827.026 1464.31 Q826.239 1466.2 824.132 1468.8 Q823.554 1469.47 820.452 1472.69 Q817.35 1475.88 811.702 1481.64 Z" fill="#000000" fill-rule="nonzero" fill-opacity="1" /><path clip-path="url(#clip540)" d="M1144.03 1466.95 Q1147.39 1467.66 1149.26 1469.93 Q1151.16 1472.2 1151.16 1475.53 Q1151.16 1480.65 1147.64 1483.45 Q1144.12 1486.25 1137.64 1486.25 Q1135.47 1486.25 1133.15 1485.81 Q1130.86 1485.39 1128.41 1484.54 L1128.41 1480.02 Q1130.35 1481.16 1132.66 1481.74 Q1134.98 1482.32 1137.5 1482.32 Q1141.9 1482.32 1144.19 1480.58 Q1146.51 1478.84 1146.51 1475.53 Q1146.51 1472.48 1144.35 1470.77 Q1142.22 1469.03 1138.41 1469.03 L1134.38 1469.03 L1134.38 1465.19 L1138.59 1465.19 Q1142.04 1465.19 1143.87 1463.82 Q1145.7 1462.43 1145.7 1459.84 Q1145.7 1457.18 1143.8 1455.77 Q1141.92 1454.33 1138.41 1454.33 Q1136.48 1454.33 1134.28 1454.75 Q1132.09 1455.16 1129.45 1456.04 L1129.45 1451.88 Q1132.11 1451.14 1134.42 1450.77 Q1136.76 1450.39 1138.82 1450.39 Q1144.15 1450.39 1147.25 1452.83 Q1150.35 1455.23 1150.35 1459.35 Q1150.35 1462.22 1148.71 1464.21 Q1147.06 1466.18 1144.03 1466.95 Z" fill="#000000" fill-rule="nonzero" fill-opacity="1" /><path clip-path="url(#clip540)" d="M1465.52 1455.09 L1453.72 1473.54 L1465.52 1473.54 L1465.52 1455.09 M1464.3 1451.02 L1470.18 1451.02 L1470.18 1473.54 L1475.11 1473.54 L1475.11 1477.43 L1470.18 1477.43 L1470.18 1485.58 L1465.52 1485.58 L1465.52 1477.43 L1449.92 1477.43 L1449.92 1472.92 L1464.3 1451.02 Z" fill="#000000" fill-rule="nonzero" fill-opacity="1" /><path clip-path="url(#clip540)" d="M1775.53 1451.02 L1793.88 1451.02 L1793.88 1454.96 L1779.81 1454.96 L1779.81 1463.43 Q1780.83 1463.08 1781.85 1462.92 Q1782.86 1462.73 1783.88 1462.73 Q1789.67 1462.73 1793.05 1465.9 Q1796.43 1469.08 1796.43 1474.49 Q1796.43 1480.07 1792.96 1483.17 Q1789.48 1486.25 1783.17 1486.25 Q1780.99 1486.25 1778.72 1485.88 Q1776.48 1485.51 1774.07 1484.77 L1774.07 1480.07 Q1776.15 1481.2 1778.37 1481.76 Q1780.6 1482.32 1783.07 1482.32 Q1787.08 1482.32 1789.42 1480.21 Q1791.75 1478.1 1791.75 1474.49 Q1791.75 1470.88 1789.42 1468.77 Q1787.08 1466.67 1783.07 1466.67 Q1781.2 1466.67 1779.32 1467.08 Q1777.47 1467.5 1775.53 1468.38 L1775.53 1451.02 Z" fill="#000000" fill-rule="nonzero" fill-opacity="1" /><path clip-path="url(#clip540)" d="M2108.39 1466.44 Q2105.24 1466.44 2103.39 1468.59 Q2101.56 1470.74 2101.56 1474.49 Q2101.56 1478.22 2103.39 1480.39 Q2105.24 1482.55 2108.39 1482.55 Q2111.54 1482.55 2113.36 1480.39 Q2115.22 1478.22 2115.22 1474.49 Q2115.22 1470.74 2113.36 1468.59 Q2111.54 1466.44 2108.39 1466.44 M2117.67 1451.78 L2117.67 1456.04 Q2115.91 1455.21 2114.1 1454.77 Q2112.32 1454.33 2110.56 1454.33 Q2105.93 1454.33 2103.48 1457.45 Q2101.05 1460.58 2100.7 1466.9 Q2102.07 1464.89 2104.13 1463.82 Q2106.19 1462.73 2108.66 1462.73 Q2113.87 1462.73 2116.88 1465.9 Q2119.91 1469.05 2119.91 1474.49 Q2119.91 1479.82 2116.77 1483.03 Q2113.62 1486.25 2108.39 1486.25 Q2102.39 1486.25 2099.22 1481.67 Q2096.05 1477.06 2096.05 1468.33 Q2096.05 1460.14 2099.94 1455.28 Q2103.83 1450.39 2110.38 1450.39 Q2112.14 1450.39 2113.92 1450.74 Q2115.73 1451.09 2117.67 1451.78 Z" fill="#000000" fill-rule="nonzero" fill-opacity="1" /><path clip-path="url(#clip540)" d="M1099.2 1525.81 L1099.2 1562.76 L1106.96 1562.76 Q1116.8 1562.76 1121.35 1558.3 Q1125.93 1553.85 1125.93 1544.24 Q1125.93 1534.69 1121.35 1530.26 Q1116.8 1525.81 1106.96 1525.81 L1099.2 1525.81 M1092.77 1520.52 L1105.98 1520.52 Q1119.79 1520.52 1126.25 1526.28 Q1132.71 1532.01 1132.71 1544.24 Q1132.71 1556.52 1126.22 1562.28 Q1119.73 1568.04 1105.98 1568.04 L1092.77 1568.04 L1092.77 1520.52 Z" fill="#000000" fill-rule="nonzero" fill-opacity="1" /><path clip-path="url(#clip540)" d="M1142.71 1532.4 L1148.56 1532.4 L1148.56 1568.04 L1142.71 1568.04 L1142.71 1532.4 M1142.71 1518.52 L1148.56 1518.52 L1148.56 1525.93 L1142.71 1525.93 L1142.71 1518.52 Z" fill="#000000" fill-rule="nonzero" fill-opacity="1" /><path clip-path="url(#clip540)" d="M1191.31 1548.76 L1191.31 1551.62 L1164.38 1551.62 Q1164.76 1557.67 1168.01 1560.85 Q1171.29 1564 1177.11 1564 Q1180.49 1564 1183.64 1563.17 Q1186.82 1562.35 1189.94 1560.69 L1189.94 1566.23 Q1186.79 1567.57 1183.48 1568.27 Q1180.17 1568.97 1176.76 1568.97 Q1168.23 1568.97 1163.24 1564 Q1158.27 1559.04 1158.27 1550.57 Q1158.27 1541.82 1162.98 1536.69 Q1167.72 1531.54 1175.74 1531.54 Q1182.94 1531.54 1187.11 1536.18 Q1191.31 1540.8 1191.31 1548.76 M1185.45 1547.04 Q1185.39 1542.23 1182.75 1539.37 Q1180.14 1536.5 1175.81 1536.5 Q1170.91 1536.5 1167.95 1539.27 Q1165.02 1542.04 1164.57 1547.07 L1185.45 1547.04 Z" fill="#000000" fill-rule="nonzero" fill-opacity="1" /><path clip-path="url(#clip540)" d="M1241.18 1524.88 Q1234.18 1524.88 1230.04 1530.1 Q1225.94 1535.32 1225.94 1544.33 Q1225.94 1553.31 1230.04 1558.53 Q1234.18 1563.75 1241.18 1563.75 Q1248.19 1563.75 1252.26 1558.53 Q1256.37 1553.31 1256.37 1544.33 Q1256.37 1535.32 1252.26 1530.1 Q1248.19 1524.88 1241.18 1524.88 M1241.18 1519.66 Q1251.18 1519.66 1257.16 1526.38 Q1263.15 1533.06 1263.15 1544.33 Q1263.15 1555.57 1257.16 1562.28 Q1251.18 1568.97 1241.18 1568.97 Q1231.16 1568.97 1225.14 1562.28 Q1219.16 1555.6 1219.16 1544.33 Q1219.16 1533.06 1225.14 1526.38 Q1231.16 1519.66 1241.18 1519.66 Z" fill="#000000" fill-rule="nonzero" fill-opacity="1" /><path clip-path="url(#clip540)" d="M1272.34 1553.98 L1272.34 1532.4 L1278.2 1532.4 L1278.2 1553.75 Q1278.2 1558.81 1280.17 1561.36 Q1282.15 1563.87 1286.09 1563.87 Q1290.84 1563.87 1293.57 1560.85 Q1296.34 1557.83 1296.34 1552.61 L1296.34 1532.4 L1302.2 1532.4 L1302.2 1568.04 L1296.34 1568.04 L1296.34 1562.57 Q1294.21 1565.82 1291.38 1567.41 Q1288.58 1568.97 1284.85 1568.97 Q1278.71 1568.97 1275.53 1565.15 Q1272.34 1561.33 1272.34 1553.98 M1287.08 1531.54 L1287.08 1531.54 Z" fill="#000000" fill-rule="nonzero" fill-opacity="1" /><path clip-path="url(#clip540)" d="M1320.06 1522.27 L1320.06 1532.4 L1332.12 1532.4 L1332.12 1536.95 L1320.06 1536.95 L1320.06 1556.3 Q1320.06 1560.66 1321.23 1561.9 Q1322.44 1563.14 1326.1 1563.14 L1332.12 1563.14 L1332.12 1568.04 L1326.1 1568.04 Q1319.32 1568.04 1316.74 1565.53 Q1314.17 1562.98 1314.17 1556.3 L1314.17 1536.95 L1309.87 1536.95 L1309.87 1532.4 L1314.17 1532.4 L1314.17 1522.27 L1320.06 1522.27 Z" fill="#000000" fill-rule="nonzero" fill-opacity="1" /><path clip-path="url(#clip540)" d="M1365.47 1533.76 L1365.47 1539.24 Q1362.99 1537.87 1360.48 1537.2 Q1357.99 1536.5 1355.45 1536.5 Q1349.75 1536.5 1346.6 1540.13 Q1343.45 1543.73 1343.45 1550.25 Q1343.45 1556.78 1346.6 1560.4 Q1349.75 1564 1355.45 1564 Q1357.99 1564 1360.48 1563.33 Q1362.99 1562.63 1365.47 1561.26 L1365.47 1566.68 Q1363.02 1567.82 1360.38 1568.39 Q1357.77 1568.97 1354.81 1568.97 Q1346.76 1568.97 1342.02 1563.91 Q1337.27 1558.85 1337.27 1550.25 Q1337.27 1541.53 1342.05 1536.53 Q1346.85 1531.54 1355.19 1531.54 Q1357.9 1531.54 1360.48 1532.11 Q1363.06 1532.65 1365.47 1533.76 Z" fill="#000000" fill-rule="nonzero" fill-opacity="1" /><path clip-path="url(#clip540)" d="M1389.47 1536.5 Q1384.76 1536.5 1382.03 1540.19 Q1379.29 1543.85 1379.29 1550.25 Q1379.29 1556.65 1381.99 1560.34 Q1384.73 1564 1389.47 1564 Q1394.15 1564 1396.89 1560.31 Q1399.63 1556.62 1399.63 1550.25 Q1399.63 1543.92 1396.89 1540.23 Q1394.15 1536.5 1389.47 1536.5 M1389.47 1531.54 Q1397.11 1531.54 1401.47 1536.5 Q1405.83 1541.47 1405.83 1550.25 Q1405.83 1559 1401.47 1564 Q1397.11 1568.97 1389.47 1568.97 Q1381.8 1568.97 1377.44 1564 Q1373.11 1559 1373.11 1550.25 Q1373.11 1541.47 1377.44 1536.5 Q1381.8 1531.54 1389.47 1531.54 Z" fill="#000000" fill-rule="nonzero" fill-opacity="1" /><path clip-path="url(#clip540)" d="M1443.3 1539.24 Q1445.49 1535.29 1448.55 1533.41 Q1451.6 1531.54 1455.74 1531.54 Q1461.31 1531.54 1464.33 1535.45 Q1467.36 1539.33 1467.36 1546.53 L1467.36 1568.04 L1461.47 1568.04 L1461.47 1546.72 Q1461.47 1541.59 1459.66 1539.11 Q1457.84 1536.63 1454.12 1536.63 Q1449.57 1536.63 1446.92 1539.65 Q1444.28 1542.68 1444.28 1547.9 L1444.28 1568.04 L1438.39 1568.04 L1438.39 1546.72 Q1438.39 1541.56 1436.58 1539.11 Q1434.77 1536.63 1430.98 1536.63 Q1426.49 1536.63 1423.85 1539.68 Q1421.21 1542.71 1421.21 1547.9 L1421.21 1568.04 L1415.32 1568.04 L1415.32 1532.4 L1421.21 1532.4 L1421.21 1537.93 Q1423.21 1534.66 1426.01 1533.1 Q1428.81 1531.54 1432.66 1531.54 Q1436.55 1531.54 1439.25 1533.51 Q1441.99 1535.48 1443.3 1539.24 Z" fill="#000000" fill-rule="nonzero" fill-opacity="1" /><path clip-path="url(#clip540)" d="M1509.53 1548.76 L1509.53 1551.62 L1482.6 1551.62 Q1482.99 1557.67 1486.23 1560.85 Q1489.51 1564 1495.33 1564 Q1498.71 1564 1501.86 1563.17 Q1505.04 1562.35 1508.16 1560.69 L1508.16 1566.23 Q1505.01 1567.57 1501.7 1568.27 Q1498.39 1568.97 1494.98 1568.97 Q1486.45 1568.97 1481.46 1564 Q1476.49 1559.04 1476.49 1550.57 Q1476.49 1541.82 1481.2 1536.69 Q1485.95 1531.54 1493.97 1531.54 Q1501.16 1531.54 1505.33 1536.18 Q1509.53 1540.8 1509.53 1548.76 M1503.67 1547.04 Q1503.61 1542.23 1500.97 1539.37 Q1498.36 1536.5 1494.03 1536.5 Q1489.13 1536.5 1486.17 1539.27 Q1483.24 1542.04 1482.79 1547.07 L1503.67 1547.04 Z" fill="#000000" fill-rule="nonzero" fill-opacity="1" /><polyline clip-path="url(#clip540)" style="stroke:#000000; stroke-linecap:round; stroke-linejoin:round; stroke-width:4; stroke-opacity:1; fill:none" points="249.542,1423.18 249.542,123.472 "/>
<polyline clip-path="url(#clip540)" style="stroke:#000000; stroke-linecap:round; stroke-linejoin:round; stroke-width:4; stroke-opacity:1; fill:none" points="249.542,1423.18 268.44,1423.18 "/>
<polyline clip-path="url(#clip540)" style="stroke:#000000; stroke-linecap:round; stroke-linejoin:round; stroke-width:4; stroke-opacity:1; fill:none" points="249.542,1163.24 268.44,1163.24 "/>
<polyline clip-path="url(#clip540)" style="stroke:#000000; stroke-linecap:round; stroke-linejoin:round; stroke-width:4; stroke-opacity:1; fill:none" points="249.542,903.297 268.44,903.297 "/>
<polyline clip-path="url(#clip540)" style="stroke:#000000; stroke-linecap:round; stroke-linejoin:round; stroke-width:4; stroke-opacity:1; fill:none" points="249.542,643.355 268.44,643.355 "/>
<polyline clip-path="url(#clip540)" style="stroke:#000000; stroke-linecap:round; stroke-linejoin:round; stroke-width:4; stroke-opacity:1; fill:none" points="249.542,383.414 268.44,383.414 "/>
<path clip-path="url(#clip540)" d="M126.205 1408.98 Q122.593 1408.98 120.765 1412.54 Q118.959 1416.08 118.959 1423.21 Q118.959 1430.32 120.765 1433.89 Q122.593 1437.43 126.205 1437.43 Q129.839 1437.43 131.644 1433.89 Q133.473 1430.32 133.473 1423.21 Q133.473 1416.08 131.644 1412.54 Q129.839 1408.98 126.205 1408.98 M126.205 1405.27 Q132.015 1405.27 135.07 1409.88 Q138.149 1414.46 138.149 1423.21 Q138.149 1431.94 135.07 1436.55 Q132.015 1441.13 126.205 1441.13 Q120.394 1441.13 117.316 1436.55 Q114.26 1431.94 114.26 1423.21 Q114.26 1414.46 117.316 1409.88 Q120.394 1405.27 126.205 1405.27 Z" fill="#000000" fill-rule="nonzero" fill-opacity="1" /><path clip-path="url(#clip540)" d="M146.366 1434.58 L151.251 1434.58 L151.251 1440.46 L146.366 1440.46 L146.366 1434.58 Z" fill="#000000" fill-rule="nonzero" fill-opacity="1" /><path clip-path="url(#clip540)" d="M171.436 1408.98 Q167.825 1408.98 165.996 1412.54 Q164.19 1416.08 164.19 1423.21 Q164.19 1430.32 165.996 1433.89 Q167.825 1437.43 171.436 1437.43 Q175.07 1437.43 176.876 1433.89 Q178.704 1430.32 178.704 1423.21 Q178.704 1416.08 176.876 1412.54 Q175.07 1408.98 171.436 1408.98 M171.436 1405.27 Q177.246 1405.27 180.301 1409.88 Q183.38 1414.46 183.38 1423.21 Q183.38 1431.94 180.301 1436.55 Q177.246 1441.13 171.436 1441.13 Q165.626 1441.13 162.547 1436.55 Q159.491 1431.94 159.491 1423.21 Q159.491 1414.46 162.547 1409.88 Q165.626 1405.27 171.436 1405.27 Z" fill="#000000" fill-rule="nonzero" fill-opacity="1" /><path clip-path="url(#clip540)" d="M201.598 1408.98 Q197.987 1408.98 196.158 1412.54 Q194.352 1416.08 194.352 1423.21 Q194.352 1430.32 196.158 1433.89 Q197.987 1437.43 201.598 1437.43 Q205.232 1437.43 207.037 1433.89 Q208.866 1430.32 208.866 1423.21 Q208.866 1416.08 207.037 1412.54 Q205.232 1408.98 201.598 1408.98 M201.598 1405.27 Q207.408 1405.27 210.463 1409.88 Q213.542 1414.46 213.542 1423.21 Q213.542 1431.94 210.463 1436.55 Q207.408 1441.13 201.598 1441.13 Q195.787 1441.13 192.709 1436.55 Q189.653 1431.94 189.653 1423.21 Q189.653 1414.46 192.709 1409.88 Q195.787 1405.27 201.598 1405.27 Z" fill="#000000" fill-rule="nonzero" fill-opacity="1" /><path clip-path="url(#clip540)" d="M127.2 1149.04 Q123.589 1149.04 121.76 1152.6 Q119.955 1156.14 119.955 1163.27 Q119.955 1170.38 121.76 1173.94 Q123.589 1177.49 127.2 1177.49 Q130.834 1177.49 132.64 1173.94 Q134.468 1170.38 134.468 1163.27 Q134.468 1156.14 132.64 1152.6 Q130.834 1149.04 127.2 1149.04 M127.2 1145.33 Q133.01 1145.33 136.066 1149.94 Q139.144 1154.52 139.144 1163.27 Q139.144 1172 136.066 1176.61 Q133.01 1181.19 127.2 1181.19 Q121.39 1181.19 118.311 1176.61 Q115.256 1172 115.256 1163.27 Q115.256 1154.52 118.311 1149.94 Q121.39 1145.33 127.2 1145.33 Z" fill="#000000" fill-rule="nonzero" fill-opacity="1" /><path clip-path="url(#clip540)" d="M147.362 1174.64 L152.246 1174.64 L152.246 1180.52 L147.362 1180.52 L147.362 1174.64 Z" fill="#000000" fill-rule="nonzero" fill-opacity="1" /><path clip-path="url(#clip540)" d="M172.431 1149.04 Q168.82 1149.04 166.991 1152.6 Q165.186 1156.14 165.186 1163.27 Q165.186 1170.38 166.991 1173.94 Q168.82 1177.49 172.431 1177.49 Q176.065 1177.49 177.871 1173.94 Q179.7 1170.38 179.7 1163.27 Q179.7 1156.14 177.871 1152.6 Q176.065 1149.04 172.431 1149.04 M172.431 1145.33 Q178.241 1145.33 181.297 1149.94 Q184.376 1154.52 184.376 1163.27 Q184.376 1172 181.297 1176.61 Q178.241 1181.19 172.431 1181.19 Q166.621 1181.19 163.542 1176.61 Q160.487 1172 160.487 1163.27 Q160.487 1154.52 163.542 1149.94 Q166.621 1145.33 172.431 1145.33 Z" fill="#000000" fill-rule="nonzero" fill-opacity="1" /><path clip-path="url(#clip540)" d="M192.639 1145.96 L210.996 1145.96 L210.996 1149.89 L196.922 1149.89 L196.922 1158.37 Q197.94 1158.02 198.959 1157.86 Q199.977 1157.67 200.996 1157.67 Q206.783 1157.67 210.162 1160.84 Q213.542 1164.01 213.542 1169.43 Q213.542 1175.01 210.07 1178.11 Q206.598 1181.19 200.278 1181.19 Q198.102 1181.19 195.834 1180.82 Q193.588 1180.45 191.181 1179.71 L191.181 1175.01 Q193.264 1176.14 195.487 1176.7 Q197.709 1177.25 200.186 1177.25 Q204.19 1177.25 206.528 1175.15 Q208.866 1173.04 208.866 1169.43 Q208.866 1165.82 206.528 1163.71 Q204.19 1161.61 200.186 1161.61 Q198.311 1161.61 196.436 1162.02 Q194.584 1162.44 192.639 1163.32 L192.639 1145.96 Z" fill="#000000" fill-rule="nonzero" fill-opacity="1" /><path clip-path="url(#clip540)" d="M126.205 889.095 Q122.593 889.095 120.765 892.66 Q118.959 896.202 118.959 903.331 Q118.959 910.438 120.765 914.003 Q122.593 917.544 126.205 917.544 Q129.839 917.544 131.644 914.003 Q133.473 910.438 133.473 903.331 Q133.473 896.202 131.644 892.66 Q129.839 889.095 126.205 889.095 M126.205 885.392 Q132.015 885.392 135.07 889.998 Q138.149 894.582 138.149 903.331 Q138.149 912.058 135.07 916.665 Q132.015 921.248 126.205 921.248 Q120.394 921.248 117.316 916.665 Q114.26 912.058 114.26 903.331 Q114.26 894.582 117.316 889.998 Q120.394 885.392 126.205 885.392 Z" fill="#000000" fill-rule="nonzero" fill-opacity="1" /><path clip-path="url(#clip540)" d="M146.366 914.697 L151.251 914.697 L151.251 920.577 L146.366 920.577 L146.366 914.697 Z" fill="#000000" fill-rule="nonzero" fill-opacity="1" /><path clip-path="url(#clip540)" d="M162.246 916.642 L169.885 916.642 L169.885 890.276 L161.575 891.943 L161.575 887.683 L169.839 886.017 L174.514 886.017 L174.514 916.642 L182.153 916.642 L182.153 920.577 L162.246 920.577 L162.246 916.642 Z" fill="#000000" fill-rule="nonzero" fill-opacity="1" /><path clip-path="url(#clip540)" d="M201.598 889.095 Q197.987 889.095 196.158 892.66 Q194.352 896.202 194.352 903.331 Q194.352 910.438 196.158 914.003 Q197.987 917.544 201.598 917.544 Q205.232 917.544 207.037 914.003 Q208.866 910.438 208.866 903.331 Q208.866 896.202 207.037 892.66 Q205.232 889.095 201.598 889.095 M201.598 885.392 Q207.408 885.392 210.463 889.998 Q213.542 894.582 213.542 903.331 Q213.542 912.058 210.463 916.665 Q207.408 921.248 201.598 921.248 Q195.787 921.248 192.709 916.665 Q189.653 912.058 189.653 903.331 Q189.653 894.582 192.709 889.998 Q195.787 885.392 201.598 885.392 Z" fill="#000000" fill-rule="nonzero" fill-opacity="1" /><path clip-path="url(#clip540)" d="M127.2 629.154 Q123.589 629.154 121.76 632.719 Q119.955 636.26 119.955 643.39 Q119.955 650.496 121.76 654.061 Q123.589 657.603 127.2 657.603 Q130.834 657.603 132.64 654.061 Q134.468 650.496 134.468 643.39 Q134.468 636.26 132.64 632.719 Q130.834 629.154 127.2 629.154 M127.2 625.45 Q133.01 625.45 136.066 630.057 Q139.144 634.64 139.144 643.39 Q139.144 652.117 136.066 656.723 Q133.01 661.307 127.2 661.307 Q121.39 661.307 118.311 656.723 Q115.256 652.117 115.256 643.39 Q115.256 634.64 118.311 630.057 Q121.39 625.45 127.2 625.45 Z" fill="#000000" fill-rule="nonzero" fill-opacity="1" /><path clip-path="url(#clip540)" d="M147.362 654.756 L152.246 654.756 L152.246 660.635 L147.362 660.635 L147.362 654.756 Z" fill="#000000" fill-rule="nonzero" fill-opacity="1" /><path clip-path="url(#clip540)" d="M163.241 656.7 L170.88 656.7 L170.88 630.334 L162.57 632.001 L162.57 627.742 L170.834 626.075 L175.51 626.075 L175.51 656.7 L183.149 656.7 L183.149 660.635 L163.241 660.635 L163.241 656.7 Z" fill="#000000" fill-rule="nonzero" fill-opacity="1" /><path clip-path="url(#clip540)" d="M192.639 626.075 L210.996 626.075 L210.996 630.01 L196.922 630.01 L196.922 638.483 Q197.94 638.135 198.959 637.973 Q199.977 637.788 200.996 637.788 Q206.783 637.788 210.162 640.959 Q213.542 644.131 213.542 649.547 Q213.542 655.126 210.07 658.228 Q206.598 661.307 200.278 661.307 Q198.102 661.307 195.834 660.936 Q193.588 660.566 191.181 659.825 L191.181 655.126 Q193.264 656.26 195.487 656.816 Q197.709 657.371 200.186 657.371 Q204.19 657.371 206.528 655.265 Q208.866 653.158 208.866 649.547 Q208.866 645.936 206.528 643.83 Q204.19 641.723 200.186 641.723 Q198.311 641.723 196.436 642.14 Q194.584 642.557 192.639 643.436 L192.639 626.075 Z" fill="#000000" fill-rule="nonzero" fill-opacity="1" /><path clip-path="url(#clip540)" d="M126.205 369.212 Q122.593 369.212 120.765 372.777 Q118.959 376.319 118.959 383.448 Q118.959 390.555 120.765 394.12 Q122.593 397.661 126.205 397.661 Q129.839 397.661 131.644 394.12 Q133.473 390.555 133.473 383.448 Q133.473 376.319 131.644 372.777 Q129.839 369.212 126.205 369.212 M126.205 365.509 Q132.015 365.509 135.07 370.115 Q138.149 374.698 138.149 383.448 Q138.149 392.175 135.07 396.782 Q132.015 401.365 126.205 401.365 Q120.394 401.365 117.316 396.782 Q114.26 392.175 114.26 383.448 Q114.26 374.698 117.316 370.115 Q120.394 365.509 126.205 365.509 Z" fill="#000000" fill-rule="nonzero" fill-opacity="1" /><path clip-path="url(#clip540)" d="M146.366 394.814 L151.251 394.814 L151.251 400.694 L146.366 400.694 L146.366 394.814 Z" fill="#000000" fill-rule="nonzero" fill-opacity="1" /><path clip-path="url(#clip540)" d="M165.464 396.759 L181.783 396.759 L181.783 400.694 L159.839 400.694 L159.839 396.759 Q162.501 394.004 167.084 389.374 Q171.69 384.722 172.871 383.379 Q175.116 380.856 175.996 379.12 Q176.899 377.36 176.899 375.671 Q176.899 372.916 174.954 371.18 Q173.033 369.444 169.931 369.444 Q167.732 369.444 165.278 370.208 Q162.848 370.972 160.07 372.523 L160.07 367.8 Q162.894 366.666 165.348 366.087 Q167.802 365.509 169.839 365.509 Q175.209 365.509 178.403 368.194 Q181.598 370.879 181.598 375.37 Q181.598 377.499 180.788 379.421 Q180.001 381.319 177.894 383.911 Q177.315 384.583 174.214 387.8 Q171.112 390.995 165.464 396.759 Z" fill="#000000" fill-rule="nonzero" fill-opacity="1" /><path clip-path="url(#clip540)" d="M201.598 369.212 Q197.987 369.212 196.158 372.777 Q194.352 376.319 194.352 383.448 Q194.352 390.555 196.158 394.12 Q197.987 397.661 201.598 397.661 Q205.232 397.661 207.037 394.12 Q208.866 390.555 208.866 383.448 Q208.866 376.319 207.037 372.777 Q205.232 369.212 201.598 369.212 M201.598 365.509 Q207.408 365.509 210.463 370.115 Q213.542 374.698 213.542 383.448 Q213.542 392.175 210.463 396.782 Q207.408 401.365 201.598 401.365 Q195.787 401.365 192.709 396.782 Q189.653 392.175 189.653 383.448 Q189.653 374.698 192.709 370.115 Q195.787 365.509 201.598 365.509 Z" fill="#000000" fill-rule="nonzero" fill-opacity="1" /><path clip-path="url(#clip540)" d="M16.4842 1116.45 L16.4842 1086.41 L21.895 1086.41 L21.895 1110.02 L35.9632 1110.02 L35.9632 1087.39 L41.3741 1087.39 L41.3741 1110.02 L58.5933 1110.02 L58.5933 1085.83 L64.0042 1085.83 L64.0042 1116.45 L16.4842 1116.45 Z" fill="#000000" fill-rule="nonzero" fill-opacity="1" /><path clip-path="url(#clip540)" d="M29.4065 1052.8 L34.9447 1052.8 Q33.6716 1055.28 33.035 1057.95 Q32.3984 1060.63 32.3984 1063.49 Q32.3984 1067.85 33.7352 1070.05 Q35.072 1072.21 37.7456 1072.21 Q39.7826 1072.21 40.9603 1070.65 Q42.1061 1069.09 43.1565 1064.38 L43.6021 1062.38 Q44.9389 1056.14 47.3897 1053.53 Q49.8086 1050.89 54.1691 1050.89 Q59.1344 1050.89 62.0308 1054.83 Q64.9272 1058.75 64.9272 1065.62 Q64.9272 1068.49 64.3543 1071.61 Q63.8132 1074.69 62.6992 1078.13 L56.6518 1078.13 Q58.3387 1074.89 59.198 1071.73 Q60.0256 1068.58 60.0256 1065.5 Q60.0256 1061.36 58.6251 1059.13 Q57.1929 1056.9 54.6147 1056.9 Q52.2276 1056.9 50.9545 1058.53 Q49.6813 1060.12 48.5037 1065.56 L48.0262 1067.6 Q46.8804 1073.04 44.5251 1075.46 Q42.138 1077.88 38.0002 1077.88 Q32.9713 1077.88 30.2341 1074.31 Q27.4968 1070.75 27.4968 1064.19 Q27.4968 1060.94 27.9743 1058.08 Q28.4517 1055.22 29.4065 1052.8 Z" fill="#000000" fill-rule="nonzero" fill-opacity="1" /><path clip-path="url(#clip540)" d="M18.2347 1035.77 L28.3562 1035.77 L28.3562 1023.71 L32.9077 1023.71 L32.9077 1035.77 L52.2594 1035.77 Q56.6199 1035.77 57.8613 1034.59 Q59.1026 1033.38 59.1026 1029.72 L59.1026 1023.71 L64.0042 1023.71 L64.0042 1029.72 Q64.0042 1036.5 61.4897 1039.08 Q58.9434 1041.66 52.2594 1041.66 L32.9077 1041.66 L32.9077 1045.95 L28.3562 1045.95 L28.3562 1041.66 L18.2347 1041.66 L18.2347 1035.77 Z" fill="#000000" fill-rule="nonzero" fill-opacity="1" /><path clip-path="url(#clip540)" d="M28.3562 1016 L28.3562 1010.15 L64.0042 1010.15 L64.0042 1016 L28.3562 1016 M14.479 1016 L14.479 1010.15 L21.895 1010.15 L21.895 1016 L14.479 1016 Z" fill="#000000" fill-rule="nonzero" fill-opacity="1" /><path clip-path="url(#clip540)" d="M35.1993 970.138 Q31.2526 967.942 29.3747 964.886 Q27.4968 961.83 27.4968 957.693 Q27.4968 952.123 31.4117 949.099 Q35.2948 946.075 42.4881 946.075 L64.0042 946.075 L64.0042 951.964 L42.679 951.964 Q37.5546 951.964 35.072 953.778 Q32.5894 955.592 32.5894 959.316 Q32.5894 963.867 35.6131 966.509 Q38.6368 969.151 43.8567 969.151 L64.0042 969.151 L64.0042 975.039 L42.679 975.039 Q37.5228 975.039 35.072 976.854 Q32.5894 978.668 32.5894 982.455 Q32.5894 986.943 35.6449 989.585 Q38.6686 992.227 43.8567 992.227 L64.0042 992.227 L64.0042 998.115 L28.3562 998.115 L28.3562 992.227 L33.8944 992.227 Q30.616 990.222 29.0564 987.421 Q27.4968 984.62 27.4968 980.768 Q27.4968 976.885 29.4702 974.18 Q31.4436 971.443 35.1993 970.138 Z" fill="#000000" fill-rule="nonzero" fill-opacity="1" /><path clip-path="url(#clip540)" d="M46.0847 918.194 Q46.0847 925.291 47.7079 928.029 Q49.3312 930.766 53.2461 930.766 Q56.3653 930.766 58.2114 928.729 Q60.0256 926.66 60.0256 923.127 Q60.0256 918.257 56.5881 915.329 Q53.1188 912.369 47.3897 912.369 L46.0847 912.369 L46.0847 918.194 M43.6657 906.512 L64.0042 906.512 L64.0042 912.369 L58.5933 912.369 Q61.8398 914.374 63.3994 917.366 Q64.9272 920.358 64.9272 924.687 Q64.9272 930.161 61.8716 933.408 Q58.7843 936.622 53.6281 936.622 Q47.6125 936.622 44.5569 932.612 Q41.5014 928.57 41.5014 920.581 L41.5014 912.369 L40.9285 912.369 Q36.8862 912.369 34.6901 915.043 Q32.4621 917.684 32.4621 922.49 Q32.4621 925.546 33.1941 928.442 Q33.9262 931.339 35.3903 934.012 L29.9795 934.012 Q28.7381 930.798 28.1334 927.774 Q27.4968 924.75 27.4968 921.886 Q27.4968 914.151 31.5072 910.332 Q35.5176 906.512 43.6657 906.512 Z" fill="#000000" fill-rule="nonzero" fill-opacity="1" /><path clip-path="url(#clip540)" d="M18.2347 888.657 L28.3562 888.657 L28.3562 876.594 L32.9077 876.594 L32.9077 888.657 L52.2594 888.657 Q56.6199 888.657 57.8613 887.479 Q59.1026 886.27 59.1026 882.609 L59.1026 876.594 L64.0042 876.594 L64.0042 882.609 Q64.0042 889.389 61.4897 891.967 Q58.9434 894.545 52.2594 894.545 L32.9077 894.545 L32.9077 898.842 L28.3562 898.842 L28.3562 894.545 L18.2347 894.545 L18.2347 888.657 Z" fill="#000000" fill-rule="nonzero" fill-opacity="1" /><path clip-path="url(#clip540)" d="M44.7161 838.399 L47.5806 838.399 L47.5806 865.326 Q53.6281 864.944 56.8109 861.698 Q59.9619 858.42 59.9619 852.595 Q59.9619 849.221 59.1344 846.07 Q58.3069 842.887 56.6518 839.768 L62.1899 839.768 Q63.5267 842.919 64.227 846.229 Q64.9272 849.539 64.9272 852.945 Q64.9272 861.475 59.9619 866.472 Q54.9967 871.437 46.5303 871.437 Q37.7774 871.437 32.6531 866.727 Q27.4968 861.984 27.4968 853.964 Q27.4968 846.77 32.1438 842.601 Q36.7589 838.399 44.7161 838.399 M42.9973 844.256 Q38.1912 844.32 35.3266 846.961 Q32.4621 849.571 32.4621 853.9 Q32.4621 858.802 35.2312 861.762 Q38.0002 864.69 43.0292 865.135 L42.9973 844.256 Z" fill="#000000" fill-rule="nonzero" fill-opacity="1" /><path clip-path="url(#clip540)" d="M33.7671 805.33 L14.479 805.33 L14.479 799.473 L64.0042 799.473 L64.0042 805.33 L58.657 805.33 Q61.8398 807.176 63.3994 810.008 Q64.9272 812.809 64.9272 816.756 Q64.9272 823.217 59.771 827.291 Q54.6147 831.333 46.212 831.333 Q37.8093 831.333 32.6531 827.291 Q27.4968 823.217 27.4968 816.756 Q27.4968 812.809 29.0564 810.008 Q30.5842 807.176 33.7671 805.33 M46.212 825.286 Q52.6732 825.286 56.3653 822.644 Q60.0256 819.971 60.0256 815.324 Q60.0256 810.677 56.3653 808.003 Q52.6732 805.33 46.212 805.33 Q39.7508 805.33 36.0905 808.003 Q32.3984 810.677 32.3984 815.324 Q32.3984 819.971 36.0905 822.644 Q39.7508 825.286 46.212 825.286 Z" fill="#000000" fill-rule="nonzero" fill-opacity="1" /><path clip-path="url(#clip540)" d="M21.7677 760.006 L39.6235 760.006 L39.6235 751.921 Q39.6235 747.433 37.3 744.983 Q34.9765 742.532 30.6797 742.532 Q26.4147 742.532 24.0912 744.983 Q21.7677 747.433 21.7677 751.921 L21.7677 760.006 M16.4842 766.435 L16.4842 751.921 Q16.4842 743.932 20.1126 739.858 Q23.7092 735.752 30.6797 735.752 Q37.7138 735.752 41.3104 739.858 Q44.907 743.932 44.907 751.921 L44.907 760.006 L64.0042 760.006 L64.0042 766.435 L16.4842 766.435 Z" fill="#000000" fill-rule="nonzero" fill-opacity="1" /><path clip-path="url(#clip540)" d="M33.8307 707.871 Q33.2578 708.857 33.0032 710.035 Q32.7167 711.181 32.7167 712.581 Q32.7167 717.546 35.9632 720.22 Q39.1779 722.862 45.2253 722.862 L64.0042 722.862 L64.0042 728.75 L28.3562 728.75 L28.3562 722.862 L33.8944 722.862 Q30.6479 721.016 29.0883 718.056 Q27.4968 715.096 27.4968 710.862 Q27.4968 710.258 27.5923 709.526 Q27.656 708.794 27.8151 707.902 L33.8307 707.871 Z" fill="#000000" fill-rule="nonzero" fill-opacity="1" /><path clip-path="url(#clip540)" d="M32.4621 689.346 Q32.4621 694.057 36.1542 696.794 Q39.8145 699.532 46.212 699.532 Q52.6095 699.532 56.3017 696.826 Q59.9619 694.089 59.9619 689.346 Q59.9619 684.668 56.2698 681.93 Q52.5777 679.193 46.212 679.193 Q39.8781 679.193 36.186 681.93 Q32.4621 684.668 32.4621 689.346 M27.4968 689.346 Q27.4968 681.708 32.4621 677.347 Q37.4273 672.987 46.212 672.987 Q54.9649 672.987 59.9619 677.347 Q64.9272 681.708 64.9272 689.346 Q64.9272 697.017 59.9619 701.378 Q54.9649 705.706 46.212 705.706 Q37.4273 705.706 32.4621 701.378 Q27.4968 697.017 27.4968 689.346 Z" fill="#000000" fill-rule="nonzero" fill-opacity="1" /><path clip-path="url(#clip540)" d="M46.212 637.689 Q39.7508 637.689 36.0905 640.362 Q32.3984 643.004 32.3984 647.651 Q32.3984 652.298 36.0905 654.972 Q39.7508 657.613 46.212 657.613 Q52.6732 657.613 56.3653 654.972 Q60.0256 652.298 60.0256 647.651 Q60.0256 643.004 56.3653 640.362 Q52.6732 637.689 46.212 637.689 M33.7671 657.613 Q30.5842 655.767 29.0564 652.966 Q27.4968 650.134 27.4968 646.219 Q27.4968 639.726 32.6531 635.683 Q37.8093 631.609 46.212 631.609 Q54.6147 631.609 59.771 635.683 Q64.9272 639.726 64.9272 646.219 Q64.9272 650.134 63.3994 652.966 Q61.8398 655.767 58.657 657.613 L64.0042 657.613 L64.0042 663.502 L14.479 663.502 L14.479 657.613 L33.7671 657.613 Z" fill="#000000" fill-rule="nonzero" fill-opacity="1" /><path clip-path="url(#clip540)" d="M46.0847 605.701 Q46.0847 612.799 47.7079 615.536 Q49.3312 618.273 53.2461 618.273 Q56.3653 618.273 58.2114 616.236 Q60.0256 614.167 60.0256 610.634 Q60.0256 605.765 56.5881 602.836 Q53.1188 599.876 47.3897 599.876 L46.0847 599.876 L46.0847 605.701 M43.6657 594.02 L64.0042 594.02 L64.0042 599.876 L58.5933 599.876 Q61.8398 601.882 63.3994 604.873 Q64.9272 607.865 64.9272 612.194 Q64.9272 617.669 61.8716 620.915 Q58.7843 624.13 53.6281 624.13 Q47.6125 624.13 44.5569 620.119 Q41.5014 616.077 41.5014 608.088 L41.5014 599.876 L40.9285 599.876 Q36.8862 599.876 34.6901 602.55 Q32.4621 605.192 32.4621 609.998 Q32.4621 613.053 33.1941 615.95 Q33.9262 618.846 35.3903 621.52 L29.9795 621.52 Q28.7381 618.305 28.1334 615.281 Q27.4968 612.258 27.4968 609.393 Q27.4968 601.659 31.5072 597.839 Q35.5176 594.02 43.6657 594.02 Z" fill="#000000" fill-rule="nonzero" fill-opacity="1" /><path clip-path="url(#clip540)" d="M46.212 556.367 Q39.7508 556.367 36.0905 559.04 Q32.3984 561.682 32.3984 566.329 Q32.3984 570.976 36.0905 573.65 Q39.7508 576.291 46.212 576.291 Q52.6732 576.291 56.3653 573.65 Q60.0256 570.976 60.0256 566.329 Q60.0256 561.682 56.3653 559.04 Q52.6732 556.367 46.212 556.367 M33.7671 576.291 Q30.5842 574.445 29.0564 571.644 Q27.4968 568.812 27.4968 564.897 Q27.4968 558.404 32.6531 554.362 Q37.8093 550.288 46.212 550.288 Q54.6147 550.288 59.771 554.362 Q64.9272 558.404 64.9272 564.897 Q64.9272 568.812 63.3994 571.644 Q61.8398 574.445 58.657 576.291 L64.0042 576.291 L64.0042 582.18 L14.479 582.18 L14.479 576.291 L33.7671 576.291 Z" fill="#000000" fill-rule="nonzero" fill-opacity="1" /><path clip-path="url(#clip540)" d="M28.3562 540.58 L28.3562 534.723 L64.0042 534.723 L64.0042 540.58 L28.3562 540.58 M14.479 540.58 L14.479 534.723 L21.895 534.723 L21.895 540.58 L14.479 540.58 Z" fill="#000000" fill-rule="nonzero" fill-opacity="1" /><path clip-path="url(#clip540)" d="M14.479 522.469 L14.479 516.613 L64.0042 516.613 L64.0042 522.469 L14.479 522.469 Z" fill="#000000" fill-rule="nonzero" fill-opacity="1" /><path clip-path="url(#clip540)" d="M28.3562 504.359 L28.3562 498.503 L64.0042 498.503 L64.0042 504.359 L28.3562 504.359 M14.479 504.359 L14.479 498.503 L21.895 498.503 L21.895 504.359 L14.479 504.359 Z" fill="#000000" fill-rule="nonzero" fill-opacity="1" /><path clip-path="url(#clip540)" d="M18.2347 480.456 L28.3562 480.456 L28.3562 468.393 L32.9077 468.393 L32.9077 480.456 L52.2594 480.456 Q56.6199 480.456 57.8613 479.278 Q59.1026 478.069 59.1026 474.408 L59.1026 468.393 L64.0042 468.393 L64.0042 474.408 Q64.0042 481.188 61.4897 483.766 Q58.9434 486.344 52.2594 486.344 L32.9077 486.344 L32.9077 490.641 L28.3562 490.641 L28.3562 486.344 L18.2347 486.344 L18.2347 480.456 Z" fill="#000000" fill-rule="nonzero" fill-opacity="1" /><path clip-path="url(#clip540)" d="M67.3143 445.858 Q73.68 448.341 75.6216 450.696 Q77.5631 453.051 77.5631 456.998 L77.5631 461.677 L72.6615 461.677 L72.6615 458.239 Q72.6615 455.82 71.5157 454.484 Q70.3699 453.147 66.1048 451.524 L63.4312 450.473 L28.3562 464.892 L28.3562 458.685 L56.238 447.545 L28.3562 436.405 L28.3562 430.198 L67.3143 445.858 Z" fill="#000000" fill-rule="nonzero" fill-opacity="1" /><path clip-path="url(#clip540)" d="M709.15 18.8205 L709.15 65.8515 L719.034 65.8515 Q731.551 65.8515 737.344 60.1802 Q743.177 54.509 743.177 42.2752 Q743.177 30.1225 737.344 24.4918 Q731.551 18.8205 719.034 18.8205 L709.15 18.8205 M700.967 12.096 L717.778 12.096 Q735.359 12.096 743.583 19.4281 Q751.806 26.7198 751.806 42.2752 Q751.806 57.9117 743.542 65.2439 Q735.278 72.576 717.778 72.576 L700.967 72.576 L700.967 12.096 Z" fill="#000000" fill-rule="nonzero" fill-opacity="1" /><path clip-path="url(#clip540)" d="M764.526 27.2059 L771.979 27.2059 L771.979 72.576 L764.526 72.576 L764.526 27.2059 M764.526 9.54393 L771.979 9.54393 L771.979 18.9825 L764.526 18.9825 L764.526 9.54393 Z" fill="#000000" fill-rule="nonzero" fill-opacity="1" /><path clip-path="url(#clip540)" d="M816.499 28.5427 L816.499 35.5912 Q813.339 33.9709 809.936 33.1607 Q806.534 32.3505 802.888 32.3505 Q797.338 32.3505 794.543 34.0519 Q791.788 35.7533 791.788 39.156 Q791.788 41.7486 793.773 43.2475 Q795.758 44.7058 801.753 46.0426 L804.306 46.6097 Q812.245 48.3111 815.567 51.4303 Q818.929 54.509 818.929 60.0587 Q818.929 66.3781 813.906 70.0644 Q808.924 73.7508 800.174 73.7508 Q796.528 73.7508 792.558 73.0216 Q788.629 72.3329 784.254 70.9151 L784.254 63.2184 Q788.386 65.3654 792.396 66.4591 Q796.406 67.5124 800.336 67.5124 Q805.602 67.5124 808.437 65.73 Q811.273 63.9071 811.273 60.6258 Q811.273 57.5877 809.207 55.9673 Q807.182 54.3469 800.255 52.8481 L797.662 52.2405 Q790.735 50.7821 787.656 47.7845 Q784.578 44.7463 784.578 39.4801 Q784.578 33.0797 789.115 29.5959 Q793.652 26.1121 801.997 26.1121 Q806.128 26.1121 809.774 26.7198 Q813.42 27.3274 816.499 28.5427 Z" fill="#000000" fill-rule="nonzero" fill-opacity="1" /><path clip-path="url(#clip540)" d="M838.171 14.324 L838.171 27.2059 L853.524 27.2059 L853.524 32.9987 L838.171 32.9987 L838.171 57.6282 Q838.171 63.1779 839.67 64.7578 Q841.209 66.3376 845.868 66.3376 L853.524 66.3376 L853.524 72.576 L845.868 72.576 Q837.239 72.576 833.958 69.3758 Q830.677 66.1351 830.677 57.6282 L830.677 32.9987 L825.208 32.9987 L825.208 27.2059 L830.677 27.2059 L830.677 14.324 L838.171 14.324 Z" fill="#000000" fill-rule="nonzero" fill-opacity="1" /><path clip-path="url(#clip540)" d="M889.618 34.1734 Q888.362 33.4443 886.863 33.1202 Q885.405 32.7556 883.622 32.7556 Q877.303 32.7556 873.9 36.8875 Q870.538 40.9789 870.538 48.6757 L870.538 72.576 L863.044 72.576 L863.044 27.2059 L870.538 27.2059 L870.538 34.2544 Q872.887 30.1225 876.655 28.1376 Q880.422 26.1121 885.81 26.1121 Q886.579 26.1121 887.511 26.2337 Q888.443 26.3147 889.577 26.5172 L889.618 34.1734 Z" fill="#000000" fill-rule="nonzero" fill-opacity="1" /><path clip-path="url(#clip540)" d="M897.436 27.2059 L904.89 27.2059 L904.89 72.576 L897.436 72.576 L897.436 27.2059 M897.436 9.54393 L904.89 9.54393 L904.89 18.9825 L897.436 18.9825 L897.436 9.54393 Z" fill="#000000" fill-rule="nonzero" fill-opacity="1" /><path clip-path="url(#clip540)" d="M953.055 49.9314 Q953.055 41.7081 949.652 37.0496 Q946.29 32.3505 940.375 32.3505 Q934.461 32.3505 931.058 37.0496 Q927.696 41.7081 927.696 49.9314 Q927.696 58.1548 931.058 62.8538 Q934.461 67.5124 940.375 67.5124 Q946.29 67.5124 949.652 62.8538 Q953.055 58.1548 953.055 49.9314 M927.696 34.0924 Q930.046 30.0415 933.61 28.0971 Q937.216 26.1121 942.198 26.1121 Q950.462 26.1121 955.607 32.6746 Q960.792 39.2371 960.792 49.9314 Q960.792 60.6258 955.607 67.1883 Q950.462 73.7508 942.198 73.7508 Q937.216 73.7508 933.61 71.8063 Q930.046 69.8214 927.696 65.7705 L927.696 72.576 L920.202 72.576 L920.202 9.54393 L927.696 9.54393 L927.696 34.0924 Z" fill="#000000" fill-rule="nonzero" fill-opacity="1" /><path clip-path="url(#clip540)" d="M972.378 54.671 L972.378 27.2059 L979.831 27.2059 L979.831 54.3874 Q979.831 60.8284 982.343 64.0691 Q984.854 67.2693 989.877 67.2693 Q995.913 67.2693 999.397 63.421 Q1002.92 59.5726 1002.92 52.9291 L1002.92 27.2059 L1010.38 27.2059 L1010.38 72.576 L1002.92 72.576 L1002.92 65.6084 Q1000.21 69.7404 996.602 71.7658 Q993.037 73.7508 988.298 73.7508 Q980.479 73.7508 976.428 68.8897 Q972.378 64.0286 972.378 54.671 M991.133 26.1121 L991.133 26.1121 Z" fill="#000000" fill-rule="nonzero" fill-opacity="1" /><path clip-path="url(#clip540)" d="M1033.1 14.324 L1033.1 27.2059 L1048.45 27.2059 L1048.45 32.9987 L1033.1 32.9987 L1033.1 57.6282 Q1033.1 63.1779 1034.6 64.7578 Q1036.14 66.3376 1040.8 66.3376 L1048.45 66.3376 L1048.45 72.576 L1040.8 72.576 Q1032.17 72.576 1028.89 69.3758 Q1025.61 66.1351 1025.61 57.6282 L1025.61 32.9987 L1020.14 32.9987 L1020.14 27.2059 L1025.61 27.2059 L1025.61 14.324 L1033.1 14.324 Z" fill="#000000" fill-rule="nonzero" fill-opacity="1" /><path clip-path="url(#clip540)" d="M1058.26 27.2059 L1065.71 27.2059 L1065.71 72.576 L1058.26 72.576 L1058.26 27.2059 M1058.26 9.54393 L1065.71 9.54393 L1065.71 18.9825 L1058.26 18.9825 L1058.26 9.54393 Z" fill="#000000" fill-rule="nonzero" fill-opacity="1" /><path clip-path="url(#clip540)" d="M1098.89 32.4315 Q1092.89 32.4315 1089.41 37.1306 Q1085.92 41.7891 1085.92 49.9314 Q1085.92 58.0738 1089.37 62.7728 Q1092.85 67.4314 1098.89 67.4314 Q1104.84 67.4314 1108.33 62.7323 Q1111.81 58.0333 1111.81 49.9314 Q1111.81 41.8701 1108.33 37.1711 Q1104.84 32.4315 1098.89 32.4315 M1098.89 26.1121 Q1108.61 26.1121 1114.16 32.4315 Q1119.71 38.7509 1119.71 49.9314 Q1119.71 61.0714 1114.16 67.4314 Q1108.61 73.7508 1098.89 73.7508 Q1089.12 73.7508 1083.57 67.4314 Q1078.07 61.0714 1078.07 49.9314 Q1078.07 38.7509 1083.57 32.4315 Q1089.12 26.1121 1098.89 26.1121 Z" fill="#000000" fill-rule="nonzero" fill-opacity="1" /><path clip-path="url(#clip540)" d="M1169.78 45.1919 L1169.78 72.576 L1162.32 72.576 L1162.32 45.4349 Q1162.32 38.994 1159.81 35.7938 Q1157.3 32.5936 1152.28 32.5936 Q1146.24 32.5936 1142.76 36.4419 Q1139.27 40.2903 1139.27 46.9338 L1139.27 72.576 L1131.78 72.576 L1131.78 27.2059 L1139.27 27.2059 L1139.27 34.2544 Q1141.95 30.163 1145.55 28.1376 Q1149.2 26.1121 1153.94 26.1121 Q1161.76 26.1121 1165.77 30.9732 Q1169.78 35.7938 1169.78 45.1919 Z" fill="#000000" fill-rule="nonzero" fill-opacity="1" /><path clip-path="url(#clip540)" d="M1228.6 32.4315 Q1222.6 32.4315 1219.12 37.1306 Q1215.63 41.7891 1215.63 49.9314 Q1215.63 58.0738 1219.08 62.7728 Q1222.56 67.4314 1228.6 67.4314 Q1234.55 67.4314 1238.04 62.7323 Q1241.52 58.0333 1241.52 49.9314 Q1241.52 41.8701 1238.04 37.1711 Q1234.55 32.4315 1228.6 32.4315 M1228.6 26.1121 Q1238.32 26.1121 1243.87 32.4315 Q1249.42 38.7509 1249.42 49.9314 Q1249.42 61.0714 1243.87 67.4314 Q1238.32 73.7508 1228.6 73.7508 Q1218.83 73.7508 1213.28 67.4314 Q1207.78 61.0714 1207.78 49.9314 Q1207.78 38.7509 1213.28 32.4315 Q1218.83 26.1121 1228.6 26.1121 Z" fill="#000000" fill-rule="nonzero" fill-opacity="1" /><path clip-path="url(#clip540)" d="M1284.74 9.54393 L1284.74 15.7418 L1277.61 15.7418 Q1273.6 15.7418 1272.02 17.3622 Q1270.48 18.9825 1270.48 23.1955 L1270.48 27.2059 L1282.76 27.2059 L1282.76 32.9987 L1270.48 32.9987 L1270.48 72.576 L1262.99 72.576 L1262.99 32.9987 L1255.86 32.9987 L1255.86 27.2059 L1262.99 27.2059 L1262.99 24.0462 Q1262.99 16.471 1266.51 13.0277 Q1270.04 9.54393 1277.69 9.54393 L1284.74 9.54393 Z" fill="#000000" fill-rule="nonzero" fill-opacity="1" /><path clip-path="url(#clip540)" d="M1319.82 65.6895 L1333.19 65.6895 L1333.19 19.5497 L1318.65 22.4663 L1318.65 15.0127 L1333.11 12.096 L1341.29 12.096 L1341.29 65.6895 L1354.66 65.6895 L1354.66 72.576 L1319.82 72.576 L1319.82 65.6895 Z" fill="#000000" fill-rule="nonzero" fill-opacity="1" /><path clip-path="url(#clip540)" d="M1388.69 17.4837 Q1382.37 17.4837 1379.17 23.7221 Q1376.01 29.92 1376.01 42.3968 Q1376.01 54.833 1379.17 61.0714 Q1382.37 67.2693 1388.69 67.2693 Q1395.05 67.2693 1398.21 61.0714 Q1401.41 54.833 1401.41 42.3968 Q1401.41 29.92 1398.21 23.7221 Q1395.05 17.4837 1388.69 17.4837 M1388.69 11.0023 Q1398.86 11.0023 1404.2 19.0636 Q1409.59 27.0843 1409.59 42.3968 Q1409.59 57.6687 1404.2 65.73 Q1398.86 73.7508 1388.69 73.7508 Q1378.52 73.7508 1373.13 65.73 Q1367.79 57.6687 1367.79 42.3968 Q1367.79 27.0843 1373.13 19.0636 Q1378.52 11.0023 1388.69 11.0023 Z" fill="#000000" fill-rule="nonzero" fill-opacity="1" /><path clip-path="url(#clip540)" d="M1441.47 17.4837 Q1435.15 17.4837 1431.95 23.7221 Q1428.79 29.92 1428.79 42.3968 Q1428.79 54.833 1431.95 61.0714 Q1435.15 67.2693 1441.47 67.2693 Q1447.83 67.2693 1450.99 61.0714 Q1454.19 54.833 1454.19 42.3968 Q1454.19 29.92 1450.99 23.7221 Q1447.83 17.4837 1441.47 17.4837 M1441.47 11.0023 Q1451.64 11.0023 1456.99 19.0636 Q1462.37 27.0843 1462.37 42.3968 Q1462.37 57.6687 1456.99 65.73 Q1451.64 73.7508 1441.47 73.7508 Q1431.3 73.7508 1425.92 65.73 Q1420.57 57.6687 1420.57 42.3968 Q1420.57 27.0843 1425.92 19.0636 Q1431.3 11.0023 1441.47 11.0023 Z" fill="#000000" fill-rule="nonzero" fill-opacity="1" /><path clip-path="url(#clip540)" d="M1494.26 17.4837 Q1487.94 17.4837 1484.74 23.7221 Q1481.58 29.92 1481.58 42.3968 Q1481.58 54.833 1484.74 61.0714 Q1487.94 67.2693 1494.26 67.2693 Q1500.62 67.2693 1503.78 61.0714 Q1506.98 54.833 1506.98 42.3968 Q1506.98 29.92 1503.78 23.7221 Q1500.62 17.4837 1494.26 17.4837 M1494.26 11.0023 Q1504.42 11.0023 1509.77 19.0636 Q1515.16 27.0843 1515.16 42.3968 Q1515.16 57.6687 1509.77 65.73 Q1504.42 73.7508 1494.26 73.7508 Q1484.09 73.7508 1478.7 65.73 Q1473.35 57.6687 1473.35 42.3968 Q1473.35 27.0843 1478.7 19.0636 Q1484.09 11.0023 1494.26 11.0023 Z" fill="#000000" fill-rule="nonzero" fill-opacity="1" /><path clip-path="url(#clip540)" d="M1563.36 18.8205 L1563.36 65.8515 L1573.25 65.8515 Q1585.77 65.8515 1591.56 60.1802 Q1597.39 54.509 1597.39 42.2752 Q1597.39 30.1225 1591.56 24.4918 Q1585.77 18.8205 1573.25 18.8205 L1563.36 18.8205 M1555.18 12.096 L1571.99 12.096 Q1589.57 12.096 1597.8 19.4281 Q1606.02 26.7198 1606.02 42.2752 Q1606.02 57.9117 1597.76 65.2439 Q1589.49 72.576 1571.99 72.576 L1555.18 72.576 L1555.18 12.096 Z" fill="#000000" fill-rule="nonzero" fill-opacity="1" /><path clip-path="url(#clip540)" d="M1618.74 27.2059 L1626.19 27.2059 L1626.19 72.576 L1618.74 72.576 L1618.74 27.2059 M1618.74 9.54393 L1626.19 9.54393 L1626.19 18.9825 L1618.74 18.9825 L1618.74 9.54393 Z" fill="#000000" fill-rule="nonzero" fill-opacity="1" /><path clip-path="url(#clip540)" d="M1680.6 48.0275 L1680.6 51.6733 L1646.33 51.6733 Q1646.81 59.3701 1650.94 63.421 Q1655.12 67.4314 1662.53 67.4314 Q1666.82 67.4314 1670.83 66.3781 Q1674.89 65.3249 1678.86 63.2184 L1678.86 70.267 Q1674.84 71.9684 1670.63 72.8596 Q1666.42 73.7508 1662.08 73.7508 Q1651.23 73.7508 1644.87 67.4314 Q1638.55 61.1119 1638.55 50.3365 Q1638.55 39.1965 1644.54 32.6746 Q1650.58 26.1121 1660.79 26.1121 Q1669.94 26.1121 1675.25 32.0264 Q1680.6 37.9003 1680.6 48.0275 M1673.14 45.84 Q1673.06 39.7232 1669.7 36.0774 Q1666.38 32.4315 1660.87 32.4315 Q1654.63 32.4315 1650.86 35.9558 Q1647.14 39.4801 1646.57 45.8805 L1673.14 45.84 Z" fill="#000000" fill-rule="nonzero" fill-opacity="1" /><path clip-path="url(#clip540)" d="M1748.21 44.2197 Q1750.84 45.1109 1753.31 48.0275 Q1755.82 50.9442 1758.33 56.0483 L1766.64 72.576 L1757.85 72.576 L1750.11 57.061 Q1747.11 50.9847 1744.28 48.9997 Q1741.48 47.0148 1736.62 47.0148 L1727.71 47.0148 L1727.71 72.576 L1719.53 72.576 L1719.53 12.096 L1738 12.096 Q1748.37 12.096 1753.47 16.4305 Q1758.58 20.7649 1758.58 29.5149 Q1758.58 35.2267 1755.9 38.994 Q1753.27 42.7613 1748.21 44.2197 M1727.71 18.8205 L1727.71 40.2903 L1738 40.2903 Q1743.91 40.2903 1746.91 37.5762 Q1749.95 34.8216 1749.95 29.5149 Q1749.95 24.2082 1746.91 21.5346 Q1743.91 18.8205 1738 18.8205 L1727.71 18.8205 Z" fill="#000000" fill-rule="nonzero" fill-opacity="1" /><path clip-path="url(#clip540)" d="M1790.7 32.4315 Q1784.71 32.4315 1781.22 37.1306 Q1777.74 41.7891 1777.74 49.9314 Q1777.74 58.0738 1781.18 62.7728 Q1784.66 67.4314 1790.7 67.4314 Q1796.66 67.4314 1800.14 62.7323 Q1803.62 58.0333 1803.62 49.9314 Q1803.62 41.8701 1800.14 37.1711 Q1796.66 32.4315 1790.7 32.4315 M1790.7 26.1121 Q1800.42 26.1121 1805.97 32.4315 Q1811.52 38.7509 1811.52 49.9314 Q1811.52 61.0714 1805.97 67.4314 Q1800.42 73.7508 1790.7 73.7508 Q1780.94 73.7508 1775.39 67.4314 Q1769.88 61.0714 1769.88 49.9314 Q1769.88 38.7509 1775.39 32.4315 Q1780.94 26.1121 1790.7 26.1121 Z" fill="#000000" fill-rule="nonzero" fill-opacity="1" /><path clip-path="url(#clip540)" d="M1823.88 9.54393 L1831.33 9.54393 L1831.33 72.576 L1823.88 72.576 L1823.88 9.54393 Z" fill="#000000" fill-rule="nonzero" fill-opacity="1" /><path clip-path="url(#clip540)" d="M1846.93 9.54393 L1854.38 9.54393 L1854.38 72.576 L1846.93 72.576 L1846.93 9.54393 Z" fill="#000000" fill-rule="nonzero" fill-opacity="1" /><path clip-path="url(#clip540)" d="M1898.9 28.5427 L1898.9 35.5912 Q1895.74 33.9709 1892.34 33.1607 Q1888.94 32.3505 1885.29 32.3505 Q1879.74 32.3505 1876.94 34.0519 Q1874.19 35.7533 1874.19 39.156 Q1874.19 41.7486 1876.17 43.2475 Q1878.16 44.7058 1884.16 46.0426 L1886.71 46.6097 Q1894.65 48.3111 1897.97 51.4303 Q1901.33 54.509 1901.33 60.0587 Q1901.33 66.3781 1896.31 70.0644 Q1891.33 73.7508 1882.58 73.7508 Q1878.93 73.7508 1874.96 73.0216 Q1871.03 72.3329 1866.66 70.9151 L1866.66 63.2184 Q1870.79 65.3654 1874.8 66.4591 Q1878.81 67.5124 1882.74 67.5124 Q1888 67.5124 1890.84 65.73 Q1893.67 63.9071 1893.67 60.6258 Q1893.67 57.5877 1891.61 55.9673 Q1889.58 54.3469 1882.66 52.8481 L1880.06 52.2405 Q1873.14 50.7821 1870.06 47.7845 Q1866.98 44.7463 1866.98 39.4801 Q1866.98 33.0797 1871.52 29.5959 Q1876.05 26.1121 1884.4 26.1121 Q1888.53 26.1121 1892.18 26.7198 Q1895.82 27.3274 1898.9 28.5427 Z" fill="#000000" fill-rule="nonzero" fill-opacity="1" /><path clip-path="url(#clip542)" d="M365.223 508.186 L365.223 1423.18 L623.409 1423.18 L623.409 508.186 L365.223 508.186 L365.223 508.186  Z" fill="#009af9" fill-rule="evenodd" fill-opacity="1"/>
<polyline clip-path="url(#clip542)" style="stroke:#000000; stroke-linecap:round; stroke-linejoin:round; stroke-width:4; stroke-opacity:1; fill:none" points="365.223,508.186 365.223,1423.18 623.409,1423.18 623.409,508.186 365.223,508.186 "/>
<path clip-path="url(#clip542)" d="M687.956 617.361 L687.956 1423.18 L946.142 1423.18 L946.142 617.361 L687.956 617.361 L687.956 617.361  Z" fill="#009af9" fill-rule="evenodd" fill-opacity="1"/>
<polyline clip-path="url(#clip542)" style="stroke:#000000; stroke-linecap:round; stroke-linejoin:round; stroke-width:4; stroke-opacity:1; fill:none" points="687.956,617.361 687.956,1423.18 946.142,1423.18 946.142,617.361 687.956,617.361 "/>
<path clip-path="url(#clip542)" d="M1010.69 513.384 L1010.69 1423.18 L1268.88 1423.18 L1268.88 513.384 L1010.69 513.384 L1010.69 513.384  Z" fill="#009af9" fill-rule="evenodd" fill-opacity="1"/>
<polyline clip-path="url(#clip542)" style="stroke:#000000; stroke-linecap:round; stroke-linejoin:round; stroke-width:4; stroke-opacity:1; fill:none" points="1010.69,513.384 1010.69,1423.18 1268.88,1423.18 1268.88,513.384 1010.69,513.384 "/>
<path clip-path="url(#clip542)" d="M1333.42 674.548 L1333.42 1423.18 L1591.61 1423.18 L1591.61 674.548 L1333.42 674.548 L1333.42 674.548  Z" fill="#009af9" fill-rule="evenodd" fill-opacity="1"/>
<polyline clip-path="url(#clip542)" style="stroke:#000000; stroke-linecap:round; stroke-linejoin:round; stroke-width:4; stroke-opacity:1; fill:none" points="1333.42,674.548 1333.42,1423.18 1591.61,1423.18 1591.61,674.548 1333.42,674.548 "/>
<path clip-path="url(#clip542)" d="M1656.16 508.186 L1656.16 1423.18 L1914.34 1423.18 L1914.34 508.186 L1656.16 508.186 L1656.16 508.186  Z" fill="#009af9" fill-rule="evenodd" fill-opacity="1"/>
<polyline clip-path="url(#clip542)" style="stroke:#000000; stroke-linecap:round; stroke-linejoin:round; stroke-width:4; stroke-opacity:1; fill:none" points="1656.16,508.186 1656.16,1423.18 1914.34,1423.18 1914.34,508.186 1656.16,508.186 "/>
<path clip-path="url(#clip542)" d="M1978.89 518.583 L1978.89 1423.18 L2237.08 1423.18 L2237.08 518.583 L1978.89 518.583 L1978.89 518.583  Z" fill="#009af9" fill-rule="evenodd" fill-opacity="1"/>
<polyline clip-path="url(#clip542)" style="stroke:#000000; stroke-linecap:round; stroke-linejoin:round; stroke-width:4; stroke-opacity:1; fill:none" points="1978.89,518.583 1978.89,1423.18 2237.08,1423.18 2237.08,518.583 1978.89,518.583 "/>
<circle clip-path="url(#clip542)" style="fill:#009af9; stroke:none; fill-opacity:0" cx="494.316" cy="508.186" r="2"/>
<circle clip-path="url(#clip542)" style="fill:#009af9; stroke:none; fill-opacity:0" cx="817.049" cy="617.361" r="2"/>
<circle clip-path="url(#clip542)" style="fill:#009af9; stroke:none; fill-opacity:0" cx="1139.78" cy="513.384" r="2"/>
<circle clip-path="url(#clip542)" style="fill:#009af9; stroke:none; fill-opacity:0" cx="1462.52" cy="674.548" r="2"/>
<circle clip-path="url(#clip542)" style="fill:#009af9; stroke:none; fill-opacity:0" cx="1785.25" cy="508.186" r="2"/>
<circle clip-path="url(#clip542)" style="fill:#009af9; stroke:none; fill-opacity:0" cx="2107.98" cy="518.583" r="2"/>
</svg>