<?xml version="1.0" encoding="utf-8"?>
<svg xmlns="http://www.w3.org/2000/svg" xmlns:xlink="http://www.w3.org/1999/xlink" width="600" height="400" viewBox="0 0 2400 1600">
<defs>
  <clipPath id="clip840">
    <rect x="0" y="0" width="2400" height="1600"/>
  </clipPath>
</defs>
<path clip-path="url(#clip840)" d="M0 1600 L2400 1600 L2400 0 L0 0  Z" fill="#ffffff" fill-rule="evenodd" fill-opacity="1"/>
<defs>
  <clipPath id="clip841">
    <rect x="480" y="0" width="1681" height="1600"/>
  </clipPath>
</defs>
<path clip-path="url(#clip840)" d="M210.746 1423.18 L1978.71 1423.18 L1978.71 123.472 L210.746 123.472  Z" fill="#ffffff" fill-rule="evenodd" fill-opacity="1"/>
<defs>
  <clipPath id="clip842">
    <rect x="210" y="123" width="1769" height="1301"/>
  </clipPath>
</defs>
<polyline clip-path="url(#clip842)" style="stroke:#000000; stroke-linecap:round; stroke-linejoin:round; stroke-width:2; stroke-opacity:0.1; fill:none" points="260.783,1423.18 260.783,123.472 "/>
<polyline clip-path="url(#clip842)" style="stroke:#000000; stroke-linecap:round; stroke-linejoin:round; stroke-width:2; stroke-opacity:0.1; fill:none" points="677.754,1423.18 677.754,123.472 "/>
<polyline clip-path="url(#clip842)" style="stroke:#000000; stroke-linecap:round; stroke-linejoin:round; stroke-width:2; stroke-opacity:0.1; fill:none" points="1094.73,1423.18 1094.73,123.472 "/>
<polyline clip-path="url(#clip842)" style="stroke:#000000; stroke-linecap:round; stroke-linejoin:round; stroke-width:2; stroke-opacity:0.1; fill:none" points="1511.7,1423.18 1511.7,123.472 "/>
<polyline clip-path="url(#clip842)" style="stroke:#000000; stroke-linecap:round; stroke-linejoin:round; stroke-width:2; stroke-opacity:0.1; fill:none" points="1928.67,1423.18 1928.67,123.472 "/>
<polyline clip-path="url(#clip842)" style="stroke:#000000; stroke-linecap:round; stroke-linejoin:round; stroke-width:2; stroke-opacity:0.1; fill:none" points="210.746,1297.6 1978.71,1297.6 "/>
<polyline clip-path="url(#clip842)" style="stroke:#000000; stroke-linecap:round; stroke-linejoin:round; stroke-width:2; stroke-opacity:0.1; fill:none" points="210.746,986.609 1978.71,986.609 "/>
<polyline clip-path="url(#clip842)" style="stroke:#000000; stroke-linecap:round; stroke-linejoin:round; stroke-width:2; stroke-opacity:0.1; fill:none" points="210.746,675.621 1978.71,675.621 "/>
<polyline clip-path="url(#clip842)" style="stroke:#000000; stroke-linecap:round; stroke-linejoin:round; stroke-width:2; stroke-opacity:0.1; fill:none" points="210.746,364.633 1978.71,364.633 "/>
<polyline clip-path="url(#clip840)" style="stroke:#000000; stroke-linecap:round; stroke-linejoin:round; stroke-width:4; stroke-opacity:1; fill:none" points="210.746,1423.18 1978.71,1423.18 "/>
<polyline clip-path="url(#clip840)" style="stroke:#000000; stroke-linecap:round; stroke-linejoin:round; stroke-width:4; stroke-opacity:1; fill:none" points="260.783,1423.18 260.783,1404.28 "/>
<polyline clip-path="url(#clip840)" style="stroke:#000000; stroke-linecap:round; stroke-linejoin:round; stroke-width:4; stroke-opacity:1; fill:none" points="677.754,1423.18 677.754,1404.28 "/>
<polyline clip-path="url(#clip840)" style="stroke:#000000; stroke-linecap:round; stroke-linejoin:round; stroke-width:4; stroke-opacity:1; fill:none" points="1094.73,1423.18 1094.73,1404.28 "/>
<polyline clip-path="url(#clip840)" style="stroke:#000000; stroke-linecap:round; stroke-linejoin:round; stroke-width:4; stroke-opacity:1; fill:none" points="1511.7,1423.18 1511.7,1404.28 "/>
<polyline clip-path="url(#clip840)" style="stroke:#000000; stroke-linecap:round; stroke-linejoin:round; stroke-width:4; stroke-opacity:1; fill:none" points="1928.67,1423.18 1928.67,1404.28 "/>
<path clip-path="url(#clip840)" d="M238.167 1454.1 Q234.556 1454.1 232.727 1457.66 Q230.922 1461.2 230.922 1468.33 Q230.922 1475.44 232.727 1479.01 Q234.556 1482.55 238.167 1482.55 Q241.801 1482.55 243.607 1479.01 Q245.435 1475.44 245.435 1468.33 Q245.435 1461.2 243.607 1457.66 Q241.801 1454.1 238.167 1454.1 M238.167 1450.39 Q243.977 1450.39 247.033 1455 Q250.111 1459.58 250.111 1468.33 Q250.111 1477.06 247.033 1481.67 Q243.977 1486.25 238.167 1486.25 Q232.357 1486.25 229.278 1481.67 Q226.223 1477.06 226.223 1468.33 Q226.223 1459.58 229.278 1455 Q232.357 1450.39 238.167 1450.39 Z" fill="#000000" fill-rule="nonzero" fill-opacity="1" /><path clip-path="url(#clip840)" d="M258.329 1479.7 L263.213 1479.7 L263.213 1485.58 L258.329 1485.58 L258.329 1479.7 Z" fill="#000000" fill-rule="nonzero" fill-opacity="1" /><path clip-path="url(#clip840)" d="M283.398 1454.1 Q279.787 1454.1 277.958 1457.66 Q276.153 1461.2 276.153 1468.33 Q276.153 1475.44 277.958 1479.01 Q279.787 1482.55 283.398 1482.55 Q287.032 1482.55 288.838 1479.01 Q290.667 1475.44 290.667 1468.33 Q290.667 1461.2 288.838 1457.66 Q287.032 1454.1 283.398 1454.1 M283.398 1450.39 Q289.208 1450.39 292.264 1455 Q295.343 1459.58 295.343 1468.33 Q295.343 1477.06 292.264 1481.67 Q289.208 1486.25 283.398 1486.25 Q277.588 1486.25 274.509 1481.67 Q271.454 1477.06 271.454 1468.33 Q271.454 1459.58 274.509 1455 Q277.588 1450.39 283.398 1450.39 Z" fill="#000000" fill-rule="nonzero" fill-opacity="1" /><path clip-path="url(#clip840)" d="M649.491 1481.64 L665.81 1481.64 L665.81 1485.58 L643.866 1485.58 L643.866 1481.64 Q646.528 1478.89 651.111 1474.26 Q655.717 1469.61 656.898 1468.27 Q659.143 1465.74 660.023 1464.01 Q660.926 1462.25 660.926 1460.56 Q660.926 1457.8 658.981 1456.07 Q657.06 1454.33 653.958 1454.33 Q651.759 1454.33 649.305 1455.09 Q646.875 1455.86 644.097 1457.41 L644.097 1452.69 Q646.921 1451.55 649.375 1450.97 Q651.828 1450.39 653.865 1450.39 Q659.236 1450.39 662.43 1453.08 Q665.625 1455.77 665.625 1460.26 Q665.625 1462.39 664.815 1464.31 Q664.027 1466.2 661.921 1468.8 Q661.342 1469.47 658.24 1472.69 Q655.139 1475.88 649.491 1481.64 Z" fill="#000000" fill-rule="nonzero" fill-opacity="1" /><path clip-path="url(#clip840)" d="M675.625 1479.7 L680.509 1479.7 L680.509 1485.58 L675.625 1485.58 L675.625 1479.7 Z" fill="#000000" fill-rule="nonzero" fill-opacity="1" /><path clip-path="url(#clip840)" d="M690.74 1451.02 L709.097 1451.02 L709.097 1454.96 L695.023 1454.96 L695.023 1463.43 Q696.041 1463.08 697.06 1462.92 Q698.078 1462.73 699.097 1462.73 Q704.884 1462.73 708.263 1465.9 Q711.643 1469.08 711.643 1474.49 Q711.643 1480.07 708.171 1483.17 Q704.699 1486.25 698.379 1486.25 Q696.203 1486.25 693.935 1485.88 Q691.689 1485.51 689.282 1484.77 L689.282 1480.07 Q691.365 1481.2 693.588 1481.76 Q695.81 1482.32 698.287 1482.32 Q702.291 1482.32 704.629 1480.21 Q706.967 1478.1 706.967 1474.49 Q706.967 1470.88 704.629 1468.77 Q702.291 1466.67 698.287 1466.67 Q696.412 1466.67 694.537 1467.08 Q692.685 1467.5 690.74 1468.38 L690.74 1451.02 Z" fill="#000000" fill-rule="nonzero" fill-opacity="1" /><path clip-path="url(#clip840)" d="M1061.89 1451.02 L1080.25 1451.02 L1080.25 1454.96 L1066.17 1454.96 L1066.17 1463.43 Q1067.19 1463.08 1068.21 1462.92 Q1069.23 1462.73 1070.25 1462.73 Q1076.03 1462.73 1079.41 1465.9 Q1082.79 1469.08 1082.79 1474.49 Q1082.79 1480.07 1079.32 1483.17 Q1075.85 1486.25 1069.53 1486.25 Q1067.35 1486.25 1065.08 1485.88 Q1062.84 1485.51 1060.43 1484.77 L1060.43 1480.07 Q1062.52 1481.2 1064.74 1481.76 Q1066.96 1482.32 1069.44 1482.32 Q1073.44 1482.32 1075.78 1480.21 Q1078.12 1478.1 1078.12 1474.49 Q1078.12 1470.88 1075.78 1468.77 Q1073.44 1466.67 1069.44 1466.67 Q1067.56 1466.67 1065.69 1467.08 Q1063.83 1467.5 1061.89 1468.38 L1061.89 1451.02 Z" fill="#000000" fill-rule="nonzero" fill-opacity="1" /><path clip-path="url(#clip840)" d="M1092.01 1479.7 L1096.89 1479.7 L1096.89 1485.58 L1092.01 1485.58 L1092.01 1479.7 Z" fill="#000000" fill-rule="nonzero" fill-opacity="1" /><path clip-path="url(#clip840)" d="M1117.08 1454.1 Q1113.46 1454.1 1111.64 1457.66 Q1109.83 1461.2 1109.83 1468.33 Q1109.83 1475.44 1111.64 1479.01 Q1113.46 1482.55 1117.08 1482.55 Q1120.71 1482.55 1122.52 1479.01 Q1124.34 1475.44 1124.34 1468.33 Q1124.34 1461.2 1122.52 1457.66 Q1120.71 1454.1 1117.08 1454.1 M1117.08 1450.39 Q1122.89 1450.39 1125.94 1455 Q1129.02 1459.58 1129.02 1468.33 Q1129.02 1477.06 1125.94 1481.67 Q1122.89 1486.25 1117.08 1486.25 Q1111.27 1486.25 1108.19 1481.67 Q1105.13 1477.06 1105.13 1468.33 Q1105.13 1459.58 1108.19 1455 Q1111.27 1450.39 1117.08 1450.39 Z" fill="#000000" fill-rule="nonzero" fill-opacity="1" /><path clip-path="url(#clip840)" d="M1478.02 1451.02 L1500.24 1451.02 L1500.24 1453.01 L1487.69 1485.58 L1482.81 1485.58 L1494.61 1454.96 L1478.02 1454.96 L1478.02 1451.02 Z" fill="#000000" fill-rule="nonzero" fill-opacity="1" /><path clip-path="url(#clip840)" d="M1509.36 1479.7 L1514.24 1479.7 L1514.24 1485.58 L1509.36 1485.58 L1509.36 1479.7 Z" fill="#000000" fill-rule="nonzero" fill-opacity="1" /><path clip-path="url(#clip840)" d="M1524.48 1451.02 L1542.83 1451.02 L1542.83 1454.96 L1528.76 1454.96 L1528.76 1463.43 Q1529.78 1463.08 1530.79 1462.92 Q1531.81 1462.73 1532.83 1462.73 Q1538.62 1462.73 1542 1465.9 Q1545.38 1469.08 1545.38 1474.49 Q1545.38 1480.07 1541.91 1483.17 Q1538.43 1486.25 1532.11 1486.25 Q1529.94 1486.25 1527.67 1485.88 Q1525.42 1485.51 1523.02 1484.77 L1523.02 1480.07 Q1525.1 1481.2 1527.32 1481.76 Q1529.54 1482.32 1532.02 1482.32 Q1536.03 1482.32 1538.36 1480.21 Q1540.7 1478.1 1540.7 1474.49 Q1540.7 1470.88 1538.36 1468.77 Q1536.03 1466.67 1532.02 1466.67 Q1530.15 1466.67 1528.27 1467.08 Q1526.42 1467.5 1524.48 1468.38 L1524.48 1451.02 Z" fill="#000000" fill-rule="nonzero" fill-opacity="1" /><path clip-path="url(#clip840)" d="M1880.74 1481.64 L1888.38 1481.64 L1888.38 1455.28 L1880.07 1456.95 L1880.07 1452.69 L1888.33 1451.02 L1893.01 1451.02 L1893.01 1481.64 L1900.65 1481.64 L1900.65 1485.58 L1880.74 1485.58 L1880.74 1481.64 Z" fill="#000000" fill-rule="nonzero" fill-opacity="1" /><path clip-path="url(#clip840)" d="M1920.09 1454.1 Q1916.48 1454.1 1914.65 1457.66 Q1912.85 1461.2 1912.85 1468.33 Q1912.85 1475.44 1914.65 1479.01 Q1916.48 1482.55 1920.09 1482.55 Q1923.73 1482.55 1925.53 1479.01 Q1927.36 1475.44 1927.36 1468.33 Q1927.36 1461.2 1925.53 1457.66 Q1923.73 1454.1 1920.09 1454.1 M1920.09 1450.39 Q1925.9 1450.39 1928.96 1455 Q1932.04 1459.58 1932.04 1468.33 Q1932.04 1477.06 1928.96 1481.67 Q1925.9 1486.25 1920.09 1486.25 Q1914.28 1486.25 1911.2 1481.67 Q1908.15 1477.06 1908.15 1468.33 Q1908.15 1459.58 1911.2 1455 Q1914.28 1450.39 1920.09 1450.39 Z" fill="#000000" fill-rule="nonzero" fill-opacity="1" /><path clip-path="url(#clip840)" d="M1940.25 1479.7 L1945.14 1479.7 L1945.14 1485.58 L1940.25 1485.58 L1940.25 1479.7 Z" fill="#000000" fill-rule="nonzero" fill-opacity="1" /><path clip-path="url(#clip840)" d="M1965.32 1454.1 Q1961.71 1454.1 1959.88 1457.66 Q1958.08 1461.2 1958.08 1468.33 Q1958.08 1475.44 1959.88 1479.01 Q1961.71 1482.55 1965.32 1482.55 Q1968.96 1482.55 1970.76 1479.01 Q1972.59 1475.44 1972.59 1468.33 Q1972.59 1461.2 1970.76 1457.66 Q1968.96 1454.1 1965.32 1454.1 M1965.32 1450.39 Q1971.13 1450.39 1974.19 1455 Q1977.27 1459.58 1977.27 1468.33 Q1977.27 1477.06 1974.19 1481.67 Q1971.13 1486.25 1965.32 1486.25 Q1959.51 1486.25 1956.44 1481.67 Q1953.38 1477.06 1953.38 1468.33 Q1953.38 1459.58 1956.44 1455 Q1959.51 1450.39 1965.32 1450.39 Z" fill="#000000" fill-rule="nonzero" fill-opacity="1" /><path clip-path="url(#clip840)" d="M1111.34 1532.4 L1098.45 1549.74 L1112.01 1568.04 L1105.1 1568.04 L1094.73 1554.04 L1084.35 1568.04 L1077.44 1568.04 L1091.29 1549.39 L1078.62 1532.4 L1085.53 1532.4 L1094.98 1545.1 L1104.43 1532.4 L1111.34 1532.4 Z" fill="#000000" fill-rule="nonzero" fill-opacity="1" /><polyline clip-path="url(#clip840)" style="stroke:#000000; stroke-linecap:round; stroke-linejoin:round; stroke-width:4; stroke-opacity:1; fill:none" points="210.746,1423.18 210.746,123.472 "/>
<polyline clip-path="url(#clip840)" style="stroke:#000000; stroke-linecap:round; stroke-linejoin:round; stroke-width:4; stroke-opacity:1; fill:none" points="210.746,1297.6 226.344,1297.6 "/>
<polyline clip-path="url(#clip840)" style="stroke:#000000; stroke-linecap:round; stroke-linejoin:round; stroke-width:4; stroke-opacity:1; fill:none" points="210.746,986.609 226.344,986.609 "/>
<polyline clip-path="url(#clip840)" style="stroke:#000000; stroke-linecap:round; stroke-linejoin:round; stroke-width:4; stroke-opacity:1; fill:none" points="210.746,675.621 226.344,675.621 "/>
<polyline clip-path="url(#clip840)" style="stroke:#000000; stroke-linecap:round; stroke-linejoin:round; stroke-width:4; stroke-opacity:1; fill:none" points="210.746,364.633 226.344,364.633 "/>
<path clip-path="url(#clip840)" d="M114.631 1298.05 L144.306 1298.05 L144.306 1301.98 L114.631 1301.98 L114.631 1298.05 Z" fill="#000000" fill-rule="nonzero" fill-opacity="1" /><path clip-path="url(#clip840)" d="M158.427 1310.94 L174.746 1310.94 L174.746 1314.88 L152.802 1314.88 L152.802 1310.94 Q155.464 1308.19 160.047 1303.56 Q164.653 1298.91 165.834 1297.56 Q168.079 1295.04 168.959 1293.3 Q169.862 1291.54 169.862 1289.85 Q169.862 1287.1 167.917 1285.36 Q165.996 1283.63 162.894 1283.63 Q160.695 1283.63 158.241 1284.39 Q155.811 1285.16 153.033 1286.71 L153.033 1281.98 Q155.857 1280.85 158.311 1280.27 Q160.765 1279.69 162.802 1279.69 Q168.172 1279.69 171.366 1282.38 Q174.561 1285.06 174.561 1289.55 Q174.561 1291.68 173.751 1293.6 Q172.964 1295.5 170.857 1298.1 Q170.278 1298.77 167.177 1301.98 Q164.075 1305.18 158.427 1310.94 Z" fill="#000000" fill-rule="nonzero" fill-opacity="1" /><path clip-path="url(#clip840)" d="M114.26 987.061 L143.936 987.061 L143.936 990.996 L114.26 990.996 L114.26 987.061 Z" fill="#000000" fill-rule="nonzero" fill-opacity="1" /><path clip-path="url(#clip840)" d="M154.839 999.954 L162.477 999.954 L162.477 973.589 L154.167 975.255 L154.167 970.996 L162.431 969.329 L167.107 969.329 L167.107 999.954 L174.746 999.954 L174.746 1003.89 L154.839 1003.89 L154.839 999.954 Z" fill="#000000" fill-rule="nonzero" fill-opacity="1" /><path clip-path="url(#clip840)" d="M162.802 661.42 Q159.19 661.42 157.362 664.985 Q155.556 668.526 155.556 675.656 Q155.556 682.762 157.362 686.327 Q159.19 689.869 162.802 689.869 Q166.436 689.869 168.241 686.327 Q170.07 682.762 170.07 675.656 Q170.07 668.526 168.241 664.985 Q166.436 661.42 162.802 661.42 M162.802 657.716 Q168.612 657.716 171.667 662.323 Q174.746 666.906 174.746 675.656 Q174.746 684.383 171.667 688.989 Q168.612 693.573 162.802 693.573 Q156.991 693.573 153.913 688.989 Q150.857 684.383 150.857 675.656 Q150.857 666.906 153.913 662.323 Q156.991 657.716 162.802 657.716 Z" fill="#000000" fill-rule="nonzero" fill-opacity="1" /><path clip-path="url(#clip840)" d="M154.839 377.978 L162.477 377.978 L162.477 351.612 L154.167 353.279 L154.167 349.02 L162.431 347.353 L167.107 347.353 L167.107 377.978 L174.746 377.978 L174.746 381.913 L154.839 381.913 L154.839 377.978 Z" fill="#000000" fill-rule="nonzero" fill-opacity="1" /><path clip-path="url(#clip840)" d="M67.3143 771.639 Q73.68 774.122 75.6216 776.477 Q77.5631 778.832 77.5631 782.779 L77.5631 787.458 L72.6615 787.458 L72.6615 784.02 Q72.6615 781.601 71.5157 780.265 Q70.3699 778.928 66.1048 777.305 L63.4312 776.254 L28.3562 790.673 L28.3562 784.466 L56.238 773.326 L28.3562 762.186 L28.3562 755.979 L67.3143 771.639 Z" fill="#000000" fill-rule="nonzero" fill-opacity="1" /><path clip-path="url(#clip840)" d="M564.928 18.8205 L564.928 41.5461 L575.218 41.5461 Q580.93 41.5461 584.049 38.5889 Q587.168 35.6318 587.168 30.163 Q587.168 24.7348 584.049 21.7777 Q580.93 18.8205 575.218 18.8205 L564.928 18.8205 M556.746 12.096 L575.218 12.096 Q585.386 12.096 590.571 16.714 Q595.796 21.2916 595.796 30.163 Q595.796 39.1155 590.571 43.6931 Q585.386 48.2706 575.218 48.2706 L564.928 48.2706 L564.928 72.576 L556.746 72.576 L556.746 12.096 Z" fill="#000000" fill-rule="nonzero" fill-opacity="1" /><path clip-path="url(#clip840)" d="M606.45 9.54393 L613.904 9.54393 L613.904 72.576 L606.45 72.576 L606.45 9.54393 Z" fill="#000000" fill-rule="nonzero" fill-opacity="1" /><path clip-path="url(#clip840)" d="M647.081 32.4315 Q641.085 32.4315 637.602 37.1306 Q634.118 41.7891 634.118 49.9314 Q634.118 58.0738 637.561 62.7728 Q641.045 67.4314 647.081 67.4314 Q653.036 67.4314 656.519 62.7323 Q660.003 58.0333 660.003 49.9314 Q660.003 41.8701 656.519 37.1711 Q653.036 32.4315 647.081 32.4315 M647.081 26.1121 Q656.803 26.1121 662.353 32.4315 Q667.902 38.7509 667.902 49.9314 Q667.902 61.0714 662.353 67.4314 Q656.803 73.7508 647.081 73.7508 Q637.318 73.7508 631.768 67.4314 Q626.259 61.0714 626.259 49.9314 Q626.259 38.7509 631.768 32.4315 Q637.318 26.1121 647.081 26.1121 Z" fill="#000000" fill-rule="nonzero" fill-opacity="1" /><path clip-path="url(#clip840)" d="M687.63 14.324 L687.63 27.2059 L702.983 27.2059 L702.983 32.9987 L687.63 32.9987 L687.63 57.6282 Q687.63 63.1779 689.129 64.7578 Q690.669 66.3376 695.327 66.3376 L702.983 66.3376 L702.983 72.576 L695.327 72.576 Q686.699 72.576 683.417 69.3758 Q680.136 66.1351 680.136 57.6282 L680.136 32.9987 L674.667 32.9987 L674.667 27.2059 L680.136 27.2059 L680.136 14.324 L687.63 14.324 Z" fill="#000000" fill-rule="nonzero" fill-opacity="1" /><path clip-path="url(#clip840)" d="M720.159 14.324 L720.159 27.2059 L735.512 27.2059 L735.512 32.9987 L720.159 32.9987 L720.159 57.6282 Q720.159 63.1779 721.658 64.7578 Q723.197 66.3376 727.856 66.3376 L735.512 66.3376 L735.512 72.576 L727.856 72.576 Q719.227 72.576 715.946 69.3758 Q712.665 66.1351 712.665 57.6282 L712.665 32.9987 L707.196 32.9987 L707.196 27.2059 L712.665 27.2059 L712.665 14.324 L720.159 14.324 Z" fill="#000000" fill-rule="nonzero" fill-opacity="1" /><path clip-path="url(#clip840)" d="M745.315 27.2059 L752.769 27.2059 L752.769 72.576 L745.315 72.576 L745.315 27.2059 M745.315 9.54393 L752.769 9.54393 L752.769 18.9825 L745.315 18.9825 L745.315 9.54393 Z" fill="#000000" fill-rule="nonzero" fill-opacity="1" /><path clip-path="url(#clip840)" d="M806.079 45.1919 L806.079 72.576 L798.625 72.576 L798.625 45.4349 Q798.625 38.994 796.114 35.7938 Q793.602 32.5936 788.579 32.5936 Q782.543 32.5936 779.059 36.4419 Q775.575 40.2903 775.575 46.9338 L775.575 72.576 L768.081 72.576 L768.081 27.2059 L775.575 27.2059 L775.575 34.2544 Q778.249 30.163 781.854 28.1376 Q785.5 26.1121 790.24 26.1121 Q798.058 26.1121 802.068 30.9732 Q806.079 35.7938 806.079 45.1919 Z" fill="#000000" fill-rule="nonzero" fill-opacity="1" /><path clip-path="url(#clip840)" d="M850.801 49.3643 Q850.801 41.2625 847.439 36.8065 Q844.117 32.3505 838.081 32.3505 Q832.086 32.3505 828.723 36.8065 Q825.402 41.2625 825.402 49.3643 Q825.402 57.4256 828.723 61.8816 Q832.086 66.3376 838.081 66.3376 Q844.117 66.3376 847.439 61.8816 Q850.801 57.4256 850.801 49.3643 M858.254 66.9452 Q858.254 78.5308 853.11 84.1616 Q847.965 89.8329 837.352 89.8329 Q833.422 89.8329 829.939 89.2252 Q826.455 88.6581 823.174 87.4428 L823.174 80.1917 Q826.455 81.9741 829.655 82.8248 Q832.855 83.6755 836.177 83.6755 Q843.509 83.6755 847.155 79.8271 Q850.801 76.0193 850.801 68.282 L850.801 64.5957 Q848.492 68.6061 844.886 70.5911 Q841.281 72.576 836.258 72.576 Q827.913 72.576 822.809 66.2161 Q817.705 59.8562 817.705 49.3643 Q817.705 38.832 822.809 32.472 Q827.913 26.1121 836.258 26.1121 Q841.281 26.1121 844.886 28.0971 Q848.492 30.082 850.801 34.0924 L850.801 27.2059 L858.254 27.2059 L858.254 66.9452 Z" fill="#000000" fill-rule="nonzero" fill-opacity="1" /><path clip-path="url(#clip840)" d="M900.303 12.096 L935.06 12.096 L935.06 18.9825 L908.486 18.9825 L908.486 36.8065 L932.467 36.8065 L932.467 43.6931 L908.486 43.6931 L908.486 72.576 L900.303 72.576 L900.303 12.096 Z" fill="#000000" fill-rule="nonzero" fill-opacity="1" /><path clip-path="url(#clip840)" d="M942.392 54.671 L942.392 27.2059 L949.845 27.2059 L949.845 54.3874 Q949.845 60.8284 952.357 64.0691 Q954.868 67.2693 959.892 67.2693 Q965.927 67.2693 969.411 63.421 Q972.936 59.5726 972.936 52.9291 L972.936 27.2059 L980.389 27.2059 L980.389 72.576 L972.936 72.576 L972.936 65.6084 Q970.221 69.7404 966.616 71.7658 Q963.051 73.7508 958.312 73.7508 Q950.494 73.7508 946.443 68.8897 Q942.392 64.0286 942.392 54.671 M961.147 26.1121 L961.147 26.1121 Z" fill="#000000" fill-rule="nonzero" fill-opacity="1" /><path clip-path="url(#clip840)" d="M1033.46 45.1919 L1033.46 72.576 L1026 72.576 L1026 45.4349 Q1026 38.994 1023.49 35.7938 Q1020.98 32.5936 1015.96 32.5936 Q1009.92 32.5936 1006.44 36.4419 Q1002.95 40.2903 1002.95 46.9338 L1002.95 72.576 L995.459 72.576 L995.459 27.2059 L1002.95 27.2059 L1002.95 34.2544 Q1005.63 30.163 1009.23 28.1376 Q1012.88 26.1121 1017.62 26.1121 Q1025.44 26.1121 1029.45 30.9732 Q1033.46 35.7938 1033.46 45.1919 Z" fill="#000000" fill-rule="nonzero" fill-opacity="1" /><path clip-path="url(#clip840)" d="M1080.97 28.9478 L1080.97 35.9153 Q1077.81 34.1734 1074.61 33.3227 Q1071.45 32.4315 1068.21 32.4315 Q1060.96 32.4315 1056.95 37.0496 Q1052.94 41.6271 1052.94 49.9314 Q1052.94 58.2358 1056.95 62.8538 Q1060.96 67.4314 1068.21 67.4314 Q1071.45 67.4314 1074.61 66.5807 Q1077.81 65.6895 1080.97 63.9476 L1080.97 70.8341 Q1077.85 72.2924 1074.49 73.0216 Q1071.17 73.7508 1067.4 73.7508 Q1057.15 73.7508 1051.12 67.3098 Q1045.08 60.8689 1045.08 49.9314 Q1045.08 38.832 1051.16 32.472 Q1057.28 26.1121 1067.89 26.1121 Q1071.33 26.1121 1074.61 26.8413 Q1077.89 27.5299 1080.97 28.9478 Z" fill="#000000" fill-rule="nonzero" fill-opacity="1" /><path clip-path="url(#clip840)" d="M1101.31 14.324 L1101.31 27.2059 L1116.66 27.2059 L1116.66 32.9987 L1101.31 32.9987 L1101.31 57.6282 Q1101.31 63.1779 1102.81 64.7578 Q1104.35 66.3376 1109.01 66.3376 L1116.66 66.3376 L1116.66 72.576 L1109.01 72.576 Q1100.38 72.576 1097.1 69.3758 Q1093.81 66.1351 1093.81 57.6282 L1093.81 32.9987 L1088.35 32.9987 L1088.35 27.2059 L1093.81 27.2059 L1093.81 14.324 L1101.31 14.324 Z" fill="#000000" fill-rule="nonzero" fill-opacity="1" /><path clip-path="url(#clip840)" d="M1126.46 27.2059 L1133.92 27.2059 L1133.92 72.576 L1126.46 72.576 L1126.46 27.2059 M1126.46 9.54393 L1133.92 9.54393 L1133.92 18.9825 L1126.46 18.9825 L1126.46 9.54393 Z" fill="#000000" fill-rule="nonzero" fill-opacity="1" /><path clip-path="url(#clip840)" d="M1167.1 32.4315 Q1161.1 32.4315 1157.62 37.1306 Q1154.13 41.7891 1154.13 49.9314 Q1154.13 58.0738 1157.58 62.7728 Q1161.06 67.4314 1167.1 67.4314 Q1173.05 67.4314 1176.53 62.7323 Q1180.02 58.0333 1180.02 49.9314 Q1180.02 41.8701 1176.53 37.1711 Q1173.05 32.4315 1167.1 32.4315 M1167.1 26.1121 Q1176.82 26.1121 1182.37 32.4315 Q1187.92 38.7509 1187.92 49.9314 Q1187.92 61.0714 1182.37 67.4314 Q1176.82 73.7508 1167.1 73.7508 Q1157.33 73.7508 1151.78 67.4314 Q1146.27 61.0714 1146.27 49.9314 Q1146.27 38.7509 1151.78 32.4315 Q1157.33 26.1121 1167.1 26.1121 Z" fill="#000000" fill-rule="nonzero" fill-opacity="1" /><path clip-path="url(#clip840)" d="M1237.99 45.1919 L1237.99 72.576 L1230.53 72.576 L1230.53 45.4349 Q1230.53 38.994 1228.02 35.7938 Q1225.51 32.5936 1220.49 32.5936 Q1214.45 32.5936 1210.97 36.4419 Q1207.48 40.2903 1207.48 46.9338 L1207.48 72.576 L1199.99 72.576 L1199.99 27.2059 L1207.48 27.2059 L1207.48 34.2544 Q1210.16 30.163 1213.76 28.1376 Q1217.41 26.1121 1222.15 26.1121 Q1229.97 26.1121 1233.98 30.9732 Q1237.99 35.7938 1237.99 45.1919 Z" fill="#000000" fill-rule="nonzero" fill-opacity="1" /><path clip-path="url(#clip840)" d="M1281.78 28.5427 L1281.78 35.5912 Q1278.62 33.9709 1275.21 33.1607 Q1271.81 32.3505 1268.17 32.3505 Q1262.62 32.3505 1259.82 34.0519 Q1257.07 35.7533 1257.07 39.156 Q1257.07 41.7486 1259.05 43.2475 Q1261.04 44.7058 1267.03 46.0426 L1269.58 46.6097 Q1277.52 48.3111 1280.84 51.4303 Q1284.21 54.509 1284.21 60.0587 Q1284.21 66.3781 1279.18 70.0644 Q1274.2 73.7508 1265.45 73.7508 Q1261.81 73.7508 1257.84 73.0216 Q1253.91 72.3329 1249.53 70.9151 L1249.53 63.2184 Q1253.66 65.3654 1257.67 66.4591 Q1261.68 67.5124 1265.61 67.5124 Q1270.88 67.5124 1273.72 65.73 Q1276.55 63.9071 1276.55 60.6258 Q1276.55 57.5877 1274.48 55.9673 Q1272.46 54.3469 1265.53 52.8481 L1262.94 52.2405 Q1256.01 50.7821 1252.93 47.7845 Q1249.86 44.7463 1249.86 39.4801 Q1249.86 33.0797 1254.39 29.5959 Q1258.93 26.1121 1267.27 26.1121 Q1271.41 26.1121 1275.05 26.7198 Q1278.7 27.3274 1281.78 28.5427 Z" fill="#000000" fill-rule="nonzero" fill-opacity="1" /><path clip-path="url(#clip840)" d="M1330.95 18.8205 L1330.95 65.8515 L1340.84 65.8515 Q1353.36 65.8515 1359.15 60.1802 Q1364.98 54.509 1364.98 42.2752 Q1364.98 30.1225 1359.15 24.4918 Q1353.36 18.8205 1340.84 18.8205 L1330.95 18.8205 M1322.77 12.096 L1339.58 12.096 Q1357.16 12.096 1365.39 19.4281 Q1373.61 26.7198 1373.61 42.2752 Q1373.61 57.9117 1365.35 65.2439 Q1357.08 72.576 1339.58 72.576 L1322.77 72.576 L1322.77 12.096 Z" fill="#000000" fill-rule="nonzero" fill-opacity="1" /><path clip-path="url(#clip840)" d="M1386.33 27.2059 L1393.78 27.2059 L1393.78 72.576 L1386.33 72.576 L1386.33 27.2059 M1386.33 9.54393 L1393.78 9.54393 L1393.78 18.9825 L1386.33 18.9825 L1386.33 9.54393 Z" fill="#000000" fill-rule="nonzero" fill-opacity="1" /><path clip-path="url(#clip840)" d="M1435.67 34.1734 Q1434.41 33.4443 1432.92 33.1202 Q1431.46 32.7556 1429.67 32.7556 Q1423.36 32.7556 1419.95 36.8875 Q1416.59 40.9789 1416.59 48.6757 L1416.59 72.576 L1409.1 72.576 L1409.1 27.2059 L1416.59 27.2059 L1416.59 34.2544 Q1418.94 30.1225 1422.71 28.1376 Q1426.47 26.1121 1431.86 26.1121 Q1432.63 26.1121 1433.56 26.2337 Q1434.5 26.3147 1435.63 26.5172 L1435.67 34.1734 Z" fill="#000000" fill-rule="nonzero" fill-opacity="1" /><path clip-path="url(#clip840)" d="M1480.47 48.0275 L1480.47 51.6733 L1446.2 51.6733 Q1446.69 59.3701 1450.82 63.421 Q1454.99 67.4314 1462.41 67.4314 Q1466.7 67.4314 1470.71 66.3781 Q1474.76 65.3249 1478.73 63.2184 L1478.73 70.267 Q1474.72 71.9684 1470.51 72.8596 Q1466.3 73.7508 1461.96 73.7508 Q1451.1 73.7508 1444.74 67.4314 Q1438.42 61.1119 1438.42 50.3365 Q1438.42 39.1965 1444.42 32.6746 Q1450.46 26.1121 1460.66 26.1121 Q1469.82 26.1121 1475.13 32.0264 Q1480.47 37.9003 1480.47 48.0275 M1473.02 45.84 Q1472.94 39.7232 1469.58 36.0774 Q1466.25 32.4315 1460.75 32.4315 Q1454.51 32.4315 1450.74 35.9558 Q1447.01 39.4801 1446.45 45.8805 L1473.02 45.84 Z" fill="#000000" fill-rule="nonzero" fill-opacity="1" /><path clip-path="url(#clip840)" d="M1525.36 28.9478 L1525.36 35.9153 Q1522.2 34.1734 1519 33.3227 Q1515.84 32.4315 1512.6 32.4315 Q1505.35 32.4315 1501.34 37.0496 Q1497.33 41.6271 1497.33 49.9314 Q1497.33 58.2358 1501.34 62.8538 Q1505.35 67.4314 1512.6 67.4314 Q1515.84 67.4314 1519 66.5807 Q1522.2 65.6895 1525.36 63.9476 L1525.36 70.8341 Q1522.24 72.2924 1518.88 73.0216 Q1515.55 73.7508 1511.79 73.7508 Q1501.54 73.7508 1495.5 67.3098 Q1489.47 60.8689 1489.47 49.9314 Q1489.47 38.832 1495.54 32.472 Q1501.66 26.1121 1512.27 26.1121 Q1515.72 26.1121 1519 26.8413 Q1522.28 27.5299 1525.36 28.9478 Z" fill="#000000" fill-rule="nonzero" fill-opacity="1" /><path clip-path="url(#clip840)" d="M1545.69 14.324 L1545.69 27.2059 L1561.05 27.2059 L1561.05 32.9987 L1545.69 32.9987 L1545.69 57.6282 Q1545.69 63.1779 1547.19 64.7578 Q1548.73 66.3376 1553.39 66.3376 L1561.05 66.3376 L1561.05 72.576 L1553.39 72.576 Q1544.76 72.576 1541.48 69.3758 Q1538.2 66.1351 1538.2 57.6282 L1538.2 32.9987 L1532.73 32.9987 L1532.73 27.2059 L1538.2 27.2059 L1538.2 14.324 L1545.69 14.324 Z" fill="#000000" fill-rule="nonzero" fill-opacity="1" /><path clip-path="url(#clip840)" d="M1570.85 9.54393 L1578.3 9.54393 L1578.3 72.576 L1570.85 72.576 L1570.85 9.54393 Z" fill="#000000" fill-rule="nonzero" fill-opacity="1" /><path clip-path="url(#clip840)" d="M1612.78 76.7889 Q1609.62 84.8907 1606.62 87.3618 Q1603.62 89.8329 1598.6 89.8329 L1592.64 89.8329 L1592.64 83.5945 L1597.02 83.5945 Q1600.1 83.5945 1601.8 82.1361 Q1603.5 80.6778 1605.57 75.2496 L1606.9 71.8468 L1588.55 27.2059 L1596.45 27.2059 L1610.63 62.6918 L1624.81 27.2059 L1632.71 27.2059 L1612.78 76.7889 Z" fill="#000000" fill-rule="nonzero" fill-opacity="1" /><polyline clip-path="url(#clip842)" style="stroke:#0000ff; stroke-linecap:round; stroke-linejoin:round; stroke-width:4; stroke-opacity:1; fill:none" points="260.783,675.621 262.935,649.959 265.087,624.429 267.24,599.163 269.392,574.291 271.544,549.938 273.697,526.229 275.849,503.281 278.001,481.207 281.153,450.683 284.304,422.566 287.456,397.127 290.607,374.593 292.183,364.475 293.759,355.148 295.335,346.63 296.91,338.932 298.486,332.064 300.062,326.032 301.638,320.84 303.214,316.489 304.789,312.975 306.365,310.292 307.941,308.433 309.517,307.386 311.092,307.134 312.668,307.663 314.244,308.95 315.82,310.974 318.971,317.128 322.123,325.896 325.274,337.015 328.426,350.194 331.577,365.121 334.729,381.463 337.88,398.878 341.032,417.021 347.335,454.111 353.638,490.094 356.789,506.923 359.941,522.632 363.092,537.003 366.244,549.856 369.396,561.048 372.547,570.484 375.699,578.107 378.85,583.91 381.782,587.703 384.714,590.011 387.647,590.926 390.579,590.572 396.443,586.678 402.308,579.805 408.172,571.715 414.036,564.343 416.968,561.544 419.901,559.658 422.833,558.916 425.765,559.533 427.73,560.806 429.695,562.833 431.66,565.662 433.625,569.338 435.59,573.899 437.556,579.378 439.521,585.801 441.486,593.187 443.451,601.55 445.416,610.896 447.381,621.224 449.346,632.526 451.311,644.787 453.276,657.984 455.242,672.09 457.207,687.068 461.137,719.463 465.067,754.754 468.997,792.43 472.927,831.899 480.788,913.519 488.648,993.809 491.896,1025.16 495.143,1054.84 498.391,1082.42 501.639,1107.55 503.262,1119.08 504.886,1129.86 506.51,1139.87 508.134,1149.06 509.758,1157.41 511.381,1164.89 513.005,1171.46 514.629,1177.11 516.253,1181.81 517.876,1185.56 519.5,1188.34 521.124,1190.14 522.748,1190.95 524.372,1190.77 525.995,1189.61 527.619,1187.47 529.243,1184.36 530.867,1180.29 532.49,1175.28 534.114,1169.34 535.738,1162.5 537.362,1154.78 538.986,1146.22 540.609,1136.84 543.629,1117.36 546.649,1095.42 549.669,1071.3 552.689,1045.31 555.709,1017.75 558.729,988.964 561.749,959.292 564.769,929.081 570.809,868.423 576.848,809.664 579.868,781.768 582.888,755.231 585.908,730.295 588.928,707.171 590.824,693.663 592.719,680.976 594.615,669.141 596.51,658.181 598.406,648.117 600.301,638.96 602.197,630.717 604.092,623.389 605.988,616.969 607.883,611.446 609.779,606.803 611.674,603.015 613.57,600.056 615.465,597.89 617.361,596.48 619.256,595.783 623.047,596.329 626.838,599.107 630.629,603.64 634.42,609.421 642.002,622.598 649.585,634.421 652.985,638.245 656.386,640.719 659.786,641.585 663.187,640.635 666.587,637.709 669.988,632.707 673.389,625.584 676.789,616.358 680.19,605.105 683.59,591.962 686.991,577.122 690.391,560.831 697.193,525.117 703.994,487.649 707.886,466.67 711.779,446.837 715.671,428.801 719.563,413.199 721.51,406.501 723.456,400.634 725.402,395.665 727.348,391.658 729.294,388.67 731.241,386.757 733.187,385.965 735.133,386.337 737.079,387.911 739.025,390.714 740.972,394.771 742.918,400.099 744.864,406.705 746.81,414.594 748.757,423.76 750.703,434.191 752.649,445.867 754.595,458.762 756.541,472.844 758.488,488.071 760.434,504.397 762.38,521.769 764.326,540.126 766.272,559.406 769.182,589.791 772.092,621.822 775.001,655.219 777.911,689.687 783.73,760.59 789.549,831.956 792.459,866.999 795.368,901.189 798.278,934.222 801.187,965.805 804.097,995.667 807.007,1023.56 809.916,1049.26 812.826,1072.57 814.686,1086.15 816.547,1098.65 818.408,1110.04 820.269,1120.3 822.129,1129.41 823.99,1137.34 825.851,1144.11 827.711,1149.71 829.572,1154.14 831.433,1157.42 833.293,1159.56 835.154,1160.59 837.015,1160.53 838.876,1159.42 840.736,1157.3 842.597,1154.21 844.458,1150.2 846.318,1145.32 848.179,1139.62 850.04,1133.17 853.761,1118.26 857.483,1101.11 864.925,1062.33 872.368,1021.35 875.765,1003.11 879.161,985.695 882.558,969.431 885.954,954.616 889.351,941.496 892.748,930.262 896.144,921.05 899.541,913.936 902.937,908.938 906.334,906.012 909.73,905.057 913.127,905.915 916.523,908.377 919.92,912.189 923.316,917.052 926.713,922.638 934.444,936.119 942.176,947.011 944.109,948.806 946.041,950.096 947.974,950.819 949.907,950.916 951.84,950.332 953.773,949.016 955.706,946.921 957.639,944.006 959.571,940.234 961.504,935.574 963.437,930.001 965.37,923.496 967.303,916.047 969.236,907.648 971.168,898.298 973.101,888.005 975.034,876.782 976.967,864.649 978.9,851.633 980.833,837.767 982.765,823.091 984.698,807.65 986.631,791.495 988.564,774.684 994.693,717.772 1000.82,657.202 1006.95,595.614 1013.08,535.855 1016.14,507.564 1019.21,480.804 1022.27,455.909 1025.34,433.196 1026.87,422.75 1028.4,412.957 1029.93,403.849 1031.47,395.456 1033,387.804 1034.53,380.92 1036.06,374.827 1037.59,369.545 1039.5,364.139 1041.4,360.04 1043.31,357.271 1045.21,355.848 1047.11,355.779 1049.02,357.067 1050.92,359.706 1052.82,363.685 1054.73,368.987 1056.63,375.586 1058.53,383.453 1060.44,392.548 1062.34,402.831 1064.24,414.25 1066.15,426.753 1068.05,440.28 1069.96,454.766 1071.86,470.143 1073.76,486.339 1075.67,503.277 1079.47,539.062 1083.28,576.838 1090.89,655.606 1098.51,734.081 1101.42,762.95 1104.34,790.753 1107.26,817.252 1110.17,842.231 1113.09,865.504 1116,886.914 1118.92,906.336 1121.83,923.678 1124.75,938.882 1127.67,951.923 1130.58,962.812 1133.5,971.592 1136.41,978.339 1139.33,983.16 1142.24,986.188 1145.16,987.585 1149.27,987.14 1153.38,984.397 1157.49,979.99 1161.6,974.59 1165.71,968.878 1169.82,963.528 1173.93,959.178 1178.04,956.413 1180.1,955.789 1182.16,955.745 1184.21,956.333 1186.27,957.593 1188.32,959.563 1190.38,962.27 1192.43,965.736 1194.49,969.973 1196.54,974.986 1198.6,980.773 1200.65,987.321 1202.71,994.612 1204.76,1002.62 1206.82,1011.31 1208.87,1020.63 1210.93,1030.55 1217.07,1063.1 1223.22,1098.54 1229.36,1134.65 1235.5,1168.94 1238.58,1184.6 1241.65,1198.86 1244.72,1211.41 1247.79,1221.95 1250.86,1230.23 1253.94,1236 1255.47,1237.88 1257.01,1239.06 1258.54,1239.52 1260.08,1239.23 1261.83,1237.98 1263.57,1235.73 1265.32,1232.47 1267.07,1228.19 1268.81,1222.87 1270.56,1216.52 1272.31,1209.14 1274.05,1200.74 1275.8,1191.33 1277.55,1180.93 1279.29,1169.55 1281.04,1157.24 1282.79,1144.01 1284.53,1129.9 1286.28,1114.95 1288.03,1099.21 1291.52,1065.52 1295.01,1029.25 1298.51,990.86 1302,950.857 1308.99,868.161 1315.97,785.621 1319.43,746.185 1322.89,708.398 1326.35,672.744 1329.81,639.67 1331.54,624.225 1333.27,609.571 1335,595.747 1336.73,582.79 1338.46,570.735 1340.19,559.609 1341.92,549.438 1343.65,540.243 1345.38,532.039 1347.11,524.838 1348.84,518.647 1350.57,513.469 1352.3,509.302 1354.03,506.139 1355.76,503.971 1357.49,502.782 1359.22,502.553 1360.95,503.26 1362.68,504.877 1364.41,507.373 1366.14,510.713 1367.87,514.86 1369.6,519.772 1371.33,525.406 1375.13,540.111 1378.94,557.549 1382.75,577.145 1386.55,598.299 1394.16,642.841 1401.78,686.451 1405.58,706.574 1409.39,724.977 1413.2,741.3 1417,755.263 1420.81,766.678 1424.61,775.45 1426.52,778.839 1428.42,781.575 1430.32,783.671 1432.23,785.148 1435.13,786.267 1438.04,786.116 1440.95,784.838 1443.86,782.597 1449.67,775.997 1455.48,768.014 1461.3,760.521 1467.11,755.441 1470.02,754.389 1472.93,754.618 1475.84,756.326 1478.74,759.69 1480.58,762.736 1482.41,766.536 1484.25,771.121 1486.08,776.513 1487.91,782.734 1489.75,789.798 1491.58,797.713 1493.42,806.486 1495.25,816.114 1497.09,826.591 1498.92,837.905 1500.76,850.041 1502.59,862.974 1504.42,876.678 1506.26,891.119 1508.09,906.26 1511.76,938.468 1515.43,972.907 1519.1,1009.12 1522.77,1046.58 1530.11,1123.01 1537.44,1197.37 1540.84,1229.68 1544.23,1260.02 1545.93,1274.31 1547.62,1287.94 1549.32,1300.86 1551.02,1313.02 1552.71,1324.38 1554.41,1334.89 1556.11,1344.51 1557.8,1353.2 1559.5,1360.95 1561.2,1367.7 1562.89,1373.44 1564.59,1378.16 1566.29,1381.82 1567.98,1384.42 1569.68,1385.95 1571.38,1386.4 1573.07,1385.77 1574.77,1384.07 1576.47,1381.3 1578.16,1377.48 1579.86,1372.63 1581.55,1366.75 1583.25,1359.89 1584.95,1352.06 1586.64,1343.29 1588.34,1333.63 1590.04,1323.12 1591.73,1311.79 1595.23,1286.03 1598.73,1257.43 1602.23,1226.46 1605.73,1193.63 1612.73,1124.49 1619.73,1054.31 1623.23,1020.13 1626.73,987.212 1630.23,955.985 1633.73,926.842 1637.23,900.119 1640.73,876.089 1642.48,865.151 1644.23,854.96 1645.98,845.529 1647.73,836.869 1649.5,828.886 1651.27,821.704 1653.05,815.319 1654.82,809.726 1656.59,804.912 1658.37,800.86 1660.14,797.55 1661.92,794.957 1665.46,791.806 1669.01,791.134 1672.56,792.618 1676.1,795.89 1683.2,806.173 1690.29,818.563 1693.84,824.461 1697.39,829.61 1700.93,833.63 1704.48,836.183 1706.33,836.834 1708.19,836.968 1710.04,836.557 1711.89,835.572 1715.59,831.801 1719.3,825.544 1723,816.772 1726.7,805.541 1730.41,791.991 1734.11,776.345 1737.82,758.899 1741.52,740.024 1745.22,720.149 1748.93,699.755 1752.63,679.363 1756.34,659.52 1760.04,640.789 1763.74,623.73 1766.66,611.829 1769.58,601.562 1772.5,593.169 1775.41,586.875 1778.33,582.878 1781.25,581.355 1782.71,581.568 1784.17,582.452 1785.63,584.02 1787.09,586.284 1788.54,589.253 1790,592.934 1791.46,597.333 1792.92,602.451 1794.38,608.29 1795.84,614.848 1797.3,622.12 1798.76,630.1 1801.67,648.147 1804.59,668.895 1807.51,692.211 1810.43,717.933 1813.75,749.899 1817.07,784.394 1820.39,821.042 1823.72,859.427 1830.36,939.614 1837.01,1021.18 1840.33,1061.27 1843.65,1100.26 1846.97,1137.7 1850.3,1173.16 1851.96,1190.02 1853.62,1206.25 1855.28,1221.79 1856.94,1236.6 1858.6,1250.66 1860.26,1263.93 1861.92,1276.37 1863.58,1287.96 1865.25,1298.68 1866.91,1308.51 1868.57,1317.43 1870.23,1325.42 1871.89,1332.49 1873.55,1338.63 1875.21,1343.83 1876.87,1348.1 1878.53,1351.44 1880.2,1353.88 1881.86,1355.41 1883.52,1356.07 1885.18,1355.86 1886.84,1354.82 1888.5,1352.98 1890.16,1350.35 1893.49,1342.91 1896.81,1332.8 1900.13,1320.36 1903.45,1305.95 1910.1,1272.78 1916.74,1236.52 1919.72,1220.08 1922.71,1203.94 1925.69,1188.35 1928.67,1173.54 "/>
<polyline clip-path="url(#clip842)" style="stroke:#ff8c00; stroke-linecap:round; stroke-linejoin:round; stroke-width:12; stroke-opacity:1; fill:none" points="260.783,840.584 262.935,859.009 265.087,876.106 267.24,891.81 269.392,906.067 271.544,918.83 273.697,930.066 275.849,939.75 278.001,947.869 279.577,952.819 281.153,956.931 282.729,960.212 284.304,962.669 285.88,964.315 287.456,965.164 289.032,965.233 290.607,964.543 293.759,960.977 296.91,954.678 298.486,950.578 300.062,945.89 301.638,940.649 303.214,934.891 306.365,921.985 309.517,907.493 312.668,891.753 315.82,875.111 322.123,840.501 328.426,806.353 331.577,790.225 334.729,775.095 337.88,761.196 341.032,748.729 344.183,737.856 347.335,728.697 350.486,721.327 353.638,715.779 356.789,712.04 359.941,710.055 363.092,709.724 366.244,710.909 369.396,713.432 372.547,717.083 375.699,721.622 378.85,726.785 384.714,737.068 390.579,746.58 393.511,750.429 396.443,753.352 399.375,755.119 402.308,755.517 405.24,754.348 408.172,751.438 411.104,746.639 414.036,739.828 416.968,730.914 419.901,719.839 422.833,706.578 425.765,691.139 427.73,679.594 429.695,667.113 431.66,653.724 433.625,639.464 435.59,624.375 437.556,608.507 439.521,591.914 441.486,574.658 445.416,538.429 449.346,500.413 453.276,461.271 457.207,421.717 461.137,382.497 465.067,344.377 468.997,308.117 472.927,274.454 474.893,258.817 476.858,244.087 478.823,230.341 480.788,217.653 482.753,206.091 484.718,195.716 486.683,186.586 488.648,178.75 490.272,173.283 491.896,168.75 493.52,165.168 495.143,162.552 496.767,160.913 498.391,160.256 500.015,160.587 501.639,161.904 503.262,164.204 504.886,167.479 506.51,171.72 508.134,176.911 509.758,183.036 511.381,190.072 513.005,197.997 514.629,206.782 516.253,216.396 517.876,226.808 519.5,237.98 521.124,249.875 522.748,262.45 524.372,275.663 525.995,289.469 527.619,303.82 530.867,333.962 534.114,365.681 537.362,398.558 540.609,432.16 546.649,495.113 552.689,556.4 555.709,585.637 558.729,613.564 561.749,639.93 564.769,664.521 567.789,687.151 570.809,707.674 573.828,725.981 576.848,742 579.868,755.701 582.888,767.091 585.908,776.217 588.928,783.163 590.824,786.46 592.719,788.981 594.615,790.765 596.51,791.859 600.301,792.174 604.092,790.364 611.674,782.333 619.256,771.929 623.047,767.159 626.838,763.344 630.629,760.936 634.42,760.33 638.211,761.853 642.002,765.76 645.794,772.218 649.585,781.305 652.985,791.685 656.386,804.097 659.786,818.408 663.187,834.429 669.988,870.575 676.789,910.04 683.59,949.75 690.391,986.309 693.792,1002.32 697.193,1016.27 700.593,1027.76 703.994,1036.43 705.94,1040 707.886,1042.5 709.832,1043.86 711.779,1044.05 713.725,1043.04 715.671,1040.8 717.617,1037.3 719.563,1032.52 721.51,1026.47 723.456,1019.13 725.402,1010.52 727.348,1000.65 729.294,989.534 731.241,977.203 733.187,963.691 735.133,949.039 737.079,933.295 739.025,916.513 740.972,898.753 742.918,880.081 744.864,860.568 746.81,840.291 748.757,819.329 750.703,797.768 758.488,707.334 766.272,614.775 769.182,580.901 772.092,547.915 775.001,516.122 777.911,485.811 780.82,457.251 783.73,430.688 786.639,406.343 789.549,384.405 792.459,365.035 795.368,348.36 796.823,341.063 798.278,334.471 799.733,328.59 801.187,323.425 802.642,318.976 804.097,315.243 805.552,312.222 807.007,309.908 808.461,308.295 809.916,307.372 811.371,307.128 812.826,307.549 814.686,309.032 816.547,311.539 818.408,315.031 820.269,319.458 822.129,324.772 823.99,330.917 825.851,337.834 827.711,345.463 831.433,362.598 835.154,381.782 838.876,402.454 842.597,424.043 850.04,467.726 857.483,508.61 861.204,526.868 864.925,543.184 868.647,557.286 872.368,568.981 875.765,577.461 879.161,583.825 882.558,588.113 885.954,590.424 889.351,590.914 892.748,589.788 896.144,587.3 899.541,583.746 906.334,574.778 913.127,565.785 916.523,562.237 919.92,559.826 923.316,558.914 926.713,559.835 928.646,561.295 930.579,563.498 932.512,566.489 934.444,570.31 936.377,574.994 938.31,580.572 940.243,587.068 942.176,594.499 944.109,602.875 946.041,612.203 947.974,622.481 949.907,633.699 951.84,645.844 953.773,658.892 955.706,672.818 957.639,687.585 961.504,719.475 965.37,754.166 969.236,791.174 973.101,829.936 980.833,910.168 988.564,989.352 991.628,1019.17 994.693,1047.56 997.757,1074.17 1000.82,1098.7 1003.89,1120.84 1006.95,1140.31 1008.48,1148.97 1010.01,1156.88 1011.55,1164.01 1013.08,1170.34 1014.61,1175.86 1016.14,1180.54 1017.68,1184.36 1019.21,1187.33 1020.74,1189.43 1022.27,1190.65 1023.8,1190.99 1025.34,1190.46 1026.87,1189.05 1028.4,1186.77 1029.93,1183.62 1031.47,1179.63 1033,1174.79 1034.53,1169.14 1036.06,1162.68 1037.59,1155.45 1039.5,1145.41 1041.4,1134.25 1043.31,1122.03 1045.21,1108.82 1047.11,1094.67 1049.02,1079.66 1050.92,1063.87 1052.82,1047.36 1056.63,1012.54 1060.44,975.86 1064.24,938.02 1068.05,899.712 1071.86,861.621 1075.67,824.404 1079.47,788.68 1083.28,755.007 1087.09,723.88 1090.89,695.711 1092.8,682.841 1094.7,670.826 1096.61,659.691 1098.51,649.457 1101.42,635.556 1104.34,623.818 1107.26,614.229 1110.17,606.743 1113.09,601.28 1116,597.732 1118.92,595.961 1121.83,595.805 1124.75,597.078 1127.67,599.574 1130.58,603.075 1133.5,607.348 1139.33,617.244 1145.16,627.324 1149.27,633.52 1153.38,638.273 1157.49,641.052 1161.6,641.413 1165.71,639.013 1169.82,633.626 1171.88,629.776 1173.93,625.149 1175.99,619.754 1178.04,613.605 1182.16,599.147 1186.27,582.052 1190.38,562.717 1194.49,541.643 1202.71,496.733 1210.93,452.862 1214,437.966 1217.07,424.381 1220.15,412.416 1223.22,402.362 1226.29,394.495 1229.36,389.061 1230.9,387.327 1232.43,386.281 1233.97,385.945 1235.5,386.34 1237.04,387.483 1238.58,389.389 1240.11,392.07 1241.65,395.536 1243.18,399.795 1244.72,404.851 1246.26,410.705 1247.79,417.356 1249.33,424.802 1250.86,433.034 1252.4,442.043 1253.94,451.818 1255.47,462.343 1257.01,473.6 1258.54,485.57 1260.08,498.229 1263.57,529.45 1267.07,563.759 1270.56,600.753 1274.05,639.981 1281.04,723.127 1288.03,808.9 1291.52,851.367 1295.01,892.81 1298.51,932.69 1302,970.503 1303.75,988.485 1305.49,1005.78 1307.24,1022.33 1308.99,1038.1 1310.73,1053.03 1312.48,1067.1 1314.23,1080.25 1315.97,1092.47 1317.7,1103.62 1319.43,1113.81 1321.16,1123 1322.89,1131.2 1324.62,1138.38 1326.35,1144.56 1328.08,1149.72 1329.81,1153.88 1331.54,1157.04 1333.27,1159.21 1335,1160.41 1336.73,1160.67 1338.46,1160.02 1340.19,1158.47 1341.92,1156.06 1343.65,1152.84 1347.11,1144.09 1350.57,1132.57 1354.03,1118.69 1357.49,1102.86 1364.41,1067.14 1371.33,1029.06 1375.13,1008.4 1378.94,988.636 1382.75,970.251 1386.55,953.666 1390.36,939.226 1394.16,927.191 1397.97,917.732 1401.78,910.924 1405.58,906.751 1409.39,905.1 1413.2,905.772 1417,908.483 1424.61,918.527 1432.23,931.677 1438.04,941.245 1443.86,948.283 1446.76,950.273 1449.67,950.956 1452.58,950.138 1455.48,947.643 1458.39,943.32 1461.3,937.044 1464.21,928.72 1467.11,918.283 1470.02,905.699 1472.93,890.968 1475.84,874.126 1478.74,855.239 1482.41,828.648 1486.08,799.242 1489.75,767.375 1493.42,733.47 1500.76,661.539 1508.09,587.881 1511.76,551.923 1515.43,517.372 1519.1,484.837 1522.77,454.904 1524.6,441.084 1526.44,428.115 1528.27,416.056 1530.11,404.964 1531.94,394.892 1533.77,385.885 1535.61,377.988 1537.44,371.238 1539.14,366.044 1540.84,361.881 1542.53,358.767 1544.23,356.714 1545.93,355.734 1547.62,355.829 1549.32,357.002 1551.02,359.25 1552.71,362.563 1554.41,366.931 1556.11,372.338 1557.8,378.764 1559.5,386.183 1561.2,394.57 1562.89,403.891 1564.59,414.112 1566.29,425.194 1567.98,437.095 1569.68,449.77 1571.38,463.172 1573.07,477.25 1574.77,491.952 1576.47,507.223 1578.16,523.007 1584.95,590.085 1591.73,660.551 1595.23,696.93 1598.73,732.655 1602.23,767.241 1605.73,800.238 1609.23,831.244 1612.73,859.909 1616.23,885.944 1619.73,909.124 1621.48,919.592 1623.23,929.293 1624.98,938.219 1626.73,946.366 1628.48,953.734 1630.23,960.327 1631.98,966.156 1633.73,971.233 1637.23,979.205 1640.73,984.43 1642.48,986.087 1644.23,987.153 1645.98,987.667 1647.73,987.669 1651.27,986.289 1654.82,983.38 1658.37,979.36 1661.92,974.663 1669.01,964.989 1676.1,957.737 1679.65,955.97 1683.2,955.867 1686.75,957.683 1690.29,961.613 1693.84,967.786 1697.39,976.263 1700.93,987.033 1704.48,1000.01 1708.19,1015.76 1711.89,1033.51 1715.59,1052.92 1719.3,1073.6 1726.7,1116.95 1734.11,1159.46 1737.82,1179.01 1741.52,1196.67 1743.37,1204.63 1745.22,1211.92 1747.08,1218.48 1748.93,1224.25 1750.78,1229.17 1752.63,1233.19 1754.48,1236.26 1756.34,1238.34 1758.19,1239.39 1760.04,1239.38 1761.89,1238.27 1763.74,1236.04 1766.66,1230.2 1769.58,1221.51 1771.04,1216.08 1772.5,1209.93 1773.96,1203.07 1775.41,1195.5 1778.33,1178.28 1781.25,1158.37 1784.17,1135.91 1787.09,1111.06 1790,1084.02 1792.92,1055.02 1795.84,1024.31 1798.76,992.164 1804.59,924.766 1810.43,855.339 1813.75,815.909 1817.07,777.155 1820.39,739.549 1823.72,703.543 1825.38,686.274 1827.04,669.561 1828.7,653.453 1830.36,637.994 1832.02,623.227 1833.68,609.19 1835.34,595.92 1837.01,583.45 1838.67,571.809 1840.33,561.023 1841.99,551.115 1843.65,542.104 1845.31,534.004 1846.97,526.827 1848.63,520.58 1850.3,515.267 1851.96,510.888 1853.62,507.437 1855.28,504.909 1856.94,503.29 1858.6,502.567 1860.26,502.72 1861.92,503.727 1863.58,505.564 1866.91,511.609 1870.23,520.592 1873.55,532.209 1876.87,546.122 1880.2,561.962 1883.52,579.341 1886.84,597.858 1890.16,617.105 1896.81,656.188 1903.45,693.542 1906.77,710.725 1910.1,726.532 1913.42,740.73 1916.74,753.137 1919.72,762.637 1922.71,770.528 1925.69,776.787 1928.67,781.426 "/>
<polyline clip-path="url(#clip842)" style="stroke:#ff00ff; stroke-linecap:round; stroke-linejoin:round; stroke-width:4; stroke-opacity:1; fill:none" stroke-dasharray="16, 10" points="260.783,327.078 265.087,326.704 269.392,325.575 273.697,323.675 278.001,320.981 284.304,315.534 290.607,308.207 293.759,303.811 296.91,298.917 300.062,293.526 303.214,287.648 309.517,274.523 315.82,259.871 322.123,244.317 328.426,228.854 331.577,221.585 334.729,214.906 337.88,209.067 341.032,204.337 344.183,201.01 347.335,199.393 348.911,199.325 350.486,199.802 352.062,200.866 353.638,202.553 355.214,204.901 356.789,207.946 358.365,211.721 359.941,216.259 361.517,221.588 363.092,227.732 364.668,234.714 366.244,242.55 367.82,251.252 369.396,260.828 370.971,271.278 372.547,282.599 374.123,294.778 375.699,307.798 377.274,321.633 378.85,336.25 380.316,350.517 381.782,365.388 383.248,380.819 384.714,396.759 387.647,429.941 390.579,464.423 393.511,499.616 396.443,534.863 399.375,569.456 402.308,602.659 403.774,618.506 405.24,633.729 406.706,648.238 408.172,661.948 409.638,674.778 411.104,686.65 412.57,697.495 414.036,707.249 415.502,715.858 416.968,723.273 418.435,729.459 419.901,734.388 421.367,738.044 422.833,740.421 424.299,741.525 425.765,741.376 426.748,740.588 427.73,739.262 428.713,737.412 429.695,735.055 431.66,728.899 433.625,720.969 435.59,711.479 437.556,700.665 439.521,688.793 441.486,676.145 445.416,649.708 449.346,623.753 451.311,611.675 453.276,600.543 455.242,590.583 457.207,581.98 459.172,574.88 461.137,569.381 463.102,565.527 465.067,563.312 467.032,562.671 468.997,563.487 470.962,565.588 472.927,568.754 476.858,577.176 480.788,586.21 482.753,590.06 484.718,592.972 486.683,594.585 488.648,594.558 490.272,593.078 491.896,590.115 493.52,585.538 495.143,579.244 495.955,575.43 496.767,571.161 497.579,566.435 498.391,561.248 500.015,549.498 501.639,535.939 503.262,520.636 504.886,503.69 506.51,485.235 508.134,465.441 509.758,444.509 511.381,422.667 513.005,400.17 514.629,377.294 517.876,331.585 521.124,287.988 522.748,267.754 524.372,248.963 525.995,231.897 527.619,216.814 528.431,210.09 529.243,203.949 530.055,198.413 530.867,193.506 531.679,189.247 532.49,185.655 533.302,182.744 534.114,180.527 534.926,179.014 535.738,178.213 536.55,178.129 537.362,178.763 538.174,180.116 538.986,182.182 539.798,184.957 540.609,188.431 541.364,192.279 542.119,196.71 542.874,201.712 543.629,207.268 544.384,213.362 545.139,219.976 545.894,227.088 546.649,234.678 548.159,251.191 549.669,269.312 551.179,288.818 552.689,309.467 555.709,353.185 558.729,398.386 560.239,420.891 561.749,442.997 563.259,464.467 564.769,485.082 566.279,504.641 567.789,522.967 569.299,539.906 570.809,555.335 572.319,569.158 573.828,581.308 575.338,591.751 576.848,600.484 578.358,607.533 579.868,612.954 581.378,616.83 582.888,619.271 584.398,620.409 585.908,620.398 587.418,619.408 588.928,617.624 592.719,610.942 596.51,603.659 598.406,600.755 600.301,598.806 602.197,598.11 604.092,598.915 605.988,601.413 607.883,605.73 608.831,608.592 609.779,611.927 610.726,615.731 611.674,619.996 613.57,629.861 615.465,641.379 617.361,654.345 619.256,668.495 623.047,699.062 626.838,730.142 628.734,744.854 630.629,758.457 632.525,770.546 634.42,780.736 635.368,785.007 636.316,788.675 637.264,791.701 638.211,794.051 639.159,795.695 640.107,796.605 641.055,796.756 642.002,796.129 642.95,794.707 643.898,792.479 644.846,789.436 645.794,785.575 646.741,780.897 647.689,775.406 648.637,769.112 649.585,762.026 650.435,755.012 651.285,747.391 652.135,739.181 652.985,730.401 653.835,721.074 654.685,711.225 655.536,700.881 656.386,690.07 658.086,667.173 659.786,642.798 661.487,617.235 663.187,590.787 666.587,536.517 669.988,482.574 671.688,456.519 673.389,431.475 675.089,407.719 676.789,385.505 677.639,375.047 678.489,365.057 679.34,355.558 680.19,346.571 681.04,338.116 681.89,330.209 682.74,322.865 683.59,316.097 684.44,309.914 685.291,304.325 686.141,299.335 686.991,294.948 687.841,291.163 688.691,287.98 689.541,285.396 690.391,283.404 691.242,281.996 692.092,281.163 692.942,280.892 693.792,281.17 694.642,281.981 695.492,283.307 696.342,285.13 697.193,287.429 698.893,293.364 700.593,300.922 702.293,309.896 703.994,320.064 705.94,332.873 707.886,346.595 709.832,360.88 711.779,375.386 713.725,389.785 715.671,403.773 717.617,417.075 719.563,429.448 720.537,435.22 721.51,440.687 722.483,445.829 723.456,450.629 725.402,459.155 727.348,466.189 729.294,471.7 731.241,475.703 733.187,478.253 735.133,479.446 737.079,479.413 739.025,478.318 740.972,476.354 742.918,473.734 746.81,467.461 750.703,461.449 752.649,459.156 754.595,457.65 756.541,457.148 758.488,457.845 760.434,459.913 762.38,463.498 764.326,468.714 766.272,475.644 767.727,481.974 769.182,489.298 770.637,497.613 772.092,506.906 773.546,517.153 775.001,528.321 776.456,540.367 777.911,553.237 779.366,566.87 780.82,581.197 782.275,596.142 783.73,611.622 786.639,643.823 789.549,677.041 792.459,710.466 795.368,743.271 796.823,759.184 798.278,774.638 799.733,789.538 801.187,803.793 802.642,817.314 804.097,830.02 805.552,841.837 807.007,852.695 808.461,862.531 809.916,871.292 811.371,878.931 812.826,885.408 813.756,888.927 814.686,891.951 815.617,894.477 816.547,896.5 817.477,898.019 818.408,899.032 819.338,899.541 820.269,899.547 821.199,899.053 822.129,898.064 823.06,896.585 823.99,894.625 824.92,892.19 825.851,889.291 826.781,885.938 827.711,882.143 829.572,873.275 831.433,862.8 833.293,850.843 835.154,837.541 837.015,823.042 838.876,807.501 840.736,791.077 842.597,773.935 846.318,738.164 850.04,701.503 853.761,665.211 857.483,630.432 859.343,613.927 861.204,598.158 863.065,583.221 864.925,569.196 866.786,556.153 868.647,544.146 870.508,533.215 872.368,523.389 874.067,515.396 875.765,508.336 877.463,502.201 879.161,496.976 880.86,492.637 882.558,489.152 884.256,486.484 885.954,484.59 887.653,483.418 889.351,482.915 891.049,483.023 892.748,483.679 896.144,486.372 899.541,490.456 906.334,500.587 913.127,509.868 916.523,513.051 919.92,514.782 923.316,514.794 926.713,512.904 928.646,510.938 930.579,508.317 932.512,505.044 934.444,501.129 936.377,496.592 938.31,491.459 940.243,485.765 942.176,479.551 946.041,465.756 949.907,450.51 953.773,434.321 957.639,417.74 961.504,401.344 965.37,385.711 969.236,371.404 973.101,358.95 975.034,353.569 976.967,348.824 978.9,344.766 980.833,341.438 982.765,338.88 984.698,337.127 986.631,336.209 988.564,336.149 990.096,336.723 991.628,337.855 993.161,339.549 994.693,341.807 996.225,344.63 997.757,348.017 999.289,351.962 1000.82,356.46 1002.35,361.504 1003.89,367.083 1005.42,373.186 1006.95,379.8 1008.48,386.91 1010.01,394.499 1011.55,402.549 1013.08,411.041 1016.14,429.268 1019.21,448.999 1022.27,470.041 1025.34,492.187 1031.47,538.927 1037.59,587.45 1041.4,617.715 1045.21,647.586 1049.02,676.684 1052.82,704.656 1054.73,718.12 1056.63,731.186 1058.53,743.821 1060.44,755.994 1062.34,767.677 1064.24,778.843 1066.15,789.47 1068.05,799.538 1069.96,809.029 1071.86,817.928 1073.76,826.224 1075.67,833.907 1077.57,840.971 1079.47,847.411 1081.38,853.226 1083.28,858.418 1085.18,862.989 1087.09,866.945 1088.99,870.293 1090.89,873.045 1092.8,875.211 1094.7,876.805 1096.61,877.843 1098.51,878.342 1101.42,878.102 1104.34,876.712 1107.26,874.251 1110.17,870.802 1113.09,866.454 1116,861.296 1118.92,855.423 1121.83,848.927 1127.67,834.444 1133.5,818.586 1139.33,802.057 1145.16,785.5 1149.27,774.125 1153.38,763.198 1157.49,752.872 1161.6,743.275 1165.71,734.512 1169.82,726.667 1173.93,719.796 1178.04,713.936 1182.16,709.102 1186.27,705.286 1190.38,702.465 1194.49,700.598 1198.6,699.628 1202.71,699.486 1206.82,700.092 1210.93,701.357 1223.22,708.077 1235.5,717.014 1241.65,721.435 1247.79,725.382 1253.94,728.556 1260.08,730.693 1263.57,731.357 1267.07,731.576 1270.56,731.319 1274.05,730.558 1277.55,729.271 1281.04,727.44 1284.53,725.053 1288.03,722.1 1291.52,718.577 1295.01,714.483 1298.51,709.821 1302,704.599 1305.49,698.828 1308.99,692.521 1312.48,685.697 1315.97,678.376 1322.89,662.497 1329.81,644.963 1336.73,626.008 1343.65,605.886 1357.49,563.232 1371.33,519.215 1378.94,495.207 1386.55,471.777 1394.16,449.232 1401.78,427.852 1409.39,407.885 1417,389.54 1420.81,381.033 1424.61,372.995 1428.42,365.442 1432.23,358.389 1438.04,348.605 1443.86,340.047 1449.67,332.736 1455.48,326.685 1461.3,321.895 1467.11,318.356 1472.93,316.053 1478.74,314.961 1486.08,315.262 1493.42,317.361 1500.76,321.168 1508.09,326.579 1515.43,333.481 1522.77,341.757 1530.11,351.281 1537.44,361.927 1544.23,372.66 1551.02,384.141 1557.8,396.269 1564.59,408.947 1578.16,435.57 1591.73,463.286 1605.73,492.318 1619.73,521.178 1633.73,549.323 1647.73,576.304 1654.82,589.417 1661.92,602.102 1669.01,614.324 1676.1,626.059 1683.2,637.284 1690.29,647.982 1697.39,658.141 1704.48,667.752 1711.89,677.198 1719.3,686.04 1726.7,694.282 1734.11,701.93 1741.52,708.992 1748.93,715.481 1756.34,721.411 1763.74,726.799 1775.41,734.233 1787.09,740.446 1798.76,745.523 1810.43,749.556 1823.72,752.995 1837.01,755.339 1850.3,756.725 1863.58,757.289 1890.16,756.456 1916.74,753.787 1919.72,753.411 1922.71,753.022 1925.69,752.623 1928.67,752.214 "/>
<path clip-path="url(#clip840)" d="M2050.11 374.156 L2352.76 374.156 L2352.76 166.796 L2050.11 166.796  Z" fill="#ffffff" fill-rule="evenodd" fill-opacity="1"/>
<polyline clip-path="url(#clip840)" style="stroke:#000000; stroke-linecap:round; stroke-linejoin:round; stroke-width:4; stroke-opacity:1; fill:none" points="2050.11,374.156 2352.76,374.156 2352.76,166.796 2050.11,166.796 2050.11,374.156 "/>
<polyline clip-path="url(#clip840)" style="stroke:#0000ff; stroke-linecap:round; stroke-linejoin:round; stroke-width:4; stroke-opacity:1; fill:none" points="2073.91,218.636 2216.71,218.636 "/>
<path clip-path="url(#clip840)" d="M2257.01 199.897 L2257.01 203.439 L2252.94 203.439 Q2250.65 203.439 2249.74 204.365 Q2248.86 205.291 2248.86 207.698 L2248.86 209.99 L2255.88 209.99 L2255.88 213.3 L2248.86 213.3 L2248.86 235.916 L2244.58 235.916 L2244.58 213.3 L2240.51 213.3 L2240.51 209.99 L2244.58 209.99 L2244.58 208.184 Q2244.58 203.856 2246.6 201.888 Q2248.61 199.897 2252.98 199.897 L2257.01 199.897 Z" fill="#000000" fill-rule="nonzero" fill-opacity="1" /><path clip-path="url(#clip840)" d="M2270.81 199.944 Q2267.71 205.268 2266.2 210.476 Q2264.7 215.684 2264.7 221.032 Q2264.7 226.379 2266.2 231.633 Q2267.73 236.865 2270.81 242.166 L2267.1 242.166 Q2263.63 236.726 2261.9 231.471 Q2260.18 226.217 2260.18 221.032 Q2260.18 215.87 2261.9 210.638 Q2263.61 205.407 2267.1 199.944 L2270.81 199.944 Z" fill="#000000" fill-rule="nonzero" fill-opacity="1" /><path clip-path="url(#clip840)" d="M2300.62 209.99 L2291.25 222.606 L2301.11 235.916 L2296.09 235.916 L2288.54 225.731 L2280.99 235.916 L2275.97 235.916 L2286.04 222.351 L2276.83 209.99 L2281.85 209.99 L2288.72 219.226 L2295.6 209.99 L2300.62 209.99 Z" fill="#000000" fill-rule="nonzero" fill-opacity="1" /><path clip-path="url(#clip840)" d="M2306.46 199.944 L2310.16 199.944 Q2313.63 205.407 2315.34 210.638 Q2317.08 215.87 2317.08 221.032 Q2317.08 226.217 2315.34 231.471 Q2313.63 236.726 2310.16 242.166 L2306.46 242.166 Q2309.53 236.865 2311.04 231.633 Q2312.57 226.379 2312.57 221.032 Q2312.57 215.684 2311.04 210.476 Q2309.53 205.268 2306.46 199.944 Z" fill="#000000" fill-rule="nonzero" fill-opacity="1" /><polyline clip-path="url(#clip840)" style="stroke:#ff8c00; stroke-linecap:round; stroke-linejoin:round; stroke-width:12; stroke-opacity:1; fill:none" points="2073.91,270.476 2216.71,270.476 "/>
<path clip-path="url(#clip840)" d="M2259.42 274.492 Q2259.42 269.862 2257.5 267.316 Q2255.6 264.77 2252.15 264.77 Q2248.72 264.77 2246.8 267.316 Q2244.91 269.862 2244.91 274.492 Q2244.91 279.098 2246.8 281.645 Q2248.72 284.191 2252.15 284.191 Q2255.6 284.191 2257.5 281.645 Q2259.42 279.098 2259.42 274.492 M2263.68 284.538 Q2263.68 291.158 2260.74 294.376 Q2257.8 297.617 2251.73 297.617 Q2249.49 297.617 2247.5 297.27 Q2245.51 296.945 2243.63 296.251 L2243.63 292.108 Q2245.51 293.126 2247.34 293.612 Q2249.16 294.098 2251.06 294.098 Q2255.25 294.098 2257.34 291.899 Q2259.42 289.723 2259.42 285.302 L2259.42 283.196 Q2258.1 285.487 2256.04 286.621 Q2253.98 287.756 2251.11 287.756 Q2246.34 287.756 2243.42 284.121 Q2240.51 280.487 2240.51 274.492 Q2240.51 268.473 2243.42 264.839 Q2246.34 261.205 2251.11 261.205 Q2253.98 261.205 2256.04 262.339 Q2258.1 263.473 2259.42 265.765 L2259.42 261.83 L2263.68 261.83 L2263.68 284.538 Z" fill="#000000" fill-rule="nonzero" fill-opacity="1" /><path clip-path="url(#clip840)" d="M2282.68 251.784 Q2279.58 257.108 2278.08 262.316 Q2276.57 267.524 2276.57 272.872 Q2276.57 278.219 2278.08 283.473 Q2279.6 288.705 2282.68 294.006 L2278.98 294.006 Q2275.51 288.566 2273.77 283.311 Q2272.06 278.057 2272.06 272.872 Q2272.06 267.71 2273.77 262.478 Q2275.48 257.247 2278.98 251.784 L2282.68 251.784 Z" fill="#000000" fill-rule="nonzero" fill-opacity="1" /><path clip-path="url(#clip840)" d="M2312.5 261.83 L2303.12 274.446 L2312.98 287.756 L2307.96 287.756 L2300.41 277.571 L2292.87 287.756 L2287.84 287.756 L2297.91 274.191 L2288.7 261.83 L2293.72 261.83 L2300.6 271.066 L2307.47 261.83 L2312.5 261.83 Z" fill="#000000" fill-rule="nonzero" fill-opacity="1" /><path clip-path="url(#clip840)" d="M2318.33 251.784 L2322.03 251.784 Q2325.51 257.247 2327.22 262.478 Q2328.96 267.71 2328.96 272.872 Q2328.96 278.057 2327.22 283.311 Q2325.51 288.566 2322.03 294.006 L2318.33 294.006 Q2321.41 288.705 2322.91 283.473 Q2324.44 278.219 2324.44 272.872 Q2324.44 267.524 2322.91 262.316 Q2321.41 257.108 2318.33 251.784 Z" fill="#000000" fill-rule="nonzero" fill-opacity="1" /><polyline clip-path="url(#clip840)" style="stroke:#ff00ff; stroke-linecap:round; stroke-linejoin:round; stroke-width:4; stroke-opacity:1; fill:none" stroke-dasharray="16, 10" points="2073.91,322.316 2216.71,322.316 "/>
<path clip-path="url(#clip840)" d="M2262.22 323.948 L2262.22 339.596 L2257.96 339.596 L2257.96 324.087 Q2257.96 320.406 2256.53 318.577 Q2255.09 316.749 2252.22 316.749 Q2248.77 316.749 2246.78 318.948 Q2244.79 321.147 2244.79 324.943 L2244.79 339.596 L2240.51 339.596 L2240.51 303.577 L2244.79 303.577 L2244.79 317.698 Q2246.32 315.36 2248.38 314.202 Q2250.46 313.045 2253.17 313.045 Q2257.64 313.045 2259.93 315.823 Q2262.22 318.577 2262.22 323.948 Z" fill="#000000" fill-rule="nonzero" fill-opacity="1" /><path clip-path="url(#clip840)" d="M2280.95 303.624 Q2277.84 308.948 2276.34 314.156 Q2274.84 319.364 2274.84 324.712 Q2274.84 330.059 2276.34 335.313 Q2277.87 340.545 2280.95 345.846 L2277.24 345.846 Q2273.77 340.406 2272.03 335.151 Q2270.32 329.897 2270.32 324.712 Q2270.32 319.55 2272.03 314.318 Q2273.75 309.087 2277.24 303.624 L2280.95 303.624 Z" fill="#000000" fill-rule="nonzero" fill-opacity="1" /><path clip-path="url(#clip840)" d="M2310.76 313.67 L2301.39 326.286 L2311.25 339.596 L2306.22 339.596 L2298.68 329.411 L2291.13 339.596 L2286.11 339.596 L2296.18 326.031 L2286.97 313.67 L2291.99 313.67 L2298.86 322.906 L2305.74 313.67 L2310.76 313.67 Z" fill="#000000" fill-rule="nonzero" fill-opacity="1" /><path clip-path="url(#clip840)" d="M2316.59 303.624 L2320.3 303.624 Q2323.77 309.087 2325.48 314.318 Q2327.22 319.55 2327.22 324.712 Q2327.22 329.897 2325.48 335.151 Q2323.77 340.406 2320.3 345.846 L2316.59 345.846 Q2319.67 340.545 2321.18 335.313 Q2322.71 330.059 2322.71 324.712 Q2322.71 319.364 2321.18 314.156 Q2319.67 308.948 2316.59 303.624 Z" fill="#000000" fill-rule="nonzero" fill-opacity="1" /></svg>