<?xml version="1.0" encoding="utf-8"?>
<svg xmlns="http://www.w3.org/2000/svg" xmlns:xlink="http://www.w3.org/1999/xlink" width="600" height="400" viewBox="0 0 2400 1600">
<defs>
  <clipPath id="clip830">
    <rect x="0" y="0" width="2400" height="1600"/>
  </clipPath>
</defs>
<path clip-path="url(#clip830)" d="M0 1600 L2400 1600 L2400 0 L0 0  Z" fill="#ffffff" fill-rule="evenodd" fill-opacity="1"/>
<defs>
  <clipPath id="clip831">
    <rect x="480" y="0" width="1681" height="1600"/>
  </clipPath>
</defs>
<path clip-path="url(#clip830)" d="M264.287 1423.18 L2352.76 1423.18 L2352.76 47.2441 L264.287 47.2441  Z" fill="#ffffff" fill-rule="evenodd" fill-opacity="1"/>
<defs>
  <clipPath id="clip832">
    <rect x="264" y="47" width="2089" height="1377"/>
  </clipPath>
</defs>
<polyline clip-path="url(#clip832)" style="stroke:#000000; stroke-linecap:round; stroke-linejoin:round; stroke-width:2; stroke-opacity:0.1; fill:none" points="379.157,1423.18 379.157,47.2441 "/>
<polyline clip-path="url(#clip832)" style="stroke:#000000; stroke-linecap:round; stroke-linejoin:round; stroke-width:2; stroke-opacity:0.1; fill:none" points="811.42,1423.18 811.42,47.2441 "/>
<polyline clip-path="url(#clip832)" style="stroke:#000000; stroke-linecap:round; stroke-linejoin:round; stroke-width:2; stroke-opacity:0.1; fill:none" points="1243.68,1423.18 1243.68,47.2441 "/>
<polyline clip-path="url(#clip832)" style="stroke:#000000; stroke-linecap:round; stroke-linejoin:round; stroke-width:2; stroke-opacity:0.1; fill:none" points="1675.94,1423.18 1675.94,47.2441 "/>
<polyline clip-path="url(#clip832)" style="stroke:#000000; stroke-linecap:round; stroke-linejoin:round; stroke-width:2; stroke-opacity:0.1; fill:none" points="2108.21,1423.18 2108.21,47.2441 "/>
<polyline clip-path="url(#clip832)" style="stroke:#000000; stroke-linecap:round; stroke-linejoin:round; stroke-width:2; stroke-opacity:0.1; fill:none" points="264.287,1423.18 2352.76,1423.18 "/>
<polyline clip-path="url(#clip832)" style="stroke:#000000; stroke-linecap:round; stroke-linejoin:round; stroke-width:2; stroke-opacity:0.1; fill:none" points="264.287,1150.72 2352.76,1150.72 "/>
<polyline clip-path="url(#clip832)" style="stroke:#000000; stroke-linecap:round; stroke-linejoin:round; stroke-width:2; stroke-opacity:0.1; fill:none" points="264.287,878.255 2352.76,878.255 "/>
<polyline clip-path="url(#clip832)" style="stroke:#000000; stroke-linecap:round; stroke-linejoin:round; stroke-width:2; stroke-opacity:0.1; fill:none" points="264.287,605.792 2352.76,605.792 "/>
<polyline clip-path="url(#clip832)" style="stroke:#000000; stroke-linecap:round; stroke-linejoin:round; stroke-width:2; stroke-opacity:0.1; fill:none" points="264.287,333.33 2352.76,333.33 "/>
<polyline clip-path="url(#clip832)" style="stroke:#000000; stroke-linecap:round; stroke-linejoin:round; stroke-width:2; stroke-opacity:0.1; fill:none" points="264.287,60.8672 2352.76,60.8672 "/>
<polyline clip-path="url(#clip830)" style="stroke:#000000; stroke-linecap:round; stroke-linejoin:round; stroke-width:4; stroke-opacity:1; fill:none" points="264.287,1423.18 2352.76,1423.18 "/>
<polyline clip-path="url(#clip830)" style="stroke:#000000; stroke-linecap:round; stroke-linejoin:round; stroke-width:4; stroke-opacity:1; fill:none" points="379.157,1423.18 379.157,1404.28 "/>
<polyline clip-path="url(#clip830)" style="stroke:#000000; stroke-linecap:round; stroke-linejoin:round; stroke-width:4; stroke-opacity:1; fill:none" points="811.42,1423.18 811.42,1404.28 "/>
<polyline clip-path="url(#clip830)" style="stroke:#000000; stroke-linecap:round; stroke-linejoin:round; stroke-width:4; stroke-opacity:1; fill:none" points="1243.68,1423.18 1243.68,1404.28 "/>
<polyline clip-path="url(#clip830)" style="stroke:#000000; stroke-linecap:round; stroke-linejoin:round; stroke-width:4; stroke-opacity:1; fill:none" points="1675.94,1423.18 1675.94,1404.28 "/>
<polyline clip-path="url(#clip830)" style="stroke:#000000; stroke-linecap:round; stroke-linejoin:round; stroke-width:4; stroke-opacity:1; fill:none" points="2108.21,1423.18 2108.21,1404.28 "/>
<path clip-path="url(#clip830)" d="M379.157 1454.1 Q375.546 1454.1 373.717 1457.66 Q371.911 1461.2 371.911 1468.33 Q371.911 1475.44 373.717 1479.01 Q375.546 1482.55 379.157 1482.55 Q382.791 1482.55 384.597 1479.01 Q386.425 1475.44 386.425 1468.33 Q386.425 1461.2 384.597 1457.66 Q382.791 1454.1 379.157 1454.1 M379.157 1450.39 Q384.967 1450.39 388.023 1455 Q391.101 1459.58 391.101 1468.33 Q391.101 1477.06 388.023 1481.67 Q384.967 1486.25 379.157 1486.25 Q373.347 1486.25 370.268 1481.67 Q367.212 1477.06 367.212 1468.33 Q367.212 1459.58 370.268 1455 Q373.347 1450.39 379.157 1450.39 Z" fill="#000000" fill-rule="nonzero" fill-opacity="1" /><path clip-path="url(#clip830)" d="M790.193 1481.64 L806.512 1481.64 L806.512 1485.58 L784.568 1485.58 L784.568 1481.64 Q787.23 1478.89 791.813 1474.26 Q796.42 1469.61 797.6 1468.27 Q799.845 1465.74 800.725 1464.01 Q801.628 1462.25 801.628 1460.56 Q801.628 1457.8 799.683 1456.07 Q797.762 1454.33 794.66 1454.33 Q792.461 1454.33 790.008 1455.09 Q787.577 1455.86 784.799 1457.41 L784.799 1452.69 Q787.623 1451.55 790.077 1450.97 Q792.531 1450.39 794.568 1450.39 Q799.938 1450.39 803.133 1453.08 Q806.327 1455.77 806.327 1460.26 Q806.327 1462.39 805.517 1464.31 Q804.73 1466.2 802.623 1468.8 Q802.045 1469.47 798.943 1472.69 Q795.841 1475.88 790.193 1481.64 Z" fill="#000000" fill-rule="nonzero" fill-opacity="1" /><path clip-path="url(#clip830)" d="M826.327 1454.1 Q822.716 1454.1 820.887 1457.66 Q819.082 1461.2 819.082 1468.33 Q819.082 1475.44 820.887 1479.01 Q822.716 1482.55 826.327 1482.55 Q829.961 1482.55 831.767 1479.01 Q833.595 1475.44 833.595 1468.33 Q833.595 1461.2 831.767 1457.66 Q829.961 1454.1 826.327 1454.1 M826.327 1450.39 Q832.137 1450.39 835.193 1455 Q838.271 1459.58 838.271 1468.33 Q838.271 1477.06 835.193 1481.67 Q832.137 1486.25 826.327 1486.25 Q820.517 1486.25 817.438 1481.67 Q814.382 1477.06 814.382 1468.33 Q814.382 1459.58 817.438 1455 Q820.517 1450.39 826.327 1450.39 Z" fill="#000000" fill-rule="nonzero" fill-opacity="1" /><path clip-path="url(#clip830)" d="M1231.85 1455.09 L1220.05 1473.54 L1231.85 1473.54 L1231.85 1455.09 M1230.63 1451.02 L1236.51 1451.02 L1236.51 1473.54 L1241.44 1473.54 L1241.44 1477.43 L1236.51 1477.43 L1236.51 1485.58 L1231.85 1485.58 L1231.85 1477.43 L1216.25 1477.43 L1216.25 1472.92 L1230.63 1451.02 Z" fill="#000000" fill-rule="nonzero" fill-opacity="1" /><path clip-path="url(#clip830)" d="M1259.17 1454.1 Q1255.56 1454.1 1253.73 1457.66 Q1251.92 1461.2 1251.92 1468.33 Q1251.92 1475.44 1253.73 1479.01 Q1255.56 1482.55 1259.17 1482.55 Q1262.8 1482.55 1264.61 1479.01 Q1266.44 1475.44 1266.44 1468.33 Q1266.44 1461.2 1264.61 1457.66 Q1262.8 1454.1 1259.17 1454.1 M1259.17 1450.39 Q1264.98 1450.39 1268.03 1455 Q1271.11 1459.58 1271.11 1468.33 Q1271.11 1477.06 1268.03 1481.67 Q1264.98 1486.25 1259.17 1486.25 Q1253.36 1486.25 1250.28 1481.67 Q1247.22 1477.06 1247.22 1468.33 Q1247.22 1459.58 1250.28 1455 Q1253.36 1450.39 1259.17 1450.39 Z" fill="#000000" fill-rule="nonzero" fill-opacity="1" /><path clip-path="url(#clip830)" d="M1661.35 1466.44 Q1658.2 1466.44 1656.35 1468.59 Q1654.52 1470.74 1654.52 1474.49 Q1654.52 1478.22 1656.35 1480.39 Q1658.2 1482.55 1661.35 1482.55 Q1664.5 1482.55 1666.33 1480.39 Q1668.18 1478.22 1668.18 1474.49 Q1668.18 1470.74 1666.33 1468.59 Q1664.5 1466.44 1661.35 1466.44 M1670.63 1451.78 L1670.63 1456.04 Q1668.87 1455.21 1667.07 1454.77 Q1665.29 1454.33 1663.53 1454.33 Q1658.9 1454.33 1656.44 1457.45 Q1654.01 1460.58 1653.66 1466.9 Q1655.03 1464.89 1657.09 1463.82 Q1659.15 1462.73 1661.63 1462.73 Q1666.84 1462.73 1669.85 1465.9 Q1672.88 1469.05 1672.88 1474.49 Q1672.88 1479.82 1669.73 1483.03 Q1666.58 1486.25 1661.35 1486.25 Q1655.35 1486.25 1652.18 1481.67 Q1649.01 1477.06 1649.01 1468.33 Q1649.01 1460.14 1652.9 1455.28 Q1656.79 1450.39 1663.34 1450.39 Q1665.1 1450.39 1666.88 1450.74 Q1668.69 1451.09 1670.63 1451.78 Z" fill="#000000" fill-rule="nonzero" fill-opacity="1" /><path clip-path="url(#clip830)" d="M1690.93 1454.1 Q1687.32 1454.1 1685.49 1457.66 Q1683.69 1461.2 1683.69 1468.33 Q1683.69 1475.44 1685.49 1479.01 Q1687.32 1482.55 1690.93 1482.55 Q1694.57 1482.55 1696.37 1479.01 Q1698.2 1475.44 1698.2 1468.33 Q1698.2 1461.2 1696.37 1457.66 Q1694.57 1454.1 1690.93 1454.1 M1690.93 1450.39 Q1696.74 1450.39 1699.8 1455 Q1702.88 1459.58 1702.88 1468.33 Q1702.88 1477.06 1699.8 1481.67 Q1696.74 1486.25 1690.93 1486.25 Q1685.12 1486.25 1682.04 1481.67 Q1678.99 1477.06 1678.99 1468.33 Q1678.99 1459.58 1682.04 1455 Q1685.12 1450.39 1690.93 1450.39 Z" fill="#000000" fill-rule="nonzero" fill-opacity="1" /><path clip-path="url(#clip830)" d="M2093.08 1469.17 Q2089.75 1469.17 2087.83 1470.95 Q2085.93 1472.73 2085.93 1475.86 Q2085.93 1478.98 2087.83 1480.77 Q2089.75 1482.55 2093.08 1482.55 Q2096.41 1482.55 2098.33 1480.77 Q2100.26 1478.96 2100.26 1475.86 Q2100.26 1472.73 2098.33 1470.95 Q2096.44 1469.17 2093.08 1469.17 M2088.4 1467.18 Q2085.4 1466.44 2083.71 1464.38 Q2082.04 1462.32 2082.04 1459.35 Q2082.04 1455.21 2084.98 1452.8 Q2087.94 1450.39 2093.08 1450.39 Q2098.24 1450.39 2101.18 1452.8 Q2104.12 1455.21 2104.12 1459.35 Q2104.12 1462.32 2102.43 1464.38 Q2100.77 1466.44 2097.78 1467.18 Q2101.16 1467.96 2103.03 1470.26 Q2104.93 1472.55 2104.93 1475.86 Q2104.93 1480.88 2101.85 1483.57 Q2098.8 1486.25 2093.08 1486.25 Q2087.36 1486.25 2084.28 1483.57 Q2081.23 1480.88 2081.23 1475.86 Q2081.23 1472.55 2083.13 1470.26 Q2085.02 1467.96 2088.4 1467.18 M2086.69 1459.79 Q2086.69 1462.48 2088.36 1463.98 Q2090.05 1465.49 2093.08 1465.49 Q2096.09 1465.49 2097.78 1463.98 Q2099.49 1462.48 2099.49 1459.79 Q2099.49 1457.11 2097.78 1455.6 Q2096.09 1454.1 2093.08 1454.1 Q2090.05 1454.1 2088.36 1455.6 Q2086.69 1457.11 2086.69 1459.79 Z" fill="#000000" fill-rule="nonzero" fill-opacity="1" /><path clip-path="url(#clip830)" d="M2123.24 1454.1 Q2119.63 1454.1 2117.8 1457.66 Q2116 1461.2 2116 1468.33 Q2116 1475.44 2117.8 1479.01 Q2119.63 1482.55 2123.24 1482.55 Q2126.88 1482.55 2128.68 1479.01 Q2130.51 1475.44 2130.51 1468.33 Q2130.51 1461.2 2128.68 1457.66 Q2126.88 1454.1 2123.24 1454.1 M2123.24 1450.39 Q2129.05 1450.39 2132.11 1455 Q2135.19 1459.58 2135.19 1468.33 Q2135.19 1477.06 2132.11 1481.67 Q2129.05 1486.25 2123.24 1486.25 Q2117.43 1486.25 2114.35 1481.67 Q2111.3 1477.06 2111.3 1468.33 Q2111.3 1459.58 2114.35 1455 Q2117.43 1450.39 2123.24 1450.39 Z" fill="#000000" fill-rule="nonzero" fill-opacity="1" /><path clip-path="url(#clip830)" d="M881.542 1520.52 L890.199 1520.52 L911.27 1560.28 L911.27 1520.52 L917.508 1520.52 L917.508 1568.04 L908.851 1568.04 L887.78 1528.29 L887.78 1568.04 L881.542 1568.04 L881.542 1520.52 Z" fill="#000000" fill-rule="nonzero" fill-opacity="1" /><path clip-path="url(#clip830)" d="M929.444 1553.98 L929.444 1532.4 L935.3 1532.4 L935.3 1553.75 Q935.3 1558.81 937.274 1561.36 Q939.247 1563.87 943.194 1563.87 Q947.936 1563.87 950.673 1560.85 Q953.442 1557.83 953.442 1552.61 L953.442 1532.4 L959.299 1532.4 L959.299 1568.04 L953.442 1568.04 L953.442 1562.57 Q951.31 1565.82 948.477 1567.41 Q945.676 1568.97 941.952 1568.97 Q935.809 1568.97 932.627 1565.15 Q929.444 1561.33 929.444 1553.98 M944.18 1531.54 L944.18 1531.54 Z" fill="#000000" fill-rule="nonzero" fill-opacity="1" /><path clip-path="url(#clip830)" d="M999.116 1539.24 Q1001.31 1535.29 1004.37 1533.41 Q1007.42 1531.54 1011.56 1531.54 Q1017.13 1531.54 1020.16 1535.45 Q1023.18 1539.33 1023.18 1546.53 L1023.18 1568.04 L1017.29 1568.04 L1017.29 1546.72 Q1017.29 1541.59 1015.48 1539.11 Q1013.66 1536.63 1009.94 1536.63 Q1005.39 1536.63 1002.74 1539.65 Q1000.1 1542.68 1000.1 1547.9 L1000.1 1568.04 L994.215 1568.04 L994.215 1546.72 Q994.215 1541.56 992.401 1539.11 Q990.586 1536.63 986.799 1536.63 Q982.311 1536.63 979.669 1539.68 Q977.027 1542.71 977.027 1547.9 L977.027 1568.04 L971.139 1568.04 L971.139 1532.4 L977.027 1532.4 L977.027 1537.93 Q979.033 1534.66 981.834 1533.1 Q984.634 1531.54 988.486 1531.54 Q992.369 1531.54 995.074 1533.51 Q997.811 1535.48 999.116 1539.24 Z" fill="#000000" fill-rule="nonzero" fill-opacity="1" /><path clip-path="url(#clip830)" d="M1060.45 1550.25 Q1060.45 1543.79 1057.78 1540.13 Q1055.13 1536.44 1050.49 1536.44 Q1045.84 1536.44 1043.17 1540.13 Q1040.53 1543.79 1040.53 1550.25 Q1040.53 1556.71 1043.17 1560.4 Q1045.84 1564.07 1050.49 1564.07 Q1055.13 1564.07 1057.78 1560.4 Q1060.45 1556.71 1060.45 1550.25 M1040.53 1537.81 Q1042.37 1534.62 1045.17 1533.1 Q1048.01 1531.54 1051.92 1531.54 Q1058.41 1531.54 1062.46 1536.69 Q1066.53 1541.85 1066.53 1550.25 Q1066.53 1558.65 1062.46 1563.81 Q1058.41 1568.97 1051.92 1568.97 Q1048.01 1568.97 1045.17 1567.44 Q1042.37 1565.88 1040.53 1562.7 L1040.53 1568.04 L1034.64 1568.04 L1034.64 1518.52 L1040.53 1518.52 L1040.53 1537.81 Z" fill="#000000" fill-rule="nonzero" fill-opacity="1" /><path clip-path="url(#clip830)" d="M1106.73 1548.76 L1106.73 1551.62 L1079.8 1551.62 Q1080.18 1557.67 1083.43 1560.85 Q1086.71 1564 1092.53 1564 Q1095.91 1564 1099.06 1563.17 Q1102.24 1562.35 1105.36 1560.69 L1105.36 1566.23 Q1102.21 1567.57 1098.9 1568.27 Q1095.59 1568.97 1092.18 1568.97 Q1083.65 1568.97 1078.66 1564 Q1073.69 1559.04 1073.69 1550.57 Q1073.69 1541.82 1078.4 1536.69 Q1083.14 1531.54 1091.16 1531.54 Q1098.36 1531.54 1102.53 1536.18 Q1106.73 1540.8 1106.73 1548.76 M1100.87 1547.04 Q1100.81 1542.23 1098.17 1539.37 Q1095.56 1536.5 1091.23 1536.5 Q1086.33 1536.5 1083.37 1539.27 Q1080.44 1542.04 1079.99 1547.07 L1100.87 1547.04 Z" fill="#000000" fill-rule="nonzero" fill-opacity="1" /><path clip-path="url(#clip830)" d="M1137 1537.87 Q1136.01 1537.3 1134.83 1537.04 Q1133.69 1536.76 1132.29 1536.76 Q1127.32 1536.76 1124.65 1540 Q1122.01 1543.22 1122.01 1549.27 L1122.01 1568.04 L1116.12 1568.04 L1116.12 1532.4 L1122.01 1532.4 L1122.01 1537.93 Q1123.85 1534.69 1126.81 1533.13 Q1129.77 1531.54 1134.01 1531.54 Q1134.61 1531.54 1135.34 1531.63 Q1136.07 1531.7 1136.97 1531.85 L1137 1537.87 Z" fill="#000000" fill-rule="nonzero" fill-opacity="1" /><path clip-path="url(#clip830)" d="M1177.67 1536.5 Q1172.96 1536.5 1170.23 1540.19 Q1167.49 1543.85 1167.49 1550.25 Q1167.49 1556.65 1170.19 1560.34 Q1172.93 1564 1177.67 1564 Q1182.35 1564 1185.09 1560.31 Q1187.83 1556.62 1187.83 1550.25 Q1187.83 1543.92 1185.09 1540.23 Q1182.35 1536.5 1177.67 1536.5 M1177.67 1531.54 Q1185.31 1531.54 1189.67 1536.5 Q1194.03 1541.47 1194.03 1550.25 Q1194.03 1559 1189.67 1564 Q1185.31 1568.97 1177.67 1568.97 Q1170 1568.97 1165.64 1564 Q1161.31 1559 1161.31 1550.25 Q1161.31 1541.47 1165.64 1536.5 Q1170 1531.54 1177.67 1531.54 Z" fill="#000000" fill-rule="nonzero" fill-opacity="1" /><path clip-path="url(#clip830)" d="M1221.79 1518.52 L1221.79 1523.39 L1216.19 1523.39 Q1213.04 1523.39 1211.79 1524.66 Q1210.59 1525.93 1210.59 1529.24 L1210.59 1532.4 L1220.23 1532.4 L1220.23 1536.95 L1210.59 1536.95 L1210.59 1568.04 L1204.7 1568.04 L1204.7 1536.95 L1199.1 1536.95 L1199.1 1532.4 L1204.7 1532.4 L1204.7 1529.91 Q1204.7 1523.96 1207.47 1521.26 Q1210.24 1518.52 1216.25 1518.52 L1221.79 1518.52 Z" fill="#000000" fill-rule="nonzero" fill-opacity="1" /><path clip-path="url(#clip830)" d="M1270.2 1545.76 Q1272.27 1546.46 1274.21 1548.76 Q1276.18 1551.05 1278.16 1555.06 L1284.68 1568.04 L1277.78 1568.04 L1271.7 1555.85 Q1269.34 1551.08 1267.11 1549.52 Q1264.92 1547.96 1261.1 1547.96 L1254.09 1547.96 L1254.09 1568.04 L1247.67 1568.04 L1247.67 1520.52 L1262.18 1520.52 Q1270.33 1520.52 1274.34 1523.93 Q1278.35 1527.34 1278.35 1534.21 Q1278.35 1538.7 1276.25 1541.66 Q1274.18 1544.62 1270.2 1545.76 M1254.09 1525.81 L1254.09 1542.68 L1262.18 1542.68 Q1266.83 1542.68 1269.18 1540.54 Q1271.57 1538.38 1271.57 1534.21 Q1271.57 1530.04 1269.18 1527.94 Q1266.83 1525.81 1262.18 1525.81 L1254.09 1525.81 Z" fill="#000000" fill-rule="nonzero" fill-opacity="1" /><path clip-path="url(#clip830)" d="M1303.59 1536.5 Q1298.88 1536.5 1296.14 1540.19 Q1293.4 1543.85 1293.4 1550.25 Q1293.4 1556.65 1296.11 1560.34 Q1298.85 1564 1303.59 1564 Q1308.27 1564 1311 1560.31 Q1313.74 1556.62 1313.74 1550.25 Q1313.74 1543.92 1311 1540.23 Q1308.27 1536.5 1303.59 1536.5 M1303.59 1531.54 Q1311.23 1531.54 1315.59 1536.5 Q1319.95 1541.47 1319.95 1550.25 Q1319.95 1559 1315.59 1564 Q1311.23 1568.97 1303.59 1568.97 Q1295.92 1568.97 1291.56 1564 Q1287.23 1559 1287.23 1550.25 Q1287.23 1541.47 1291.56 1536.5 Q1295.92 1531.54 1303.59 1531.54 Z" fill="#000000" fill-rule="nonzero" fill-opacity="1" /><path clip-path="url(#clip830)" d="M1329.66 1518.52 L1335.51 1518.52 L1335.51 1568.04 L1329.66 1568.04 L1329.66 1518.52 Z" fill="#000000" fill-rule="nonzero" fill-opacity="1" /><path clip-path="url(#clip830)" d="M1347.77 1518.52 L1353.62 1518.52 L1353.62 1568.04 L1347.77 1568.04 L1347.77 1518.52 Z" fill="#000000" fill-rule="nonzero" fill-opacity="1" /><path clip-path="url(#clip830)" d="M1388.6 1533.45 L1388.6 1538.98 Q1386.12 1537.71 1383.45 1537.07 Q1380.77 1536.44 1377.91 1536.44 Q1373.55 1536.44 1371.35 1537.77 Q1369.19 1539.11 1369.19 1541.79 Q1369.19 1543.82 1370.75 1545 Q1372.31 1546.15 1377.02 1547.2 L1379.02 1547.64 Q1385.26 1548.98 1387.87 1551.43 Q1390.51 1553.85 1390.51 1558.21 Q1390.51 1563.17 1386.57 1566.07 Q1382.65 1568.97 1375.78 1568.97 Q1372.91 1568.97 1369.79 1568.39 Q1366.7 1567.85 1363.27 1566.74 L1363.27 1560.69 Q1366.51 1562.38 1369.66 1563.24 Q1372.82 1564.07 1375.9 1564.07 Q1380.04 1564.07 1382.27 1562.66 Q1384.5 1561.23 1384.5 1558.65 Q1384.5 1556.27 1382.87 1554.99 Q1381.28 1553.72 1375.84 1552.54 L1373.8 1552.07 Q1368.36 1550.92 1365.94 1548.56 Q1363.52 1546.18 1363.52 1542.04 Q1363.52 1537.01 1367.09 1534.27 Q1370.65 1531.54 1377.21 1531.54 Q1380.45 1531.54 1383.32 1532.01 Q1386.18 1532.49 1388.6 1533.45 Z" fill="#000000" fill-rule="nonzero" fill-opacity="1" /><path clip-path="url(#clip830)" d="M1426.35 1522.27 L1426.35 1532.4 L1438.41 1532.4 L1438.41 1536.95 L1426.35 1536.95 L1426.35 1556.3 Q1426.35 1560.66 1427.53 1561.9 Q1428.74 1563.14 1432.4 1563.14 L1438.41 1563.14 L1438.41 1568.04 L1432.4 1568.04 Q1425.62 1568.04 1423.04 1565.53 Q1420.46 1562.98 1420.46 1556.3 L1420.46 1536.95 L1416.17 1536.95 L1416.17 1532.4 L1420.46 1532.4 L1420.46 1522.27 L1426.35 1522.27 Z" fill="#000000" fill-rule="nonzero" fill-opacity="1" /><path clip-path="url(#clip830)" d="M1459.93 1536.5 Q1455.22 1536.5 1452.48 1540.19 Q1449.74 1543.85 1449.74 1550.25 Q1449.74 1556.65 1452.45 1560.34 Q1455.19 1564 1459.93 1564 Q1464.61 1564 1467.35 1560.31 Q1470.08 1556.62 1470.08 1550.25 Q1470.08 1543.92 1467.35 1540.23 Q1464.61 1536.5 1459.93 1536.5 M1459.93 1531.54 Q1467.57 1531.54 1471.93 1536.5 Q1476.29 1541.47 1476.29 1550.25 Q1476.29 1559 1471.93 1564 Q1467.57 1568.97 1459.93 1568.97 Q1452.26 1568.97 1447.9 1564 Q1443.57 1559 1443.57 1550.25 Q1443.57 1541.47 1447.9 1536.5 Q1452.26 1531.54 1459.93 1531.54 Z" fill="#000000" fill-rule="nonzero" fill-opacity="1" /><path clip-path="url(#clip830)" d="M1539.37 1561.26 L1539.37 1548.5 L1528.87 1548.5 L1528.87 1543.22 L1545.74 1543.22 L1545.74 1563.62 Q1542.02 1566.26 1537.53 1567.63 Q1533.04 1568.97 1527.95 1568.97 Q1516.81 1568.97 1510.51 1562.47 Q1504.24 1555.95 1504.24 1544.33 Q1504.24 1532.68 1510.51 1526.19 Q1516.81 1519.66 1527.95 1519.66 Q1532.59 1519.66 1536.76 1520.81 Q1540.97 1521.96 1544.5 1524.18 L1544.5 1531.03 Q1540.93 1528 1536.92 1526.48 Q1532.91 1524.95 1528.49 1524.95 Q1519.77 1524.95 1515.38 1529.82 Q1511.01 1534.69 1511.01 1544.33 Q1511.01 1553.94 1515.38 1558.81 Q1519.77 1563.68 1528.49 1563.68 Q1531.89 1563.68 1534.57 1563.11 Q1537.24 1562.51 1539.37 1561.26 Z" fill="#000000" fill-rule="nonzero" fill-opacity="1" /><path clip-path="url(#clip830)" d="M1587.72 1548.76 L1587.72 1551.62 L1560.79 1551.62 Q1561.18 1557.67 1564.42 1560.85 Q1567.7 1564 1573.53 1564 Q1576.9 1564 1580.05 1563.17 Q1583.23 1562.35 1586.35 1560.69 L1586.35 1566.23 Q1583.2 1567.57 1579.89 1568.27 Q1576.58 1568.97 1573.18 1568.97 Q1564.65 1568.97 1559.65 1564 Q1554.68 1559.04 1554.68 1550.57 Q1554.68 1541.82 1559.39 1536.69 Q1564.14 1531.54 1572.16 1531.54 Q1579.35 1531.54 1583.52 1536.18 Q1587.72 1540.8 1587.72 1548.76 M1581.87 1547.04 Q1581.8 1542.23 1579.16 1539.37 Q1576.55 1536.5 1572.22 1536.5 Q1567.32 1536.5 1564.36 1539.27 Q1561.43 1542.04 1560.99 1547.07 L1581.87 1547.04 Z" fill="#000000" fill-rule="nonzero" fill-opacity="1" /><path clip-path="url(#clip830)" d="M1603.13 1522.27 L1603.13 1532.4 L1615.19 1532.4 L1615.19 1536.95 L1603.13 1536.95 L1603.13 1556.3 Q1603.13 1560.66 1604.3 1561.9 Q1605.51 1563.14 1609.17 1563.14 L1615.19 1563.14 L1615.19 1568.04 L1609.17 1568.04 Q1602.39 1568.04 1599.82 1565.53 Q1597.24 1562.98 1597.24 1556.3 L1597.24 1536.95 L1592.94 1536.95 L1592.94 1532.4 L1597.24 1532.4 L1597.24 1522.27 L1603.13 1522.27 Z" fill="#000000" fill-rule="nonzero" fill-opacity="1" /><path clip-path="url(#clip830)" d="M1659.81 1550.12 Q1652.72 1550.12 1649.98 1551.75 Q1647.24 1553.37 1647.24 1557.29 Q1647.24 1560.4 1649.28 1562.25 Q1651.35 1564.07 1654.88 1564.07 Q1659.75 1564.07 1662.68 1560.63 Q1665.64 1557.16 1665.64 1551.43 L1665.64 1550.12 L1659.81 1550.12 M1671.49 1547.71 L1671.49 1568.04 L1665.64 1568.04 L1665.64 1562.63 Q1663.63 1565.88 1660.64 1567.44 Q1657.65 1568.97 1653.32 1568.97 Q1647.85 1568.97 1644.6 1565.91 Q1641.38 1562.82 1641.38 1557.67 Q1641.38 1551.65 1645.39 1548.6 Q1649.44 1545.54 1657.43 1545.54 L1665.64 1545.54 L1665.64 1544.97 Q1665.64 1540.93 1662.96 1538.73 Q1660.32 1536.5 1655.52 1536.5 Q1652.46 1536.5 1649.56 1537.23 Q1646.67 1537.97 1643.99 1539.43 L1643.99 1534.02 Q1647.21 1532.78 1650.23 1532.17 Q1653.26 1531.54 1656.12 1531.54 Q1663.86 1531.54 1667.67 1535.55 Q1671.49 1539.56 1671.49 1547.71 Z" fill="#000000" fill-rule="nonzero" fill-opacity="1" /><path clip-path="url(#clip830)" d="M1719.65 1541.72 Q1715.32 1541.72 1712.78 1544.68 Q1710.26 1547.64 1710.26 1552.8 Q1710.26 1557.92 1712.78 1560.91 Q1715.32 1563.87 1719.65 1563.87 Q1723.98 1563.87 1726.49 1560.91 Q1729.04 1557.92 1729.04 1552.8 Q1729.04 1547.64 1726.49 1544.68 Q1723.98 1541.72 1719.65 1541.72 M1732.41 1521.57 L1732.41 1527.43 Q1730 1526.28 1727.51 1525.68 Q1725.06 1525.08 1722.64 1525.08 Q1716.28 1525.08 1712.9 1529.37 Q1709.56 1533.67 1709.08 1542.36 Q1710.96 1539.59 1713.79 1538.13 Q1716.63 1536.63 1720.03 1536.63 Q1727.19 1536.63 1731.33 1540.99 Q1735.5 1545.32 1735.5 1552.8 Q1735.5 1560.12 1731.17 1564.54 Q1726.84 1568.97 1719.65 1568.97 Q1711.41 1568.97 1707.05 1562.66 Q1702.69 1556.33 1702.69 1544.33 Q1702.69 1533.06 1708.03 1526.38 Q1713.38 1519.66 1722.39 1519.66 Q1724.81 1519.66 1727.26 1520.14 Q1729.74 1520.62 1732.41 1521.57 Z" fill="#000000" fill-rule="nonzero" fill-opacity="1" /><polyline clip-path="url(#clip830)" style="stroke:#000000; stroke-linecap:round; stroke-linejoin:round; stroke-width:4; stroke-opacity:1; fill:none" points="264.287,1423.18 264.287,47.2441 "/>
<polyline clip-path="url(#clip830)" style="stroke:#000000; stroke-linecap:round; stroke-linejoin:round; stroke-width:4; stroke-opacity:1; fill:none" points="264.287,1423.18 283.185,1423.18 "/>
<polyline clip-path="url(#clip830)" style="stroke:#000000; stroke-linecap:round; stroke-linejoin:round; stroke-width:4; stroke-opacity:1; fill:none" points="264.287,1150.72 283.185,1150.72 "/>
<polyline clip-path="url(#clip830)" style="stroke:#000000; stroke-linecap:round; stroke-linejoin:round; stroke-width:4; stroke-opacity:1; fill:none" points="264.287,878.255 283.185,878.255 "/>
<polyline clip-path="url(#clip830)" style="stroke:#000000; stroke-linecap:round; stroke-linejoin:round; stroke-width:4; stroke-opacity:1; fill:none" points="264.287,605.792 283.185,605.792 "/>
<polyline clip-path="url(#clip830)" style="stroke:#000000; stroke-linecap:round; stroke-linejoin:round; stroke-width:4; stroke-opacity:1; fill:none" points="264.287,333.33 283.185,333.33 "/>
<polyline clip-path="url(#clip830)" style="stroke:#000000; stroke-linecap:round; stroke-linejoin:round; stroke-width:4; stroke-opacity:1; fill:none" points="264.287,60.8672 283.185,60.8672 "/>
<path clip-path="url(#clip830)" d="M216.343 1408.98 Q212.732 1408.98 210.903 1412.54 Q209.098 1416.08 209.098 1423.21 Q209.098 1430.32 210.903 1433.89 Q212.732 1437.43 216.343 1437.43 Q219.977 1437.43 221.783 1433.89 Q223.611 1430.32 223.611 1423.21 Q223.611 1416.08 221.783 1412.54 Q219.977 1408.98 216.343 1408.98 M216.343 1405.27 Q222.153 1405.27 225.209 1409.88 Q228.287 1414.46 228.287 1423.21 Q228.287 1431.94 225.209 1436.55 Q222.153 1441.13 216.343 1441.13 Q210.533 1441.13 207.454 1436.55 Q204.399 1431.94 204.399 1423.21 Q204.399 1414.46 207.454 1409.88 Q210.533 1405.27 216.343 1405.27 Z" fill="#000000" fill-rule="nonzero" fill-opacity="1" /><path clip-path="url(#clip830)" d="M146.066 1133.44 L164.422 1133.44 L164.422 1137.37 L150.348 1137.37 L150.348 1145.84 Q151.366 1145.5 152.385 1145.34 Q153.403 1145.15 154.422 1145.15 Q160.209 1145.15 163.589 1148.32 Q166.968 1151.49 166.968 1156.91 Q166.968 1162.49 163.496 1165.59 Q160.024 1168.67 153.704 1168.67 Q151.528 1168.67 149.26 1168.3 Q147.015 1167.93 144.607 1167.19 L144.607 1162.49 Q146.691 1163.62 148.913 1164.18 Q151.135 1164.73 153.612 1164.73 Q157.616 1164.73 159.954 1162.63 Q162.292 1160.52 162.292 1156.91 Q162.292 1153.3 159.954 1151.19 Q157.616 1149.09 153.612 1149.09 Q151.737 1149.09 149.862 1149.5 Q148.01 1149.92 146.066 1150.8 L146.066 1133.44 Z" fill="#000000" fill-rule="nonzero" fill-opacity="1" /><path clip-path="url(#clip830)" d="M186.181 1136.52 Q182.57 1136.52 180.741 1140.08 Q178.936 1143.62 178.936 1150.75 Q178.936 1157.86 180.741 1161.42 Q182.57 1164.96 186.181 1164.96 Q189.815 1164.96 191.621 1161.42 Q193.45 1157.86 193.45 1150.75 Q193.45 1143.62 191.621 1140.08 Q189.815 1136.52 186.181 1136.52 M186.181 1132.81 Q191.991 1132.81 195.047 1137.42 Q198.125 1142 198.125 1150.75 Q198.125 1159.48 195.047 1164.09 Q191.991 1168.67 186.181 1168.67 Q180.371 1168.67 177.292 1164.09 Q174.237 1159.48 174.237 1150.75 Q174.237 1142 177.292 1137.42 Q180.371 1132.81 186.181 1132.81 Z" fill="#000000" fill-rule="nonzero" fill-opacity="1" /><path clip-path="url(#clip830)" d="M216.343 1136.52 Q212.732 1136.52 210.903 1140.08 Q209.098 1143.62 209.098 1150.75 Q209.098 1157.86 210.903 1161.42 Q212.732 1164.96 216.343 1164.96 Q219.977 1164.96 221.783 1161.42 Q223.611 1157.86 223.611 1150.75 Q223.611 1143.62 221.783 1140.08 Q219.977 1136.52 216.343 1136.52 M216.343 1132.81 Q222.153 1132.81 225.209 1137.42 Q228.287 1142 228.287 1150.75 Q228.287 1159.48 225.209 1164.09 Q222.153 1168.67 216.343 1168.67 Q210.533 1168.67 207.454 1164.09 Q204.399 1159.48 204.399 1150.75 Q204.399 1142 207.454 1137.42 Q210.533 1132.81 216.343 1132.81 Z" fill="#000000" fill-rule="nonzero" fill-opacity="1" /><path clip-path="url(#clip830)" d="M116.668 891.6 L124.306 891.6 L124.306 865.234 L115.996 866.901 L115.996 862.641 L124.26 860.975 L128.936 860.975 L128.936 891.6 L136.575 891.6 L136.575 895.535 L116.668 895.535 L116.668 891.6 Z" fill="#000000" fill-rule="nonzero" fill-opacity="1" /><path clip-path="url(#clip830)" d="M156.019 864.053 Q152.408 864.053 150.579 867.618 Q148.774 871.16 148.774 878.29 Q148.774 885.396 150.579 888.961 Q152.408 892.502 156.019 892.502 Q159.653 892.502 161.459 888.961 Q163.288 885.396 163.288 878.29 Q163.288 871.16 161.459 867.618 Q159.653 864.053 156.019 864.053 M156.019 860.35 Q161.829 860.35 164.885 864.956 Q167.964 869.54 167.964 878.29 Q167.964 887.016 164.885 891.623 Q161.829 896.206 156.019 896.206 Q150.209 896.206 147.13 891.623 Q144.075 887.016 144.075 878.29 Q144.075 869.54 147.13 864.956 Q150.209 860.35 156.019 860.35 Z" fill="#000000" fill-rule="nonzero" fill-opacity="1" /><path clip-path="url(#clip830)" d="M186.181 864.053 Q182.57 864.053 180.741 867.618 Q178.936 871.16 178.936 878.29 Q178.936 885.396 180.741 888.961 Q182.57 892.502 186.181 892.502 Q189.815 892.502 191.621 888.961 Q193.45 885.396 193.45 878.29 Q193.45 871.16 191.621 867.618 Q189.815 864.053 186.181 864.053 M186.181 860.35 Q191.991 860.35 195.047 864.956 Q198.125 869.54 198.125 878.29 Q198.125 887.016 195.047 891.623 Q191.991 896.206 186.181 896.206 Q180.371 896.206 177.292 891.623 Q174.237 887.016 174.237 878.29 Q174.237 869.54 177.292 864.956 Q180.371 860.35 186.181 860.35 Z" fill="#000000" fill-rule="nonzero" fill-opacity="1" /><path clip-path="url(#clip830)" d="M216.343 864.053 Q212.732 864.053 210.903 867.618 Q209.098 871.16 209.098 878.29 Q209.098 885.396 210.903 888.961 Q212.732 892.502 216.343 892.502 Q219.977 892.502 221.783 888.961 Q223.611 885.396 223.611 878.29 Q223.611 871.16 221.783 867.618 Q219.977 864.053 216.343 864.053 M216.343 860.35 Q222.153 860.35 225.209 864.956 Q228.287 869.54 228.287 878.29 Q228.287 887.016 225.209 891.623 Q222.153 896.206 216.343 896.206 Q210.533 896.206 207.454 891.623 Q204.399 887.016 204.399 878.29 Q204.399 869.54 207.454 864.956 Q210.533 860.35 216.343 860.35 Z" fill="#000000" fill-rule="nonzero" fill-opacity="1" /><path clip-path="url(#clip830)" d="M116.668 619.137 L124.306 619.137 L124.306 592.772 L115.996 594.438 L115.996 590.179 L124.26 588.512 L128.936 588.512 L128.936 619.137 L136.575 619.137 L136.575 623.072 L116.668 623.072 L116.668 619.137 Z" fill="#000000" fill-rule="nonzero" fill-opacity="1" /><path clip-path="url(#clip830)" d="M146.066 588.512 L164.422 588.512 L164.422 592.447 L150.348 592.447 L150.348 600.92 Q151.366 600.572 152.385 600.41 Q153.403 600.225 154.422 600.225 Q160.209 600.225 163.589 603.396 Q166.968 606.568 166.968 611.984 Q166.968 617.563 163.496 620.665 Q160.024 623.744 153.704 623.744 Q151.528 623.744 149.26 623.373 Q147.015 623.003 144.607 622.262 L144.607 617.563 Q146.691 618.697 148.913 619.253 Q151.135 619.808 153.612 619.808 Q157.616 619.808 159.954 617.702 Q162.292 615.595 162.292 611.984 Q162.292 608.373 159.954 606.267 Q157.616 604.16 153.612 604.16 Q151.737 604.16 149.862 604.577 Q148.01 604.994 146.066 605.873 L146.066 588.512 Z" fill="#000000" fill-rule="nonzero" fill-opacity="1" /><path clip-path="url(#clip830)" d="M186.181 591.591 Q182.57 591.591 180.741 595.156 Q178.936 598.697 178.936 605.827 Q178.936 612.933 180.741 616.498 Q182.57 620.04 186.181 620.04 Q189.815 620.04 191.621 616.498 Q193.45 612.933 193.45 605.827 Q193.45 598.697 191.621 595.156 Q189.815 591.591 186.181 591.591 M186.181 587.887 Q191.991 587.887 195.047 592.494 Q198.125 597.077 198.125 605.827 Q198.125 614.554 195.047 619.16 Q191.991 623.744 186.181 623.744 Q180.371 623.744 177.292 619.16 Q174.237 614.554 174.237 605.827 Q174.237 597.077 177.292 592.494 Q180.371 587.887 186.181 587.887 Z" fill="#000000" fill-rule="nonzero" fill-opacity="1" /><path clip-path="url(#clip830)" d="M216.343 591.591 Q212.732 591.591 210.903 595.156 Q209.098 598.697 209.098 605.827 Q209.098 612.933 210.903 616.498 Q212.732 620.04 216.343 620.04 Q219.977 620.04 221.783 616.498 Q223.611 612.933 223.611 605.827 Q223.611 598.697 221.783 595.156 Q219.977 591.591 216.343 591.591 M216.343 587.887 Q222.153 587.887 225.209 592.494 Q228.287 597.077 228.287 605.827 Q228.287 614.554 225.209 619.16 Q222.153 623.744 216.343 623.744 Q210.533 623.744 207.454 619.16 Q204.399 614.554 204.399 605.827 Q204.399 597.077 207.454 592.494 Q210.533 587.887 216.343 587.887 Z" fill="#000000" fill-rule="nonzero" fill-opacity="1" /><path clip-path="url(#clip830)" d="M119.885 346.675 L136.204 346.675 L136.204 350.61 L114.26 350.61 L114.26 346.675 Q116.922 343.92 121.505 339.29 Q126.112 334.638 127.292 333.295 Q129.538 330.772 130.417 329.036 Q131.32 327.277 131.32 325.587 Q131.32 322.832 129.376 321.096 Q127.455 319.36 124.353 319.36 Q122.154 319.36 119.7 320.124 Q117.269 320.888 114.492 322.439 L114.492 317.716 Q117.316 316.582 119.769 316.003 Q122.223 315.425 124.26 315.425 Q129.63 315.425 132.825 318.11 Q136.019 320.795 136.019 325.286 Q136.019 327.415 135.209 329.337 Q134.422 331.235 132.316 333.827 Q131.737 334.499 128.635 337.716 Q125.533 340.911 119.885 346.675 Z" fill="#000000" fill-rule="nonzero" fill-opacity="1" /><path clip-path="url(#clip830)" d="M156.019 319.128 Q152.408 319.128 150.579 322.693 Q148.774 326.235 148.774 333.364 Q148.774 340.471 150.579 344.036 Q152.408 347.577 156.019 347.577 Q159.653 347.577 161.459 344.036 Q163.288 340.471 163.288 333.364 Q163.288 326.235 161.459 322.693 Q159.653 319.128 156.019 319.128 M156.019 315.425 Q161.829 315.425 164.885 320.031 Q167.964 324.615 167.964 333.364 Q167.964 342.091 164.885 346.698 Q161.829 351.281 156.019 351.281 Q150.209 351.281 147.13 346.698 Q144.075 342.091 144.075 333.364 Q144.075 324.615 147.13 320.031 Q150.209 315.425 156.019 315.425 Z" fill="#000000" fill-rule="nonzero" fill-opacity="1" /><path clip-path="url(#clip830)" d="M186.181 319.128 Q182.57 319.128 180.741 322.693 Q178.936 326.235 178.936 333.364 Q178.936 340.471 180.741 344.036 Q182.57 347.577 186.181 347.577 Q189.815 347.577 191.621 344.036 Q193.45 340.471 193.45 333.364 Q193.45 326.235 191.621 322.693 Q189.815 319.128 186.181 319.128 M186.181 315.425 Q191.991 315.425 195.047 320.031 Q198.125 324.615 198.125 333.364 Q198.125 342.091 195.047 346.698 Q191.991 351.281 186.181 351.281 Q180.371 351.281 177.292 346.698 Q174.237 342.091 174.237 333.364 Q174.237 324.615 177.292 320.031 Q180.371 315.425 186.181 315.425 Z" fill="#000000" fill-rule="nonzero" fill-opacity="1" /><path clip-path="url(#clip830)" d="M216.343 319.128 Q212.732 319.128 210.903 322.693 Q209.098 326.235 209.098 333.364 Q209.098 340.471 210.903 344.036 Q212.732 347.577 216.343 347.577 Q219.977 347.577 221.783 344.036 Q223.611 340.471 223.611 333.364 Q223.611 326.235 221.783 322.693 Q219.977 319.128 216.343 319.128 M216.343 315.425 Q222.153 315.425 225.209 320.031 Q228.287 324.615 228.287 333.364 Q228.287 342.091 225.209 346.698 Q222.153 351.281 216.343 351.281 Q210.533 351.281 207.454 346.698 Q204.399 342.091 204.399 333.364 Q204.399 324.615 207.454 320.031 Q210.533 315.425 216.343 315.425 Z" fill="#000000" fill-rule="nonzero" fill-opacity="1" /><path clip-path="url(#clip830)" d="M119.885 74.2121 L136.204 74.2121 L136.204 78.1472 L114.26 78.1472 L114.26 74.2121 Q116.922 71.4574 121.505 66.8278 Q126.112 62.1751 127.292 60.8325 Q129.538 58.3094 130.417 56.5733 Q131.32 54.814 131.32 53.1242 Q131.32 50.3696 129.376 48.6335 Q127.455 46.8974 124.353 46.8974 Q122.154 46.8974 119.7 47.6613 Q117.269 48.4252 114.492 49.9761 L114.492 45.2539 Q117.316 44.1196 119.769 43.5409 Q122.223 42.9622 124.26 42.9622 Q129.63 42.9622 132.825 45.6474 Q136.019 48.3326 136.019 52.8233 Q136.019 54.9529 135.209 56.8742 Q134.422 58.7723 132.316 61.3649 Q131.737 62.0362 128.635 65.2538 Q125.533 68.4482 119.885 74.2121 Z" fill="#000000" fill-rule="nonzero" fill-opacity="1" /><path clip-path="url(#clip830)" d="M146.066 43.5872 L164.422 43.5872 L164.422 47.5224 L150.348 47.5224 L150.348 55.9946 Q151.366 55.6473 152.385 55.4853 Q153.403 55.3001 154.422 55.3001 Q160.209 55.3001 163.589 58.4714 Q166.968 61.6427 166.968 67.0593 Q166.968 72.638 163.496 75.7398 Q160.024 78.8185 153.704 78.8185 Q151.528 78.8185 149.26 78.4481 Q147.015 78.0778 144.607 77.337 L144.607 72.638 Q146.691 73.7722 148.913 74.3278 Q151.135 74.8833 153.612 74.8833 Q157.616 74.8833 159.954 72.7769 Q162.292 70.6704 162.292 67.0593 Q162.292 63.4482 159.954 61.3418 Q157.616 59.2353 153.612 59.2353 Q151.737 59.2353 149.862 59.6519 Q148.01 60.0686 146.066 60.9482 L146.066 43.5872 Z" fill="#000000" fill-rule="nonzero" fill-opacity="1" /><path clip-path="url(#clip830)" d="M186.181 46.6659 Q182.57 46.6659 180.741 50.2307 Q178.936 53.7724 178.936 60.9019 Q178.936 68.0084 180.741 71.5732 Q182.57 75.1148 186.181 75.1148 Q189.815 75.1148 191.621 71.5732 Q193.45 68.0084 193.45 60.9019 Q193.45 53.7724 191.621 50.2307 Q189.815 46.6659 186.181 46.6659 M186.181 42.9622 Q191.991 42.9622 195.047 47.5687 Q198.125 52.152 198.125 60.9019 Q198.125 69.6287 195.047 74.2352 Q191.991 78.8185 186.181 78.8185 Q180.371 78.8185 177.292 74.2352 Q174.237 69.6287 174.237 60.9019 Q174.237 52.152 177.292 47.5687 Q180.371 42.9622 186.181 42.9622 Z" fill="#000000" fill-rule="nonzero" fill-opacity="1" /><path clip-path="url(#clip830)" d="M216.343 46.6659 Q212.732 46.6659 210.903 50.2307 Q209.098 53.7724 209.098 60.9019 Q209.098 68.0084 210.903 71.5732 Q212.732 75.1148 216.343 75.1148 Q219.977 75.1148 221.783 71.5732 Q223.611 68.0084 223.611 60.9019 Q223.611 53.7724 221.783 50.2307 Q219.977 46.6659 216.343 46.6659 M216.343 42.9622 Q222.153 42.9622 225.209 47.5687 Q228.287 52.152 228.287 60.9019 Q228.287 69.6287 225.209 74.2352 Q222.153 78.8185 216.343 78.8185 Q210.533 78.8185 207.454 74.2352 Q204.399 69.6287 204.399 60.9019 Q204.399 52.152 207.454 47.5687 Q210.533 42.9622 216.343 42.9622 Z" fill="#000000" fill-rule="nonzero" fill-opacity="1" /><path clip-path="url(#clip830)" d="M16.4842 899.415 L16.4842 872.106 L21.895 872.106 L21.895 892.986 L35.8996 892.986 L35.8996 874.144 L41.3104 874.144 L41.3104 892.986 L64.0042 892.986 L64.0042 899.415 L16.4842 899.415 Z" fill="#000000" fill-rule="nonzero" fill-opacity="1" /><path clip-path="url(#clip830)" d="M33.8307 846.262 Q33.2578 847.248 33.0032 848.426 Q32.7167 849.572 32.7167 850.972 Q32.7167 855.938 35.9632 858.611 Q39.1779 861.253 45.2253 861.253 L64.0042 861.253 L64.0042 867.141 L28.3562 867.141 L28.3562 861.253 L33.8944 861.253 Q30.6479 859.407 29.0883 856.447 Q27.4968 853.487 27.4968 849.254 Q27.4968 848.649 27.5923 847.917 Q27.656 847.185 27.8151 846.294 L33.8307 846.262 Z" fill="#000000" fill-rule="nonzero" fill-opacity="1" /><path clip-path="url(#clip830)" d="M44.7161 811.059 L47.5806 811.059 L47.5806 837.986 Q53.6281 837.604 56.8109 834.358 Q59.9619 831.08 59.9619 825.255 Q59.9619 821.881 59.1344 818.73 Q58.3069 815.547 56.6518 812.428 L62.1899 812.428 Q63.5267 815.579 64.227 818.889 Q64.9272 822.199 64.9272 825.605 Q64.9272 834.135 59.9619 839.132 Q54.9967 844.097 46.5303 844.097 Q37.7774 844.097 32.6531 839.387 Q27.4968 834.644 27.4968 826.624 Q27.4968 819.43 32.1438 815.261 Q36.7589 811.059 44.7161 811.059 M42.9973 816.916 Q38.1912 816.979 35.3266 819.621 Q32.4621 822.231 32.4621 826.56 Q32.4621 831.461 35.2312 834.422 Q38.0002 837.35 43.0292 837.795 L42.9973 816.916 Z" fill="#000000" fill-rule="nonzero" fill-opacity="1" /><path clip-path="url(#clip830)" d="M46.212 797.946 Q52.6732 797.946 56.3653 795.304 Q60.0256 792.631 60.0256 787.984 Q60.0256 783.337 56.3653 780.663 Q52.6732 777.99 46.212 777.99 Q39.7508 777.99 36.0905 780.663 Q32.3984 783.337 32.3984 787.984 Q32.3984 792.631 36.0905 795.304 Q39.7508 797.946 46.212 797.946 M58.657 777.99 Q61.8398 779.836 63.3994 782.668 Q64.9272 785.469 64.9272 789.416 Q64.9272 795.877 59.771 799.951 Q54.6147 803.993 46.212 803.993 Q37.8093 803.993 32.6531 799.951 Q27.4968 795.877 27.4968 789.416 Q27.4968 785.469 29.0564 782.668 Q30.5842 779.836 33.7671 777.99 L28.3562 777.99 L28.3562 772.133 L77.5631 772.133 L77.5631 777.99 L58.657 777.99 Z" fill="#000000" fill-rule="nonzero" fill-opacity="1" /><path clip-path="url(#clip830)" d="M49.9359 760.675 L28.3562 760.675 L28.3562 754.818 L49.7131 754.818 Q54.7739 754.818 57.3202 752.845 Q59.8346 750.872 59.8346 746.925 Q59.8346 742.182 56.8109 739.445 Q53.7872 736.676 48.5673 736.676 L28.3562 736.676 L28.3562 730.82 L64.0042 730.82 L64.0042 736.676 L58.5296 736.676 Q61.7762 738.809 63.3676 741.641 Q64.9272 744.442 64.9272 748.166 Q64.9272 754.309 61.1078 757.492 Q57.2883 760.675 49.9359 760.675 M27.4968 745.938 L27.4968 745.938 Z" fill="#000000" fill-rule="nonzero" fill-opacity="1" /><path clip-path="url(#clip830)" d="M44.7161 688.265 L47.5806 688.265 L47.5806 715.192 Q53.6281 714.81 56.8109 711.563 Q59.9619 708.285 59.9619 702.46 Q59.9619 699.087 59.1344 695.936 Q58.3069 692.753 56.6518 689.634 L62.1899 689.634 Q63.5267 692.785 64.227 696.095 Q64.9272 699.405 64.9272 702.811 Q64.9272 711.341 59.9619 716.338 Q54.9967 721.303 46.5303 721.303 Q37.7774 721.303 32.6531 716.592 Q27.4968 711.85 27.4968 703.829 Q27.4968 696.636 32.1438 692.466 Q36.7589 688.265 44.7161 688.265 M42.9973 694.121 Q38.1912 694.185 35.3266 696.827 Q32.4621 699.437 32.4621 703.765 Q32.4621 708.667 35.2312 711.627 Q38.0002 714.555 43.0292 715.001 L42.9973 694.121 Z" fill="#000000" fill-rule="nonzero" fill-opacity="1" /><path clip-path="url(#clip830)" d="M42.4881 649.02 L64.0042 649.02 L64.0042 654.877 L42.679 654.877 Q37.6183 654.877 35.1038 656.85 Q32.5894 658.823 32.5894 662.77 Q32.5894 667.513 35.6131 670.25 Q38.6368 672.987 43.8567 672.987 L64.0042 672.987 L64.0042 678.875 L28.3562 678.875 L28.3562 672.987 L33.8944 672.987 Q30.6797 670.887 29.0883 668.054 Q27.4968 665.189 27.4968 661.465 Q27.4968 655.322 31.3163 652.171 Q35.1038 649.02 42.4881 649.02 Z" fill="#000000" fill-rule="nonzero" fill-opacity="1" /><path clip-path="url(#clip830)" d="M29.7248 611.685 L35.1993 611.685 Q33.8307 614.168 33.1623 616.683 Q32.4621 619.165 32.4621 621.711 Q32.4621 627.409 36.0905 630.56 Q39.6872 633.711 46.212 633.711 Q52.7369 633.711 56.3653 630.56 Q59.9619 627.409 59.9619 621.711 Q59.9619 619.165 59.2935 616.683 Q58.5933 614.168 57.2247 611.685 L62.6355 611.685 Q63.7814 614.136 64.3543 616.778 Q64.9272 619.388 64.9272 622.348 Q64.9272 630.401 59.8664 635.143 Q54.8057 639.886 46.212 639.886 Q37.491 639.886 32.4939 635.111 Q27.4968 630.305 27.4968 621.966 Q27.4968 619.261 28.0697 616.683 Q28.6108 614.104 29.7248 611.685 Z" fill="#000000" fill-rule="nonzero" fill-opacity="1" /><path clip-path="url(#clip830)" d="M67.3143 586.668 Q73.68 589.151 75.6216 591.506 Q77.5631 593.861 77.5631 597.808 L77.5631 602.487 L72.6615 602.487 L72.6615 599.05 Q72.6615 596.631 71.5157 595.294 Q70.3699 593.957 66.1048 592.334 L63.4312 591.283 L28.3562 605.702 L28.3562 599.495 L56.238 588.355 L28.3562 577.215 L28.3562 571.009 L67.3143 586.668 Z" fill="#000000" fill-rule="nonzero" fill-opacity="1" /><path clip-path="url(#clip832)" d="M379.157 521.329 L379.157 1423.18 L422.383 1423.18 L422.383 521.329 L379.157 521.329 L379.157 521.329  Z" fill="#009af9" fill-rule="evenodd" fill-opacity="1"/>
<polyline clip-path="url(#clip832)" style="stroke:#000000; stroke-linecap:round; stroke-linejoin:round; stroke-width:4; stroke-opacity:1; fill:none" points="379.157,521.329 379.157,1423.18 422.383,1423.18 422.383,521.329 379.157,521.329 "/>
<path clip-path="url(#clip832)" d="M422.383 47.2441 L422.383 1423.18 L465.609 1423.18 L465.609 47.2441 L422.383 47.2441 L422.383 47.2441  Z" fill="#009af9" fill-rule="evenodd" fill-opacity="1"/>
<polyline clip-path="url(#clip832)" style="stroke:#000000; stroke-linecap:round; stroke-linejoin:round; stroke-width:4; stroke-opacity:1; fill:none" points="422.383,47.2441 422.383,1423.18 465.609,1423.18 465.609,47.2441 422.383,47.2441 "/>
<path clip-path="url(#clip832)" d="M465.609 471.741 L465.609 1423.18 L508.836 1423.18 L508.836 471.741 L465.609 471.741 L465.609 471.741  Z" fill="#009af9" fill-rule="evenodd" fill-opacity="1"/>
<polyline clip-path="url(#clip832)" style="stroke:#000000; stroke-linecap:round; stroke-linejoin:round; stroke-width:4; stroke-opacity:1; fill:none" points="465.609,471.741 465.609,1423.18 508.836,1423.18 508.836,471.741 465.609,471.741 "/>
<path clip-path="url(#clip832)" d="M508.836 756.737 L508.836 1423.18 L552.062 1423.18 L552.062 756.737 L508.836 756.737 L508.836 756.737  Z" fill="#009af9" fill-rule="evenodd" fill-opacity="1"/>
<polyline clip-path="url(#clip832)" style="stroke:#000000; stroke-linecap:round; stroke-linejoin:round; stroke-width:4; stroke-opacity:1; fill:none" points="508.836,756.737 508.836,1423.18 552.062,1423.18 552.062,756.737 508.836,756.737 "/>
<path clip-path="url(#clip832)" d="M552.062 945.825 L552.062 1423.18 L595.288 1423.18 L595.288 945.825 L552.062 945.825 L552.062 945.825  Z" fill="#009af9" fill-rule="evenodd" fill-opacity="1"/>
<polyline clip-path="url(#clip832)" style="stroke:#000000; stroke-linecap:round; stroke-linejoin:round; stroke-width:4; stroke-opacity:1; fill:none" points="552.062,945.825 552.062,1423.18 595.288,1423.18 595.288,945.825 552.062,945.825 "/>
<path clip-path="url(#clip832)" d="M595.288 1102.22 L595.288 1423.18 L638.514 1423.18 L638.514 1102.22 L595.288 1102.22 L595.288 1102.22  Z" fill="#009af9" fill-rule="evenodd" fill-opacity="1"/>
<polyline clip-path="url(#clip832)" style="stroke:#000000; stroke-linecap:round; stroke-linejoin:round; stroke-width:4; stroke-opacity:1; fill:none" points="595.288,1102.22 595.288,1423.18 638.514,1423.18 638.514,1102.22 595.288,1102.22 "/>
<path clip-path="url(#clip832)" d="M638.514 1188.32 L638.514 1423.18 L681.741 1423.18 L681.741 1188.32 L638.514 1188.32 L638.514 1188.32  Z" fill="#009af9" fill-rule="evenodd" fill-opacity="1"/>
<polyline clip-path="url(#clip832)" style="stroke:#000000; stroke-linecap:round; stroke-linejoin:round; stroke-width:4; stroke-opacity:1; fill:none" points="638.514,1188.32 638.514,1423.18 681.741,1423.18 681.741,1188.32 638.514,1188.32 "/>
<path clip-path="url(#clip832)" d="M681.741 1254.25 L681.741 1423.18 L724.967 1423.18 L724.967 1254.25 L681.741 1254.25 L681.741 1254.25  Z" fill="#009af9" fill-rule="evenodd" fill-opacity="1"/>
<polyline clip-path="url(#clip832)" style="stroke:#000000; stroke-linecap:round; stroke-linejoin:round; stroke-width:4; stroke-opacity:1; fill:none" points="681.741,1254.25 681.741,1423.18 724.967,1423.18 724.967,1254.25 681.741,1254.25 "/>
<path clip-path="url(#clip832)" d="M724.967 1308.75 L724.967 1423.18 L768.193 1423.18 L768.193 1308.75 L724.967 1308.75 L724.967 1308.75  Z" fill="#009af9" fill-rule="evenodd" fill-opacity="1"/>
<polyline clip-path="url(#clip832)" style="stroke:#000000; stroke-linecap:round; stroke-linejoin:round; stroke-width:4; stroke-opacity:1; fill:none" points="724.967,1308.75 724.967,1423.18 768.193,1423.18 768.193,1308.75 724.967,1308.75 "/>
<path clip-path="url(#clip832)" d="M768.193 1352.34 L768.193 1423.18 L811.42 1423.18 L811.42 1352.34 L768.193 1352.34 L768.193 1352.34  Z" fill="#009af9" fill-rule="evenodd" fill-opacity="1"/>
<polyline clip-path="url(#clip832)" style="stroke:#000000; stroke-linecap:round; stroke-linejoin:round; stroke-width:4; stroke-opacity:1; fill:none" points="768.193,1352.34 768.193,1423.18 811.42,1423.18 811.42,1352.34 768.193,1352.34 "/>
<path clip-path="url(#clip832)" d="M811.42 1373.59 L811.42 1423.18 L854.646 1423.18 L854.646 1373.59 L811.42 1373.59 L811.42 1373.59  Z" fill="#009af9" fill-rule="evenodd" fill-opacity="1"/>
<polyline clip-path="url(#clip832)" style="stroke:#000000; stroke-linecap:round; stroke-linejoin:round; stroke-width:4; stroke-opacity:1; fill:none" points="811.42,1373.59 811.42,1423.18 854.646,1423.18 854.646,1373.59 811.42,1373.59 "/>
<path clip-path="url(#clip832)" d="M854.646 1385.04 L854.646 1423.18 L897.872 1423.18 L897.872 1385.04 L854.646 1385.04 L854.646 1385.04  Z" fill="#009af9" fill-rule="evenodd" fill-opacity="1"/>
<polyline clip-path="url(#clip832)" style="stroke:#000000; stroke-linecap:round; stroke-linejoin:round; stroke-width:4; stroke-opacity:1; fill:none" points="854.646,1385.04 854.646,1423.18 897.872,1423.18 897.872,1385.04 854.646,1385.04 "/>
<path clip-path="url(#clip832)" d="M897.872 1401.93 L897.872 1423.18 L941.098 1423.18 L941.098 1401.93 L897.872 1401.93 L897.872 1401.93  Z" fill="#009af9" fill-rule="evenodd" fill-opacity="1"/>
<polyline clip-path="url(#clip832)" style="stroke:#000000; stroke-linecap:round; stroke-linejoin:round; stroke-width:4; stroke-opacity:1; fill:none" points="897.872,1401.93 897.872,1423.18 941.098,1423.18 941.098,1401.93 897.872,1401.93 "/>
<path clip-path="url(#clip832)" d="M941.098 1410.1 L941.098 1423.18 L984.325 1423.18 L984.325 1410.1 L941.098 1410.1 L941.098 1410.1  Z" fill="#009af9" fill-rule="evenodd" fill-opacity="1"/>
<polyline clip-path="url(#clip832)" style="stroke:#000000; stroke-linecap:round; stroke-linejoin:round; stroke-width:4; stroke-opacity:1; fill:none" points="941.098,1410.1 941.098,1423.18 984.325,1423.18 984.325,1410.1 941.098,1410.1 "/>
<path clip-path="url(#clip832)" d="M984.325 1413.37 L984.325 1423.18 L1027.55 1423.18 L1027.55 1413.37 L984.325 1413.37 L984.325 1413.37  Z" fill="#009af9" fill-rule="evenodd" fill-opacity="1"/>
<polyline clip-path="url(#clip832)" style="stroke:#000000; stroke-linecap:round; stroke-linejoin:round; stroke-width:4; stroke-opacity:1; fill:none" points="984.325,1413.37 984.325,1423.18 1027.55,1423.18 1027.55,1413.37 984.325,1413.37 "/>
<path clip-path="url(#clip832)" d="M1027.55 1409.01 L1027.55 1423.18 L1070.78 1423.18 L1070.78 1409.01 L1027.55 1409.01 L1027.55 1409.01  Z" fill="#009af9" fill-rule="evenodd" fill-opacity="1"/>
<polyline clip-path="url(#clip832)" style="stroke:#000000; stroke-linecap:round; stroke-linejoin:round; stroke-width:4; stroke-opacity:1; fill:none" points="1027.55,1409.01 1027.55,1423.18 1070.78,1423.18 1070.78,1409.01 1027.55,1409.01 "/>
<path clip-path="url(#clip832)" d="M1070.78 1417.73 L1070.78 1423.18 L1114 1423.18 L1114 1417.73 L1070.78 1417.73 L1070.78 1417.73  Z" fill="#009af9" fill-rule="evenodd" fill-opacity="1"/>
<polyline clip-path="url(#clip832)" style="stroke:#000000; stroke-linecap:round; stroke-linejoin:round; stroke-width:4; stroke-opacity:1; fill:none" points="1070.78,1417.73 1070.78,1423.18 1114,1423.18 1114,1417.73 1070.78,1417.73 "/>
<path clip-path="url(#clip832)" d="M1114 1418.28 L1114 1423.18 L1157.23 1423.18 L1157.23 1418.28 L1114 1418.28 L1114 1418.28  Z" fill="#009af9" fill-rule="evenodd" fill-opacity="1"/>
<polyline clip-path="url(#clip832)" style="stroke:#000000; stroke-linecap:round; stroke-linejoin:round; stroke-width:4; stroke-opacity:1; fill:none" points="1114,1418.28 1114,1423.18 1157.23,1423.18 1157.23,1418.28 1114,1418.28 "/>
<path clip-path="url(#clip832)" d="M1157.23 1421.55 L1157.23 1423.18 L1200.46 1423.18 L1200.46 1421.55 L1157.23 1421.55 L1157.23 1421.55  Z" fill="#009af9" fill-rule="evenodd" fill-opacity="1"/>
<polyline clip-path="url(#clip832)" style="stroke:#000000; stroke-linecap:round; stroke-linejoin:round; stroke-width:4; stroke-opacity:1; fill:none" points="1157.23,1421.55 1157.23,1423.18 1200.46,1423.18 1200.46,1421.55 1157.23,1421.55 "/>
<path clip-path="url(#clip832)" d="M1200.46 1421.55 L1200.46 1423.18 L1243.68 1423.18 L1243.68 1421.55 L1200.46 1421.55 L1200.46 1421.55  Z" fill="#009af9" fill-rule="evenodd" fill-opacity="1"/>
<polyline clip-path="url(#clip832)" style="stroke:#000000; stroke-linecap:round; stroke-linejoin:round; stroke-width:4; stroke-opacity:1; fill:none" points="1200.46,1421.55 1200.46,1423.18 1243.68,1423.18 1243.68,1421.55 1200.46,1421.55 "/>
<path clip-path="url(#clip832)" d="M1243.68 1421.55 L1243.68 1423.18 L1286.91 1423.18 L1286.91 1421.55 L1243.68 1421.55 L1243.68 1421.55  Z" fill="#009af9" fill-rule="evenodd" fill-opacity="1"/>
<polyline clip-path="url(#clip832)" style="stroke:#000000; stroke-linecap:round; stroke-linejoin:round; stroke-width:4; stroke-opacity:1; fill:none" points="1243.68,1421.55 1243.68,1423.18 1286.91,1423.18 1286.91,1421.55 1243.68,1421.55 "/>
<path clip-path="url(#clip832)" d="M1286.91 1421 L1286.91 1423.18 L1330.13 1423.18 L1330.13 1421 L1286.91 1421 L1286.91 1421  Z" fill="#009af9" fill-rule="evenodd" fill-opacity="1"/>
<polyline clip-path="url(#clip832)" style="stroke:#000000; stroke-linecap:round; stroke-linejoin:round; stroke-width:4; stroke-opacity:1; fill:none" points="1286.91,1421 1286.91,1423.18 1330.13,1423.18 1330.13,1421 1286.91,1421 "/>
<path clip-path="url(#clip832)" d="M1330.13 1422.63 L1330.13 1423.18 L1373.36 1423.18 L1373.36 1422.63 L1330.13 1422.63 L1330.13 1422.63  Z" fill="#009af9" fill-rule="evenodd" fill-opacity="1"/>
<polyline clip-path="url(#clip832)" style="stroke:#000000; stroke-linecap:round; stroke-linejoin:round; stroke-width:4; stroke-opacity:1; fill:none" points="1330.13,1422.63 1330.13,1423.18 1373.36,1423.18 1373.36,1422.63 1330.13,1422.63 "/>
<path clip-path="url(#clip832)" d="M1373.36 1423.18 L1373.36 1423.18 L1416.59 1423.18 L1416.59 1423.18 L1373.36 1423.18 L1373.36 1423.18  Z" fill="#009af9" fill-rule="evenodd" fill-opacity="1"/>
<polyline clip-path="url(#clip832)" style="stroke:#000000; stroke-linecap:round; stroke-linejoin:round; stroke-width:4; stroke-opacity:1; fill:none" points="1373.36,1423.18 1373.36,1423.18 1416.59,1423.18 1373.36,1423.18 "/>
<path clip-path="url(#clip832)" d="M1416.59 1423.18 L1416.59 1423.18 L1459.81 1423.18 L1459.81 1423.18 L1416.59 1423.18 L1416.59 1423.18  Z" fill="#009af9" fill-rule="evenodd" fill-opacity="1"/>
<polyline clip-path="url(#clip832)" style="stroke:#000000; stroke-linecap:round; stroke-linejoin:round; stroke-width:4; stroke-opacity:1; fill:none" points="1416.59,1423.18 1416.59,1423.18 1459.81,1423.18 1416.59,1423.18 "/>
<path clip-path="url(#clip832)" d="M1459.81 1422.63 L1459.81 1423.18 L1503.04 1423.18 L1503.04 1422.63 L1459.81 1422.63 L1459.81 1422.63  Z" fill="#009af9" fill-rule="evenodd" fill-opacity="1"/>
<polyline clip-path="url(#clip832)" style="stroke:#000000; stroke-linecap:round; stroke-linejoin:round; stroke-width:4; stroke-opacity:1; fill:none" points="1459.81,1422.63 1459.81,1423.18 1503.04,1423.18 1503.04,1422.63 1459.81,1422.63 "/>
<path clip-path="url(#clip832)" d="M1503.04 1422.63 L1503.04 1423.18 L1546.27 1423.18 L1546.27 1422.63 L1503.04 1422.63 L1503.04 1422.63  Z" fill="#009af9" fill-rule="evenodd" fill-opacity="1"/>
<polyline clip-path="url(#clip832)" style="stroke:#000000; stroke-linecap:round; stroke-linejoin:round; stroke-width:4; stroke-opacity:1; fill:none" points="1503.04,1422.63 1503.04,1423.18 1546.27,1423.18 1546.27,1422.63 1503.04,1422.63 "/>
<path clip-path="url(#clip832)" d="M1546.27 1423.18 L1546.27 1423.18 L1589.49 1423.18 L1589.49 1423.18 L1546.27 1423.18 L1546.27 1423.18  Z" fill="#009af9" fill-rule="evenodd" fill-opacity="1"/>
<polyline clip-path="url(#clip832)" style="stroke:#000000; stroke-linecap:round; stroke-linejoin:round; stroke-width:4; stroke-opacity:1; fill:none" points="1546.27,1423.18 1546.27,1423.18 1589.49,1423.18 1546.27,1423.18 "/>
<path clip-path="url(#clip832)" d="M1589.49 1423.18 L1589.49 1423.18 L1632.72 1423.18 L1632.72 1423.18 L1589.49 1423.18 L1589.49 1423.18  Z" fill="#009af9" fill-rule="evenodd" fill-opacity="1"/>
<polyline clip-path="url(#clip832)" style="stroke:#000000; stroke-linecap:round; stroke-linejoin:round; stroke-width:4; stroke-opacity:1; fill:none" points="1589.49,1423.18 1589.49,1423.18 1632.72,1423.18 1589.49,1423.18 "/>
<path clip-path="url(#clip832)" d="M1632.72 1423.18 L1632.72 1423.18 L1675.94 1423.18 L1675.94 1423.18 L1632.72 1423.18 L1632.72 1423.18  Z" fill="#009af9" fill-rule="evenodd" fill-opacity="1"/>
<polyline clip-path="url(#clip832)" style="stroke:#000000; stroke-linecap:round; stroke-linejoin:round; stroke-width:4; stroke-opacity:1; fill:none" points="1632.72,1423.18 1632.72,1423.18 1675.94,1423.18 1632.72,1423.18 "/>
<path clip-path="url(#clip832)" d="M1675.94 1423.18 L1675.94 1423.18 L1719.17 1423.18 L1719.17 1423.18 L1675.94 1423.18 L1675.94 1423.18  Z" fill="#009af9" fill-rule="evenodd" fill-opacity="1"/>
<polyline clip-path="url(#clip832)" style="stroke:#000000; stroke-linecap:round; stroke-linejoin:round; stroke-width:4; stroke-opacity:1; fill:none" points="1675.94,1423.18 1675.94,1423.18 1719.17,1423.18 1675.94,1423.18 "/>
<path clip-path="url(#clip832)" d="M1719.17 1423.18 L1719.17 1423.18 L1762.4 1423.18 L1762.4 1423.18 L1719.17 1423.18 L1719.17 1423.18  Z" fill="#009af9" fill-rule="evenodd" fill-opacity="1"/>
<polyline clip-path="url(#clip832)" style="stroke:#000000; stroke-linecap:round; stroke-linejoin:round; stroke-width:4; stroke-opacity:1; fill:none" points="1719.17,1423.18 1719.17,1423.18 1762.4,1423.18 1719.17,1423.18 "/>
<path clip-path="url(#clip832)" d="M1762.4 1423.18 L1762.4 1423.18 L1805.62 1423.18 L1805.62 1423.18 L1762.4 1423.18 L1762.4 1423.18  Z" fill="#009af9" fill-rule="evenodd" fill-opacity="1"/>
<polyline clip-path="url(#clip832)" style="stroke:#000000; stroke-linecap:round; stroke-linejoin:round; stroke-width:4; stroke-opacity:1; fill:none" points="1762.4,1423.18 1762.4,1423.18 1805.62,1423.18 1762.4,1423.18 "/>
<path clip-path="url(#clip832)" d="M1805.62 1423.18 L1805.62 1423.18 L1848.85 1423.18 L1848.85 1423.18 L1805.62 1423.18 L1805.62 1423.18  Z" fill="#009af9" fill-rule="evenodd" fill-opacity="1"/>
<polyline clip-path="url(#clip832)" style="stroke:#000000; stroke-linecap:round; stroke-linejoin:round; stroke-width:4; stroke-opacity:1; fill:none" points="1805.62,1423.18 1805.62,1423.18 1848.85,1423.18 1805.62,1423.18 "/>
<path clip-path="url(#clip832)" d="M1848.85 1422.63 L1848.85 1423.18 L1892.08 1423.18 L1892.08 1422.63 L1848.85 1422.63 L1848.85 1422.63  Z" fill="#009af9" fill-rule="evenodd" fill-opacity="1"/>
<polyline clip-path="url(#clip832)" style="stroke:#000000; stroke-linecap:round; stroke-linejoin:round; stroke-width:4; stroke-opacity:1; fill:none" points="1848.85,1422.63 1848.85,1423.18 1892.08,1423.18 1892.08,1422.63 1848.85,1422.63 "/>
<path clip-path="url(#clip832)" d="M1892.08 1423.18 L1892.08 1423.18 L1935.3 1423.18 L1935.3 1423.18 L1892.08 1423.18 L1892.08 1423.18  Z" fill="#009af9" fill-rule="evenodd" fill-opacity="1"/>
<polyline clip-path="url(#clip832)" style="stroke:#000000; stroke-linecap:round; stroke-linejoin:round; stroke-width:4; stroke-opacity:1; fill:none" points="1892.08,1423.18 1892.08,1423.18 1935.3,1423.18 1892.08,1423.18 "/>
<path clip-path="url(#clip832)" d="M1935.3 1423.18 L1935.3 1423.18 L1978.53 1423.18 L1978.53 1423.18 L1935.3 1423.18 L1935.3 1423.18  Z" fill="#009af9" fill-rule="evenodd" fill-opacity="1"/>
<polyline clip-path="url(#clip832)" style="stroke:#000000; stroke-linecap:round; stroke-linejoin:round; stroke-width:4; stroke-opacity:1; fill:none" points="1935.3,1423.18 1935.3,1423.18 1978.53,1423.18 1935.3,1423.18 "/>
<path clip-path="url(#clip832)" d="M1978.53 1423.18 L1978.53 1423.18 L2021.76 1423.18 L2021.76 1423.18 L1978.53 1423.18 L1978.53 1423.18  Z" fill="#009af9" fill-rule="evenodd" fill-opacity="1"/>
<polyline clip-path="url(#clip832)" style="stroke:#000000; stroke-linecap:round; stroke-linejoin:round; stroke-width:4; stroke-opacity:1; fill:none" points="1978.53,1423.18 1978.53,1423.18 2021.76,1423.18 1978.53,1423.18 "/>
<path clip-path="url(#clip832)" d="M2021.76 1423.18 L2021.76 1423.18 L2064.98 1423.18 L2064.98 1423.18 L2021.76 1423.18 L2021.76 1423.18  Z" fill="#009af9" fill-rule="evenodd" fill-opacity="1"/>
<polyline clip-path="url(#clip832)" style="stroke:#000000; stroke-linecap:round; stroke-linejoin:round; stroke-width:4; stroke-opacity:1; fill:none" points="2021.76,1423.18 2021.76,1423.18 2064.98,1423.18 2021.76,1423.18 "/>
<path clip-path="url(#clip832)" d="M2064.98 1423.18 L2064.98 1423.18 L2108.21 1423.18 L2108.21 1423.18 L2064.98 1423.18 L2064.98 1423.18  Z" fill="#009af9" fill-rule="evenodd" fill-opacity="1"/>
<polyline clip-path="url(#clip832)" style="stroke:#000000; stroke-linecap:round; stroke-linejoin:round; stroke-width:4; stroke-opacity:1; fill:none" points="2064.98,1423.18 2064.98,1423.18 2108.21,1423.18 2064.98,1423.18 "/>
<path clip-path="url(#clip832)" d="M2108.21 1423.18 L2108.21 1423.18 L2151.43 1423.18 L2151.43 1423.18 L2108.21 1423.18 L2108.21 1423.18  Z" fill="#009af9" fill-rule="evenodd" fill-opacity="1"/>
<polyline clip-path="url(#clip832)" style="stroke:#000000; stroke-linecap:round; stroke-linejoin:round; stroke-width:4; stroke-opacity:1; fill:none" points="2108.21,1423.18 2108.21,1423.18 2151.43,1423.18 2108.21,1423.18 "/>
<path clip-path="url(#clip832)" d="M2151.43 1423.18 L2151.43 1423.18 L2194.66 1423.18 L2194.66 1423.18 L2151.43 1423.18 L2151.43 1423.18  Z" fill="#009af9" fill-rule="evenodd" fill-opacity="1"/>
<polyline clip-path="url(#clip832)" style="stroke:#000000; stroke-linecap:round; stroke-linejoin:round; stroke-width:4; stroke-opacity:1; fill:none" points="2151.43,1423.18 2151.43,1423.18 2194.66,1423.18 2151.43,1423.18 "/>
<path clip-path="url(#clip832)" d="M2194.66 1422.63 L2194.66 1423.18 L2237.89 1423.18 L2237.89 1422.63 L2194.66 1422.63 L2194.66 1422.63  Z" fill="#009af9" fill-rule="evenodd" fill-opacity="1"/>
<polyline clip-path="url(#clip832)" style="stroke:#000000; stroke-linecap:round; stroke-linejoin:round; stroke-width:4; stroke-opacity:1; fill:none" points="2194.66,1422.63 2194.66,1423.18 2237.89,1423.18 2237.89,1422.63 2194.66,1422.63 "/>
<circle clip-path="url(#clip832)" style="fill:#009af9; stroke:none; fill-opacity:0" cx="400.77" cy="521.329" r="2"/>
<circle clip-path="url(#clip832)" style="fill:#009af9; stroke:none; fill-opacity:0" cx="443.996" cy="47.2441" r="2"/>
<circle clip-path="url(#clip832)" style="fill:#009af9; stroke:none; fill-opacity:0" cx="487.222" cy="471.741" r="2"/>
<circle clip-path="url(#clip832)" style="fill:#009af9; stroke:none; fill-opacity:0" cx="530.449" cy="756.737" r="2"/>
<circle clip-path="url(#clip832)" style="fill:#009af9; stroke:none; fill-opacity:0" cx="573.675" cy="945.825" r="2"/>
<circle clip-path="url(#clip832)" style="fill:#009af9; stroke:none; fill-opacity:0" cx="616.901" cy="1102.22" r="2"/>
<circle clip-path="url(#clip832)" style="fill:#009af9; stroke:none; fill-opacity:0" cx="660.128" cy="1188.32" r="2"/>
<circle clip-path="url(#clip832)" style="fill:#009af9; stroke:none; fill-opacity:0" cx="703.354" cy="1254.25" r="2"/>
<circle clip-path="url(#clip832)" style="fill:#009af9; stroke:none; fill-opacity:0" cx="746.58" cy="1308.75" r="2"/>
<circle clip-path="url(#clip832)" style="fill:#009af9; stroke:none; fill-opacity:0" cx="789.806" cy="1352.34" r="2"/>
<circle clip-path="url(#clip832)" style="fill:#009af9; stroke:none; fill-opacity:0" cx="833.033" cy="1373.59" r="2"/>
<circle clip-path="url(#clip832)" style="fill:#009af9; stroke:none; fill-opacity:0" cx="876.259" cy="1385.04" r="2"/>
<circle clip-path="url(#clip832)" style="fill:#009af9; stroke:none; fill-opacity:0" cx="919.485" cy="1401.93" r="2"/>
<circle clip-path="url(#clip832)" style="fill:#009af9; stroke:none; fill-opacity:0" cx="962.711" cy="1410.1" r="2"/>
<circle clip-path="url(#clip832)" style="fill:#009af9; stroke:none; fill-opacity:0" cx="1005.94" cy="1413.37" r="2"/>
<circle clip-path="url(#clip832)" style="fill:#009af9; stroke:none; fill-opacity:0" cx="1049.16" cy="1409.01" r="2"/>
<circle clip-path="url(#clip832)" style="fill:#009af9; stroke:none; fill-opacity:0" cx="1092.39" cy="1417.73" r="2"/>
<circle clip-path="url(#clip832)" style="fill:#009af9; stroke:none; fill-opacity:0" cx="1135.62" cy="1418.28" r="2"/>
<circle clip-path="url(#clip832)" style="fill:#009af9; stroke:none; fill-opacity:0" cx="1178.84" cy="1421.55" r="2"/>
<circle clip-path="url(#clip832)" style="fill:#009af9; stroke:none; fill-opacity:0" cx="1222.07" cy="1421.55" r="2"/>
<circle clip-path="url(#clip832)" style="fill:#009af9; stroke:none; fill-opacity:0" cx="1265.3" cy="1421.55" r="2"/>
<circle clip-path="url(#clip832)" style="fill:#009af9; stroke:none; fill-opacity:0" cx="1308.52" cy="1421" r="2"/>
<circle clip-path="url(#clip832)" style="fill:#009af9; stroke:none; fill-opacity:0" cx="1351.75" cy="1422.63" r="2"/>
<circle clip-path="url(#clip832)" style="fill:#009af9; stroke:none; fill-opacity:0" cx="1394.97" cy="1423.18" r="2"/>
<circle clip-path="url(#clip832)" style="fill:#009af9; stroke:none; fill-opacity:0" cx="1438.2" cy="1423.18" r="2"/>
<circle clip-path="url(#clip832)" style="fill:#009af9; stroke:none; fill-opacity:0" cx="1481.43" cy="1422.63" r="2"/>
<circle clip-path="url(#clip832)" style="fill:#009af9; stroke:none; fill-opacity:0" cx="1524.65" cy="1422.63" r="2"/>
<circle clip-path="url(#clip832)" style="fill:#009af9; stroke:none; fill-opacity:0" cx="1567.88" cy="1423.18" r="2"/>
<circle clip-path="url(#clip832)" style="fill:#009af9; stroke:none; fill-opacity:0" cx="1611.11" cy="1423.18" r="2"/>
<circle clip-path="url(#clip832)" style="fill:#009af9; stroke:none; fill-opacity:0" cx="1654.33" cy="1423.18" r="2"/>
<circle clip-path="url(#clip832)" style="fill:#009af9; stroke:none; fill-opacity:0" cx="1697.56" cy="1423.18" r="2"/>
<circle clip-path="url(#clip832)" style="fill:#009af9; stroke:none; fill-opacity:0" cx="1740.78" cy="1423.18" r="2"/>
<circle clip-path="url(#clip832)" style="fill:#009af9; stroke:none; fill-opacity:0" cx="1784.01" cy="1423.18" r="2"/>
<circle clip-path="url(#clip832)" style="fill:#009af9; stroke:none; fill-opacity:0" cx="1827.24" cy="1423.18" r="2"/>
<circle clip-path="url(#clip832)" style="fill:#009af9; stroke:none; fill-opacity:0" cx="1870.46" cy="1422.63" r="2"/>
<circle clip-path="url(#clip832)" style="fill:#009af9; stroke:none; fill-opacity:0" cx="1913.69" cy="1423.18" r="2"/>
<circle clip-path="url(#clip832)" style="fill:#009af9; stroke:none; fill-opacity:0" cx="1956.92" cy="1423.18" r="2"/>
<circle clip-path="url(#clip832)" style="fill:#009af9; stroke:none; fill-opacity:0" cx="2000.14" cy="1423.18" r="2"/>
<circle clip-path="url(#clip832)" style="fill:#009af9; stroke:none; fill-opacity:0" cx="2043.37" cy="1423.18" r="2"/>
<circle clip-path="url(#clip832)" style="fill:#009af9; stroke:none; fill-opacity:0" cx="2086.59" cy="1423.18" r="2"/>
<circle clip-path="url(#clip832)" style="fill:#009af9; stroke:none; fill-opacity:0" cx="2129.82" cy="1423.18" r="2"/>
<circle clip-path="url(#clip832)" style="fill:#009af9; stroke:none; fill-opacity:0" cx="2173.05" cy="1423.18" r="2"/>
<circle clip-path="url(#clip832)" style="fill:#009af9; stroke:none; fill-opacity:0" cx="2216.27" cy="1422.63" r="2"/>
</svg>